<?xml version="1.0" encoding="utf-8"?>
<!-- Generator: Adobe Illustrator 22.1.0, SVG Export Plug-In . SVG Version: 6.00 Build 0)  -->
<svg version="1.1" id="Layer_1" xmlns="http://www.w3.org/2000/svg" xmlns:xlink="http://www.w3.org/1999/xlink" x="0px" y="0px"
	 viewBox="0 0 430 630" style="enable-background:new 0 0 430 630;" xml:space="preserve">
<style type="text/css">
	.st0{fill:#FFFFFF;stroke:#000000;stroke-width:1.5;stroke-miterlimit:10;}
	.st1{stroke:#000000;stroke-width:0.2827;stroke-miterlimit:10;}
	.st2{fill:none;stroke:#000000;stroke-width:0.2827;stroke-miterlimit:10;}
	.st3{fill:#FFFFFF;}
	.st4{fill:#FF0084;}
</style>
<g>
	<path class="st0" d="M400,615H30c-8.3,0-15-6.7-15-15V30c0-8.3,6.7-15,15-15h370c8.3,0,15,6.7,15,15v570
		C415,608.4,408.3,615,400,615z"/>
	<g>
		<g>
			<path d="M85.3,174c-6.6-3.7-11.7-9-15.3-15.9c-3.6-6.8-5.4-14.8-5.4-23.8V99.5c0-9,1.8-16.9,5.4-23.8c3.6-6.8,8.7-12.1,15.3-15.9
				c6.6-3.7,14.2-5.6,22.8-5.6s16.2,1.9,22.8,5.6c6.6,3.7,11.7,9,15.3,15.9c3.6,6.8,5.4,14.8,5.4,23.8v34.8c0,9-1.8,16.9-5.4,23.8
				c-3.6,6.8-8.7,12.1-15.3,15.9c-6.6,3.7-14.2,5.6-22.8,5.6S91.9,177.7,85.3,174z M120.9,157.8c3.7-2.2,6.5-5.2,8.5-9.2
				c2-3.9,3-8.5,3-13.8V98.9c0-5.2-1-9.8-3-13.8c-2-3.9-4.8-7-8.5-9.2s-7.9-3.2-12.8-3.2c-4.8,0-9.1,1.1-12.8,3.2
				c-3.7,2.2-6.5,5.2-8.5,9.2c-2,3.9-3,8.5-3,13.8v35.9c0,5.2,1,9.8,3,13.8c2,3.9,4.8,7,8.5,9.2s7.9,3.2,12.8,3.2
				C112.9,161.1,117.2,160,120.9,157.8z M107,144.3l9.8-12.4l46.2,35.9l-9.8,12.5L107,144.3z"/>
		</g>
	</g>
	<g>
		<path class="st1" d="M142.1,238.8c0,4.4-0.8,8.6-2.3,12.5c-1.8,4.7-4.5,8.9-7.9,12.4c-1.3,1.3-2.7,2.5-4.2,3.6
			c-1.7,1.2-3.5,2.3-5.3,3.1c-0.6,0.3-1.1,0.5-1.7,0.7c-3.7,1.5-7.6,2.2-11.8,2.2s-8.2-0.8-11.9-2.3c-0.5-0.2-1.1-0.4-1.6-0.7
			c-2.3-1-4.5-2.4-6.5-3.9c-1.1-0.9-2.1-1.8-3.1-2.8c-3.4-3.4-6.2-7.6-7.9-12.3c-1.5-3.9-2.3-8.1-2.3-12.5
			c0-19.1,14.9-34.6,33.3-34.6S142.1,219.7,142.1,238.8z"/>
		<path class="st1" d="M105.5,295.3c0,4.4-0.8,8.6-2.2,12.5c-2.7,7.4-7.9,13.6-14.4,17.5l-0.1,0.1c-4.9,2.9-10.5,4.6-16.5,4.6
			C53.9,330,39,314.5,39,295.4s14.9-34.6,33.3-34.6c4.8,0,9.4,1.1,13.5,3c1.7,0.8,3.3,1.7,4.9,2.8c1.7,1.2,3.3,2.5,4.7,3.9
			c1,1,1.8,2,2.7,3c2.7,3.4,4.8,7.4,6,11.7C105,288.3,105.5,291.8,105.5,295.3z"/>
		<path class="st1" d="M178.7,295.3c0,19.1-14.9,34.6-33.3,34.6c-6.5,0-12.6-1.9-17.7-5.3l0,0c-6.1-4-10.8-9.9-13.4-17
			c-1.4-3.8-2.2-7.9-2.2-12.3c0-3.3,0.4-6.4,1.3-9.4c1.2-4.5,3.3-8.7,6.1-12.2c0.9-1.1,1.8-2.2,2.8-3.2c1.4-1.5,3-2.8,4.7-3.9
			c1.5-1.1,3.2-2,4.9-2.8c4.1-1.9,8.7-3,13.5-3C163.8,260.7,178.7,276.2,178.7,295.3z"/>
		<path class="st1" d="M127.7,266.5v58c-6.1-4-10.8-9.9-13.4-17c0.5,8.9,2.3,18.3,5.4,27.7c2.2,6.4,4.9,12.4,8,17.9v0.9H89.4
			c3.3-5.7,6.2-12.1,8.5-18.9c3.1-9.3,4.9-18.6,5.4-27.5c-2.7,7.4-7.9,13.6-14.4,17.5v-58.7h38.8V266.5z"/>
		<path class="st2" d="M102,286.8c-5.8,5.9-10.5,19.6-13.1,37.5c-0.1,0.3-0.1,0.6-0.1,1c-4.9,2.9-10.5,4.6-16.5,4.6
			c-18.4,0-33.3-15.5-33.3-34.6s14.9-34.6,33.3-34.6c4.8,0,9.4,1.1,13.5,3c1.7,0.8,3.3,1.7,4.9,2.8h3.8c0.9,1.5,1.7,3,2.5,4.6
			c0.4,0.8,0.7,1.5,1.1,2.3C99.8,277.6,101.1,282.1,102,286.8z"/>
		<path class="st2" d="M103.3,307.8c-2.7,7.4-7.9,13.6-14.4,17.5l-0.1,0.1c0-0.3,0.1-0.7,0.1-1c2.6-17.9,7.4-31.6,13.1-37.5
			C103.3,293.3,103.7,300.3,103.3,307.8z"/>
		<path class="st2" d="M139.9,251.4c-1.8,4.7-4.5,8.9-7.9,12.4c-1.7,0.8-3.3,1.7-4.9,2.8h-3.9C127.4,259.6,133,254.3,139.9,251.4z"
			/>
		<path class="st2" d="M178.7,295.3c0,19.1-14.9,34.6-33.3,34.6c-6.5,0-12.6-1.9-17.7-5.3l0,0c0-0.1,0-0.1,0-0.1l0,0v-0.1
			c-0.1-0.5-0.2-1-0.2-1.5c-0.1-0.7-0.2-1.5-0.4-2.2c-0.1-0.6-0.2-1.3-0.3-1.9c0-0.2-0.1-0.3-0.1-0.5c-0.1-0.7-0.2-1.3-0.4-2
			c-0.1-0.6-0.3-1.3-0.4-1.9c-0.2-1.1-0.5-2.2-0.7-3.3c-0.1-0.5-0.2-0.9-0.3-1.4c-0.2-0.7-0.4-1.4-0.6-2.1c-0.1-0.3-0.2-0.7-0.3-1
			s-0.2-0.7-0.3-1s-0.2-0.7-0.3-1c-0.1-0.2-0.1-0.4-0.2-0.6c-0.1-0.3-0.2-0.7-0.3-1c-0.3-1-0.7-2-1-3c-0.1-0.3-0.2-0.6-0.3-0.9
			c-0.2-0.6-0.4-1.1-0.7-1.7c-0.2-0.5-0.4-1.1-0.7-1.6c0-0.1-0.1-0.1-0.1-0.2c-0.1-0.3-0.3-0.6-0.4-0.9c-0.1-0.1-0.1-0.2-0.2-0.3
			c-0.1-0.2-0.2-0.5-0.4-0.7c-0.1-0.3-0.3-0.5-0.4-0.8c-0.2-0.4-0.4-0.8-0.7-1.2c-0.1-0.1-0.2-0.3-0.2-0.4c-0.2-0.3-0.3-0.5-0.5-0.8
			c-0.6-1-1.3-1.9-2-2.7c0.9-5.1,2.3-9.9,4.1-14.2c0.4-0.8,0.7-1.7,1.1-2.5c0.8-1.6,1.6-3.2,2.5-4.7h3.9c1.5-1.1,3.2-2,4.9-2.8
			c4.1-1.9,8.7-3,13.5-3C163.8,260.7,178.7,276.2,178.7,295.3z"/>
		<path class="st2" d="M127.7,324.6L127.7,324.6L127.7,324.6c-6.1-4-10.8-9.9-13.4-17c-0.4-6.9,0-13.5,1.1-19.7
			c0.7,0.8,1.3,1.7,2,2.7c0.2,0.3,0.3,0.5,0.5,0.8c0.1,0.1,0.2,0.3,0.2,0.4c0.2,0.4,0.5,0.8,0.7,1.2c0.1,0.3,0.3,0.5,0.4,0.8
			c0.1,0.2,0.2,0.5,0.4,0.7c0.1,0.1,0.1,0.2,0.2,0.3c0.2,0.3,0.3,0.6,0.4,0.9c0,0.1,0.1,0.1,0.1,0.2c0.2,0.5,0.5,1,0.7,1.6
			c0.2,0.5,0.4,1.1,0.7,1.7c0.1,0.3,0.2,0.6,0.3,0.9c0.4,1,0.7,2,1,3c0.1,0.3,0.2,0.7,0.3,1c0.1,0.2,0.1,0.4,0.2,0.6
			c0.1,0.3,0.2,0.6,0.3,1c0.1,0.3,0.2,0.7,0.3,1s0.2,0.7,0.3,1c0.2,0.7,0.4,1.4,0.6,2.1c0.1,0.4,0.2,0.9,0.3,1.4
			c0.3,1.1,0.5,2.2,0.7,3.3c0.1,0.6,0.3,1.3,0.4,1.9s0.3,1.3,0.4,2c0,0.1,0.1,0.3,0.1,0.5c0.1,0.6,0.2,1.3,0.3,1.9
			c0.1,0.7,0.2,1.5,0.4,2.2c0.1,0.5,0.2,1,0.2,1.5L127.7,324.6L127.7,324.6C127.7,324.5,127.7,324.5,127.7,324.6z"/>
		<path class="st2" d="M94.5,266.5h-3.8c-1.5-1.1-3.2-2-4.9-2.8c-3.4-3.4-6.2-7.6-7.9-12.3C84.7,254.4,90.3,259.6,94.5,266.5z"/>
		<path class="st2" d="M127.7,324.6L127.7,324.6L127.7,324.6c-6.1-4-10.8-9.9-13.4-17c0.5,8.9,2.3,18.3,5.4,27.7
			c2.2,6.4,4.9,12.4,8,17.9v0.9H89.4c3.3-5.7,6.2-12.1,8.5-18.9c3.1-9.3,4.9-18.6,5.4-27.5c-2.7,7.4-7.9,13.6-14.4,17.5l-0.1,0.1
			c0-0.3,0.1-0.7,0.1-1c2.6-17.9,7.4-31.6,13.1-37.5c0.7-0.7,1.3-1.2,2-1.7c1.4-0.9,2.8-1.4,4.2-1.4c1.8,0,3.5,0.7,5.2,2.1
			c0.7,0.6,1.3,1.2,2,2s1.3,1.7,2,2.7c0.2,0.3,0.3,0.5,0.5,0.8c0.1,0.1,0.2,0.3,0.2,0.4c0.2,0.4,0.5,0.8,0.7,1.2
			c0.1,0.3,0.3,0.5,0.4,0.8c0.1,0.2,0.2,0.5,0.4,0.7c0.1,0.1,0.1,0.2,0.2,0.3c0.2,0.3,0.3,0.6,0.4,0.9c0,0.1,0.1,0.1,0.1,0.2
			c0.2,0.5,0.5,1,0.7,1.6c0.2,0.5,0.4,1.1,0.7,1.7c0.1,0.3,0.2,0.6,0.3,0.9c0.4,1,0.7,2,1,3c0.1,0.3,0.2,0.7,0.3,1
			c0.1,0.2,0.1,0.4,0.2,0.6c0.1,0.3,0.2,0.6,0.3,1c0.1,0.3,0.2,0.7,0.3,1s0.2,0.7,0.3,1c0.2,0.7,0.4,1.4,0.6,2.1
			c0.1,0.4,0.2,0.9,0.3,1.4c0.3,1.1,0.5,2.2,0.7,3.3c0.1,0.6,0.3,1.3,0.4,1.9s0.3,1.3,0.4,2c0,0.1,0.1,0.3,0.1,0.5
			c0.1,0.6,0.2,1.3,0.3,1.9c0.1,0.7,0.2,1.5,0.4,2.2c0.1,0.5,0.2,1,0.2,1.5L127.7,324.6L127.7,324.6
			C127.7,324.5,127.7,324.5,127.7,324.6z"/>
	</g>
	<g>
		<path class="st3" d="M393,520.2c0,25.1,0,50.1,0,75.4c-42.5,0-85,0-127.5,0c2.5-3.4,5-6.9,7.6-10.3c0.6,0.5,1.2,1.1,1.8,1.6
			c3.4,2.5,6.8,4.9,10.9,7.9c3.8-11,10.4-12.8,19.2-5.8c2-4.8,3.6-8.8,5.3-12.8c4.1,0.5,7.8,1,12.7,1.6c-3.9-5.4-6.8-10-10.2-14.2
			c-2.5-3.2-3.1-5.9-1.5-10.2c7-18.6,14.4-36.9,26-53.1c-20.5-12.9-49.3-5.7-60.6,14.7c9.9,15.7,12.3,25.4,8.1,38.4
			c-4.6,14.1-3.8,12.8-17.1,13.5c-2.7,0.1-5.5,0.1-8.2-0.3c-1.2-0.2-3-1.1-3.3-2.1c-2.8-8.4-5.4-16.9-8.2-26c5,0,5.8-3.3,6.2-7.5
			c0.4-4.4,0.1-10.8,2.6-12.7c2.9-2.2,8.6-0.5,13.1-0.5c0.1-0.2,0.2-0.3,0.3-0.5c-5.8-1.5-11.6-3-17-4.3
			c-5.2,7.9,2.7,20.7-10.6,23.4c3,9,6,17.5,8.6,26.2c0.7,2.3,0.5,5.2-0.1,7.6c-1.8,6.7-4.1,13.3-6.4,20.7c4.4-2.2,7.9-4,11.7-5.8
			c2.9,3.7,5.5,7,8.2,10.4c-27.4,0-54.8,0-82.4,0c0-73.9,0-147.8,0-221.7c2.4,7.8,5.5,14.8,13.7,17.8c10.3,3.8,15.7,15.4,12.7,27.2
			c-4.1,0.3-8.9,0.2-8.6,6.6c0.3,7.1,2.2,14.4,0.8,21.1c-1.7,7.6,1.3,9.5,8,10.5c-2.6,4.1-4.7,7.5-7,11.1c0.8,1.1,1.7,2.2,3,3.9
			c2.8-3.7,5.2-6.8,7.8-10.3c10.1,10.5,20.1,21,30.5,31.9c7.1-10.8,13.8-21.1,20.7-31.6c10.7,9.6,21,19,31.5,28.2
			c1.4,1.2,3.9,2,5.6,1.5c12.4-3.3,24.4-1.9,35.8,3.8c4,2,6.7,1.6,9.7-1.2c4.6-4.4,9.4-8.6,15.2-14c-0.9,4.7-1,8-2.1,10.9
			c-1.8,4.6-2.8,9.9-8.5,11.6c-11.4,3.4-15.4,8.8-16.7,21.6c9.6,1.4,17.9-4.7,21.3-15.3c0.9-3,2.6-5.7,4-8.5
			c0.4,0.2,0.7,0.4,1.1,0.6c0,8.5,0,17,0,25.5c-11-0.7-14.2,3.2-11.8,14.2c-4.2,2.3-6.9,5.7-5.4,11c1.6,5.6,6,6.5,10.8,6.3
			c0.9,5.3,3.3,8.9,8.5,9.1c5.6,0.1,7.9-3.7,9-8.9c4.9,0.7,9.2,0,11-5.3s-0.6-9.2-5-11.7c3.2-10.9-0.1-14.8-11.6-14.3
			c0-10.6,0-21.1,0-31.7c0.4-0.2,0.8-0.5,1.2-0.7C372.5,506.8,376,521.1,393,520.2z M264.5,468.8c-5.8,9-11.4,17.4-16.7,26.1
			c-0.6,1,0.5,3.3,0.8,4.9c0.5-0.1,1-0.2,1.5-0.3c4.6-7,9.2-13.9,14-21.2c7.9,7.1,15.3,13.7,22.8,20.3c2.3-1.5,4.1-2.6,6.2-4
			C283.6,486.1,274.4,477.7,264.5,468.8z"/>
		<path class="st3" d="M182,370.5c0-25.1,0-50.1,0-75.4c42.5,0,85,0,127.5,0c-2.5,3.4-5.1,6.9-7.6,10.3c-0.6-0.5-1.2-1.1-1.8-1.6
			c-3.4-2.5-6.8-5-10.9-8c-3.8,11.1-10.5,12.8-19,6c-0.7,1.4-1.1,2-1.4,2.7c-4,9.4-4,9.4-13.7,8.6c-0.6-0.1-1.3,0.1-2.5,0.3
			c1.3,1.8,2,3.4,3.1,4.5c9.7,9.1,10.1,18.9,3.8,30.6c-7.4,13.9-13.7,28.3-20.5,42.6c22,12.9,48,3.5,59.3-15.8
			c-6.6-8.8-10.5-18.5-9.8-30c1.1-16.8,6-21.8,21.7-21.6c1.8,0,3.7-0.1,5.5,0.2c1.1,0.2,2.7,0.9,3,1.8c2.8,8.6,5.4,17.2,8.1,25.8
			c-10.7,4-3.6,15.2-8.8,21.8c-4.1-0.4-8.5-0.9-12.9-1.3c-0.1,0.5-0.2,0.9-0.3,1.4c5.8,1.4,11.7,2.8,17.9,4.3
			c0.7-5.7,1.8-10.2,1.6-14.7c-0.4-6.3,3.9-7.3,7.9-8.9c-2.8-8.2-5.8-15.9-8-23.9c-1-3.6-0.8-7.8,0-11.4c1.4-6.2,3.7-12.2,5.9-19
			c-4.3,2.1-7.9,3.8-11.7,5.7c-2.8-3.6-5.5-7-8.1-10.3c27.4,0,54.8,0,82.4,0c0,73.9,0,147.8,0,221.7c-2.5-9.9-7.7-17-17.9-19.1
			c-0.8-0.2-1.7-0.8-2.2-1.5c-5.6-7-8.5-14.8-6.7-24.3c4.4-0.4,9.3-0.1,9.1-6.6c-0.3-7.1-2.2-14.4-0.8-21.1c1.6-7.6-1-9.7-8-10.4
			c2.5-4.1,4.7-7.5,7-11.3c-1-0.9-2.1-2-3.5-3.3c-2.6,3.5-4.9,6.5-7.9,10.4c-10.3-10.8-20.2-21.3-30.4-32
			c-6.8,10.4-13.5,20.7-20.3,31.2c-10.9-9.8-21.2-19.2-31.7-28.3c-1.3-1.1-3.6-1.9-5.1-1.5c-13,3.6-25.4,1.8-37.3-4.2
			c-3-1.5-5.1-1.1-7.4,0.9c-5,4.6-10.1,9.1-15.2,13.8c-1.2-8.9,3.6-19.6,9.6-21.4c11.1-3.3,15.6-9.4,16.3-21.7
			c-9.7-1-17.8,5-21.1,15.1c-1,3-2.6,5.8-4,8.7c-0.4-0.2-0.8-0.3-1.2-0.5c0-8.5,0-16.9,0-25.4c11.1,0.4,14.3-3.4,11.7-14.1
			c4.1-2.3,6.9-5.6,5.5-11c-1.6-5.6-5.9-6.6-10.8-6.4c-1.1-5.4-3.5-9.2-9.1-9.1c-5.3,0.1-7.5,3.9-8.5,9c-4.9-1-9.2-0.1-11,5.1
			c-1.9,5.3,0.5,9.2,4.9,11.7c-3,11.1,0.3,15.1,11.7,14.3c0,10.6,0,21.2,0,31.8c-0.4,0.3-0.8,0.5-1.2,0.8
			C202.5,383.8,199,369.3,182,370.5z M281.8,396c9.7,8.7,19,17.1,28.7,25.8c5.8-8.9,11.3-17.2,16.4-25.6c0.8-1.2,0.1-3.4,0.1-5.2
			c-0.6-0.1-1.3-0.2-1.9-0.3c-4.7,7.1-9.4,14.2-14.2,21.6c-7.9-7.1-15.4-13.7-22.8-20.4C285.8,393.5,284,394.6,281.8,396z"/>
		<path class="st4" d="M182,370.5c17-1.1,20.5,13.3,25.6,25.7c0.4-0.3,0.8-0.5,1.2-0.8c0-10.6,0-21.2,0-31.8
			c-11.4,0.8-14.7-3.2-11.7-14.3c-4.4-2.6-6.8-6.5-4.9-11.7c1.8-5.2,6.1-6.1,11-5.1c1-5.1,3.2-8.9,8.5-9c5.6-0.1,8,3.7,9.1,9.1
			c4.9-0.2,9.2,0.8,10.8,6.4c1.5,5.3-1.4,8.6-5.5,11c2.6,10.8-0.6,14.6-11.7,14.1c0,8.5,0,16.9,0,25.4c0.4,0.2,0.8,0.3,1.2,0.5
			c1.3-2.9,3-5.7,4-8.7c3.3-10.1,11.4-16.1,21.1-15.1c-0.7,12.3-5.2,18.4-16.3,21.7c-6,1.8-10.9,12.5-9.6,21.4
			c5.1-4.6,10.1-9.2,15.2-13.8c2.3-2.1,4.4-2.4,7.4-0.9c11.9,6,24.3,7.8,37.3,4.2c1.5-0.4,3.8,0.4,5.1,1.5
			c10.5,9.2,20.8,18.6,31.7,28.3c6.8-10.5,13.6-20.8,20.3-31.2c10.2,10.7,20.1,21.2,30.4,32c2.9-3.9,5.3-7,7.9-10.4
			c1.4,1.3,2.5,2.4,3.5,3.3c-2.4,3.8-4.5,7.2-7,11.3c7,0.8,9.6,2.9,8,10.4c-1.4,6.6,0.6,14,0.8,21.1c0.2,6.4-4.7,6.1-9.1,6.6
			c-1.7,9.4,1.1,17.3,6.7,24.3c0.6,0.7,1.4,1.4,2.2,1.5c10.2,2.1,15.4,9.2,17.9,19.1c0,1.1,0,2.3,0,3.4c-17,1-20.5-13.2-25.6-25.7
			c-0.4,0.2-0.8,0.5-1.2,0.7c0,10.6,0,21.1,0,31.7c11.5-0.6,14.8,3.4,11.6,14.3c4.4,2.5,6.8,6.4,5,11.7s-6.1,6-11,5.3
			c-1,5.2-3.4,9.1-9,8.9c-5.3-0.1-7.6-3.8-8.5-9.1c-4.8,0.2-9.3-0.7-10.8-6.3c-1.5-5.3,1.2-8.7,5.4-11c-2.4-11,0.8-14.9,11.8-14.2
			c0-8.5,0-17,0-25.5c-0.4-0.2-0.7-0.4-1.1-0.6c-1.4,2.8-3.1,5.5-4,8.5c-3.4,10.6-11.7,16.7-21.3,15.3c1.3-12.8,5.3-18.2,16.7-21.6
			c5.8-1.7,6.8-7,8.5-11.6c1.1-2.9,1.3-6.2,2.1-10.9c-5.9,5.4-10.6,9.6-15.2,14c-3,2.9-5.7,3.2-9.7,1.2c-11.4-5.7-23.4-7.1-35.8-3.8
			c-1.7,0.4-4.2-0.3-5.6-1.5c-10.5-9.2-20.8-18.6-31.5-28.2c-6.9,10.5-13.6,20.9-20.7,31.6c-10.4-10.9-20.5-21.4-30.5-31.9
			c-2.6,3.5-5,6.6-7.8,10.3c-1.3-1.7-2.2-2.8-3-3.9c2.3-3.6,4.4-7,7-11.1c-6.8-0.9-9.7-2.8-8-10.5c1.4-6.6-0.5-14-0.8-21.1
			c-0.2-6.4,4.5-6.3,8.6-6.6c3-11.8-2.3-23.4-12.7-27.2c-8.3-3-11.4-10-13.7-17.8C182,372.8,182,371.7,182,370.5z M359.5,468
			L359.5,468c3.1,0,6.2,0.2,9.3-0.1c1-0.1,1.9-1.2,2.9-1.9c-0.8-0.8-1.6-2.3-2.5-2.3c-6.3-0.2-12.7-0.2-19.1,0
			c-0.8,0-1.5,1.2-2.2,1.9c0.8,0.8,1.5,2.2,2.4,2.2C353.4,468.2,356.5,468,359.5,468z M214.5,435.6L214.5,435.6
			c2.9,0,5.8,0.2,8.7-0.1c1.1-0.1,2-1.5,3-2.3c-0.9-0.7-1.8-2-2.7-2c-5.8-0.2-11.6-0.2-17.5,0c-0.9,0-1.8,1.3-2.7,2
			c1,0.8,2,2.1,3.1,2.2C209.1,435.8,211.8,435.6,214.5,435.6z M360.4,459.5c2.9,0,5.8,0.2,8.7-0.1c0.9-0.1,1.7-1.4,2.6-2.2
			c-0.9-0.7-1.8-2-2.7-2c-5.8-0.2-11.6-0.2-17.5,0c-1,0-1.9,1.2-2.8,1.9c1,0.8,1.9,2.2,2.9,2.4C354.6,459.8,357.5,459.5,360.4,459.5
			z M214.3,444.3L214.3,444.3c2.9,0,5.8,0.2,8.7-0.1c0.9-0.1,1.7-1.5,2.5-2.3c-0.8-0.6-1.5-1.8-2.3-1.8c-5.8-0.2-11.6-0.2-17.5,0
			c-0.8,0-1.6,1.4-2.4,2.2c0.9,0.7,1.8,1.9,2.8,2C208.8,444.6,211.6,444.3,214.3,444.3z M360.1,450.7L360.1,450.7
			c2.9,0,5.8,0.2,8.7-0.1c1-0.1,1.9-1.2,2.9-1.9c-0.8-0.8-1.6-2.3-2.4-2.4c-5.8-0.2-11.6-0.2-17.5,0c-0.8,0-1.6,1.6-2.3,2.5
			c0.8,0.6,1.6,1.6,2.5,1.7C354.6,450.8,357.4,450.7,360.1,450.7z M215.5,422.7L215.5,422.7c-3.1,0-6.2-0.2-9.2,0.1
			c-1,0.1-1.9,1.2-2.9,1.8c0.8,0.8,1.6,2.3,2.4,2.4c6.3,0.2,12.7,0.1,19-0.1c0.8,0,1.6-1.5,2.3-2.4c-0.8-0.6-1.6-1.7-2.4-1.7
			C221.6,422.6,218.6,422.7,215.5,422.7z M361.1,437.8c-2.7,0-5.5-0.2-8.2,0.1c-0.9,0.1-1.7,1.4-2.5,2.1c0.9,0.7,1.7,2.1,2.7,2.1
			c5.4,0.2,10.9,0.1,16.3,0c0.8,0,1.5-1.2,2.3-1.9c-0.8-0.8-1.5-2.2-2.4-2.3C366.6,437.7,363.8,437.8,361.1,437.8z M213.9,452.8
			c2.7,0,5.5,0.2,8.2-0.1c0.9-0.1,1.7-1.4,2.5-2.2c-0.7-0.7-1.4-2-2.1-2.1c-5.6-0.2-11.3-0.2-16.9,0c-0.8,0-1.5,1.3-2.3,1.9
			c0.8,0.8,1.5,2.2,2.4,2.3C208.4,453,211.1,452.8,213.9,452.8z M218.6,345.1c-3.1-2.3-5.3-5.1-6.8-4.8c-1.9,0.4-3.4,3.3-5,5.2
			c1.7,1.6,3.3,4.3,5.1,4.4C213.7,350,215.6,347.3,218.6,345.1z M370.2,545.8c-3-2.4-4.8-5-6.6-4.9c-1.8,0.1-3.5,2.7-5.3,4.2
			c1.6,1.9,3,4.8,4.9,5.3C364.8,550.8,367,548,370.2,545.8z M287.6,439.8c-1.8,2.5-3.8,4.1-3.7,5.4c0.1,1.4,2.2,3.7,3.5,3.7
			s3.4-2.1,3.6-3.6C291.2,444,289.3,442.3,287.6,439.8z M274.5,427.8c-2.8-1.7-4.4-3.4-5.9-3.3c-1.2,0.1-3.4,2.6-3.2,3.5
			c0.4,1.6,2.2,3.6,3.6,3.8C270.3,432,271.8,429.8,274.5,427.8z M311.6,462.6c-2.6-1.9-4.1-3.9-5.4-3.7c-1.4,0.1-2.6,2.3-3.9,3.5
			c1.2,1.3,2.4,3.5,3.7,3.8C307.4,466.3,308.9,464.3,311.6,462.6z"/>
		<path class="st4" d="M310.6,295.1c2.6,3.4,5.3,6.7,8.1,10.3c3.8-1.8,7.3-3.6,11.7-5.7c-2.2,6.9-4.5,12.8-5.9,19
			c-0.8,3.6-1,7.9,0,11.4c2.2,8,5.2,15.8,8,23.9c-4.1,1.6-8.3,2.6-7.9,8.9c0.3,4.5-0.9,9-1.6,14.7c-6.3-1.5-12.1-2.9-17.9-4.3
			c0.1-0.5,0.2-0.9,0.3-1.4c4.4,0.4,8.7,0.9,12.9,1.3c5.2-6.5-1.9-17.7,8.8-21.8c-2.7-8.6-5.3-17.2-8.1-25.8c-0.3-0.9-1.9-1.6-3-1.8
			c-1.8-0.3-3.6-0.2-5.5-0.2c-15.8-0.1-20.7,4.8-21.7,21.6c-0.7,11.5,3.1,21.2,9.8,30c-11.3,19.4-37.4,28.7-59.3,15.8
			c6.8-14.3,13.1-28.8,20.5-42.6c6.2-11.6,5.9-21.5-3.8-30.6c-1.2-1.1-1.9-2.7-3.1-4.5c1.2-0.1,1.8-0.3,2.5-0.3
			c9.6,0.8,9.6,0.8,13.7-8.6c0.3-0.7,0.7-1.3,1.4-2.7c8.6,6.8,15.3,5,19-6c4.1,3,7.5,5.5,10.9,8c0.6,0.5,1.2,1.1,1.8,1.6
			c2.5-3.4,5.1-6.9,7.6-10.3C309.8,295.1,310.2,295.1,310.6,295.1z"/>
		<path class="st4" d="M264.4,595.5c-2.6-3.4-5.3-6.7-8.2-10.4c-3.7,1.9-7.3,3.6-11.7,5.8c2.3-7.5,4.6-14,6.4-20.7
			c0.6-2.4,0.8-5.3,0.1-7.6c-2.6-8.7-5.6-17.2-8.6-26.2c13.3-2.7,5.4-15.5,10.6-23.4c5.4,1.4,11.2,2.9,17,4.3
			c-0.1,0.2-0.2,0.3-0.3,0.5c-4.5,0-10.2-1.7-13.1,0.5c-2.5,1.9-2.2,8.3-2.6,12.7c-0.4,4.1-1.3,7.5-6.2,7.5c2.8,9.1,5.4,17.6,8.2,26
			c0.3,1,2.1,2,3.3,2.1c2.7,0.4,5.5,0.4,8.2,0.3c13.3-0.7,12.5,0.6,17.1-13.5c4.2-13.1,1.8-22.8-8.1-38.4
			c11.2-20.4,40-27.6,60.6-14.7c-11.6,16.2-19,34.5-26,53.1c-1.6,4.2-1,7,1.5,10.2c3.3,4.2,6.3,8.7,10.2,14.2
			c-4.9-0.6-8.6-1.1-12.7-1.6c-1.6,4-3.3,8-5.3,12.8c-8.8-7-15.4-5.1-19.2,5.8c-4.1-3-7.5-5.4-10.9-7.9c-0.6-0.5-1.2-1.1-1.8-1.6
			c-2.5,3.4-5,6.9-7.6,10.3C265.2,595.5,264.8,595.5,264.4,595.5z"/>
		<path class="st4" d="M264.5,468.8c9.8,8.9,19.1,17.2,28.6,25.8c-2.1,1.4-4,2.6-6.2,4c-7.4-6.6-14.8-13.3-22.8-20.3
			c-4.8,7.3-9.4,14.3-14,21.2c-0.5,0.1-1,0.2-1.5,0.3c-0.3-1.7-1.4-3.9-0.8-4.9C253.1,486.3,258.7,477.8,264.5,468.8z"/>
		<path class="st4" d="M281.8,396c2.1-1.4,4-2.6,6.3-4c7.4,6.6,14.8,13.3,22.8,20.4c4.9-7.4,9.6-14.5,14.2-21.6
			c0.6,0.1,1.3,0.2,1.9,0.3c0,1.8,0.7,3.9-0.1,5.2c-5.2,8.5-10.7,16.7-16.4,25.6C300.8,413.1,291.5,404.7,281.8,396z"/>
		<path class="st3" d="M359.5,468c-3.1,0-6.2,0.2-9.2-0.1c-0.9-0.1-1.6-1.5-2.4-2.2c0.7-0.7,1.5-1.9,2.2-1.9
			c6.3-0.2,12.7-0.2,19.1,0c0.9,0,1.7,1.5,2.5,2.3c-1,0.7-1.9,1.8-2.9,1.9C365.7,468.2,362.6,468,359.5,468L359.5,468z"/>
		<path class="st3" d="M214.5,435.6c-2.7,0-5.5,0.2-8.2-0.1c-1.1-0.1-2-1.4-3.1-2.2c0.9-0.7,1.8-2,2.7-2c5.8-0.2,11.6-0.2,17.5,0
			c0.9,0,1.8,1.3,2.7,2c-1,0.8-1.9,2.2-3,2.3C220.4,435.8,217.4,435.6,214.5,435.6L214.5,435.6z"/>
		<path class="st3" d="M360.4,459.5c-2.9,0-5.8,0.2-8.7-0.1c-1-0.1-2-1.5-2.9-2.4c0.9-0.7,1.9-1.9,2.8-1.9c5.8-0.2,11.6-0.2,17.5,0
			c0.9,0,1.8,1.3,2.7,2c-0.9,0.8-1.6,2.1-2.6,2.2C366.3,459.7,363.3,459.5,360.4,459.5z"/>
		<path class="st3" d="M214.3,444.3c-2.7,0-5.5,0.2-8.2-0.1c-1-0.1-1.9-1.3-2.8-2c0.8-0.8,1.6-2.2,2.4-2.2c5.8-0.2,11.6-0.2,17.5,0
			c0.8,0,1.5,1.2,2.3,1.8c-0.8,0.8-1.6,2.2-2.5,2.3C220.1,444.6,217.2,444.3,214.3,444.3L214.3,444.3z"/>
		<path class="st3" d="M360.1,450.7c-2.7,0-5.5,0.1-8.2-0.1c-0.9-0.1-1.7-1.1-2.5-1.7c0.8-0.9,1.5-2.5,2.3-2.5
			c5.8-0.2,11.6-0.2,17.5,0c0.8,0,1.6,1.5,2.4,2.4c-1,0.7-1.9,1.8-2.9,1.9C365.9,450.8,363,450.7,360.1,450.7L360.1,450.7z"/>
		<path class="st3" d="M215.5,422.7c3.1,0,6.2-0.1,9.2,0.1c0.8,0.1,1.6,1.1,2.4,1.7c-0.8,0.8-1.5,2.3-2.3,2.4
			c-6.3,0.2-12.7,0.2-19,0.1c-0.8,0-1.6-1.5-2.4-2.4c1-0.6,1.9-1.8,2.9-1.8C209.3,422.5,212.4,422.7,215.5,422.7L215.5,422.7z"/>
		<path class="st3" d="M361.1,437.8c2.7,0,5.5-0.2,8.2,0.1c0.9,0.1,1.6,1.5,2.4,2.3c-0.8,0.7-1.5,1.9-2.3,1.9
			c-5.4,0.2-10.9,0.2-16.3,0c-0.9,0-1.8-1.4-2.7-2.1c0.8-0.7,1.6-2,2.5-2.1C355.6,437.7,358.4,437.8,361.1,437.8z"/>
		<path class="st3" d="M213.9,452.8c-2.7,0-5.5,0.2-8.2-0.1c-0.9-0.1-1.6-1.5-2.4-2.3c0.8-0.7,1.5-1.9,2.3-1.9
			c5.6-0.2,11.3-0.2,16.9,0c0.7,0,1.4,1.3,2.1,2.1c-0.8,0.8-1.6,2.1-2.5,2.2C219.3,453,216.6,452.8,213.9,452.8z"/>
		<path class="st3" d="M218.6,345.1c-3,2.3-4.9,4.9-6.7,4.8s-3.4-2.8-5.1-4.4c1.7-1.8,3.1-4.7,5-5.2
			C213.3,340,215.5,342.8,218.6,345.1z"/>
		<path class="st3" d="M370.2,545.8c-3.2,2.3-5.4,5-6.9,4.6c-2-0.5-3.3-3.4-4.9-5.3c1.8-1.5,3.5-4.1,5.3-4.2
			C365.4,540.8,367.2,543.4,370.2,545.8z"/>
		<path class="st3" d="M287.6,439.8c1.7,2.6,3.6,4.2,3.5,5.6c-0.2,1.4-2.4,3.6-3.6,3.6c-1.3,0-3.4-2.3-3.5-3.7
			C283.8,443.8,285.8,442.3,287.6,439.8z"/>
		<path class="st3" d="M274.5,427.8c-2.6,2-4.1,4.1-5.5,4s-3.2-2.2-3.6-3.8c-0.2-0.9,2-3.5,3.2-3.5
			C270,424.5,271.6,426.2,274.5,427.8z"/>
		<path class="st3" d="M311.6,462.6c-2.6,1.8-4.2,3.8-5.5,3.6c-1.4-0.2-2.5-2.4-3.7-3.8c1.3-1.3,2.5-3.4,3.9-3.5
			C307.5,458.8,309,460.7,311.6,462.6z"/>
	</g>
</g>
</svg>
