<?xml version="1.0" encoding="utf-8"?>
<!-- Generator: Adobe Illustrator 22.1.0, SVG Export Plug-In . SVG Version: 6.00 Build 0)  -->
<svg version="1.1" id="Layer_1" xmlns="http://www.w3.org/2000/svg" xmlns:xlink="http://www.w3.org/1999/xlink" x="0px" y="0px"
	 viewBox="0 0 430 630" style="enable-background:new 0 0 430 630;" xml:space="preserve">
<style type="text/css">
	.st0{fill:#FFFFFF;stroke:#000000;stroke-width:1.5;stroke-miterlimit:10;}
	.st1{stroke:#000000;stroke-width:0.2827;stroke-miterlimit:10;}
	.st2{fill:none;stroke:#000000;stroke-width:0.2827;stroke-miterlimit:10;}
	.st3{fill:#3FA9F5;}
	.st4{fill:#FFFFFF;}
</style>
<g>
	<path class="st0" d="M400,615H30c-8.3,0-15-6.7-15-15V30c0-8.3,6.7-15,15-15h370c8.3,0,15,6.7,15,15v570
		C415,608.3,408.3,615,400,615z"/>
	<g>
		<g>
			<path d="M68.1,53.5h18.6v122.7H68.1V53.5z M81.7,123.8l53-70.3h23.1l-77.3,97.2L81.7,123.8z M102.1,111.6L117.3,99l45.7,77.2
				h-22.7L102.1,111.6z"/>
		</g>
	</g>
	<g>
		<path class="st1" d="M142.1,238.7c0,4.4-0.8,8.6-2.3,12.5c-1.8,4.7-4.5,8.9-7.9,12.4c-1.3,1.3-2.7,2.5-4.2,3.6
			c-1.7,1.2-3.5,2.3-5.3,3.1c-0.6,0.3-1.1,0.5-1.7,0.7c-3.7,1.5-7.6,2.2-11.8,2.2s-8.2-0.8-11.9-2.3c-0.5-0.2-1.1-0.4-1.6-0.7
			c-2.3-1-4.5-2.4-6.5-3.9c-1.1-0.9-2.1-1.8-3.1-2.8c-3.4-3.4-6.2-7.6-7.9-12.3c-1.5-3.9-2.3-8.1-2.3-12.5
			c0-19.1,14.9-34.6,33.3-34.6S142.1,219.6,142.1,238.7z"/>
		<path class="st1" d="M105.5,295.2c0,4.4-0.8,8.6-2.2,12.5c-2.7,7.4-7.9,13.6-14.4,17.5l-0.1,0.1c-4.9,2.9-10.5,4.6-16.5,4.6
			c-18.4,0-33.3-15.5-33.3-34.6s14.9-34.6,33.3-34.6c4.8,0,9.4,1.1,13.5,3c1.7,0.8,3.3,1.7,4.9,2.8c1.7,1.2,3.3,2.5,4.7,3.9
			c1,1,1.8,2,2.7,3c2.7,3.4,4.8,7.4,6,11.7C105,288.3,105.5,291.7,105.5,295.2z"/>
		<path class="st1" d="M178.7,295.2c0,19.1-14.9,34.6-33.3,34.6c-6.5,0-12.6-1.9-17.7-5.3l0,0c-6.1-4-10.8-9.9-13.4-17
			c-1.4-3.8-2.2-7.9-2.2-12.3c0-3.3,0.4-6.4,1.3-9.4c1.2-4.5,3.3-8.7,6.1-12.2c0.9-1.1,1.8-2.2,2.8-3.2c1.4-1.5,3-2.8,4.7-3.9
			c1.5-1.1,3.2-2,4.9-2.8c4.1-1.9,8.7-3,13.5-3C163.8,260.6,178.7,276.1,178.7,295.2z"/>
		<path class="st1" d="M127.7,266.4v58c-6.1-4-10.8-9.9-13.4-17c0.5,8.9,2.3,18.3,5.4,27.7c2.2,6.4,4.9,12.4,8,17.9v0.9H89.4
			c3.3-5.7,6.2-12.1,8.5-18.9c3.1-9.3,4.9-18.6,5.4-27.5c-2.7,7.4-7.9,13.6-14.4,17.5v-58.7h38.8V266.4z"/>
		<path class="st2" d="M102,286.8c-5.8,5.9-10.5,19.6-13.1,37.5c-0.1,0.3-0.1,0.6-0.1,1c-4.9,2.9-10.5,4.6-16.5,4.6
			c-18.4,0-33.3-15.5-33.3-34.6s14.9-34.6,33.3-34.6c4.8,0,9.4,1.1,13.5,3c1.7,0.8,3.3,1.7,4.9,2.8h3.8c0.9,1.5,1.7,3,2.5,4.6
			c0.4,0.8,0.7,1.5,1.1,2.3C99.8,277.5,101.1,282,102,286.8z"/>
		<path class="st2" d="M103.3,307.7c-2.7,7.4-7.9,13.6-14.4,17.5l-0.1,0.1c0-0.3,0.1-0.7,0.1-1c2.6-17.9,7.4-31.6,13.1-37.5
			C103.3,293.3,103.7,300.3,103.3,307.7z"/>
		<path class="st2" d="M139.9,251.3c-1.8,4.7-4.5,8.9-7.9,12.4c-1.7,0.8-3.3,1.7-4.9,2.8h-3.9C127.4,259.5,133,254.2,139.9,251.3z"
			/>
		<path class="st2" d="M178.7,295.2c0,19.1-14.9,34.6-33.3,34.6c-6.5,0-12.6-1.9-17.7-5.3l0,0c0-0.1,0-0.1,0-0.1l0,0v-0.1
			c-0.1-0.5-0.2-1-0.2-1.5c-0.1-0.7-0.2-1.5-0.4-2.2c-0.1-0.6-0.2-1.3-0.3-1.9c0-0.2-0.1-0.3-0.1-0.5c-0.1-0.7-0.2-1.3-0.4-2
			c-0.1-0.6-0.3-1.3-0.4-1.9c-0.2-1.1-0.5-2.2-0.7-3.3c-0.1-0.5-0.2-0.9-0.3-1.4c-0.2-0.7-0.4-1.4-0.6-2.1c-0.1-0.3-0.2-0.7-0.3-1
			s-0.2-0.7-0.3-1s-0.2-0.7-0.3-1c-0.1-0.2-0.1-0.4-0.2-0.6c-0.1-0.3-0.2-0.7-0.3-1c-0.3-1-0.7-2-1-3c-0.1-0.3-0.2-0.6-0.3-0.9
			c-0.2-0.6-0.4-1.1-0.7-1.7c-0.2-0.5-0.4-1.1-0.7-1.6c0-0.1-0.1-0.1-0.1-0.2c-0.1-0.3-0.3-0.6-0.4-0.9c-0.1-0.1-0.1-0.2-0.2-0.3
			c-0.1-0.2-0.2-0.5-0.4-0.7c-0.1-0.3-0.3-0.5-0.4-0.8c-0.2-0.4-0.4-0.8-0.7-1.2c-0.1-0.1-0.2-0.3-0.2-0.4c-0.2-0.3-0.3-0.5-0.5-0.8
			c-0.6-1-1.3-1.9-2-2.7c0.9-5.1,2.3-9.9,4.1-14.2c0.4-0.8,0.7-1.7,1.1-2.5c0.8-1.6,1.6-3.2,2.5-4.7h3.9c1.5-1.1,3.2-2,4.9-2.8
			c4.1-1.9,8.7-3,13.5-3C163.8,260.6,178.7,276.1,178.7,295.2z"/>
		<path class="st2" d="M127.7,324.5L127.7,324.5L127.7,324.5c-6.1-4-10.8-9.9-13.4-17c-0.4-6.9,0-13.5,1.1-19.7
			c0.7,0.8,1.3,1.7,2,2.7c0.2,0.3,0.3,0.5,0.5,0.8c0.1,0.1,0.2,0.3,0.2,0.4c0.2,0.4,0.5,0.8,0.7,1.2c0.1,0.3,0.3,0.5,0.4,0.8
			c0.1,0.2,0.2,0.5,0.4,0.7c0.1,0.1,0.1,0.2,0.2,0.3c0.2,0.3,0.3,0.6,0.4,0.9c0,0.1,0.1,0.1,0.1,0.2c0.2,0.5,0.5,1,0.7,1.6
			c0.2,0.5,0.4,1.1,0.7,1.7c0.1,0.3,0.2,0.6,0.3,0.9c0.4,1,0.7,2,1,3c0.1,0.3,0.2,0.7,0.3,1c0.1,0.2,0.1,0.4,0.2,0.6
			c0.1,0.3,0.2,0.6,0.3,1c0.1,0.3,0.2,0.7,0.3,1s0.2,0.7,0.3,1c0.2,0.7,0.4,1.4,0.6,2.1c0.1,0.4,0.2,0.9,0.3,1.4
			c0.3,1.1,0.5,2.2,0.7,3.3c0.1,0.6,0.3,1.3,0.4,1.9s0.3,1.3,0.4,2c0,0.1,0.1,0.3,0.1,0.5c0.1,0.6,0.2,1.3,0.3,1.9
			c0.1,0.7,0.2,1.5,0.4,2.2c0.1,0.5,0.2,1,0.2,1.5L127.7,324.5L127.7,324.5C127.7,324.4,127.7,324.4,127.7,324.5z"/>
		<path class="st2" d="M94.5,266.4h-3.8c-1.5-1.1-3.2-2-4.9-2.8c-3.4-3.4-6.2-7.6-7.9-12.3C84.7,254.3,90.3,259.5,94.5,266.4z"/>
		<path class="st2" d="M127.7,324.5L127.7,324.5L127.7,324.5c-6.1-4-10.8-9.9-13.4-17c0.5,8.9,2.3,18.3,5.4,27.7
			c2.2,6.4,4.9,12.4,8,17.9v0.9H89.4c3.3-5.7,6.2-12.1,8.5-18.9c3.1-9.3,4.9-18.6,5.4-27.5c-2.7,7.4-7.9,13.6-14.4,17.5l-0.1,0.1
			c0-0.3,0.1-0.7,0.1-1c2.6-17.9,7.4-31.6,13.1-37.5c0.7-0.7,1.3-1.2,2-1.7c1.4-0.9,2.8-1.4,4.2-1.4c1.8,0,3.5,0.7,5.2,2.1
			c0.7,0.6,1.3,1.2,2,2s1.3,1.7,2,2.7c0.2,0.3,0.3,0.5,0.5,0.8c0.1,0.1,0.2,0.3,0.2,0.4c0.2,0.4,0.5,0.8,0.7,1.2
			c0.1,0.3,0.3,0.5,0.4,0.8c0.1,0.2,0.2,0.5,0.4,0.7c0.1,0.1,0.1,0.2,0.2,0.3c0.2,0.3,0.3,0.6,0.4,0.9c0,0.1,0.1,0.1,0.1,0.2
			c0.2,0.5,0.5,1,0.7,1.6c0.2,0.5,0.4,1.1,0.7,1.7c0.1,0.3,0.2,0.6,0.3,0.9c0.4,1,0.7,2,1,3c0.1,0.3,0.2,0.7,0.3,1
			c0.1,0.2,0.1,0.4,0.2,0.6c0.1,0.3,0.2,0.6,0.3,1c0.1,0.3,0.2,0.7,0.3,1s0.2,0.7,0.3,1c0.2,0.7,0.4,1.4,0.6,2.1
			c0.1,0.4,0.2,0.9,0.3,1.4c0.3,1.1,0.5,2.2,0.7,3.3c0.1,0.6,0.3,1.3,0.4,1.9s0.3,1.3,0.4,2c0,0.1,0.1,0.3,0.1,0.5
			c0.1,0.6,0.2,1.3,0.3,1.9c0.1,0.7,0.2,1.5,0.4,2.2c0.1,0.5,0.2,1,0.2,1.5L127.7,324.5L127.7,324.5
			C127.7,324.4,127.7,324.4,127.7,324.5z"/>
	</g>
	<g>
		<path class="st3" d="M182,415.5c0-2.3,0-4.5,0-6.8c5,1.9,9.9,4.6,15.1,5.6c15.6,3,32-1,47.2,6.3c-0.2-5-0.2-5-21.3-10.1
			c0-1.9,0-4,0-6c0-22-0.4-44,0.2-66c0.3-10.4-6.7-17.2-9.7-26.7c-2.1,4.6-3.4,8.5-5.5,11.7c-3.8,5.6-4.4,11.7-4.3,18.2
			c0.2,20.7,0.1,41.4,0.1,62.1c0,2.2,0,4.4,0,6.6c-0.7,0.2-1.5,0.3-2.2,0.5c-0.6-2-1.7-3.9-1.7-5.9c-0.1-20.7,0.2-41.4-0.2-62.1
			c-0.1-8.5,0.9-16.2,5.7-23.5c3.3-5,5.3-10.7,7.9-16.1c0.1,0.1,0.6,0.2,0.7,0.5c13.3,24.1,13.3,24.1,13.3,51.5c0,5.3,0,10.5,0,15.8
			c0,7.6,0,15.3,0,23.7c3.6-2.2,6.3-4.1,9.3-5.5c3.3-1.5,4.8-3.2,4.1-7.2c-1-5.5,0.9-10.4,5.3-14.1c6.4-5.3,15.1-3.7,17.7,3.4
			c-0.6-0.2-1.1-0.5-1.6-0.7c-4.9-2-9.9-2.8-14.2,1.2c-3.6,3.4-4.5,7.7-2.8,12.4c2,5.6,6.1,8.4,11.9,8.8c8.4,0.7,15.9-3.9,19.4-11.7
			c2.5-5.6,4.8-11.2,7.4-17.2c13.7,23,30.2,31.4,49.7,26c-1.6-7.3-3.1-14.6-4.7-22.1c-9.5,0.3-17.6,3.7-23.4,9.7
			c-1.1-1.8-2-3.6-3.3-5.1c-4.3-5.2-8.8-10.1-12.9-15.4c-0.9-1.2-1.1-3.7-0.6-5.2c1.6-4.8,3.6-9.5,5.8-14c0.7-1.3,2.7-2,4.1-3
			c-0.2,4.1-1.2,6.9-2.4,9.6c-4.5,10.7-3.8,14,5,21.8c2.1,1.8,4.5,3.3,6.9,5c8.8-8.4,20.3-7.1,31.4-9c-2.7-9-5.4-17.4-7.8-25.8
			c-1-3.6-2.6-5-6.6-4.9c-19,0.3-38,0.1-57,0.1c-2.2,0-4.4,0-6.9,0c1.4-10.4-7.4-15.6-10.2-24c4.9,0.9,9.3,1.8,13.8,2.6
			c2.3-4.7,4.5-9.1,6.7-13.5c4.9,2.2,9.3,4.2,13.9,6.2c3.4-4.2,6.4-8,9.4-11.8c0.4,0,0.8,0,1.1,0c3.5,3.2,7,6.5,10.6,9.9
			c4.5-3.3,8.3-6.1,12.5-9.2c3.2,4.1,6.2,8,9.2,11.9c4.3-1.7,8.4-3.4,13.7-5.5c-1.6,4.1-2.4,7.1-3.8,9.9
			c-5.2,10.4-5.2,20.8-1.2,31.6c3,8.4,5.3,17.1,8.1,26.2c-4,0.5-7.4,1-12.1,1.6c2.2,9,4.3,17.4,6.5,26.3c-6.8-0.9-8.8,4.3-11.1,9.7
			c-3,7-6.5,13.9-9.9,21.1c-2.3-1.8-4.3-3.2-6.1-4.8c-11.2-9.2-22.3-18.4-33.6-27.4c-1.3-1-3.3-1.1-5-1.7c-0.2,0.6-0.4,1.3-0.7,1.9
			c15.4,12.7,30.8,25.4,46.6,38.4c5.3-11.4,10.4-22.2,16.2-34.4c6.9,7.4,12.9,13.9,19.1,20.4c6.4-9.1,14.4-11.3,21.4-6.3
			c6.9,4.9,7.4,13.1,1.5,21.2c-0.5,0.7-1.3,1.5-1.3,2.3c-0.1,10.8-0.1,21.6-0.1,32c6.3,2.1,11.4,3.7,16.6,5.4c0,1.9,0,3.8,0,5.6
			c-4.6-1.5-9.1-3.5-13.8-4.4c-16.1-3-33,0.8-48.9-5.4c5,8.1,13.9,6.7,21.7,9.2c0,1.5,0,3.2,0,4.8c0,22.6,0.4,45.1-0.1,67.7
			c-0.2,10.2,6.8,16.7,9.7,26.2c2.2-4.7,3.5-8.5,5.6-11.8c3.6-5.5,4.4-11.3,4.3-17.6c-0.3-21.1-0.1-42.1-0.1-63.2c0-2,0-4,0-6
			c0.7-0.2,1.5-0.3,2.2-0.5c0.6,1.8,1.7,3.6,1.7,5.5c0.1,23.7,0.1,47.4,0.1,71.1c0,1.9,0.1,4-0.7,5.5c-4.3,8.6-8.8,17-13.2,25.5
			c-13.7-26.6-13.7-26.6-13.6-55.3c0-5.5,0-10.9,0-16.4c0-6.3,0-12.6,0-19.7c-4,2.4-7,4.6-10.4,6c-3,1.3-3.6,3-3.1,6.1
			c1,5.8-0.8,10.8-5.3,14.6c-6.4,5.4-14.8,3.8-17.8-3.4c5.4,2.5,10.8,4,15.7-0.5c3.4-3.1,4.5-7.2,3-11.8c-1.7-5.4-5.4-8.5-10.8-9.4
			c-8.5-1.4-16.7,3.2-20.6,11.5c-2.6,5.6-4.9,11.2-7.5,17.1c-14-22.8-30.2-31.1-49.8-26c1.6,7.3,3.1,14.5,4.8,22.2
			c9.4-0.2,17.6-3.5,23.3-9.8c1.3,1.9,2.5,3.8,3.9,5.6c4.4,5.5,10.1,10.5,12.7,16.8c1.4,3.3-2.4,8.9-3.9,13.5
			c-0.5,1.4-0.9,3-1.8,4.1c-1,1.3-2.6,2.1-3.9,3.1c-0.4-0.4-0.8-0.8-1.2-1.2c2-5,4.2-9.9,5.9-15c0.6-1.7,0.9-4.4,0-5.6
			c-3.4-4.4-7.1-8.6-11.2-12.5c-1-1-3.9-0.7-5.6-0.2c-4.4,1.4-8.6,3.7-13.1,4.7c-5,1.2-10.3,1.4-15.9,2c2.7,8.9,5.4,17.1,7.6,25.4
			c1.1,4.1,2.9,5.6,7.3,5.5c19.4-0.3,38.7-0.1,58.1-0.1c1.6,0,3.2,0.2,4.9,0.3c-0.5,0.4-0.9,0.8-1.4,1.3c3.9,7.3,7.8,14.6,11.9,22.4
			c-4.8-0.9-9.2-1.7-13.6-2.6c-2.3,4.6-4.4,8.9-6.7,13.3c-4.7-2-9.8-6.1-13.4-5.1c-4,1.1-6.7,7-10,10.8c-0.4,0-0.8,0-1.1,0
			c-3.5-3.2-7-6.5-10.6-9.9c-4.4,3.3-8.3,6.1-12.5,9.2c-3.2-4.1-6.1-8-9.2-11.9c-4.4,1.7-8.4,3.3-13.7,5.4c1.6-4.3,2.6-7.5,4-10.4
			c5.1-10,4.8-20.1,1.1-30.5c-3-8.6-5.4-17.4-8.3-26.7c2.3-0.4,3.9-0.9,5.5-0.8c4.9,0.4,6.5-1.6,5.3-6.3c-1.8-6.8-3.4-13.7-5.2-21
			c7.1,1,8.9-4.6,11.2-9.7c3.1-7,6.4-13.8,9.8-21.1c2.2,1.7,3.8,3,5.4,4.3c11.3,9.3,22.6,18.6,34,27.9c3.3,2.7,3.3,2.6,5.8-0.3
			c-15.3-12.6-30.6-25.2-46.4-38.2c-5.3,11.3-10.3,22-16,34.2c-6.7-7.3-12.7-13.9-18.8-20.5c-1,1.1-1.3,1.3-1.5,1.6
			c-5.6,7.8-13.6,9.8-20.3,5.1c-6.9-4.9-7.5-13.3-1.6-21.2c0.5-0.7,1.3-1.5,1.3-2.3c0.1-10.8,0.1-21.6,0.1-32
			C192.3,418.8,187.1,417.1,182,415.5z M282.5,378.9c-0.7,0.3-1.4,0.6-2.1,1c0.9,1.7,1.3,3.9,2.6,5c9,7.4,18.1,14.7,27.2,21.9
			c2.4,1.9,4.9,3.8,7.6,5.9c2.8-6,5.3-11.2,8-16.9c-8.1-1.1-5.8,7.6-10.3,9.3C304.5,396.4,293.5,387.6,282.5,378.9z M259.3,482.1
			c11.1,8.8,22.3,17.7,33.5,26.6c0.6-0.4,1.2-0.8,1.7-1.2c-0.7-1.6-1-3.7-2.3-4.7c-10.3-8.5-20.7-16.8-31.1-25.1
			c-1.2-1-2.6-1.7-4.2-2.7c-2.7,5.7-5.2,10.9-8,16.8C256.9,492.2,255.4,484.7,259.3,482.1z M213.6,425.5L213.6,425.5
			c3.2,0,6.4,0.2,9.5-0.1c0.9-0.1,1.7-1.5,2.5-2.3c-0.8-0.6-1.6-1.8-2.4-1.8c-6.6-0.2-13.1-0.2-19.7,0c-0.8,0-1.6,1.5-2.4,2.3
			c0.8,0.6,1.5,1.8,2.3,1.8C206.9,425.6,210.3,425.5,213.6,425.5z M361.7,466.2c3,0,6,0.2,9-0.1c1.1-0.1,2.1-1.4,3.1-2.2
			c-1.1-0.7-2.2-2-3.3-2c-6-0.2-12-0.2-18,0c-1.1,0-2.1,1.4-3.2,2.2c1.1,0.7,2.2,1.9,3.4,2C355.7,466.4,358.7,466.2,361.7,466.2z
			 M212.8,429.8c-3,0-6-0.2-8.9,0.1c-0.9,0.1-1.8,1.3-2.7,2c0.9,0.8,1.7,2.2,2.6,2.2c6,0.2,11.9,0.3,17.9,0c1.1,0,2-1.6,3.1-2.4
			c-1-0.6-1.9-1.7-3-1.8C218.8,429.7,215.8,429.8,212.8,429.8z M361.9,457.5c3.2,0,6.3,0.1,9.5-0.1c0.8-0.1,1.6-1.2,2.4-1.8
			c-0.8-0.8-1.5-2.4-2.3-2.4c-6.1-0.2-12.3-0.2-18.4,0c-0.9,0-1.8,1.4-2.7,2.2c0.9,0.7,1.7,2,2.7,2.1
			C355.9,457.6,358.9,457.5,361.9,457.5z M362.5,444.8L362.5,444.8c-2.8,0-5.6-0.2-8.4,0.1c-1,0.1-1.9,1.1-2.8,1.8
			c0.8,0.8,1.5,2.4,2.3,2.4c6,0.2,11.9,0.2,17.9,0c0.8,0,1.6-1.6,2.3-2.4c-0.8-0.6-1.5-1.7-2.4-1.7
			C368.5,444.7,365.5,444.8,362.5,444.8z M212.1,438.2c-2.8,0-5.6-0.2-8.4,0.1c-0.9,0.1-1.7,1.4-2.6,2.2c0.9,0.7,1.7,2,2.7,2
			c5.8,0.2,11.5,0.2,17.3,0c0.9,0,1.7-1.3,2.5-2.1c-0.9-0.7-1.7-2-2.6-2.1C218.1,438,215.1,438.2,212.1,438.2z M211.7,451.3
			c3,0,6,0.1,9-0.1c0.8-0.1,1.9-1.3,1.9-2.1c0-0.7-1.2-2-1.9-2.1c-5.8-0.2-11.6-0.1-17.4,0c-0.7,0-1.9,1.3-1.9,2s1.2,2,1.9,2.1
			C206,451.4,208.9,451.3,211.7,451.3z M363.5,436L363.5,436c-2.8,0-5.6-0.2-8.4,0.1c-1,0.1-1.9,1.3-2.9,2c1,0.8,2,2.2,3,2.3
			c5.2,0.2,10.5,0.2,15.7,0c1,0,1.9-1.2,2.8-1.9c-1-0.8-1.9-2.2-3-2.3C368.4,435.7,366,436,363.5,436z M273.8,426.3
			c-2.7-1.7-4.4-3.6-5.7-3.4c-1.4,0.3-3.4,2.6-3.3,3.9c0,1.2,2.4,3.3,3.8,3.4C269.9,430.3,271.4,428.2,273.8,426.3z M293.3,443.4
			c-3-1.7-4.6-3.4-6-3.3c-1.3,0.1-3.6,2.5-3.4,3.3c0.4,1.5,2.2,3.6,3.6,3.8C288.9,447.3,290.5,445.4,293.3,443.4z M312.1,460.6
			c-2.6-1.7-4.2-3.6-5.5-3.4c-1.4,0.2-3.6,2.4-3.5,3.7c0.1,1.4,2.2,3.6,3.6,3.7C308.1,464.6,309.6,462.5,312.1,460.6z"/>
		<path class="st4" d="M294.8,291.3c-3,3.8-6.1,7.6-9.4,11.8c-4.5-2-8.9-4-13.9-6.2c-2.2,4.4-4.4,8.8-6.7,13.5
			c-4.5-0.9-8.9-1.7-13.8-2.6c2.8,8.5,11.7,13.6,10.2,24c2.5,0,4.7,0,6.9,0c19,0,38,0.1,57-0.1c4-0.1,5.6,1.3,6.6,4.9
			c2.4,8.5,5.1,16.8,7.8,25.8c-11.1,2-22.6,0.6-31.4,9c-2.5-1.8-4.9-3.2-6.9-5c-8.8-7.7-9.5-11.1-5-21.8c1.2-2.7,2.2-5.5,2.4-9.6
			c-1.4,1-3.4,1.7-4.1,3c-2.2,4.5-4.2,9.2-5.8,14c-0.5,1.5-0.3,4,0.6,5.2c4.1,5.3,8.6,10.2,12.9,15.4c1.2,1.5,2.1,3.3,3.3,5.1
			c5.7-6,13.8-9.4,23.4-9.7c1.6,7.5,3.2,14.8,4.7,22.1c-19.5,5.4-36-3-49.7-26c-2.6,6-4.9,11.6-7.4,17.2c-3.5,7.9-11,12.4-19.4,11.7
			c-5.8-0.5-9.8-3.3-11.9-8.8c-1.7-4.7-0.8-9,2.8-12.4c4.3-4.1,9.2-3.2,14.2-1.2c0.5,0.2,1,0.4,1.6,0.7c-2.7-7-11.3-8.7-17.7-3.4
			c-4.4,3.7-6.4,8.6-5.3,14.1c0.7,4-0.8,5.7-4.1,7.2c-3,1.4-5.7,3.3-9.3,5.5c0-8.4,0-16,0-23.7c0-5.3,0-10.5,0-15.8
			c0-27.4,0-27.4-13.3-51.5c-0.2-0.3-0.6-0.4-0.7-0.5c-2.6,5.4-4.6,11.2-7.9,16.1c-4.8,7.3-5.9,15-5.7,23.5
			c0.4,20.7,0.1,41.4,0.2,62.1c0,2,1.1,4,1.7,5.9c0.7-0.2,1.5-0.3,2.2-0.5c0-2.2,0-4.4,0-6.6c0-20.7,0.1-41.4-0.1-62.1
			c-0.1-6.5,0.5-12.6,4.3-18.2c2.2-3.2,3.4-7.1,5.5-11.7c3,9.5,10,16.3,9.7,26.7c-0.6,22-0.2,44-0.2,66c0,2,0,4.1,0,6
			c21.1,5.1,21.1,5.1,21.3,10.1c-15.2-7.3-31.6-3.3-47.2-6.3c-5.2-1-10.1-3.7-15.1-5.6c0-39,0-78,0-117.3
			C219.6,291.3,257.2,291.3,294.8,291.3z M212.1,410.2c0.4,0.4,0.9,0.8,1.3,1.2c0.7-1.5,2-2.9,2-4.4c0.1-23.7,0.1-47.4,0-71
			c0-2.1-1-4.2-1.5-6.3c-0.6,0.1-1.3,0.2-1.9,0.3C212.1,356.7,212.1,383.4,212.1,410.2z M264.4,336c-4.2-0.4-10.9,11.9-13.4,24.7
			C255.2,360.5,260.8,350.3,264.4,336z M275.5,335.3c-7.6,5.3-8.2,14.6-12.4,22.2C268.6,357.6,268.6,357.6,275.5,335.3z
			 M287.9,335.7c-4.5-0.1-9.8,9.2-10.6,18.1C281.5,353.5,282.7,351.4,287.9,335.7z"/>
		<path class="st4" d="M280.2,596c3.3-3.8,6-9.7,10-10.8c3.6-1,8.7,3.1,13.4,5.1c2.2-4.5,4.4-8.8,6.7-13.3c4.4,0.8,8.8,1.7,13.6,2.6
			c-4.1-7.8-8-15.1-11.9-22.4c0.5-0.4,0.9-0.8,1.4-1.3c-1.6-0.1-3.2-0.3-4.9-0.3c-19.4,0-38.7-0.2-58.1,0.1
			c-4.4,0.1-6.2-1.4-7.3-5.5c-2.2-8.3-4.9-16.5-7.6-25.4c5.6-0.7,10.9-0.9,15.9-2c4.5-1,8.7-3.4,13.1-4.7c1.8-0.5,4.6-0.8,5.6,0.2
			c4.1,3.8,7.8,8,11.2,12.5c0.9,1.2,0.6,3.9,0,5.6c-1.7,5.1-3.9,10-5.9,15c0.4,0.4,0.8,0.8,1.2,1.2c1.3-1,2.9-1.9,3.9-3.1
			c0.9-1.1,1.3-2.7,1.8-4.1c1.5-4.5,5.3-10.1,3.9-13.5c-2.6-6.3-8.4-11.2-12.7-16.8c-1.4-1.8-2.6-3.7-3.9-5.6
			c-5.7,6.3-14,9.6-23.3,9.8c-1.7-7.7-3.2-14.9-4.8-22.2c19.6-5.2,35.8,3.2,49.8,26c2.6-5.9,4.9-11.6,7.5-17.1
			c3.8-8.3,12-12.9,20.6-11.5c5.5,0.9,9.1,3.9,10.8,9.4c1.5,4.7,0.4,8.7-3,11.8c-4.9,4.4-10.4,3-15.7,0.5c3.1,7.1,11.5,8.7,17.8,3.4
			c4.6-3.8,6.3-8.9,5.3-14.6c-0.5-3.1,0.1-4.8,3.1-6.1c3.4-1.5,6.4-3.7,10.4-6c0,7.1,0,13.4,0,19.7c0,5.5,0,10.9,0,16.4
			c0,28.8,0,28.8,13.6,55.3c4.4-8.5,9-16.9,13.2-25.5c0.8-1.6,0.7-3.7,0.7-5.5c0-23.7,0-47.4-0.1-71.1c0-1.8-1.1-3.6-1.7-5.5
			c-0.7,0.2-1.5,0.3-2.2,0.5c0,2,0,4,0,6c0,21.1-0.2,42.1,0.1,63.2c0.1,6.4-0.7,12.2-4.3,17.6c-2.1,3.3-3.4,7.1-5.6,11.8
			c-2.9-9.5-9.9-16-9.7-26.2c0.5-22.5,0.1-45.1,0.1-67.7c0-1.7,0-3.3,0-4.8c-7.8-2.5-16.7-1-21.7-9.2c15.9,6.3,32.8,2.4,48.9,5.4
			c4.7,0.9,9.2,2.9,13.8,4.4c0,39.4,0,78.8,0,118.5C355.4,596,317.8,596,280.2,596z M360.8,557.6c0.9-0.1,1.8-0.1,2.8-0.2
			c0.2-26.9,0-53.8-1-81.1c-1.7,1.4-3,3.1-3,4.8c-0.1,23.5-0.1,47,0,70.5C359.6,553.6,360.4,555.6,360.8,557.6z M310.5,551.7
			c4.5-0.3,10.6-11.9,13.6-25C319.8,526.7,314.9,535.5,310.5,551.7z M299.6,552.1c7.9-5.1,7.8-14.8,12.4-22.1
			C307,529.5,303.3,535.9,299.6,552.1z M287.2,551.5c4.4,0.4,8.8-6.9,10.7-17.8C293.6,533.6,291.6,537,287.2,551.5z"/>
		<path class="st4" d="M182,415.5c5.1,1.7,10.3,3.3,16.5,5.4c0,10.4,0,21.2-0.1,32c0,0.8-0.8,1.6-1.3,2.3
			c-5.9,7.9-5.3,16.3,1.6,21.2c6.7,4.7,14.7,2.7,20.3-5.1c0.2-0.3,0.5-0.5,1.5-1.6c6.1,6.6,12.1,13.2,18.8,20.5
			c5.7-12.1,10.7-22.9,16-34.2c15.8,13,31.1,25.6,46.4,38.2c-2.4,3-2.5,3-5.8,0.3c-11.3-9.3-22.6-18.6-34-27.9
			c-1.6-1.3-3.2-2.6-5.4-4.3c-3.4,7.2-6.7,14.1-9.8,21.1c-2.3,5.2-4.1,10.8-11.2,9.7c1.8,7.3,3.4,14.1,5.2,21
			c1.2,4.7-0.4,6.7-5.3,6.3c-1.6-0.1-3.2,0.4-5.5,0.8c2.8,9.3,5.2,18.1,8.3,26.7c3.7,10.4,3.9,20.5-1.1,30.5
			c-1.5,2.9-2.4,6.1-4,10.4c5.3-2.1,9.4-3.7,13.7-5.4c3,4,6,7.8,9.2,11.9c4.1-3.1,8-5.9,12.5-9.2c3.6,3.4,7.1,6.6,10.6,9.9
			c-32.3,0-64.6,0-97,0C182,535.8,182,475.6,182,415.5z"/>
		<path class="st4" d="M393,471.9c-5.1-1.7-10.3-3.3-16.6-5.4c0-10.4,0-21.2,0.1-32c0-0.8,0.8-1.6,1.3-2.3
			c5.9-8.1,5.4-16.3-1.5-21.2c-7-5-15-2.8-21.4,6.3c-6.1-6.6-12.2-13.1-19.1-20.4c-5.8,12.3-10.8,23-16.2,34.4
			c-15.8-13-31.2-25.7-46.6-38.4c0.2-0.6,0.4-1.3,0.7-1.9c1.7,0.5,3.7,0.6,5,1.7c11.3,9.1,22.4,18.3,33.6,27.4
			c1.9,1.5,3.8,3,6.1,4.8c3.4-7.3,6.9-14.1,9.9-21.1c2.3-5.3,4.3-10.5,11.1-9.7c-2.2-8.9-4.3-17.3-6.5-26.3
			c4.7-0.6,8.1-1.1,12.1-1.6c-2.8-9.2-5.1-17.9-8.1-26.2c-3.9-10.8-4-21.2,1.2-31.6c1.4-2.7,2.2-5.8,3.8-9.9
			c-5.3,2.1-9.4,3.8-13.7,5.5c-3-3.9-6-7.8-9.2-11.9c-4.1,3-8,5.9-12.5,9.2c-3.6-3.4-7.1-6.6-10.6-9.9c32.3,0,64.7,0,97,0
			C393,351.5,393,411.7,393,471.9z"/>
		<path class="st4" d="M282.5,378.9c11,8.8,22,17.5,33,26.2c4.6-1.7,2.3-10.4,10.3-9.3c-2.7,5.7-5.2,10.9-8,16.9
			c-2.7-2.1-5.2-4-7.6-5.9c-9.1-7.3-18.2-14.5-27.2-21.9c-1.3-1.1-1.8-3.3-2.6-5C281.1,379.5,281.8,379.2,282.5,378.9z"/>
		<path class="st4" d="M259.3,482.1c-3.9,2.5-2.4,10-10.2,9.6c2.8-5.9,5.3-11.1,8-16.8c1.6,1,3,1.8,4.2,2.7
			c10.4,8.3,20.8,16.6,31.1,25.1c1.2,1,1.5,3.1,2.3,4.7c-0.6,0.4-1.2,0.8-1.7,1.2C281.7,499.9,270.4,491,259.3,482.1z"/>
		<path class="st4" d="M213.6,425.5c-3.4,0-6.8,0.1-10.1-0.1c-0.8-0.1-1.6-1.2-2.3-1.8c0.8-0.8,1.6-2.3,2.4-2.3
			c6.6-0.2,13.1-0.2,19.7,0c0.8,0,1.6,1.2,2.4,1.8c-0.8,0.8-1.6,2.3-2.5,2.3C220,425.7,216.8,425.5,213.6,425.5L213.6,425.5z"/>
		<path class="st4" d="M361.7,466.2c-3,0-6,0.2-9-0.1c-1.2-0.1-2.3-1.3-3.4-2c1.1-0.8,2.1-2.2,3.2-2.2c6-0.2,12-0.2,18,0
			c1.1,0,2.2,1.3,3.3,2c-1,0.8-2,2.1-3.1,2.2C367.8,466.4,364.7,466.2,361.7,466.2z"/>
		<path class="st4" d="M212.8,429.8c3,0,6-0.2,8.9,0.1c1,0.1,2,1.2,3,1.8c-1,0.8-2,2.4-3.1,2.4c-6,0.2-11.9,0.2-17.9,0
			c-0.9,0-1.7-1.5-2.6-2.2c0.9-0.7,1.7-1.9,2.7-2C206.8,429.7,209.8,429.8,212.8,429.8z"/>
		<path class="st4" d="M361.9,457.5c-3,0-6,0.2-8.9-0.1c-0.9-0.1-1.8-1.3-2.7-2.1c0.9-0.8,1.8-2.1,2.7-2.2c6.1-0.2,12.3-0.2,18.4,0
			c0.8,0,1.6,1.6,2.3,2.4c-0.8,0.6-1.5,1.7-2.4,1.8C368.3,457.6,365.1,457.5,361.9,457.5z"/>
		<path class="st4" d="M362.5,444.8c3,0,6-0.1,8.9,0.1c0.8,0.1,1.6,1.1,2.4,1.7c-0.8,0.8-1.5,2.4-2.3,2.4c-6,0.2-11.9,0.2-17.9,0
			c-0.8,0-1.5-1.6-2.3-2.4c0.9-0.6,1.9-1.7,2.8-1.8C356.9,444.6,359.7,444.8,362.5,444.8L362.5,444.8z"/>
		<path class="st4" d="M212.1,438.2c3,0,6-0.2,8.9,0.1c0.9,0.1,1.8,1.4,2.6,2.1c-0.8,0.7-1.7,2-2.5,2.1c-5.8,0.2-11.5,0.2-17.3,0
			c-0.9,0-1.8-1.3-2.7-2c0.9-0.8,1.7-2.1,2.6-2.2C206.5,438,209.3,438.2,212.1,438.2z"/>
		<path class="st4" d="M211.7,451.3c-2.8,0-5.6,0.1-8.4-0.1c-0.7-0.1-1.9-1.3-1.9-2.1c0-0.7,1.2-2,1.9-2c5.8-0.2,11.6-0.2,17.4,0
			c0.7,0,1.9,1.3,1.9,2.1c0,0.7-1.2,2-1.9,2.1C217.7,451.4,214.7,451.3,211.7,451.3z"/>
		<path class="st4" d="M363.5,436c2.4,0,4.9-0.2,7.3,0.1c1.1,0.2,2,1.5,3,2.3c-0.9,0.7-1.9,1.8-2.8,1.9c-5.2,0.2-10.5,0.2-15.7,0
			c-1,0-2-1.5-3-2.3c1-0.7,1.9-1.9,2.9-2C357.9,435.8,360.7,436,363.5,436L363.5,436z"/>
		<path class="st4" d="M273.8,426.3c-2.4,2-3.9,4-5.2,3.9c-1.4-0.1-3.8-2.1-3.8-3.4c0-1.4,1.9-3.7,3.3-3.9
			C269.4,422.7,271.1,424.6,273.8,426.3z"/>
		<path class="st4" d="M293.3,443.4c-2.8,2-4.4,3.9-5.8,3.8c-1.4-0.2-3.2-2.2-3.6-3.8c-0.2-0.8,2.1-3.2,3.4-3.3
			C288.7,440,290.3,441.7,293.3,443.4z"/>
		<path class="st4" d="M312.1,460.6c-2.5,1.9-4.1,4-5.4,3.9c-1.4-0.1-3.5-2.3-3.6-3.7c-0.1-1.2,2.1-3.5,3.5-3.7
			C308,457,309.6,458.9,312.1,460.6z"/>
		<path class="st3" d="M212.1,410.2c0-26.7,0-53.5,0-80.2c0.6-0.1,1.3-0.2,1.9-0.3c0.5,2.1,1.5,4.2,1.5,6.3c0.1,23.7,0.1,47.4,0,71
			c0,1.5-1.3,2.9-2,4.4C213,410.9,212.5,410.5,212.1,410.2z"/>
		<path class="st3" d="M264.4,336c-3.7,14.3-9.2,24.5-13.4,24.7C253.6,347.9,260.2,335.6,264.4,336z"/>
		<path class="st3" d="M275.5,335.3c-6.9,22.3-6.9,22.3-12.4,22.2C267.3,349.9,267.9,340.6,275.5,335.3z"/>
		<path class="st3" d="M287.9,335.7c-5.2,15.7-6.4,17.7-10.6,18.1C278.1,344.9,283.4,335.7,287.9,335.7z"/>
		<path class="st3" d="M360.8,557.6c-0.4-2-1.2-4-1.3-6c-0.1-23.5-0.1-47,0-70.5c0-1.7,1.2-3.4,3-4.8c1.1,27.2,1.3,54.1,1,81.1
			C362.7,557.5,361.8,557.5,360.8,557.6z"/>
		<path class="st3" d="M310.5,551.7c4.4-16.1,9.3-25,13.6-25C321.1,539.8,314.9,551.4,310.5,551.7z"/>
		<path class="st3" d="M299.6,552.1c3.7-16.2,7.4-22.5,12.4-22.1C307.4,537.3,307.5,547,299.6,552.1z"/>
		<path class="st3" d="M287.2,551.5c4.4-14.5,6.4-17.8,10.7-17.8C296,544.5,291.6,551.9,287.2,551.5z"/>
	</g>
</g>
</svg>
