<?xml version="1.0" encoding="utf-8"?>
<!-- Generator: Adobe Illustrator 22.1.0, SVG Export Plug-In . SVG Version: 6.00 Build 0)  -->
<svg version="1.1" id="Layer_1" xmlns="http://www.w3.org/2000/svg" xmlns:xlink="http://www.w3.org/1999/xlink" x="0px" y="0px"
	 viewBox="0 0 430 630" style="enable-background:new 0 0 430 630;" xml:space="preserve">
<style type="text/css">
	.st0{fill:#FFFFFF;stroke:#000000;stroke-width:1.5;stroke-miterlimit:10;}
	.st1{stroke:#000000;stroke-width:0.2827;stroke-miterlimit:10;}
	.st2{fill:none;stroke:#000000;stroke-width:0.2827;stroke-miterlimit:10;}
	.st3{stroke:#000000;stroke-width:0.4244;stroke-miterlimit:10;}
	.st4{fill:none;stroke:#000000;stroke-width:0.4244;stroke-miterlimit:10;}
</style>
<g>
	<path class="st0" d="M400,615H30c-8.3,0-15-6.7-15-15V30c0-8.3,6.7-15,15-15h370c8.3,0,15,6.7,15,15v570
		C415,608.4,408.2,615,400,615z"/>
	<g>
		<g>
			<path d="M92.3,174.7c-4.9-2.5-8.9-6.2-11.9-11.1c-3-4.8-5-10.6-5.9-17.4v-0.1h18.6v0.1c0.6,4.5,2.3,8,5.1,10.5
				c2.8,2.5,6.5,3.8,11,3.8c5.2,0,9.2-1.7,12-5.1c2.8-3.4,4.2-8.3,4.2-14.5v-10.3c0-6.2-1.4-11-4.1-14.4c-2.8-3.4-6.7-5.1-11.7-5.1
				c-3.1,0-6,0.8-8.6,2.5s-4.9,4.1-6.7,7.1H77.2V54.5h63.4v17.8H95.9v26.2c2.1-1.7,4.5-3.1,7.2-4.1s5.5-1.4,8.3-1.4
				c6.9,0,12.8,1.5,17.7,4.4s8.6,7.2,11.2,12.8c2.6,5.6,3.8,12.4,3.8,20.3v10.3c0,7.9-1.4,14.7-4.1,20.3c-2.7,5.6-6.7,9.9-11.9,12.9
				s-11.5,4.4-18.9,4.4C102.8,178.5,97.2,177.2,92.3,174.7z"/>
		</g>
	</g>
	<g>
		<path class="st1" d="M142,238.7c0,4.4-0.8,8.6-2.3,12.5c-1.8,4.7-4.5,8.9-7.9,12.4c-1.3,1.3-2.7,2.5-4.2,3.6
			c-1.7,1.2-3.5,2.3-5.3,3.1c-0.6,0.3-1.1,0.5-1.7,0.7c-3.7,1.5-7.6,2.2-11.8,2.2s-8.2-0.8-11.9-2.3c-0.5-0.2-1.1-0.4-1.6-0.7
			c-2.3-1-4.5-2.4-6.5-3.9c-1.1-0.9-2.1-1.8-3.1-2.8c-3.4-3.4-6.2-7.6-7.9-12.3c-1.5-3.9-2.3-8.1-2.3-12.5
			c0-19.1,14.9-34.6,33.3-34.6S142,219.6,142,238.7z"/>
		<path class="st1" d="M105.4,295.2c0,4.4-0.8,8.6-2.2,12.5c-2.7,7.4-7.9,13.6-14.4,17.5l-0.1,0.1c-4.9,2.9-10.5,4.6-16.5,4.6
			c-18.4,0-33.3-15.5-33.3-34.6s14.9-34.6,33.3-34.6c4.8,0,9.4,1.1,13.5,3c1.7,0.8,3.3,1.7,4.9,2.8c1.7,1.2,3.3,2.5,4.7,3.9
			c1,1,1.8,2,2.7,3c2.7,3.4,4.8,7.4,6,11.7C104.9,288.3,105.4,291.7,105.4,295.2z"/>
		<path class="st1" d="M178.6,295.2c0,19.1-14.9,34.6-33.3,34.6c-6.5,0-12.6-1.9-17.7-5.3l0,0c-6.1-4-10.8-9.9-13.4-17
			c-1.4-3.8-2.2-7.9-2.2-12.3c0-3.3,0.4-6.4,1.3-9.4c1.2-4.5,3.3-8.7,6.1-12.2c0.9-1.1,1.8-2.2,2.8-3.2c1.4-1.5,3-2.8,4.7-3.9
			c1.5-1.1,3.2-2,4.9-2.8c4.1-1.9,8.7-3,13.5-3C163.7,260.7,178.6,276.1,178.6,295.2z"/>
		<path class="st1" d="M127.6,266.5v58c-6.1-4-10.8-9.9-13.4-17c0.5,8.9,2.3,18.3,5.4,27.7c2.2,6.4,4.9,12.4,8,17.9v0.9H89.3
			c3.3-5.7,6.2-12.1,8.5-18.9c3.1-9.3,4.9-18.6,5.4-27.5c-2.7,7.4-7.9,13.6-14.4,17.5v-58.7h38.8V266.5z"/>
		<path class="st2" d="M101.9,286.8c-5.8,5.9-10.5,19.6-13.1,37.5c-0.1,0.3-0.1,0.6-0.1,1c-4.9,2.9-10.5,4.6-16.5,4.6
			c-18.4,0-33.3-15.5-33.3-34.6s14.9-34.6,33.3-34.6c4.8,0,9.4,1.1,13.5,3c1.7,0.8,3.3,1.7,4.9,2.8h3.8c0.9,1.5,1.7,3,2.5,4.6
			c0.4,0.8,0.7,1.5,1.1,2.3C99.7,277.6,101,282.1,101.9,286.8z"/>
		<path class="st2" d="M103.2,307.7c-2.7,7.4-7.9,13.6-14.4,17.5l-0.1,0.1c0-0.3,0.1-0.7,0.1-1c2.6-17.9,7.4-31.6,13.1-37.5
			C103.2,293.3,103.6,300.3,103.2,307.7z"/>
		<path class="st2" d="M139.8,251.3c-1.8,4.7-4.5,8.9-7.9,12.4c-1.7,0.8-3.3,1.7-4.9,2.8h-3.9C127.3,259.5,133,254.2,139.8,251.3z"
			/>
		<path class="st2" d="M178.6,295.2c0,19.1-14.9,34.6-33.3,34.6c-6.5,0-12.6-1.9-17.7-5.3l0,0c0-0.1,0-0.1,0-0.1l0,0v-0.1
			c-0.1-0.5-0.2-1-0.2-1.5c-0.1-0.7-0.2-1.5-0.4-2.2c-0.1-0.6-0.2-1.3-0.3-1.9c0-0.2-0.1-0.3-0.1-0.5c-0.1-0.7-0.2-1.3-0.4-2
			c-0.1-0.6-0.3-1.3-0.4-1.9c-0.2-1.1-0.5-2.2-0.7-3.3c-0.1-0.5-0.2-0.9-0.3-1.4c-0.2-0.7-0.4-1.4-0.6-2.1c-0.1-0.3-0.2-0.7-0.3-1
			s-0.2-0.7-0.3-1s-0.2-0.7-0.3-1c-0.1-0.2-0.1-0.4-0.2-0.6c-0.1-0.3-0.2-0.7-0.3-1c-0.3-1-0.7-2-1-3c-0.1-0.3-0.2-0.6-0.3-0.9
			c-0.2-0.6-0.4-1.1-0.7-1.7c-0.2-0.5-0.4-1.1-0.7-1.6c0-0.1-0.1-0.1-0.1-0.2c-0.1-0.3-0.3-0.6-0.4-0.9c-0.1-0.1-0.1-0.2-0.2-0.3
			c-0.1-0.2-0.2-0.5-0.4-0.7c-0.1-0.3-0.3-0.5-0.4-0.8c-0.2-0.4-0.4-0.8-0.7-1.2c-0.1-0.1-0.2-0.3-0.2-0.4c-0.2-0.3-0.3-0.5-0.5-0.8
			c-0.6-1-1.3-1.9-2-2.7c0.9-5.1,2.3-9.9,4.1-14.2c0.4-0.8,0.7-1.7,1.1-2.5c0.8-1.6,1.6-3.2,2.5-4.7h3.9c1.5-1.1,3.2-2,4.9-2.8
			c4.1-1.9,8.7-3,13.5-3C163.7,260.7,178.6,276.1,178.6,295.2z"/>
		<path class="st2" d="M127.6,324.6L127.6,324.6L127.6,324.6c-6.1-4-10.8-9.9-13.4-17c-0.4-6.9,0-13.5,1.1-19.7
			c0.7,0.8,1.3,1.7,2,2.7c0.2,0.3,0.3,0.5,0.5,0.8c0.1,0.1,0.2,0.3,0.2,0.4c0.2,0.4,0.5,0.8,0.7,1.2c0.1,0.3,0.3,0.5,0.4,0.8
			c0.1,0.2,0.2,0.5,0.4,0.7c0.1,0.1,0.1,0.2,0.2,0.3c0.2,0.3,0.3,0.6,0.4,0.9c0,0.1,0.1,0.1,0.1,0.2c0.2,0.5,0.5,1,0.7,1.6
			c0.2,0.5,0.4,1.1,0.7,1.7c0.1,0.3,0.2,0.6,0.3,0.9c0.4,1,0.7,2,1,3c0.1,0.3,0.2,0.7,0.3,1c0.1,0.2,0.1,0.4,0.2,0.6
			c0.1,0.3,0.2,0.6,0.3,1c0.1,0.3,0.2,0.7,0.3,1s0.2,0.7,0.3,1c0.2,0.7,0.4,1.4,0.6,2.1c0.1,0.4,0.2,0.9,0.3,1.4
			c0.3,1.1,0.5,2.2,0.7,3.3c0.1,0.6,0.3,1.3,0.4,1.9s0.3,1.3,0.4,2c0,0.1,0.1,0.3,0.1,0.5c0.1,0.6,0.2,1.3,0.3,1.9
			c0.1,0.7,0.2,1.5,0.4,2.2c0.1,0.5,0.2,1,0.2,1.5L127.6,324.6L127.6,324.6C127.6,324.5,127.6,324.5,127.6,324.6z"/>
		<path class="st2" d="M94.4,266.5h-3.8c-1.5-1.1-3.2-2-4.9-2.8c-3.4-3.4-6.2-7.6-7.9-12.3C84.6,254.3,90.2,259.5,94.4,266.5z"/>
		<path class="st2" d="M127.6,324.6L127.6,324.6L127.6,324.6c-6.1-4-10.8-9.9-13.4-17c0.5,8.9,2.3,18.3,5.4,27.7
			c2.2,6.4,4.9,12.4,8,17.9v0.9H89.3c3.3-5.7,6.2-12.1,8.5-18.9c3.1-9.3,4.9-18.6,5.4-27.5c-2.7,7.4-7.9,13.6-14.4,17.5l-0.1,0.1
			c0-0.3,0.1-0.7,0.1-1c2.6-17.9,7.4-31.6,13.1-37.5c0.7-0.7,1.3-1.2,2-1.7c1.4-0.9,2.8-1.4,4.2-1.4c1.8,0,3.5,0.7,5.2,2.1
			c0.7,0.6,1.3,1.2,2,2s1.3,1.7,2,2.7c0.2,0.3,0.3,0.5,0.5,0.8c0.1,0.1,0.2,0.3,0.2,0.4c0.2,0.4,0.5,0.8,0.7,1.2
			c0.1,0.3,0.3,0.5,0.4,0.8c0.1,0.2,0.2,0.5,0.4,0.7c0.1,0.1,0.1,0.2,0.2,0.3c0.2,0.3,0.3,0.6,0.4,0.9c0,0.1,0.1,0.1,0.1,0.2
			c0.2,0.5,0.5,1,0.7,1.6c0.2,0.5,0.4,1.1,0.7,1.7c0.1,0.3,0.2,0.6,0.3,0.9c0.4,1,0.7,2,1,3c0.1,0.3,0.2,0.7,0.3,1
			c0.1,0.2,0.1,0.4,0.2,0.6c0.1,0.3,0.2,0.6,0.3,1c0.1,0.3,0.2,0.7,0.3,1s0.2,0.7,0.3,1c0.2,0.7,0.4,1.4,0.6,2.1
			c0.1,0.4,0.2,0.9,0.3,1.4c0.3,1.1,0.5,2.2,0.7,3.3c0.1,0.6,0.3,1.3,0.4,1.9s0.3,1.3,0.4,2c0,0.1,0.1,0.3,0.1,0.5
			c0.1,0.6,0.2,1.3,0.3,1.9c0.1,0.7,0.2,1.5,0.4,2.2c0.1,0.5,0.2,1,0.2,1.5L127.6,324.6L127.6,324.6
			C127.6,324.5,127.6,324.5,127.6,324.6z"/>
	</g>
	<g>
		<path class="st3" d="M337.6,423c0,6.6-1.2,13-3.4,18.8c-2.6,7.1-6.7,13.4-11.9,18.6c-2,2-4.1,3.8-6.3,5.4c-2.5,1.8-5.2,3.4-8,4.7
			c-0.8,0.4-1.7,0.8-2.6,1.1c-5.5,2.2-11.5,3.4-17.7,3.4c-6.3,0-12.3-1.2-17.8-3.4c-0.8-0.3-1.6-0.7-2.4-1.1
			c-3.5-1.6-6.7-3.6-9.7-5.9c-1.6-1.3-3.2-2.7-4.7-4.2c-5.2-5.2-9.3-11.5-11.9-18.5c-2.2-5.8-3.4-12.2-3.4-18.8
			c0-28.7,22.4-51.9,50-51.9S337.6,394.2,337.6,423z"/>
		<path class="st3" d="M282.6,507.7c0,6.6-1.2,12.9-3.4,18.7c-4.1,11.1-11.8,20.4-21.6,26.2c-0.1,0.1-0.1,0.1-0.2,0.1
			c-7.3,4.4-15.8,6.8-24.8,6.8c-27.6,0-50-23.2-50-51.9c0-28.7,22.4-51.9,50-51.9c7.2,0,14.1,1.6,20.3,4.5c2.5,1.2,5,2.6,7.3,4.2
			c2.5,1.7,4.9,3.7,7.1,5.9c1.4,1.4,2.8,3,4,4.6c4,5.1,7.2,11.1,9.1,17.6C281.8,497.3,282.6,502.5,282.6,507.7z"/>
		<path class="st3" d="M392.6,507.7c0,28.7-22.4,51.9-50,51.9c-9.8,0-18.9-2.9-26.6-8l0,0c-9.1-5.9-16.2-14.9-20.1-25.5
			c-2.1-5.7-3.2-11.9-3.2-18.4c0-4.9,0.7-9.7,1.9-14.2c1.8-6.8,5-13,9.1-18.4c1.3-1.7,2.7-3.3,4.2-4.8c2.2-2.2,4.5-4.2,7.1-5.9
			c2.3-1.6,4.7-3,7.3-4.2c6.2-2.9,13.1-4.5,20.3-4.5C370.2,455.8,392.6,479.1,392.6,507.7z"/>
		<path class="st3" d="M316,464.6v87.2c-9.1-5.9-16.2-14.9-20.1-25.5c0.7,13.4,3.4,27.5,8.1,41.5c3.2,9.7,7.3,18.7,12,26.9v1.4
			h-57.5c5-8.6,9.3-18.1,12.7-28.3c4.7-14,7.3-27.9,8.1-41.2c-4.1,11.1-11.8,20.4-21.6,26.2v-88.2L316,464.6L316,464.6z"/>
		<path class="st4" d="M277.5,495.1c-8.7,8.8-15.8,29.4-19.7,56.3c-0.1,0.5-0.2,1-0.2,1.5c-7.3,4.4-15.8,6.8-24.8,6.8
			c-27.6,0-50-23.2-50-51.9s22.4-51.9,50-51.9c7.2,0,14.1,1.6,20.3,4.5c2.5,1.2,5,2.6,7.3,4.2h5.8c1.4,2.2,2.6,4.5,3.8,7
			c0.5,1.1,1.1,2.3,1.6,3.5C274.1,481.1,276.1,488,277.5,495.1z"/>
		<path class="st4" d="M279.2,526.5c-4.1,11.1-11.8,20.4-21.6,26.2c-0.1,0.1-0.1,0.1-0.2,0.1c0.1-0.5,0.1-1,0.2-1.5
			c3.9-26.9,11.1-47.5,19.7-56.3C279.2,505,280,515.5,279.2,526.5z"/>
		<path class="st4" d="M334.2,441.7c-2.6,7.1-6.7,13.4-11.9,18.6c-2.5,1.2-5,2.6-7.3,4.2h-5.8C315.5,454.1,324,446.2,334.2,441.7z"
			/>
		<path class="st4" d="M392.6,507.7c0,28.7-22.4,51.9-50,51.9c-9.8,0-18.9-2.9-26.6-8l0,0c0-0.1,0-0.1,0-0.2v-0.1c0-0.1,0-0.1,0-0.2
			c-0.1-0.7-0.2-1.5-0.3-2.2c-0.2-1.1-0.3-2.3-0.5-3.3c-0.1-1-0.3-1.9-0.5-2.9c0-0.2-0.1-0.5-0.1-0.7c-0.2-1-0.4-2-0.6-3
			s-0.4-1.9-0.6-2.9c-0.4-1.7-0.7-3.4-1.1-5c-0.2-0.7-0.3-1.4-0.5-2c-0.3-1.1-0.5-2.1-0.8-3.2c-0.1-0.5-0.3-1-0.4-1.5
			s-0.3-1-0.4-1.5s-0.3-1-0.4-1.5c-0.1-0.3-0.2-0.6-0.3-0.9c-0.1-0.5-0.3-1-0.5-1.5c-0.5-1.6-1-3.1-1.5-4.5
			c-0.2-0.4-0.3-0.9-0.5-1.3c-0.3-0.8-0.6-1.7-1-2.5c-0.3-0.8-0.7-1.6-1-2.4c-0.1-0.1-0.1-0.2-0.1-0.3c-0.2-0.5-0.4-1-0.7-1.4
			c-0.1-0.2-0.2-0.3-0.2-0.5c-0.2-0.4-0.3-0.7-0.5-1.1s-0.4-0.8-0.6-1.2c-0.3-0.6-0.7-1.2-1-1.8c-0.1-0.2-0.2-0.4-0.3-0.6
			c-0.2-0.4-0.5-0.8-0.7-1.2c-0.9-1.5-1.9-2.8-2.9-4c1.3-7.6,3.4-14.8,6.1-21.3c0.5-1.3,1.1-2.5,1.7-3.7c1.2-2.4,2.4-4.8,3.8-7h5.8
			c2.3-1.6,4.7-3,7.3-4.2c6.2-2.9,13.1-4.5,20.3-4.5C370.2,455.8,392.6,479.1,392.6,507.7z"/>
		<path class="st4" d="M316,551.6L316,551.6C316,551.8,316,551.8,316,551.6c-9.1-6-16.2-14.9-20.1-25.5c-0.6-10.4,0-20.3,1.6-29.6
			c1,1.2,2,2.5,2.9,4c0.2,0.4,0.5,0.8,0.7,1.2c0.1,0.2,0.2,0.4,0.3,0.6c0.3,0.6,0.7,1.2,1,1.8c0.2,0.4,0.4,0.8,0.6,1.2
			c0.2,0.3,0.4,0.7,0.5,1.1c0.1,0.2,0.2,0.3,0.2,0.5c0.2,0.5,0.4,0.9,0.7,1.4c0.1,0.1,0.1,0.2,0.1,0.3c0.3,0.8,0.7,1.5,1,2.4
			c0.3,0.8,0.7,1.6,1,2.5c0.2,0.4,0.3,0.8,0.5,1.3c0.5,1.5,1,3,1.5,4.5c0.2,0.5,0.3,1,0.5,1.5c0.1,0.3,0.2,0.6,0.3,0.9
			c0.1,0.5,0.3,1,0.4,1.5c0.2,0.5,0.3,1,0.4,1.5c0.2,0.5,0.3,1,0.4,1.5c0.3,1,0.6,2.1,0.8,3.2c0.2,0.7,0.3,1.3,0.5,2
			c0.4,1.6,0.7,3.3,1.1,5c0.2,0.9,0.4,1.9,0.6,2.9s0.4,2,0.6,3c0,0.2,0.1,0.5,0.1,0.7c0.2,0.9,0.3,1.9,0.5,2.9
			c0.2,1.1,0.4,2.2,0.5,3.3c0.1,0.7,0.2,1.5,0.3,2.2c0,0.1,0,0.1,0,0.2v0.1C316,551.5,316,551.6,316,551.6z"/>
		<path class="st4" d="M266.1,464.6h-5.9c-2.3-1.6-4.7-3-7.3-4.2c-5.2-5.2-9.3-11.5-11.9-18.5C251.3,446.3,259.7,454.2,266.1,464.6z
			"/>
		<path class="st4" d="M316,551.6L316,551.6C316,551.8,316,551.8,316,551.6c-9.1-6-16.2-14.9-20.1-25.5c0.7,13.4,3.4,27.5,8.1,41.5
			c3.2,9.7,7.3,18.7,12,26.9v1.4h-57.5c5-8.6,9.3-18.1,12.7-28.3c4.7-14,7.3-27.9,8.1-41.2c-4.1,11.1-11.8,20.4-21.6,26.2
			c-0.1,0.1-0.1,0.1-0.2,0.1c0.1-0.5,0.1-1,0.2-1.5c3.9-26.9,11.1-47.5,19.7-56.3c1-1,2-1.9,3.1-2.6c2-1.4,4.2-2.1,6.3-2.1
			c2.7,0,5.3,1.1,7.7,3.1c1,0.8,2,1.8,3,3s2,2.5,2.9,4c0.2,0.4,0.5,0.8,0.7,1.2c0.1,0.2,0.2,0.4,0.3,0.6c0.3,0.6,0.7,1.2,1,1.8
			c0.2,0.4,0.4,0.8,0.6,1.2c0.2,0.3,0.4,0.7,0.5,1.1c0.1,0.2,0.2,0.3,0.2,0.5c0.2,0.5,0.4,0.9,0.7,1.4c0.1,0.1,0.1,0.2,0.1,0.3
			c0.3,0.8,0.7,1.5,1,2.4c0.3,0.8,0.7,1.6,1,2.5c0.2,0.4,0.3,0.8,0.5,1.3c0.5,1.5,1,3,1.5,4.5c0.2,0.5,0.3,1,0.5,1.5
			c0.1,0.3,0.2,0.6,0.3,0.9c0.1,0.5,0.3,1,0.4,1.5c0.2,0.5,0.3,1,0.4,1.5c0.2,0.5,0.3,1,0.4,1.5c0.3,1,0.6,2.1,0.8,3.2
			c0.2,0.7,0.3,1.3,0.5,2c0.4,1.6,0.7,3.3,1.1,5c0.2,0.9,0.4,1.9,0.6,2.9s0.4,2,0.6,3c0,0.2,0.1,0.5,0.1,0.7
			c0.2,0.9,0.3,1.9,0.5,2.9c0.2,1.1,0.4,2.2,0.5,3.3c0.1,0.7,0.2,1.5,0.3,2.2c0,0.1,0,0.1,0,0.2v0.1C316,551.5,316,551.6,316,551.6z
			"/>
	</g>
</g>
</svg>
