<?xml version="1.0" encoding="utf-8"?>
<!-- Generator: Adobe Illustrator 22.1.0, SVG Export Plug-In . SVG Version: 6.00 Build 0)  -->
<svg version="1.1" id="Layer_1" xmlns="http://www.w3.org/2000/svg" xmlns:xlink="http://www.w3.org/1999/xlink" x="0px" y="0px"
	 viewBox="0 0 430 630" style="enable-background:new 0 0 430 630;" xml:space="preserve">
<style type="text/css">
	.st0{fill:#FFFFFF;stroke:#000000;stroke-width:1.5;stroke-miterlimit:10;}
	.st1{stroke:#000000;stroke-width:0.2827;stroke-miterlimit:10;}
	.st2{fill:none;stroke:#000000;stroke-width:0.2827;stroke-miterlimit:10;}
	.st3{fill:#FDC20F;}
	.st4{fill:#FFFFFF;}
</style>
<g>
	<path class="st0" d="M400,615H30c-8.3,0-15-6.7-15-15V30c0-8.3,6.7-15,15-15h370c8.3,0,15,6.7,15,15v570
		C415,608.3,408.3,615,400,615z"/>
	<g>
		<g>
			<path d="M80.8,174.4c-5.6-2.7-10-6.5-13.4-11.5l15.3-11.1c1.7,2.8,4,4.9,7,6.4s6.3,2.2,10,2.2c6.1,0,10.9-2,14.3-5.9
				s5.1-9.4,5.1-16.5V54.5H138v83.7c0,8.5-1.5,15.8-4.5,21.8s-7.4,10.6-13.2,13.8s-12.7,4.7-20.9,4.7
				C92.6,178.5,86.4,177.1,80.8,174.4z"/>
		</g>
	</g>
	<g>
		<path class="st1" d="M142.1,238.7c0,4.4-0.8,8.6-2.3,12.5c-1.8,4.7-4.5,8.9-7.9,12.4c-1.3,1.3-2.7,2.5-4.2,3.6
			c-1.7,1.2-3.5,2.3-5.3,3.1c-0.6,0.3-1.1,0.5-1.7,0.7c-3.7,1.5-7.6,2.2-11.8,2.2s-8.2-0.8-11.9-2.3c-0.5-0.2-1.1-0.4-1.6-0.7
			c-2.3-1-4.5-2.4-6.5-3.9c-1.1-0.9-2.1-1.8-3.1-2.8c-3.4-3.4-6.2-7.6-7.9-12.3c-1.5-3.9-2.3-8.1-2.3-12.5
			c0-19.1,14.9-34.6,33.3-34.6S142.1,219.6,142.1,238.7z"/>
		<path class="st1" d="M105.5,295.2c0,4.4-0.8,8.6-2.2,12.5c-2.7,7.4-7.9,13.6-14.4,17.5l-0.1,0.1c-4.9,2.9-10.5,4.6-16.5,4.6
			c-18.4,0-33.3-15.5-33.3-34.6s14.9-34.6,33.3-34.6c4.8,0,9.4,1.1,13.5,3c1.7,0.8,3.3,1.7,4.9,2.8c1.7,1.2,3.3,2.5,4.7,3.9
			c1,1,1.8,2,2.7,3c2.7,3.4,4.8,7.4,6,11.7C105,288.3,105.5,291.7,105.5,295.2z"/>
		<path class="st1" d="M178.7,295.2c0,19.1-14.9,34.6-33.3,34.6c-6.5,0-12.6-1.9-17.7-5.3l0,0c-6.1-4-10.8-9.9-13.4-17
			c-1.4-3.8-2.2-7.9-2.2-12.3c0-3.3,0.4-6.4,1.3-9.4c1.2-4.5,3.3-8.7,6.1-12.2c0.9-1.1,1.8-2.2,2.8-3.2c1.4-1.5,3-2.8,4.7-3.9
			c1.5-1.1,3.2-2,4.9-2.8c4.1-1.9,8.7-3,13.5-3C163.8,260.6,178.7,276.1,178.7,295.2z"/>
		<path class="st1" d="M127.7,266.4v58c-6.1-4-10.8-9.9-13.4-17c0.5,8.9,2.3,18.3,5.4,27.7c2.2,6.4,4.9,12.4,8,17.9v0.9H89.4
			c3.3-5.7,6.2-12.1,8.5-18.9c3.1-9.3,4.9-18.6,5.4-27.5c-2.7,7.4-7.9,13.6-14.4,17.5v-58.7h38.8V266.4z"/>
		<path class="st2" d="M102,286.8c-5.8,5.9-10.5,19.6-13.1,37.5c-0.1,0.3-0.1,0.6-0.1,1c-4.9,2.9-10.5,4.6-16.5,4.6
			c-18.4,0-33.3-15.5-33.3-34.6s14.9-34.6,33.3-34.6c4.8,0,9.4,1.1,13.5,3c1.7,0.8,3.3,1.7,4.9,2.8h3.8c0.9,1.5,1.7,3,2.5,4.6
			c0.4,0.8,0.7,1.5,1.1,2.3C99.8,277.5,101.1,282,102,286.8z"/>
		<path class="st2" d="M103.3,307.7c-2.7,7.4-7.9,13.6-14.4,17.5l-0.1,0.1c0-0.3,0.1-0.7,0.1-1c2.6-17.9,7.4-31.6,13.1-37.5
			C103.3,293.3,103.7,300.3,103.3,307.7z"/>
		<path class="st2" d="M139.9,251.3c-1.8,4.7-4.5,8.9-7.9,12.4c-1.7,0.8-3.3,1.7-4.9,2.8h-3.9C127.4,259.5,133,254.2,139.9,251.3z"
			/>
		<path class="st2" d="M178.7,295.2c0,19.1-14.9,34.6-33.3,34.6c-6.5,0-12.6-1.9-17.7-5.3l0,0c0-0.1,0-0.1,0-0.1l0,0v-0.1
			c-0.1-0.5-0.2-1-0.2-1.5c-0.1-0.7-0.2-1.5-0.4-2.2c-0.1-0.6-0.2-1.3-0.3-1.9c0-0.2-0.1-0.3-0.1-0.5c-0.1-0.7-0.2-1.3-0.4-2
			c-0.1-0.6-0.3-1.3-0.4-1.9c-0.2-1.1-0.5-2.2-0.7-3.3c-0.1-0.5-0.2-0.9-0.3-1.4c-0.2-0.7-0.4-1.4-0.6-2.1c-0.1-0.3-0.2-0.7-0.3-1
			s-0.2-0.7-0.3-1s-0.2-0.7-0.3-1c-0.1-0.2-0.1-0.4-0.2-0.6c-0.1-0.3-0.2-0.7-0.3-1c-0.3-1-0.7-2-1-3c-0.1-0.3-0.2-0.6-0.3-0.9
			c-0.2-0.6-0.4-1.1-0.7-1.7c-0.2-0.5-0.4-1.1-0.7-1.6c0-0.1-0.1-0.1-0.1-0.2c-0.1-0.3-0.3-0.6-0.4-0.9c-0.1-0.1-0.1-0.2-0.2-0.3
			c-0.1-0.2-0.2-0.5-0.4-0.7c-0.1-0.3-0.3-0.5-0.4-0.8c-0.2-0.4-0.4-0.8-0.7-1.2c-0.1-0.1-0.2-0.3-0.2-0.4c-0.2-0.3-0.3-0.5-0.5-0.8
			c-0.6-1-1.3-1.9-2-2.7c0.9-5.1,2.3-9.9,4.1-14.2c0.4-0.8,0.7-1.7,1.1-2.5c0.8-1.6,1.6-3.2,2.5-4.7h3.9c1.5-1.1,3.2-2,4.9-2.8
			c4.1-1.9,8.7-3,13.5-3C163.8,260.6,178.7,276.1,178.7,295.2z"/>
		<path class="st2" d="M127.7,324.5L127.7,324.5L127.7,324.5c-6.1-4-10.8-9.9-13.4-17c-0.4-6.9,0-13.5,1.1-19.7
			c0.7,0.8,1.3,1.7,2,2.7c0.2,0.3,0.3,0.5,0.5,0.8c0.1,0.1,0.2,0.3,0.2,0.4c0.2,0.4,0.5,0.8,0.7,1.2c0.1,0.3,0.3,0.5,0.4,0.8
			c0.1,0.2,0.2,0.5,0.4,0.7c0.1,0.1,0.1,0.2,0.2,0.3c0.2,0.3,0.3,0.6,0.4,0.9c0,0.1,0.1,0.1,0.1,0.2c0.2,0.5,0.5,1,0.7,1.6
			c0.2,0.5,0.4,1.1,0.7,1.7c0.1,0.3,0.2,0.6,0.3,0.9c0.4,1,0.7,2,1,3c0.1,0.3,0.2,0.7,0.3,1c0.1,0.2,0.1,0.4,0.2,0.6
			c0.1,0.3,0.2,0.6,0.3,1c0.1,0.3,0.2,0.7,0.3,1s0.2,0.7,0.3,1c0.2,0.7,0.4,1.4,0.6,2.1c0.1,0.4,0.2,0.9,0.3,1.4
			c0.3,1.1,0.5,2.2,0.7,3.3c0.1,0.6,0.3,1.3,0.4,1.9s0.3,1.3,0.4,2c0,0.1,0.1,0.3,0.1,0.5c0.1,0.6,0.2,1.3,0.3,1.9
			c0.1,0.7,0.2,1.5,0.4,2.2c0.1,0.5,0.2,1,0.2,1.5L127.7,324.5L127.7,324.5C127.7,324.4,127.7,324.4,127.7,324.5z"/>
		<path class="st2" d="M94.5,266.4h-3.8c-1.5-1.1-3.2-2-4.9-2.8c-3.4-3.4-6.2-7.6-7.9-12.3C84.7,254.3,90.3,259.5,94.5,266.4z"/>
		<path class="st2" d="M127.7,324.5L127.7,324.5L127.7,324.5c-6.1-4-10.8-9.9-13.4-17c0.5,8.9,2.3,18.3,5.4,27.7
			c2.2,6.4,4.9,12.4,8,17.9v0.9H89.4c3.3-5.7,6.2-12.1,8.5-18.9c3.1-9.3,4.9-18.6,5.4-27.5c-2.7,7.4-7.9,13.6-14.4,17.5l-0.1,0.1
			c0-0.3,0.1-0.7,0.1-1c2.6-17.9,7.4-31.6,13.1-37.5c0.7-0.7,1.3-1.2,2-1.7c1.4-0.9,2.8-1.4,4.2-1.4c1.8,0,3.5,0.7,5.2,2.1
			c0.7,0.6,1.3,1.2,2,2s1.3,1.7,2,2.7c0.2,0.3,0.3,0.5,0.5,0.8c0.1,0.1,0.2,0.3,0.2,0.4c0.2,0.4,0.5,0.8,0.7,1.2
			c0.1,0.3,0.3,0.5,0.4,0.8c0.1,0.2,0.2,0.5,0.4,0.7c0.1,0.1,0.1,0.2,0.2,0.3c0.2,0.3,0.3,0.6,0.4,0.9c0,0.1,0.1,0.1,0.1,0.2
			c0.2,0.5,0.5,1,0.7,1.6c0.2,0.5,0.4,1.1,0.7,1.7c0.1,0.3,0.2,0.6,0.3,0.9c0.4,1,0.7,2,1,3c0.1,0.3,0.2,0.7,0.3,1
			c0.1,0.2,0.1,0.4,0.2,0.6c0.1,0.3,0.2,0.6,0.3,1c0.1,0.3,0.2,0.7,0.3,1s0.2,0.7,0.3,1c0.2,0.7,0.4,1.4,0.6,2.1
			c0.1,0.4,0.2,0.9,0.3,1.4c0.3,1.1,0.5,2.2,0.7,3.3c0.1,0.6,0.3,1.3,0.4,1.9s0.3,1.3,0.4,2c0,0.1,0.1,0.3,0.1,0.5
			c0.1,0.6,0.2,1.3,0.3,1.9c0.1,0.7,0.2,1.5,0.4,2.2c0.1,0.5,0.2,1,0.2,1.5L127.7,324.5L127.7,324.5
			C127.7,324.4,127.7,324.4,127.7,324.5z"/>
	</g>
	<g>
		<path class="st3" d="M361.7,595.5c-0.8,0-1.5,0-2.3,0c0.1-1.7,0.3-3.3,0.3-5c0-25.9,0.2-51.9,0-77.8c-0.1-9.3,3-17,9-24.1
			c2.2-2.6,2.9-6.5,4.2-9.8c-0.6-0.3-1.3-0.7-1.9-1c-9.6,9.7-19.6,18.7-32.7,23.6c-8.2-11.9-15.5-14.7-29.2-12
			c-2,0.4-4.9-0.3-6.5-1.6c-11.1-8.7-21.9-17.7-32.9-26.5c-6.6-5.3-13.2-10.6-20.4-16.4c-4.2,15.7-8.1,30.5-12.5,46.8
			c-12.5-12.2-23.8-23.2-35.1-34.2c-2.6,3.2-5.2,6.3-8.1,9.8c-1.5-1.6-2.6-2.8-3.6-3.8c2.5-3.8,4.8-7.3,7.5-11.4
			c-6-0.5-9.7-2-9.2-7.9c0.5-7.5,1.3-15,0.9-22.4c-0.5-8.9-0.7-9.2,9.3-10.7c0-7.2,0.3-14.4-0.1-21.7c-0.3-5.5,1.1-9.6,5.7-13
			c1.6-1.1,2.2-3.5,3.2-5.3c-0.4-0.3-0.9-0.6-1.3-0.8c-2.3,1.7-4.5,3.5-7.3,5.6c0-8.8-2.5-17.3,7-22.6c1-0.6,0.9-3,1.7-5.9
			c-3.6,2.7-5.9,4.5-9.1,6.9c0-12.8,0-24.5,0-36.2c-0.5,0-1.1,0-1.6,0c-4.2,24.2-0.5,48.8-2.3,73.2c-0.5,0.2-1,0.4-1.5,0.6
			c-3.1-5.3-6.2-10.6-9.3-16c0-17.9,0-35.9,0-53.8c1.1-3.9,2-7.9,3.3-11.8c4.6-13.4,15.3-20.8,27.9-26.3c0.8,0,1.5,0,2.3,0
			c-0.1,1.3-0.3,2.6-0.3,3.9c0,26.1-0.3,52.3,0.1,78.4c0.1,9.8-2.8,18-9.6,24.9c-3.2,3.3-3,6.6-2.2,11.1c9.9-10.4,20-19.1,32.9-24.2
			c7.2,10.1,14.1,14.8,22.8,12.6c8.7-2.2,14.2,0.8,19.7,6.2c1.8,1.7,3.8,3.2,5.7,4.7c13.4,10.9,26.8,21.8,40.9,33.2
			c4.1-15.5,8.1-30.4,12.5-46.9c12.4,12.2,23.8,23.3,35,34.4c2.8-3.4,5.4-6.5,8.3-10c1.6,1.8,2.7,3,3.5,3.9c-2.6,3.8-4.9,7.3-7.4,11
			c8,1.8,9.5,3.8,9,8.7c-0.7,7.3-1.3,14.6-0.8,21.9c0.5,8.9,0.7,9.2-9.2,10.7c0,7.3-0.3,14.8,0.1,22.2c0.3,5.1-1,8.9-5.3,12.1
			c-1.7,1.3-2.5,3.7-3.7,5.7c0.5,0.3,0.9,0.6,1.4,0.9c2.3-1.7,4.6-3.5,7.5-5.7c0,5.5,0,10.1,0,14.8c0,0.4,0,0.9-0.2,1.1
			c-2.3,2.2-4.8,4.3-6.8,6.7c-1,1.2-1,3.1-1.9,6.3c3.7-3,5.9-4.8,9.1-7.3c0,12.9,0,24.6,0,36.3c0.6,0,1.1,0,1.7,0
			c4.2-24.3,0.6-49,2.4-73.5c0.5-0.2,1.1-0.4,1.6-0.6c3.1,5.4,6.2,10.8,9.3,16.2c0,17.9,0,35.9,0,53.8c-3.3,7.8-5.2,16.7-10.4,23.1
			C377.4,586.8,368.8,590.6,361.7,595.5z M205.9,415.3L205.9,415.3c-3.3,0-6.5-0.2-9.7,0.1c-1.4,0.1-2.6,1.4-3.9,2.2
			c1.2,0.9,2.4,2.5,3.6,2.6c6.7,0.3,13.4,0.3,20.1,0c1.2,0,2.4-1.6,3.6-2.5c-1.3-0.8-2.5-2.1-3.9-2.3
			C212.4,415,209.1,415.3,205.9,415.3z M370.8,459.2L370.8,459.2c-3.5,0-7-0.2-10.4,0.1c-1.2,0.1-2.3,1.4-3.4,2.2
			c1.2,0.9,2.3,2.5,3.6,2.5c6.7,0.3,13.5,0.2,20.2,0c1.2,0,2.3-1.4,3.4-2.2c-1.2-0.9-2.3-2.4-3.6-2.6
			C377.3,458.9,374,459.2,370.8,459.2z M371.1,454.9L371.1,454.9c3.3,0,6.5,0.2,9.8-0.1c1.2-0.1,2.2-1.4,3.3-2.2
			c-1-0.8-2-2.4-3.1-2.4c-6.7-0.2-13.4-0.2-20.1,0c-1,0-2,1.6-3,2.5c1.1,0.8,2.2,2.1,3.4,2.2C364.6,455.1,367.9,454.9,371.1,454.9z
			 M205,429.5L205,429.5c3.5,0,6.9,0.2,10.4-0.1c1.1-0.1,2.1-1.6,3.2-2.4c-0.9-0.8-1.8-2.2-2.7-2.2c-6.9-0.2-13.8-0.2-20.8,0
			c-1,0-1.9,1.4-2.9,2.1c1,0.9,1.9,2.4,3,2.5C198.4,429.7,201.7,429.5,205,429.5z M204.9,438.6L204.9,438.6c3.3,0,6.5,0.2,9.7-0.1
			c1-0.1,1.9-1.7,2.9-2.5c-1-0.7-1.9-2-2.9-2c-6.5-0.2-13-0.2-19.5,0.1c-1,0-1.9,1.7-2.9,2.6c1,0.7,1.9,1.9,2.9,2
			C198.3,438.8,201.6,438.6,204.9,438.6z M371.6,445.6L371.6,445.6c3.1,0,6.2,0.2,9.2-0.1c1.2-0.1,2.2-1.4,3.3-2.1
			c-1-0.8-2-2.3-3.1-2.3c-6.4-0.2-12.7-0.2-19.1,0c-1,0-2,1.6-3,2.4c1.1,0.7,2.2,2,3.4,2.1C365.4,445.8,368.5,445.6,371.6,445.6z
			 M371.7,436.4L371.7,436.4c3.3,0,6.5,0.1,9.8-0.1c1-0.1,1.8-1.3,2.8-2.1c-0.9-0.8-1.7-2.2-2.6-2.2c-6.3-0.2-12.6-0.2-19,0
			c-1,0-1.9,1.3-2.8,2c1.1,0.8,2.1,2.1,3.2,2.3C365.9,436.7,368.8,436.4,371.7,436.4z M204,447.6L204,447.6c3.3,0,6.5,0.1,9.7-0.1
			c1-0.1,1.9-1.3,2.8-2c-0.9-0.8-1.7-2.2-2.6-2.3c-6.3-0.2-12.6-0.2-18.9,0c-0.9,0-1.8,1.4-2.8,2.1c1.1,0.8,2,2.1,3.2,2.2
			C198.2,447.8,201.1,447.6,204,447.6z M273.6,421.1c-3.5-1.9-5.5-3.8-6.9-3.5c-1.6,0.3-3.4,2.7-3.7,4.4c-0.1,0.9,2.7,3.3,4.2,3.3
			S270.4,423.3,273.6,421.1z M294.6,440.1c-3-2.2-4.6-4.3-6.3-4.4c-1.4-0.1-4.1,2.3-4,3.5c0.1,1.7,2,4.2,3.6,4.5
			C289.4,444,291.3,442,294.6,440.1z M316,458.1c-3.2-2-4.9-3.9-6.6-3.9c-1.4,0-4.1,2.5-3.9,3.4c0.4,1.7,2.3,4,3.9,4.2
			C310.8,462.1,312.7,460.1,316,458.1z"/>
		<path class="st4" d="M183.4,375.9c3.1,5.3,6.2,10.6,9.3,16c0.5-0.2,1-0.4,1.5-0.6c1.8-24.3-1.9-48.9,2.3-73.2c0.5,0,1.1,0,1.6,0
			c0,11.7,0,23.4,0,36.2c3.2-2.4,5.5-4.2,9.1-6.9c-0.8,2.9-0.7,5.3-1.7,5.9c-9.5,5.3-6.9,13.8-7,22.6c2.8-2.1,5.1-3.9,7.3-5.6
			c0.4,0.3,0.9,0.6,1.3,0.8c-1,1.8-1.6,4.2-3.2,5.3c-4.6,3.4-6,7.5-5.7,13c0.5,7.2,0.1,14.5,0.1,21.7c-9.9,1.5-9.7,1.8-9.3,10.7
			c0.4,7.4-0.4,14.9-0.9,22.4c-0.4,5.8,3.3,7.3,9.2,7.9c-2.7,4.1-5,7.6-7.5,11.4c1,1,2.1,2.2,3.6,3.8c2.9-3.5,5.5-6.6,8.1-9.8
			c11.3,11,22.7,22.1,35.1,34.2c4.3-16.3,8.3-31.1,12.5-46.8c7.2,5.8,13.8,11.1,20.4,16.4c10.9,8.9,21.8,17.8,32.9,26.5
			c1.6,1.3,4.5,2,6.5,1.6c13.8-2.7,21,0.1,29.2,12c13.1-4.9,23.1-13.9,32.7-23.6c0.6,0.3,1.3,0.7,1.9,1c-1.4,3.3-2,7.2-4.2,9.8
			c-6,7.1-9.1,14.8-9,24.1c0.3,25.9,0.1,51.9,0,77.8c0,1.7-0.2,3.3-0.3,5c-58.6,0-117.2,0-176,0
			C183.4,522.3,183.4,449.1,183.4,375.9z M234.5,531c15.6-0.3,26.5-9.4,38.2-16.6c-9.6-5.6-18.2,2-28,1.8c0.3-4.3,0.7-8.3,1-13.1
			c9.6,0.7,18.5,1.3,28.2,2c-10.5-5.5-21.2-5.9-32-5.4c-0.3,0.9-0.5,1.2-0.6,1.5c-0.4,4.5-0.8,8.9-1.1,13.4
			c-0.7,10.4-0.7,10.4-10.7,13.6c-0.3,0.1-0.5,0.5-0.8,0.7c3.4,9.1,7,18.2,10,27.4c0.9,2.9,0.8,6.6-0.2,9.5c-2.1,6.6-5,13-7.9,20.4
			c30.1,6.2,58.4,4.6,86.9-4.7c-2-5.1-3.5-9.3-5.4-13.4c-2.1-4.5-2.2-8.6-0.1-13.3c3.8-8.2,6.8-16.8,10.2-25.2c-3-1-5.4-1.8-7.8-2.6
			c1.2-1.1,2.1-1.2,3-1.2c11.8-0.4,18.5-7.3,17.6-18.2c-0.8-10-10-16.7-20.9-15.2c-8.1,1.1-14.8,4.8-19.1,11.4
			c-3.9,5.9-7.1,12.3-10.1,18.8c-3.3,7.1-5.4,14.8-8.8,21.8c-5.5,11.3-15.1,16.6-28.2,15c-1.4-0.2-3.4-1.2-3.8-2.3
			C241.1,549,238.1,540.6,234.5,531z M299.4,493.6c-15.5-12.7-30.9-25.1-46.8-38.1c-3.4,13.4-6.5,25.3-9.5,37.3
			c8.7,1.2,16.6,1.6,24.2,3.4c7.7,1.8,15.2,4.8,22.8,7.3C292.9,500.4,295.9,497.2,299.4,493.6z"/>
		<path class="st4" d="M393,503.6c-3.1-5.4-6.2-10.8-9.3-16.2c-0.5,0.2-1.1,0.4-1.6,0.6c-1.7,24.4,1.9,49.2-2.4,73.5
			c-0.6,0-1.1,0-1.7,0c0-11.7,0-23.5,0-36.3c-3.2,2.5-5.4,4.4-9.1,7.3c0.9-3.2,0.9-5.1,1.9-6.3c2-2.4,4.6-4.5,6.8-6.7
			c0.2-0.2,0.2-0.7,0.2-1.1c0-4.6,0-9.3,0-14.8c-2.9,2.2-5.2,4-7.5,5.7c-0.5-0.3-0.9-0.6-1.4-0.9c1.2-1.9,2-4.4,3.7-5.7
			c4.3-3.2,5.6-7,5.3-12.1c-0.4-7.4-0.1-14.9-0.1-22.2c9.9-1.5,9.7-1.8,9.2-10.7c-0.4-7.3,0.2-14.6,0.8-21.9c0.5-4.9-1-6.9-9-8.7
			c2.5-3.7,4.8-7.1,7.4-11c-0.8-0.9-1.9-2.1-3.5-3.9c-2.9,3.5-5.5,6.6-8.3,10c-11.3-11.1-22.7-22.3-35-34.4
			c-4.4,16.5-8.3,31.4-12.5,46.9c-14.1-11.4-27.5-22.3-40.9-33.2c-1.9-1.6-4-3-5.7-4.7c-5.5-5.4-11.1-8.4-19.7-6.2
			c-8.7,2.2-15.5-2.4-22.8-12.6c-12.9,5.1-23,13.8-32.9,24.2c-0.9-4.5-1-7.8,2.2-11.1c6.8-6.9,9.7-15.2,9.6-24.9
			c-0.4-26.1-0.1-52.3-0.1-78.4c0-1.3,0.2-2.6,0.3-3.9c58.7,0,117.3,0,176,0C393,357.2,393,430.4,393,503.6z M261.6,352.1
			c-0.1,0.4-0.1,0.9-0.2,1.3c-1,0-1.9,0.1-2.9,0.1c-11.3,0.4-17.7,6.8-17.4,17.2c0.3,9.7,8.4,16.7,18.9,16.3
			c9.4-0.4,17-4.7,21.5-12.3c5.1-8.5,8.7-17.8,12.9-26.7c3-6.2,5.4-12.8,9.2-18.5c5.3-8.1,16.6-11.9,26-9.6c0.9,0.2,2,1.1,2.3,2
			c3.2,8.5,6.4,17,9.9,26.6c-15.7,0.4-26.5,9.3-38.1,16.6c9.6,5.2,18.2-1.9,27.9-1.9c-0.3,4.3-0.7,8.3-1,13.2
			c-9.4-0.6-18.4-1.2-27.8-1.9c10.2,5.5,20.9,5.8,32,5.3c0.4-4.9,1.1-9.3,1.1-13.8c0-7.8-0.5-15.7,12-14.3
			c-3.6-9.7-6.7-18.5-10.2-27.1c-1.6-4.1-1.9-7.7,0-11.8c2.8-6.1,5-12.4,7.8-19.6c-29.8-6.3-58.2-4.7-86.9,4.6
			c2,5.2,3.5,9.8,5.6,14.2c2,4.2,1.7,8-0.1,12.2c-3.7,8.3-6.9,16.9-10.3,25.4C256.7,350.5,259.2,351.3,261.6,352.1z M277.1,385.9
			c15.3,12.5,30.7,25,46.7,38.1c3.4-13.2,6.5-25.3,9.3-36.5c-12.3-2.5-24.2-3.3-34.6-7.5c-9.4-3.8-15.2-3.2-20.7,4.6
			C277.7,384.9,277.6,385.2,277.1,385.9z"/>
		<path class="st4" d="M214.7,284c-12.6,5.5-23.3,12.9-27.9,26.3c-1.3,3.9-2.2,7.8-3.3,11.8c0-12.7,0-25.4,0-38.1
			C193.9,284,204.3,284,214.7,284z"/>
		<path class="st4" d="M361.7,595.5c7.1-4.9,15.6-8.7,20.8-15c5.2-6.4,7.1-15.3,10.4-23.1c0,12.7,0,25.4,0,38.1
			C382.6,595.5,372.2,595.5,361.7,595.5z"/>
		<path class="st4" d="M205.9,415.3c3.3,0,6.5-0.2,9.7,0.1c1.4,0.1,2.6,1.5,3.9,2.3c-1.2,0.9-2.4,2.5-3.6,2.5
			c-6.7,0.2-13.4,0.2-20.1,0c-1.2,0-2.4-1.7-3.6-2.6c1.3-0.8,2.5-2.1,3.9-2.2C199.3,415.1,202.6,415.3,205.9,415.3L205.9,415.3z"/>
		<path class="st4" d="M370.8,459.2c3.3,0,6.6-0.3,9.8,0.1c1.3,0.1,2.4,1.7,3.6,2.6c-1.1,0.8-2.2,2.2-3.4,2.2
			c-6.7,0.2-13.5,0.2-20.2,0c-1.2,0-2.4-1.7-3.6-2.5c1.1-0.8,2.2-2.1,3.4-2.2C363.8,459,367.3,459.2,370.8,459.2L370.8,459.2z"/>
		<path class="st4" d="M371.1,454.9c-3.3,0-6.5,0.2-9.8-0.1c-1.2-0.1-2.3-1.4-3.4-2.2c1-0.9,2-2.4,3-2.5c6.7-0.2,13.4-0.2,20.1,0
			c1.1,0,2.1,1.6,3.1,2.4c-1.1,0.8-2.2,2.1-3.3,2.2C377.7,455,374.4,454.8,371.1,454.9L371.1,454.9z"/>
		<path class="st4" d="M205,429.5c-3.3,0-6.6,0.2-9.8-0.1c-1.1-0.1-2-1.6-3-2.5c1-0.7,1.9-2.1,2.9-2.1c6.9-0.2,13.8-0.2,20.8,0
			c0.9,0,1.8,1.4,2.7,2.2c-1.1,0.8-2,2.3-3.2,2.4C211.9,429.7,208.5,429.5,205,429.5L205,429.5z"/>
		<path class="st4" d="M204.9,438.6c-3.3,0-6.5,0.2-9.7-0.1c-1-0.1-1.9-1.3-2.9-2c1-0.9,1.9-2.5,2.9-2.6c6.5-0.2,13-0.2,19.5-0.1
			c1,0,1.9,1.3,2.9,2c-1,0.9-1.8,2.4-2.9,2.5C211.4,438.8,208.1,438.6,204.9,438.6L204.9,438.6z"/>
		<path class="st4" d="M371.6,445.6c-3.1,0-6.2,0.2-9.2-0.1c-1.2-0.1-2.2-1.3-3.4-2.1c1-0.8,2-2.4,3-2.4c6.4-0.2,12.7-0.2,19.1,0
			c1.1,0,2.1,1.5,3.1,2.3c-1.1,0.7-2.1,2-3.3,2.1C377.8,445.8,374.7,445.6,371.6,445.6L371.6,445.6z"/>
		<path class="st4" d="M371.7,436.4c-2.9,0-5.8,0.2-8.6-0.1c-1.1-0.1-2.1-1.5-3.2-2.3c0.9-0.7,1.9-2,2.8-2c6.3-0.2,12.6-0.2,19,0
			c0.9,0,1.7,1.4,2.6,2.2c-0.9,0.7-1.8,2-2.8,2.1C378.2,436.6,374.9,436.4,371.7,436.4L371.7,436.4z"/>
		<path class="st4" d="M204,447.6c-2.9,0-5.8,0.2-8.6-0.1c-1.1-0.1-2.1-1.4-3.2-2.2c0.9-0.7,1.8-2.1,2.8-2.1
			c6.3-0.2,12.6-0.2,18.9,0c0.9,0,1.8,1.5,2.6,2.3c-0.9,0.7-1.8,2-2.8,2C210.5,447.7,207.3,447.6,204,447.6L204,447.6z"/>
		<path class="st4" d="M273.6,421.1c-3.2,2.2-4.8,4.2-6.5,4.2c-1.5,0-4.3-2.3-4.2-3.3c0.3-1.7,2.1-4.1,3.7-4.4
			C268.1,417.3,270.1,419.2,273.6,421.1z"/>
		<path class="st4" d="M294.6,440.1c-3.2,1.9-5.2,3.9-6.7,3.6c-1.6-0.3-3.5-2.8-3.6-4.5c-0.1-1.1,2.6-3.5,4-3.5
			C290,435.8,291.6,437.9,294.6,440.1z"/>
		<path class="st4" d="M316,458.1c-3.3,2-5.2,4-6.7,3.8c-1.6-0.2-3.5-2.5-3.9-4.2c-0.2-0.9,2.5-3.4,3.9-3.4
			C311.1,454.2,312.8,456.1,316,458.1z"/>
		<path class="st3" d="M234.5,531c3.5,9.6,6.5,18,9.8,26.3c0.4,1.1,2.4,2.2,3.8,2.3c13.1,1.6,22.6-3.7,28.2-15
			c3.4-7,5.6-14.7,8.8-21.8c2.9-6.4,6.2-12.9,10.1-18.8c4.3-6.6,11-10.3,19.1-11.4c10.9-1.5,20.1,5.3,20.9,15.2
			c0.9,10.9-5.8,17.7-17.6,18.2c-0.9,0-1.8,0.1-3,1.2c2.4,0.8,4.8,1.6,7.8,2.6c-3.4,8.4-6.4,16.9-10.2,25.2c-2.1,4.7-2,8.8,0.1,13.3
			c1.9,4.1,3.3,8.3,5.4,13.4c-28.5,9.3-56.9,10.9-86.9,4.7c2.9-7.4,5.8-13.8,7.9-20.4c0.9-2.9,1.1-6.6,0.2-9.5
			c-3-9.2-6.6-18.3-10-27.4c0.3-0.3,0.5-0.6,0.8-0.7c10-3.3,9.9-3.3,10.7-13.6c0.3-4.5,0.7-8.9,1.1-13.4c0-0.4,0.3-0.7,0.6-1.5
			c10.8-0.5,21.5-0.1,32,5.4c-9.6-0.7-18.6-1.3-28.2-2c-0.4,4.8-0.7,8.8-1,13.1c9.7,0.3,18.4-7.4,28-1.8
			C261,521.6,250.2,530.7,234.5,531z"/>
		<path class="st3" d="M299.4,493.6c-3.5,3.6-6.5,6.8-9.3,9.8c-7.6-2.5-15.1-5.5-22.8-7.3c-7.6-1.7-15.5-2.2-24.2-3.4
			c3-11.9,6.1-23.9,9.5-37.3C268.5,468.5,283.9,480.9,299.4,493.6z"/>
		<path class="st3" d="M261.6,352.1c-2.5-0.8-4.9-1.5-7.7-2.4c3.4-8.5,6.6-17.1,10.3-25.4c1.9-4.2,2.1-8,0.1-12.2
			c-2.1-4.4-3.6-9-5.6-14.2c28.7-9.3,57.1-11,86.9-4.6c-2.8,7.2-5,13.5-7.8,19.6c-1.9,4.1-1.6,7.7,0,11.8
			c3.5,8.6,6.6,17.4,10.2,27.1c-12.5-1.4-12,6.4-12,14.3c0,4.4-0.7,8.9-1.1,13.8c-11.2,0.5-21.8,0.2-32-5.3
			c9.4,0.6,18.4,1.2,27.8,1.9c0.4-4.9,0.7-8.9,1-13.2c-9.7,0.1-18.4,7.2-27.9,1.9c11.7-7.3,22.4-16.3,38.1-16.6
			c-3.5-9.6-6.7-18.1-9.9-26.6c-0.3-0.8-1.4-1.7-2.3-2c-9.4-2.3-20.7,1.4-26,9.6c-3.8,5.7-6.2,12.3-9.2,18.5
			c-4.3,8.9-7.9,18.2-12.9,26.7c-4.5,7.6-12.1,11.9-21.5,12.3c-10.5,0.4-18.6-6.6-18.9-16.3c-0.3-10.5,6.1-16.9,17.4-17.2
			c1,0,1.9-0.1,2.9-0.1C261.5,352.9,261.6,352.5,261.6,352.1z"/>
		<path class="st3" d="M277.1,385.9c0.4-0.7,0.6-1,0.8-1.3c5.4-7.8,11.3-8.4,20.7-4.6c10.4,4.3,22.3,5,34.6,7.5
			c-2.9,11.1-5.9,23.2-9.3,36.5C307.8,410.9,292.4,398.4,277.1,385.9z"/>
	</g>
</g>
</svg>
