<?xml version="1.0" encoding="utf-8"?>
<!-- Generator: Adobe Illustrator 22.1.0, SVG Export Plug-In . SVG Version: 6.00 Build 0)  -->
<svg version="1.1" id="Layer_1" xmlns="http://www.w3.org/2000/svg" xmlns:xlink="http://www.w3.org/1999/xlink" x="0px" y="0px"
	 viewBox="0 0 430 630" style="enable-background:new 0 0 430 630;" xml:space="preserve">
<style type="text/css">
	.st0{fill:#FFFFFF;stroke:#000000;stroke-width:1.5;stroke-miterlimit:10;}
	.st1{fill:none;}
	.st2{fill:#FFFFFF;}
</style>
<g>
	<path class="st0" d="M400,615H30c-8.3,0-15-6.7-15-15V30c0-8.3,6.7-15,15-15h370c8.3,0,15,6.7,15,15v570
		C415,608.3,408.3,615,400,615z"/>
	<g>
		<g>
			<path d="M75.5,178.7H56.9V76.9L40,86.4V66.8L57.7,56h17.8V178.7z"/>
			<path d="M111.5,170.8c-6-6.1-9-14.7-9-25.7V89.3c0-11,3-19.6,9.1-25.7c6-6.1,14.8-9.2,26.4-9.2s20.4,3,26.4,9.1s9,14.7,9,25.7
				V145c0,11-3,19.6-9.1,25.7c-6,6.1-14.8,9.2-26.4,9.2C126.4,180,117.6,176.9,111.5,170.8z M150.7,157.4c2.7-3.2,4.1-7.7,4.1-13.7
				V90.8c0-6-1.4-10.5-4.1-13.7c-2.7-3.2-6.9-4.8-12.7-4.8s-10,1.6-12.7,4.8c-2.7,3.2-4.1,7.8-4.1,13.7v52.9c0,6,1.4,10.5,4.1,13.7
				s7,4.8,12.7,4.8S147.9,160.6,150.7,157.4z"/>
		</g>
	</g>
	<g>
		<path d="M118.3,328.4c-1.3-5.6-2-11-2.3-16.3c2.7,7.2,7.7,13.2,14.1,17.2v-58.9h-41V330c6.9-4,12.3-10.2,15.2-17.7
			c-0.3,5-1,10.2-2.1,15.4c-0.9,4.1-2.1,8.3-3.5,12.5c-2.3,6.5-5.1,12.7-8.4,18.2v0.9h39.9v-0.9c-3.3-5.6-6.1-11.7-8.4-18.2
			C120.3,336.2,119.2,332.3,118.3,328.4z"/>
		<path class="st1" d="M103,291c-6.1,5.9-11.1,19.9-13.9,38v-58.7H95c1,1.5,1.8,3.1,2.6,4.7c0.4,0.8,0.8,1.6,1.1,2.4
			C100.6,281.6,102,286.2,103,291z"/>
		<path class="st1" d="M104.3,312.2c-2.9,7.5-8.3,13.8-15.2,17.7c0,0-0.1,0.1-0.2,0.1c0-0.3,0.1-0.7,0.2-1
			c2.8-18.2,7.8-32.1,13.9-38C104.3,297.6,104.8,304.8,104.3,312.2z"/>
		<path class="st1" d="M142.9,255c-1.8,4.8-4.7,9.1-8.4,12.6c-1.8,0.8-3.5,1.7-5.1,2.8h-4.1C129.7,263.3,135.7,258,142.9,255z"/>
		<path class="st2" d="M104.3,312.2c-0.3,5-1,10.2-2.1,15.4c-10.2,8.6-21.9,13.1-35.7,10c-19-4.2-32.3-25.8-29.4-46.6
			c1.9-13.5,7.7-25.3,15.8-36c0.5-0.6,0.9-1.2,1.4-1.8c7.1-1.7,14.3-1.5,21.1,0.9c0.7,0.3,1.4,0.5,2.1,0.8c1.8,4.8,4.7,9,8.4,12.5
			c1.8,0.8,3.5,1.7,5.1,2.8h-1.8v58.7c-0.1,0.3-0.1,0.7-0.2,1c0.1,0,0.1,0,0.2-0.1C96,326,101.4,319.7,104.3,312.2z"/>
		<path class="st2" d="M182.4,298.6c-0.8,16.7-8,30.4-24,37.2c-14.9,6.3-28.3,2-40.1-7.4c-1.3-5.5-2-11-2.3-16.3
			c2.7,7.2,7.7,13.2,14.1,17.2l0,0l0,0c0-0.1,0-0.1,0-0.1v-58.8h-0.7c1.6-1.1,3.3-2,5.1-2.8c3.6-3.5,6.5-7.8,8.4-12.6
			c0.7-0.3,1.4-0.6,2.1-0.8c6.5-2.3,13.3-2.6,20.2-1.1C176.3,265.6,183.3,280.9,182.4,298.6z"/>
		<path class="st1" d="M130.1,270.3v58.8V329c-0.1-0.5-0.2-1-0.2-1.5c-0.1-0.8-0.2-1.5-0.4-2.3c-0.1-0.7-0.2-1.3-0.4-1.9
			c0-0.2-0.1-0.3-0.1-0.5c-0.1-0.7-0.3-1.3-0.4-2c-0.1-0.7-0.3-1.3-0.4-1.9c-0.3-1.1-0.5-2.3-0.8-3.4c-0.1-0.5-0.2-0.9-0.4-1.4
			c-0.2-0.7-0.4-1.5-0.6-2.2c-0.1-0.3-0.2-0.7-0.3-1s-0.2-0.7-0.3-1s-0.2-0.7-0.3-1c-0.1-0.2-0.1-0.4-0.2-0.6
			c-0.1-0.3-0.2-0.7-0.3-1c-0.4-1.1-0.7-2.1-1.1-3.1c-0.1-0.3-0.2-0.6-0.3-0.9c-0.2-0.6-0.5-1.1-0.7-1.7s-0.5-1.1-0.7-1.6
			c0-0.1-0.1-0.1-0.1-0.2c-0.2-0.3-0.3-0.6-0.5-1c-0.1-0.1-0.1-0.2-0.2-0.4c-0.1-0.2-0.2-0.5-0.4-0.7c-0.1-0.3-0.3-0.5-0.4-0.8
			c-0.2-0.4-0.5-0.8-0.7-1.2c-0.1-0.1-0.2-0.3-0.2-0.4c-0.2-0.3-0.3-0.5-0.5-0.8c-0.7-1-1.4-1.9-2.1-2.7c0.9-5.2,2.4-10,4.3-14.4
			c0.4-0.9,0.8-1.7,1.2-2.5c0.8-1.6,1.7-3.2,2.7-4.7h4.8L130.1,270.3L130.1,270.3z"/>
		<path class="st1" d="M130.1,329.3L130.1,329.3L130.1,329.3c-6.4-4-11.4-10.1-14.1-17.2c-0.4-7,0-13.7,1.2-20
			c0.7,0.8,1.4,1.7,2.1,2.7c0.2,0.3,0.3,0.5,0.5,0.8c0.1,0.1,0.2,0.3,0.2,0.4c0.2,0.4,0.5,0.8,0.7,1.2c0.1,0.3,0.3,0.5,0.4,0.8
			c0.1,0.2,0.3,0.5,0.4,0.7c0.1,0.1,0.1,0.2,0.2,0.4c0.2,0.3,0.3,0.6,0.5,1c0,0.1,0.1,0.1,0.1,0.2c0.2,0.5,0.5,1,0.7,1.6
			c0.2,0.5,0.5,1.1,0.7,1.7c0.1,0.3,0.2,0.6,0.3,0.9c0.4,1,0.7,2,1.1,3.1c0.1,0.3,0.2,0.7,0.3,1c0.1,0.2,0.1,0.4,0.2,0.6
			c0.1,0.3,0.2,0.7,0.3,1s0.2,0.7,0.3,1s0.2,0.7,0.3,1c0.2,0.7,0.4,1.4,0.6,2.2c0.1,0.5,0.2,0.9,0.4,1.4c0.3,1.1,0.5,2.2,0.8,3.4
			c0.1,0.6,0.3,1.3,0.4,1.9c0.1,0.7,0.3,1.3,0.4,2c0,0.2,0.1,0.3,0.1,0.5c0.1,0.6,0.2,1.3,0.4,1.9c0.1,0.7,0.3,1.5,0.4,2.3
			C130.1,328.3,130.2,328.8,130.1,329.3l0.1,0.1l0,0C130.1,329.2,130.1,329.2,130.1,329.3z"/>
		<path class="st1" d="M95,270.3h-4c-1.6-1.1-3.3-2-5.1-2.8c-3.6-3.5-6.5-7.7-8.4-12.5C84.7,258,90.6,263.4,95,270.3z"/>
		<path class="st1" d="M118.3,328.4c-1.3-5.6-2-11-2.3-16.3c2.7,7.2,7.7,13.2,14.1,17.2v-0.2V329c-0.1-0.5-0.2-1-0.2-1.5
			c-0.1-0.7-0.3-1.5-0.4-2.2c-0.1-0.7-0.2-1.3-0.4-1.9c0-0.2,0-0.3-0.1-0.5c-0.1-0.7-0.3-1.3-0.4-2c-0.1-0.7-0.3-1.3-0.4-2
			c-0.3-1.1-0.5-2.2-0.8-3.4c-0.1-0.5-0.3-0.9-0.4-1.4c-0.2-0.7-0.4-1.5-0.6-2.1c-0.1-0.4-0.2-0.7-0.3-1s-0.2-0.7-0.3-1
			s-0.2-0.7-0.3-1c-0.1-0.2-0.1-0.4-0.2-0.6c-0.1-0.4-0.2-0.7-0.3-1c-0.4-1.1-0.7-2.1-1.1-3.1c-0.1-0.3-0.2-0.6-0.4-0.9
			c-0.2-0.6-0.5-1.1-0.7-1.7c-0.2-0.5-0.5-1.1-0.7-1.6c0-0.1-0.1-0.1-0.1-0.2c-0.1-0.3-0.3-0.6-0.5-0.9c-0.1-0.1-0.1-0.2-0.2-0.4
			c-0.1-0.2-0.2-0.5-0.4-0.7c-0.1-0.3-0.3-0.6-0.4-0.8c-0.3-0.4-0.5-0.8-0.7-1.2c-0.1-0.2-0.2-0.3-0.3-0.4c-0.2-0.3-0.3-0.5-0.5-0.8
			c-0.7-1-1.4-1.9-2.1-2.7c-0.7-0.8-1.4-1.5-2.1-2c-1.8-1.4-3.6-2.1-5.4-2.1c-1.5,0-3,0.5-4.5,1.4c-0.7,0.5-1.5,1.1-2.2,1.7
			c-6.1,6-11.1,19.9-13.8,38.1c-0.1,0.3-0.1,0.7-0.2,1c0.1,0,0.1-0.1,0.2-0.1c6.9-4,12.3-10.2,15.2-17.7c-0.3,5-1,10.2-2.1,15.4
			c-0.9,4.1-2.1,8.3-3.5,12.5c-2.3,6.5-5.1,12.7-8.4,18.2v0.9H130v-0.9c-3.3-5.6-6.1-11.7-8.4-18.2
			C120.3,336.2,119.2,332.3,118.3,328.4z"/>
		<g>
			<path d="M182.4,298.6c-0.8,16.7-8,30.4-24,37.2c-14.9,6.3-28.3,2-40.1-7.4c-0.8-0.7-1.6-1.3-2.4-2c-2-1.8-3.7-3.9-5.9-6.2
				c-2.1,2.1-3.5,3.7-5.1,5.1c-0.9,0.8-1.8,1.6-2.7,2.4c-10.2,8.6-21.9,13.1-35.7,10c-19-4.2-32.3-25.8-29.4-46.6
				c1.9-13.5,7.7-25.3,15.8-36c0.5-0.6,0.9-1.2,1.4-1.8c14.3-18.2,33.4-31.1,51.7-44.8c0.4-0.3,0.9-0.7,1.3-1
				c1.2-0.9,4.3-0.7,5.5,0.3c0.8,0.6,1.6,1.3,2.4,1.9c15.5,12.7,31.5,24.9,45.7,38.8c1.5,1.5,2.9,3,4.3,4.5
				C176.3,265.6,183.3,280.9,182.4,298.6z"/>
			<rect x="90.2" y="212.7" transform="matrix(0.7071 -0.7071 0.7071 0.7071 -131.752 145.3848)" width="38.9" height="38.1"/>
		</g>
	</g>
	<g>
		<path d="M300.6,551.6c-1.8-8.1-2.9-16-3.4-23.7c4,10.4,11.2,19.1,20.4,24.9v-85.3h-59.3v86.3c9.9-5.7,17.8-14.8,22-25.7
			c-0.4,7.3-1.4,14.7-3.1,22.2c-1.3,6-3,12.1-5.1,18.1c-3.3,9.5-7.4,18.3-12.2,26.4v1.3h57.7v-1.3c-4.8-8.1-8.9-16.9-12.2-26.4
			C303.5,562.9,301.9,557.2,300.6,551.6z"/>
		<path class="st1" d="M278.4,497.5c-8.8,8.6-16.1,28.8-20.1,55.1v-85h8.5c1.4,2.2,2.7,4.4,3.8,6.8c0.6,1.1,1.1,2.3,1.6,3.4
			C275,483.8,277,490.5,278.4,497.5z"/>
		<path class="st1" d="M280.3,528.2c-4.2,10.9-12,19.9-22,25.7c-0.1,0.1-0.1,0.1-0.2,0.1c0.1-0.5,0.1-1,0.2-1.4
			c4-26.3,11.3-46.5,20.1-55.1C280.3,507.1,281,517.4,280.3,528.2z"/>
		<path class="st1" d="M336.2,445.3c-2.7,6.9-6.8,13.1-12.1,18.2c-2.6,1.2-5.1,2.5-7.4,4.1h-5.9
			C317.1,457.4,325.7,449.7,336.2,445.3z"/>
		<path class="st2" d="M280.3,528.2c-0.4,7.2-1.4,14.7-3.1,22.2c-14.8,12.4-31.6,19-51.6,14.5c-27.5-6.1-46.7-37.3-42.5-67.5
			c2.7-19.6,11.1-36.5,22.8-52c0.7-0.9,1.3-1.7,2-2.6c10.3-2.4,20.7-2.2,30.5,1.3c1.1,0.4,2.1,0.8,3.1,1.2
			c2.7,6.9,6.8,13.1,12.1,18.1c2.6,1.2,5.1,2.5,7.4,4.1h-2.7v85c-0.1,0.5-0.2,0.9-0.2,1.4c0.1,0,0.2-0.1,0.2-0.1
			C268.3,548.1,276.1,539.1,280.3,528.2z"/>
		<path class="st2" d="M393.4,508.5c-1.2,24.1-11.6,44-34.8,53.8c-21.6,9.1-40.9,2.9-58-10.8c-1.8-8-2.9-16-3.4-23.7
			c3.9,10.4,11.2,19.1,20.4,24.9c0,0,0,0.1,0,0l0,0c0-0.1,0-0.1,0-0.2v-85h-1c2.3-1.6,4.8-2.9,7.4-4.1c5.3-5,9.4-11.2,12.1-18.2
			c1-0.4,2-0.8,3-1.2c9.4-3.3,19.3-3.7,29.2-1.6C384.5,460.7,394.6,482.8,393.4,508.5z"/>
		<path class="st1" d="M317.6,467.5v85.1c0-0.1,0-0.1,0-0.2c-0.1-0.7-0.2-1.5-0.4-2.2c-0.2-1.1-0.4-2.2-0.5-3.3
			c-0.2-0.9-0.3-1.9-0.5-2.8c-0.1-0.2-0.1-0.5-0.1-0.7c-0.2-1-0.4-1.9-0.6-2.9c-0.2-0.9-0.4-1.9-0.6-2.8c-0.4-1.7-0.7-3.3-1.1-4.9
			c-0.2-0.7-0.3-1.3-0.5-2c-0.3-1.1-0.6-2.1-0.8-3.1c-0.1-0.5-0.3-1-0.4-1.5s-0.3-1-0.4-1.5s-0.3-1-0.4-1.4
			c-0.1-0.3-0.2-0.6-0.3-0.8c-0.2-0.5-0.3-1-0.5-1.5c-0.5-1.5-1-3-1.6-4.4c-0.2-0.4-0.3-0.8-0.5-1.3c-0.3-0.8-0.7-1.6-1-2.4
			c-0.3-0.8-0.7-1.6-1-2.3c-0.1-0.1-0.1-0.2-0.1-0.3c-0.2-0.5-0.4-0.9-0.7-1.4c-0.1-0.2-0.2-0.3-0.3-0.5c-0.2-0.4-0.4-0.7-0.5-1.1
			c-0.2-0.4-0.4-0.8-0.6-1.2c-0.3-0.6-0.7-1.2-1-1.8c-0.1-0.2-0.2-0.4-0.4-0.6c-0.2-0.4-0.5-0.8-0.7-1.1c-1-1.5-2-2.8-3-3.9
			c1.4-7.5,3.5-14.5,6.2-20.9c0.5-1.2,1.1-2.5,1.7-3.6c1.2-2.4,2.5-4.7,3.9-6.9h6.7L317.6,467.5L317.6,467.5z"/>
		<path class="st1" d="M317.7,552.9L317.7,552.9C317.6,552.9,317.6,552.9,317.7,552.9c-9.3-5.8-16.5-14.6-20.4-24.9
			c-0.6-10.1,0-19.9,1.7-29c1,1.2,2,2.5,3,3.9c0.3,0.4,0.5,0.7,0.7,1.1c0.1,0.2,0.2,0.4,0.4,0.6c0.4,0.6,0.7,1.2,1,1.8
			c0.2,0.4,0.4,0.8,0.6,1.2c0.2,0.3,0.4,0.7,0.5,1.1c0.1,0.2,0.2,0.3,0.3,0.5c0.2,0.5,0.5,0.9,0.7,1.4c0.1,0.1,0.1,0.2,0.1,0.3
			c0.4,0.7,0.7,1.5,1,2.3s0.7,1.6,1,2.4c0.2,0.4,0.3,0.8,0.5,1.3c0.5,1.4,1.1,2.9,1.6,4.4c0.2,0.5,0.3,1,0.5,1.5
			c0.1,0.3,0.2,0.6,0.3,0.8c0.2,0.5,0.3,0.9,0.4,1.4c0.2,0.5,0.3,1,0.4,1.5c0.2,0.5,0.3,1,0.4,1.5c0.3,1,0.6,2,0.8,3.1
			c0.2,0.7,0.3,1.3,0.5,2c0.4,1.6,0.8,3.2,1.1,4.9c0.2,0.9,0.4,1.8,0.6,2.8c0.2,0.9,0.4,1.9,0.6,2.9c0.1,0.2,0.1,0.5,0.1,0.7
			c0.2,0.9,0.4,1.8,0.5,2.8c0.2,1.1,0.4,2.2,0.5,3.3c0.1,0.7,0.2,1.4,0.4,2.2c0,0.1,0,0.1,0,0.2v0.1
			C317.6,552.7,317.7,552.8,317.7,552.9z"/>
		<path class="st1" d="M266.9,467.5H261c-2.3-1.6-4.8-2.9-7.4-4.1c-5.3-5-9.4-11.2-12.1-18.1C251.9,449.7,260.4,457.5,266.9,467.5z"
			/>
		<path class="st1" d="M300.6,551.6c-1.8-8.1-2.9-16-3.4-23.7c4,10.4,11.2,19.1,20.4,24.9v-0.2c0,0,0-0.1,0-0.2
			c-0.1-0.7-0.2-1.4-0.3-2.2c-0.2-1.1-0.4-2.2-0.6-3.3c-0.1-0.9-0.3-1.9-0.5-2.8c0-0.2,0-0.5-0.1-0.7c-0.2-1-0.4-1.9-0.6-2.9
			s-0.4-1.9-0.6-2.8c-0.4-1.6-0.8-3.3-1.1-4.9c-0.2-0.7-0.4-1.3-0.5-2c-0.3-1.1-0.6-2.1-0.8-3.1c-0.1-0.5-0.3-1-0.4-1.5
			s-0.3-0.9-0.4-1.5c-0.1-0.5-0.3-0.9-0.5-1.4c-0.1-0.3-0.2-0.6-0.3-0.8c-0.1-0.5-0.3-1-0.5-1.5c-0.5-1.6-1-3-1.6-4.4
			c-0.2-0.4-0.3-0.8-0.5-1.3c-0.3-0.8-0.7-1.6-1-2.5c-0.3-0.8-0.7-1.6-1-2.3c0-0.1-0.1-0.2-0.1-0.3c-0.2-0.5-0.4-0.9-0.7-1.4
			c-0.1-0.2-0.2-0.3-0.3-0.5c-0.1-0.3-0.3-0.7-0.5-1c-0.2-0.4-0.4-0.8-0.6-1.2c-0.4-0.6-0.7-1.2-1-1.7c-0.1-0.2-0.2-0.4-0.4-0.6
			c-0.2-0.4-0.5-0.8-0.7-1.1c-1-1.5-2-2.8-3-3.9s-2-2.1-3-2.9c-2.5-2-5.2-3.1-7.9-3.1c-2.2,0-4.4,0.7-6.5,2
			c-1.1,0.7-2.1,1.6-3.2,2.5c-8.8,8.6-16.1,28.8-20,55.1c-0.1,0.5-0.2,0.9-0.2,1.5c0.1,0,0.1-0.1,0.2-0.1c9.9-5.7,17.8-14.8,22-25.7
			c-0.4,7.3-1.4,14.7-3.1,22.2c-1.3,6-3,12.1-5.1,18.1c-3.3,9.5-7.4,18.3-12.2,26.4v1.3h57.7v-1.3c-4.8-8.1-8.9-16.9-12.2-26.4
			C303.5,562.9,301.9,557.2,300.6,551.6z"/>
		<g>
			<path d="M393.4,508.5c-1.2,24.1-11.6,44-34.8,53.8c-21.6,9.1-40.9,2.9-58-10.8c-1.2-1-2.4-1.9-3.5-3c-2.9-2.6-5.4-5.7-8.5-9
				c-3,3-5.1,5.3-7.4,7.4c-1.3,1.2-2.6,2.4-3.9,3.5c-14.8,12.4-31.6,19-51.6,14.5c-27.5-6.1-46.7-37.3-42.5-67.5
				c2.7-19.6,11.1-36.5,22.8-52c0.7-0.9,1.3-1.7,2-2.6c20.8-26.3,48.3-44.9,74.8-64.8c0.6-0.5,1.3-0.9,1.9-1.4
				c1.7-1.3,6.3-0.9,8,0.5c1.1,0.9,2.3,1.9,3.4,2.8c22.4,18.3,45.5,36,66.2,56.1c2.2,2.1,4.3,4.3,6.2,6.6
				C384.5,460.7,394.6,482.8,393.4,508.5z"/>
			<rect x="259.8" y="384.1" transform="matrix(0.7071 -0.7071 0.7071 0.7071 -206.7422 324.1959)" width="56.3" height="55.1"/>
		</g>
	</g>
</g>
</svg>
