<?xml version="1.0" encoding="utf-8"?>
<!-- Generator: Adobe Illustrator 22.1.0, SVG Export Plug-In . SVG Version: 6.00 Build 0)  -->
<svg version="1.1" id="Layer_1" xmlns="http://www.w3.org/2000/svg" xmlns:xlink="http://www.w3.org/1999/xlink" x="0px" y="0px"
	 viewBox="0 0 430 630" style="enable-background:new 0 0 430 630;" xml:space="preserve">
<style type="text/css">
	.st0{fill:#FFFFFF;stroke:#000000;stroke-width:1.5;stroke-miterlimit:10;}
	.st1{fill:none;}
	.st2{fill:#FFFFFF;}
	.st3{fill:#3FA9F5;}
</style>
<g>
	<path class="st0" d="M400,615H30c-8.3,0-15-6.7-15-15V30c0-8.3,6.7-15,15-15h370c8.3,0,15,6.7,15,15v570
		C415,608.3,408.3,615,400,615z"/>
	<g>
		<g>
			<path d="M68.6,54h18.6v122.7H68.6V54z M82.2,124.3l53-70.3h23.1L81,151.2L82.2,124.3z M102.6,112.1l15.2-12.6l45.7,77.2h-22.7
				L102.6,112.1z"/>
		</g>
	</g>
	<g>
		<path d="M118.3,328.4c-1.3-5.6-2-11-2.3-16.3c2.7,7.2,7.7,13.2,14.1,17.2v-58.9h-41V330c6.9-4,12.3-10.2,15.2-17.7
			c-0.3,5-1,10.2-2.1,15.4c-0.9,4.1-2.1,8.3-3.5,12.5c-2.3,6.5-5.1,12.7-8.4,18.2v0.9h39.9v-0.9c-3.3-5.6-6.1-11.7-8.4-18.2
			C120.3,336.2,119.2,332.3,118.3,328.4z"/>
		<path class="st1" d="M103,291c-6.1,5.9-11.1,19.9-13.9,38v-58.7H95c1,1.5,1.8,3.1,2.6,4.7c0.4,0.8,0.8,1.6,1.1,2.4
			C100.6,281.6,102,286.2,103,291z"/>
		<path class="st1" d="M104.3,312.2c-2.9,7.5-8.3,13.8-15.2,17.7c0,0-0.1,0.1-0.2,0.1c0-0.3,0.1-0.7,0.2-1
			c2.8-18.2,7.8-32.1,13.9-38C104.3,297.6,104.8,304.8,104.3,312.2z"/>
		<path class="st1" d="M142.9,255c-1.8,4.8-4.7,9.1-8.4,12.6c-1.8,0.8-3.5,1.7-5.1,2.8h-4.1C129.7,263.3,135.7,258,142.9,255z"/>
		<path class="st2" d="M104.3,312.2c-0.3,5-1,10.2-2.1,15.4c-10.2,8.6-21.9,13.1-35.7,10c-19-4.2-32.3-25.8-29.4-46.6
			c1.9-13.5,7.7-25.3,15.8-36c0.5-0.6,0.9-1.2,1.4-1.8c7.1-1.7,14.3-1.5,21.1,0.9c0.7,0.3,1.4,0.5,2.1,0.8c1.8,4.8,4.7,9,8.4,12.5
			c1.8,0.8,3.5,1.7,5.1,2.8h-1.8v58.7c-0.1,0.3-0.1,0.7-0.2,1c0.1,0,0.1,0,0.2-0.1C96,326,101.4,319.7,104.3,312.2z"/>
		<path class="st2" d="M182.4,298.6c-0.8,16.7-8,30.4-24,37.2c-14.9,6.3-28.3,2-40.1-7.4c-1.3-5.5-2-11-2.3-16.3
			c2.7,7.2,7.7,13.2,14.1,17.2l0,0l0,0c0-0.1,0-0.1,0-0.1v-58.8h-0.7c1.6-1.1,3.3-2,5.1-2.8c3.6-3.5,6.5-7.8,8.4-12.6
			c0.7-0.3,1.4-0.6,2.1-0.8c6.5-2.3,13.3-2.6,20.2-1.1C176.3,265.6,183.3,280.9,182.4,298.6z"/>
		<path class="st1" d="M130.1,270.3v58.8V329c-0.1-0.5-0.2-1-0.2-1.5c-0.1-0.8-0.2-1.5-0.4-2.3c-0.1-0.7-0.2-1.3-0.4-1.9
			c0-0.2-0.1-0.3-0.1-0.5c-0.1-0.7-0.3-1.3-0.4-2c-0.1-0.7-0.3-1.3-0.4-1.9c-0.3-1.1-0.5-2.3-0.8-3.4c-0.1-0.5-0.2-0.9-0.4-1.4
			c-0.2-0.7-0.4-1.5-0.6-2.2c-0.1-0.3-0.2-0.7-0.3-1s-0.2-0.7-0.3-1s-0.2-0.7-0.3-1c-0.1-0.2-0.1-0.4-0.2-0.6
			c-0.1-0.3-0.2-0.7-0.3-1c-0.4-1.1-0.7-2.1-1.1-3.1c-0.1-0.3-0.2-0.6-0.3-0.9c-0.2-0.6-0.5-1.1-0.7-1.7s-0.5-1.1-0.7-1.6
			c0-0.1-0.1-0.1-0.1-0.2c-0.2-0.3-0.3-0.6-0.5-1c-0.1-0.1-0.1-0.2-0.2-0.4c-0.1-0.2-0.2-0.5-0.4-0.7c-0.1-0.3-0.3-0.5-0.4-0.8
			c-0.2-0.4-0.5-0.8-0.7-1.2c-0.1-0.1-0.2-0.3-0.2-0.4c-0.2-0.3-0.3-0.5-0.5-0.8c-0.7-1-1.4-1.9-2.1-2.7c0.9-5.2,2.4-10,4.3-14.4
			c0.4-0.9,0.8-1.7,1.2-2.5c0.8-1.6,1.7-3.2,2.7-4.7h4.8L130.1,270.3L130.1,270.3z"/>
		<path class="st1" d="M130.1,329.3L130.1,329.3L130.1,329.3c-6.4-4-11.4-10.1-14.1-17.2c-0.4-7,0-13.7,1.2-20
			c0.7,0.8,1.4,1.7,2.1,2.7c0.2,0.3,0.3,0.5,0.5,0.8c0.1,0.1,0.2,0.3,0.2,0.4c0.2,0.4,0.5,0.8,0.7,1.2c0.1,0.3,0.3,0.5,0.4,0.8
			c0.1,0.2,0.3,0.5,0.4,0.7c0.1,0.1,0.1,0.2,0.2,0.4c0.2,0.3,0.3,0.6,0.5,1c0,0.1,0.1,0.1,0.1,0.2c0.2,0.5,0.5,1,0.7,1.6
			c0.2,0.5,0.5,1.1,0.7,1.7c0.1,0.3,0.2,0.6,0.3,0.9c0.4,1,0.7,2,1.1,3.1c0.1,0.3,0.2,0.7,0.3,1c0.1,0.2,0.1,0.4,0.2,0.6
			c0.1,0.3,0.2,0.7,0.3,1s0.2,0.7,0.3,1s0.2,0.7,0.3,1c0.2,0.7,0.4,1.4,0.6,2.2c0.1,0.5,0.2,0.9,0.4,1.4c0.3,1.1,0.5,2.2,0.8,3.4
			c0.1,0.6,0.3,1.3,0.4,1.9c0.1,0.7,0.3,1.3,0.4,2c0,0.2,0.1,0.3,0.1,0.5c0.1,0.6,0.2,1.3,0.4,1.9c0.1,0.7,0.3,1.5,0.4,2.3
			C130.1,328.3,130.2,328.8,130.1,329.3l0.1,0.1l0,0C130.1,329.2,130.1,329.2,130.1,329.3z"/>
		<path class="st1" d="M95,270.3h-4c-1.6-1.1-3.3-2-5.1-2.8c-3.6-3.5-6.5-7.7-8.4-12.5C84.7,258,90.6,263.4,95,270.3z"/>
		<path class="st1" d="M118.3,328.4c-1.3-5.6-2-11-2.3-16.3c2.7,7.2,7.7,13.2,14.1,17.2v-0.2V329c-0.1-0.5-0.2-1-0.2-1.5
			c-0.1-0.7-0.3-1.5-0.4-2.2c-0.1-0.7-0.2-1.3-0.4-1.9c0-0.2,0-0.3-0.1-0.5c-0.1-0.7-0.3-1.3-0.4-2c-0.1-0.7-0.3-1.3-0.4-2
			c-0.3-1.1-0.5-2.2-0.8-3.4c-0.1-0.5-0.3-0.9-0.4-1.4c-0.2-0.7-0.4-1.5-0.6-2.1c-0.1-0.4-0.2-0.7-0.3-1s-0.2-0.7-0.3-1
			s-0.2-0.7-0.3-1c-0.1-0.2-0.1-0.4-0.2-0.6c-0.1-0.4-0.2-0.7-0.3-1c-0.4-1.1-0.7-2.1-1.1-3.1c-0.1-0.3-0.2-0.6-0.4-0.9
			c-0.2-0.6-0.5-1.1-0.7-1.7c-0.2-0.5-0.5-1.1-0.7-1.6c0-0.1-0.1-0.1-0.1-0.2c-0.1-0.3-0.3-0.6-0.5-0.9c-0.1-0.1-0.1-0.2-0.2-0.4
			c-0.1-0.2-0.2-0.5-0.4-0.7c-0.1-0.3-0.3-0.6-0.4-0.8c-0.3-0.4-0.5-0.8-0.7-1.2c-0.1-0.2-0.2-0.3-0.3-0.4c-0.2-0.3-0.3-0.5-0.5-0.8
			c-0.7-1-1.4-1.9-2.1-2.7c-0.7-0.8-1.4-1.5-2.1-2c-1.8-1.4-3.6-2.1-5.4-2.1c-1.5,0-3,0.5-4.5,1.4c-0.7,0.5-1.5,1.1-2.2,1.7
			c-6.1,6-11.1,19.9-13.8,38.1c-0.1,0.3-0.1,0.7-0.2,1c0.1,0,0.1-0.1,0.2-0.1c6.9-4,12.3-10.2,15.2-17.7c-0.3,5-1,10.2-2.1,15.4
			c-0.9,4.1-2.1,8.3-3.5,12.5c-2.3,6.5-5.1,12.7-8.4,18.2v0.9H130v-0.9c-3.3-5.6-6.1-11.7-8.4-18.2
			C120.3,336.2,119.2,332.3,118.3,328.4z"/>
		<g>
			<path d="M182.4,298.6c-0.8,16.7-8,30.4-24,37.2c-14.9,6.3-28.3,2-40.1-7.4c-0.8-0.7-1.6-1.3-2.4-2c-2-1.8-3.7-3.9-5.9-6.2
				c-2.1,2.1-3.5,3.7-5.1,5.1c-0.9,0.8-1.8,1.6-2.7,2.4c-10.2,8.6-21.9,13.1-35.7,10c-19-4.2-32.3-25.8-29.4-46.6
				c1.9-13.5,7.7-25.3,15.8-36c0.5-0.6,0.9-1.2,1.4-1.8c14.3-18.2,33.4-31.1,51.7-44.8c0.4-0.3,0.9-0.7,1.3-1
				c1.2-0.9,4.3-0.7,5.5,0.3c0.8,0.6,1.6,1.3,2.4,1.9c15.5,12.7,31.5,24.9,45.7,38.8c1.5,1.5,2.9,3,4.3,4.5
				C176.3,265.6,183.3,280.9,182.4,298.6z"/>
			<rect x="90.2" y="212.7" transform="matrix(0.7071 -0.7071 0.7071 0.7071 -131.752 145.3848)" width="38.9" height="38.1"/>
		</g>
	</g>
	<g>
		<path class="st3" d="M183,416.4c0-2.3,0-4.5,0-6.8c5,1.9,9.9,4.5,15,5.5c15.5,3,31.9-1,47.1,6.3c-0.2-5-0.2-5-21.3-10.1
			c0-1.9,0-3.9,0-6c0-22-0.4-43.9,0.2-65.9c0.3-10.4-6.7-17.2-9.7-26.7c-2.1,4.6-3.4,8.5-5.5,11.7c-3.8,5.6-4.4,11.7-4.3,18.2
			c0.2,20.6,0.1,41.3,0.1,61.9c0,2.2,0,4.4,0,6.6c-0.7,0.2-1.5,0.3-2.2,0.5c-0.6-2-1.7-3.9-1.7-5.9c-0.1-20.6,0.2-41.3-0.2-61.9
			c-0.1-8.5,0.9-16.2,5.7-23.4c3.3-5,5.3-10.7,7.9-16.1c0.1,0.1,0.6,0.2,0.7,0.5c13.3,24.1,13.3,24.1,13.2,51.4c0,5.3,0,10.5,0,15.8
			c0,7.6,0,15.2,0,23.6c3.6-2.2,6.3-4.1,9.3-5.5c3.3-1.5,4.8-3.2,4.1-7.2c-1-5.5,0.9-10.4,5.3-14c6.4-5.3,15-3.6,17.7,3.4
			c-0.6-0.2-1.1-0.5-1.6-0.7c-4.9-2-9.9-2.8-14.2,1.2c-3.6,3.4-4.5,7.6-2.7,12.4c2,5.5,6.1,8.4,11.8,8.8c8.4,0.7,15.9-3.9,19.4-11.7
			c2.5-5.6,4.8-11.2,7.4-17.2c13.7,22.9,30.1,31.3,49.6,26c-1.6-7.3-3.1-14.5-4.7-22c-9.5,0.3-17.6,3.7-23.3,9.7
			c-1.1-1.8-2-3.6-3.3-5.1c-4.3-5.1-8.8-10.1-12.9-15.4c-0.9-1.2-1.1-3.6-0.6-5.2c1.6-4.8,3.6-9.5,5.8-14c0.7-1.3,2.7-2,4-3
			c-0.2,4.1-1.2,6.8-2.4,9.6c-4.5,10.7-3.8,14,5,21.7c2.1,1.8,4.5,3.3,6.9,5c8.8-8.4,20.3-7,31.3-9c-2.7-9-5.4-17.3-7.8-25.8
			c-1-3.6-2.6-5-6.6-4.9c-18.9,0.3-37.9,0.1-56.9,0.1c-2.2,0-4.4,0-6.9,0c1.4-10.4-7.4-15.5-10.2-24c4.9,0.9,9.3,1.8,13.8,2.6
			c2.3-4.7,4.5-9.1,6.7-13.5c4.9,2.2,9.3,4.2,13.8,6.2c3.4-4.2,6.4-8,9.4-11.7c0.4,0,0.8,0,1.1,0c3.5,3.2,6.9,6.5,10.6,9.8
			c4.4-3.3,8.3-6.1,12.4-9.1c3.2,4.1,6.1,8,9.2,11.9c4.3-1.7,8.4-3.4,13.7-5.5c-1.6,4.1-2.4,7.1-3.8,9.8
			c-5.2,10.3-5.1,20.7-1.2,31.5c3,8.4,5.3,17,8.1,26.2c-4,0.5-7.4,1-12.1,1.6c2.2,9,4.3,17.4,6.5,26.3c-6.8-0.9-8.8,4.3-11.1,9.6
			c-3,7-6.4,13.8-9.8,21.1c-2.3-1.8-4.2-3.2-6.1-4.8c-11.2-9.1-22.3-18.3-33.5-27.4c-1.3-1-3.3-1.1-5-1.6c-0.2,0.6-0.4,1.3-0.7,1.9
			c15.4,12.7,30.7,25.3,46.5,38.4c5.3-11.4,10.4-22.1,16.1-34.4c6.9,7.3,12.9,13.8,19,20.4c6.3-9,14.4-11.2,21.4-6.3
			c6.8,4.9,7.4,13.1,1.5,21.1c-0.5,0.7-1.3,1.5-1.3,2.3c-0.1,10.8-0.1,21.6-0.1,31.9c6.3,2.1,11.4,3.7,16.5,5.4c0,1.9,0,3.8,0,5.6
			c-4.6-1.5-9.1-3.5-13.8-4.3c-16.1-3-32.9,0.8-48.8-5.4c5,8.1,13.8,6.7,21.6,9.2c0,1.5,0,3.2,0,4.8c0,22.5,0.4,45-0.1,67.5
			c-0.2,10.2,6.8,16.7,9.6,26.2c2.2-4.7,3.5-8.5,5.6-11.8c3.6-5.5,4.3-11.2,4.3-17.6c-0.3-21-0.1-42-0.1-63c0-2,0-4,0-6
			c0.7-0.2,1.5-0.3,2.2-0.5c0.6,1.8,1.7,3.6,1.7,5.5c0.1,23.6,0.1,47.3,0.1,70.9c0,1.8,0.1,3.9-0.7,5.5c-4.2,8.6-8.8,17-13.2,25.5
			c-13.6-26.5-13.6-26.5-13.6-55.2c0-5.4,0-10.9,0-16.3c0-6.3,0-12.6,0-19.6c-4,2.4-7,4.5-10.3,6c-3,1.3-3.6,3-3.1,6.1
			c1,5.7-0.8,10.8-5.3,14.6c-6.3,5.3-14.7,3.8-17.8-3.4c5.4,2.5,10.8,3.9,15.7-0.5c3.4-3.1,4.5-7.1,3-11.8
			c-1.7-5.4-5.4-8.5-10.8-9.4c-8.5-1.4-16.7,3.2-20.5,11.5c-2.6,5.6-4.9,11.2-7.5,17.1c-14-22.8-30.1-31.1-49.7-25.9
			c1.6,7.2,3.1,14.5,4.8,22.1c9.4-0.2,17.6-3.5,23.3-9.7c1.3,1.9,2.5,3.8,3.9,5.6c4.4,5.5,10.1,10.5,12.7,16.7
			c1.4,3.3-2.4,8.9-3.9,13.4c-0.5,1.4-0.9,3-1.8,4.1c-1,1.3-2.6,2.1-3.9,3.1c-0.4-0.4-0.8-0.8-1.2-1.2c2-5,4.2-9.9,5.9-15
			c0.6-1.7,0.9-4.4,0-5.6c-3.4-4.4-7.1-8.6-11.2-12.4c-1-1-3.9-0.7-5.6-0.2c-4.4,1.4-8.6,3.7-13.1,4.7c-5,1.2-10.2,1.4-15.8,2
			c2.7,8.9,5.4,17,7.6,25.3c1.1,4.1,2.9,5.5,7.3,5.5c19.3-0.3,38.6-0.1,58-0.1c1.6,0,3.2,0.2,4.9,0.3c-0.5,0.4-0.9,0.8-1.4,1.3
			c3.9,7.3,7.7,14.6,11.9,22.4c-4.8-0.9-9.2-1.7-13.6-2.6c-2.3,4.6-4.4,8.9-6.7,13.3c-4.7-2-9.8-6.1-13.4-5.1c-4,1.1-6.7,7-9.9,10.8
			c-0.4,0-0.8,0-1.1,0c-3.5-3.2-7-6.5-10.6-9.9c-4.4,3.3-8.3,6.1-12.5,9.2c-3.2-4.1-6.1-7.9-9.2-11.9c-4.3,1.7-8.4,3.3-13.7,5.4
			c1.6-4.3,2.6-7.5,4-10.4c5.1-10,4.8-20.1,1.1-30.5c-3-8.6-5.4-17.4-8.2-26.6c2.3-0.4,3.9-0.9,5.5-0.8c4.9,0.4,6.5-1.6,5.2-6.3
			c-1.8-6.8-3.4-13.7-5.2-20.9c7.1,1,8.9-4.6,11.2-9.7c3.1-6.9,6.4-13.8,9.8-21c2.2,1.7,3.8,3,5.4,4.3c11.3,9.3,22.6,18.6,33.9,27.9
			c3.3,2.7,3.3,2.6,5.8-0.3c-15.3-12.6-30.6-25.2-46.3-38.1c-5.3,11.2-10.3,22-16,34.1c-6.7-7.3-12.7-13.9-18.8-20.5
			c-1,1.1-1.3,1.3-1.5,1.6c-5.5,7.8-13.6,9.8-20.2,5.1c-6.9-4.9-7.5-13.3-1.6-21.2c0.5-0.7,1.3-1.5,1.3-2.3
			c0.1-10.8,0.1-21.6,0.1-32C193.2,419.7,188.1,418,183,416.4z M283.2,379.8c-0.7,0.3-1.4,0.6-2.1,1c0.9,1.7,1.3,3.9,2.6,5
			c8.9,7.4,18,14.6,27.1,21.9c2.4,1.9,4.9,3.8,7.6,5.9c2.8-6,5.3-11.1,7.9-16.9c-8-1.1-5.8,7.6-10.3,9.3
			C305.2,397.3,294.2,388.6,283.2,379.8z M260.1,482.9c11.1,8.8,22.3,17.7,33.5,26.5c0.6-0.4,1.2-0.8,1.7-1.2
			c-0.7-1.6-1-3.7-2.3-4.7c-10.2-8.5-20.6-16.8-31-25.1c-1.2-1-2.6-1.7-4.2-2.7c-2.7,5.7-5.2,10.8-8,16.7
			C257.7,492.9,256.2,485.4,260.1,482.9z M214.5,426.4L214.5,426.4c3.2,0,6.4,0.2,9.5-0.1c0.9-0.1,1.7-1.5,2.5-2.3
			c-0.8-0.6-1.6-1.8-2.4-1.8c-6.5-0.2-13.1-0.2-19.6,0c-0.8,0-1.6,1.5-2.4,2.3c0.8,0.6,1.5,1.8,2.3,1.8
			C207.8,426.5,211.2,426.4,214.5,426.4z M362.3,466.9c3,0,6,0.2,9-0.1c1.1-0.1,2.1-1.4,3.1-2.2c-1.1-0.7-2.2-2-3.3-2
			c-6-0.2-12-0.2-17.9,0c-1.1,0-2.1,1.4-3.2,2.2c1.1,0.7,2.2,1.9,3.4,2C356.3,467.2,359.3,467,362.3,466.9z M213.7,430.7
			c-3,0-6-0.2-8.9,0.1c-0.9,0.1-1.8,1.3-2.7,2c0.8,0.8,1.7,2.2,2.5,2.2c5.9,0.2,11.9,0.3,17.9,0c1.1,0,2-1.6,3.1-2.4
			c-1-0.6-1.9-1.7-2.9-1.8C219.6,430.5,216.7,430.7,213.7,430.7z M362.5,458.3c3.2,0,6.3,0.1,9.5-0.1c0.8-0.1,1.6-1.2,2.4-1.8
			c-0.8-0.8-1.5-2.4-2.3-2.4c-6.1-0.2-12.3-0.2-18.4,0c-0.9,0-1.8,1.4-2.7,2.2c0.9,0.7,1.7,2,2.7,2
			C356.5,458.4,359.5,458.3,362.5,458.3z M363.1,445.6L363.1,445.6c-2.8,0-5.6-0.2-8.4,0.1c-1,0.1-1.9,1.1-2.8,1.8
			c0.8,0.8,1.5,2.4,2.3,2.4c5.9,0.2,11.9,0.2,17.8,0c0.8,0,1.5-1.6,2.3-2.4c-0.8-0.6-1.5-1.7-2.4-1.7
			C369.1,445.5,366.1,445.6,363.1,445.6z M213,439c-2.8,0-5.6-0.2-8.3,0.1c-0.9,0.1-1.7,1.4-2.6,2.2c0.9,0.7,1.7,2,2.6,2
			c5.8,0.2,11.5,0.2,17.3,0c0.9,0,1.7-1.3,2.5-2.1c-0.9-0.7-1.7-2-2.6-2.1C218.9,438.8,216,439,213,439z M212.6,452.1
			c3,0,6,0.1,9-0.1c0.7-0.1,1.9-1.3,1.9-2.1c0-0.7-1.2-2-1.9-2c-5.8-0.2-11.6-0.1-17.4,0c-0.7,0-1.9,1.3-1.9,2s1.2,2,1.9,2.1
			C206.9,452.2,209.8,452.1,212.6,452.1z M364.1,436.8L364.1,436.8c-2.8,0-5.6-0.2-8.4,0.1c-1,0.1-1.9,1.3-2.9,1.9
			c1,0.8,2,2.2,3,2.3c5.2,0.2,10.5,0.2,15.7,0c1,0,1.9-1.2,2.8-1.9c-1-0.8-1.9-2.2-3-2.3C369,436.6,366.5,436.8,364.1,436.8z
			 M274.6,427.1c-2.7-1.7-4.4-3.6-5.7-3.3c-1.4,0.2-3.4,2.6-3.3,3.9c0,1.2,2.4,3.3,3.8,3.4C270.7,431.1,272.1,429.1,274.6,427.1z
			 M294,444.2c-2.9-1.7-4.5-3.4-6-3.3c-1.3,0.1-3.6,2.5-3.4,3.3c0.4,1.5,2.2,3.6,3.6,3.7C289.6,448.2,291.2,446.2,294,444.2z
			 M312.8,461.4c-2.5-1.7-4.2-3.6-5.5-3.4c-1.4,0.2-3.6,2.4-3.5,3.6c0.1,1.4,2.2,3.6,3.6,3.7C308.8,465.3,310.3,463.3,312.8,461.4z"
			/>
		<path class="st2" d="M295.5,292.5c-3,3.8-6.1,7.6-9.4,11.7c-4.5-2-8.9-4-13.8-6.2c-2.2,4.4-4.4,8.8-6.7,13.5
			c-4.5-0.9-8.9-1.7-13.8-2.6c2.8,8.4,11.6,13.6,10.2,24c2.5,0,4.7,0,6.9,0c19,0,37.9,0.1,56.9-0.1c4-0.1,5.6,1.3,6.6,4.9
			c2.4,8.4,5,16.8,7.8,25.8c-11,2-22.5,0.6-31.3,9c-2.5-1.8-4.9-3.2-6.9-5c-8.8-7.7-9.5-11.1-5-21.7c1.2-2.7,2.2-5.5,2.4-9.6
			c-1.4,1-3.4,1.7-4,3c-2.2,4.5-4.2,9.2-5.8,14c-0.5,1.5-0.3,4,0.6,5.2c4.1,5.3,8.6,10.2,12.9,15.4c1.2,1.5,2.1,3.3,3.3,5.1
			c5.7-6,13.8-9.4,23.3-9.7c1.6,7.5,3.2,14.8,4.7,22c-19.5,5.3-35.9-3-49.6-26c-2.6,6-4.9,11.6-7.4,17.2c-3.5,7.8-11,12.4-19.4,11.7
			c-5.8-0.5-9.8-3.3-11.8-8.8c-1.7-4.7-0.8-9,2.7-12.4c4.3-4,9.2-3.2,14.2-1.2c0.5,0.2,1,0.4,1.6,0.7c-2.6-7-11.3-8.7-17.7-3.4
			c-4.4,3.6-6.3,8.5-5.3,14c0.7,4-0.8,5.7-4.1,7.2c-3,1.4-5.7,3.3-9.3,5.5c0-8.4,0-16,0-23.6c0-5.3,0-10.5,0-15.8
			c0-27.4,0-27.4-13.2-51.4c-0.2-0.3-0.6-0.4-0.7-0.5c-2.6,5.4-4.6,11.1-7.9,16.1c-4.8,7.3-5.9,15-5.7,23.4
			c0.4,20.6,0.1,41.3,0.2,61.9c0,2,1.1,3.9,1.7,5.9c0.7-0.2,1.5-0.3,2.2-0.5c0-2.2,0-4.4,0-6.6c0-20.6,0.1-41.3-0.1-61.9
			c-0.1-6.5,0.5-12.5,4.3-18.2c2.2-3.2,3.4-7.1,5.5-11.7c3,9.5,9.9,16.3,9.7,26.7c-0.6,21.9-0.2,43.9-0.2,65.9c0,2,0,4.1,0,6
			c21.1,5.1,21.1,5.1,21.3,10.1c-15.2-7.2-31.6-3.2-47.1-6.3c-5.2-1-10-3.6-15-5.5c0-38.9,0-77.9,0-117.1
			C220.5,292.5,258,292.5,295.5,292.5z M213,411.1c0.4,0.4,0.9,0.8,1.3,1.2c0.7-1.5,2-2.9,2-4.4c0.1-23.6,0.1-47.3,0-70.9
			c0-2.1-1-4.2-1.5-6.3c-0.6,0.1-1.3,0.2-1.9,0.3C213,357.7,213,384.4,213,411.1z M265.2,337.1c-4.2-0.4-10.8,11.8-13.3,24.6
			C256,361.5,261.5,351.4,265.2,337.1z M276.2,336.4c-7.6,5.3-8.2,14.6-12.4,22.1C269.4,358.6,269.4,358.6,276.2,336.4z
			 M288.6,336.8c-4.5-0.1-9.8,9.2-10.6,18.1C282.2,354.5,283.5,352.4,288.6,336.8z"/>
		<path class="st2" d="M280.9,596.5c3.3-3.8,5.9-9.6,9.9-10.8c3.6-1,8.7,3.1,13.4,5.1c2.2-4.4,4.4-8.8,6.7-13.3
			c4.4,0.8,8.8,1.7,13.6,2.6c-4.1-7.8-8-15.1-11.9-22.4c0.5-0.4,0.9-0.8,1.4-1.3c-1.6-0.1-3.2-0.3-4.9-0.3c-19.3,0-38.7-0.2-58,0.1
			c-4.4,0.1-6.2-1.4-7.3-5.5c-2.2-8.3-4.9-16.5-7.6-25.3c5.6-0.7,10.8-0.9,15.8-2c4.5-1,8.6-3.3,13.1-4.7c1.8-0.5,4.6-0.8,5.6,0.2
			c4,3.8,7.8,8,11.2,12.4c0.9,1.2,0.6,3.9,0,5.6c-1.7,5.1-3.9,10-5.9,15c0.4,0.4,0.8,0.8,1.2,1.2c1.3-1,2.9-1.8,3.9-3.1
			c0.9-1.1,1.3-2.7,1.8-4.1c1.5-4.5,5.3-10.1,3.9-13.4c-2.6-6.2-8.3-11.2-12.7-16.7c-1.4-1.8-2.6-3.7-3.9-5.6
			c-5.7,6.3-13.9,9.6-23.3,9.7c-1.7-7.7-3.2-14.9-4.8-22.1c19.5-5.1,35.7,3.2,49.7,25.9c2.6-5.9,4.9-11.5,7.5-17.1
			c3.8-8.3,12-12.9,20.5-11.5c5.4,0.9,9.1,3.9,10.8,9.4c1.4,4.6,0.4,8.7-3,11.8c-4.9,4.4-10.3,3-15.7,0.5c3.1,7.1,11.4,8.7,17.8,3.4
			c4.5-3.8,6.3-8.9,5.3-14.6c-0.5-3.1,0.1-4.8,3.1-6.1c3.4-1.5,6.4-3.7,10.3-6c0,7.1,0,13.3,0,19.6c0,5.4,0,10.9,0,16.3
			c0,28.7,0,28.7,13.6,55.2c4.4-8.5,8.9-16.9,13.2-25.5c0.8-1.6,0.7-3.7,0.7-5.5c0-23.6,0-47.3-0.1-70.9c0-1.8-1.1-3.6-1.7-5.5
			c-0.7,0.2-1.5,0.3-2.2,0.5c0,2,0,4,0,6c0,21-0.2,42,0.1,63c0.1,6.4-0.7,12.1-4.3,17.6c-2.1,3.3-3.4,7.1-5.6,11.8
			c-2.9-9.4-9.9-16-9.6-26.2c0.5-22.5,0.1-45,0.1-67.5c0-1.7,0-3.3,0-4.8c-7.8-2.5-16.7-1-21.6-9.2c15.9,6.2,32.7,2.4,48.8,5.4
			c4.7,0.9,9.2,2.9,13.8,4.3c0,39.3,0,78.6,0,118.2C356,596.5,318.4,596.5,280.9,596.5z M361.4,558.2c0.9-0.1,1.8-0.1,2.8-0.2
			c0.2-26.9,0-53.7-1-80.9c-1.7,1.4-3,3.1-3,4.7c-0.1,23.4-0.1,46.9,0,70.3C360.2,554.2,361,556.2,361.4,558.2z M311.1,552.3
			c4.5-0.3,10.6-11.9,13.6-24.9C320.4,527.4,315.6,536.2,311.1,552.3z M300.3,552.7c7.9-5.1,7.8-14.8,12.3-22
			C307.7,530.2,304,536.5,300.3,552.7z M287.9,552.1c4.4,0.4,8.8-6.9,10.7-17.8C294.3,534.3,292.3,537.6,287.9,552.1z"/>
		<path class="st2" d="M183,416.4c5.1,1.7,10.2,3.3,16.5,5.4c0,10.4,0,21.2-0.1,32c0,0.8-0.8,1.6-1.3,2.3
			c-5.9,7.9-5.3,16.3,1.6,21.2c6.7,4.7,14.7,2.7,20.2-5.1c0.2-0.3,0.5-0.5,1.5-1.6c6,6.6,12,13.1,18.8,20.5
			c5.7-12.1,10.7-22.9,16-34.1c15.8,13,31.1,25.6,46.3,38.1c-2.4,3-2.5,3-5.8,0.3c-11.3-9.3-22.6-18.6-33.9-27.9
			c-1.6-1.3-3.2-2.5-5.4-4.3c-3.4,7.2-6.7,14.1-9.8,21c-2.3,5.1-4.1,10.8-11.2,9.7c1.8,7.3,3.4,14.1,5.2,20.9
			c1.2,4.7-0.4,6.7-5.2,6.3c-1.6-0.1-3.2,0.4-5.5,0.8c2.8,9.2,5.2,18,8.2,26.6c3.7,10.4,3.9,20.4-1.1,30.5c-1.5,2.9-2.4,6.1-4,10.4
			c5.3-2.1,9.4-3.7,13.7-5.4c3,3.9,6,7.8,9.2,11.9c4.1-3,8-5.9,12.5-9.2c3.6,3.4,7.1,6.6,10.6,9.9c-32.2,0-64.4,0-96.8,0
			C183,536.5,183,476.4,183,416.4z"/>
		<path class="st2" d="M393.5,472.6c-5.1-1.7-10.2-3.3-16.5-5.4c0-10.3,0-21.1,0.1-31.9c0-0.8,0.8-1.6,1.3-2.3
			c5.9-8.1,5.4-16.3-1.5-21.1c-7-4.9-15-2.7-21.4,6.3c-6.1-6.6-12.2-13-19-20.4c-5.7,12.2-10.8,23-16.1,34.4
			c-15.8-13-31.1-25.7-46.5-38.4c0.2-0.6,0.4-1.3,0.7-1.9c1.7,0.5,3.7,0.6,5,1.6c11.2,9,22.3,18.2,33.5,27.4c1.9,1.5,3.8,3,6.1,4.8
			c3.4-7.2,6.9-14.1,9.8-21.1c2.3-5.3,4.3-10.5,11.1-9.6c-2.2-8.9-4.2-17.3-6.5-26.3c4.6-0.6,8-1.1,12.1-1.6
			c-2.8-9.2-5.1-17.8-8.1-26.2c-3.9-10.8-4-21.2,1.2-31.5c1.4-2.7,2.2-5.7,3.8-9.8c-5.3,2.1-9.3,3.7-13.7,5.5c-3-3.9-6-7.8-9.2-11.9
			c-4.1,3-8,5.9-12.4,9.1c-3.6-3.4-7.1-6.6-10.6-9.8c32.3,0,64.6,0,96.8,0C393.5,352.5,393.5,412.6,393.5,472.6z"/>
		<path class="st2" d="M283.2,379.8c11,8.7,22,17.5,32.9,26.2c4.5-1.7,2.3-10.4,10.3-9.3c-2.7,5.7-5.1,10.9-7.9,16.9
			c-2.7-2.1-5.2-4-7.6-5.9c-9.1-7.3-18.2-14.5-27.1-21.9c-1.3-1.1-1.8-3.3-2.6-5C281.9,380.5,282.6,380.1,283.2,379.8z"/>
		<path class="st2" d="M260.1,482.9c-3.9,2.5-2.4,10-10.2,9.6c2.8-5.9,5.3-11,8-16.7c1.6,1,3,1.7,4.2,2.7
			c10.4,8.3,20.8,16.6,31,25.1c1.2,1,1.5,3.1,2.3,4.7c-0.6,0.4-1.2,0.8-1.7,1.2C282.4,500.6,271.2,491.7,260.1,482.9z"/>
		<path class="st2" d="M214.5,426.4c-3.4,0-6.7,0.1-10.1-0.1c-0.8-0.1-1.6-1.2-2.3-1.8c0.8-0.8,1.6-2.3,2.4-2.3
			c6.5-0.2,13.1-0.2,19.6,0c0.8,0,1.6,1.2,2.4,1.8c-0.8,0.8-1.6,2.2-2.5,2.3C220.9,426.6,217.7,426.4,214.5,426.4L214.5,426.4z"/>
		<path class="st2" d="M362.3,467c-3,0-6,0.2-9-0.1c-1.2-0.1-2.2-1.3-3.4-2c1.1-0.8,2.1-2.1,3.2-2.2c6-0.2,12-0.2,17.9,0
			c1.1,0,2.2,1.3,3.3,2c-1,0.8-2,2.1-3.1,2.2C368.3,467.2,365.3,466.9,362.3,467z"/>
		<path class="st2" d="M213.7,430.7c3,0,6-0.2,8.9,0.1c1,0.1,2,1.2,2.9,1.8c-1,0.8-2,2.4-3.1,2.4c-5.9,0.2-11.9,0.2-17.9,0
			c-0.9,0-1.7-1.5-2.5-2.2c0.9-0.7,1.7-1.9,2.7-2C207.7,430.5,210.7,430.7,213.7,430.7z"/>
		<path class="st2" d="M362.5,458.3c-3,0-6,0.2-8.9-0.1c-0.9-0.1-1.8-1.3-2.7-2c0.9-0.8,1.8-2.1,2.7-2.2c6.1-0.2,12.3-0.2,18.4,0
			c0.8,0,1.6,1.6,2.3,2.4c-0.8,0.6-1.5,1.7-2.4,1.8C368.8,458.4,365.7,458.3,362.5,458.3z"/>
		<path class="st2" d="M363.1,445.6c3,0,6-0.1,8.9,0.1c0.8,0.1,1.6,1.1,2.4,1.7c-0.8,0.8-1.5,2.4-2.3,2.4c-5.9,0.2-11.9,0.2-17.8,0
			c-0.8,0-1.5-1.6-2.3-2.4c0.9-0.6,1.8-1.7,2.8-1.8C357.5,445.5,360.3,445.6,363.1,445.6L363.1,445.6z"/>
		<path class="st2" d="M213,439c3,0,6-0.2,8.9,0.1c0.9,0.1,1.7,1.4,2.6,2.1c-0.8,0.7-1.7,2-2.5,2.1c-5.8,0.2-11.5,0.2-17.3,0
			c-0.9,0-1.8-1.3-2.6-2c0.9-0.8,1.7-2.1,2.6-2.2C207.4,438.8,210.2,439,213,439z"/>
		<path class="st2" d="M212.6,452.1c-2.8,0-5.6,0.1-8.4-0.1c-0.7-0.1-1.9-1.3-1.9-2.1c0-0.7,1.2-2,1.9-2c5.8-0.2,11.6-0.2,17.4,0
			c0.7,0,1.9,1.3,1.9,2s-1.2,2-1.9,2.1C218.6,452.2,215.5,452.1,212.6,452.1z"/>
		<path class="st2" d="M364.1,436.8c2.4,0,4.9-0.2,7.3,0.1c1.1,0.2,2,1.5,3,2.3c-0.9,0.7-1.9,1.8-2.8,1.9c-5.2,0.2-10.5,0.2-15.7,0
			c-1,0-2-1.5-3-2.3c1-0.7,1.9-1.8,2.9-1.9C358.4,436.7,361.3,436.8,364.1,436.8L364.1,436.8z"/>
		<path class="st2" d="M274.6,427.1c-2.4,1.9-3.9,4-5.2,3.9c-1.4-0.1-3.8-2.1-3.8-3.4c0-1.4,1.9-3.7,3.3-3.9
			C270.2,423.5,271.9,425.4,274.6,427.1z"/>
		<path class="st2" d="M294,444.2c-2.8,2-4.4,3.9-5.8,3.8c-1.4-0.2-3.2-2.2-3.6-3.7c-0.2-0.8,2.1-3.2,3.4-3.3
			C289.5,440.9,291,442.5,294,444.2z"/>
		<path class="st2" d="M312.8,461.4c-2.5,1.9-4.1,4-5.4,3.9c-1.4-0.1-3.5-2.3-3.6-3.7c-0.1-1.2,2.1-3.5,3.5-3.6
			C308.7,457.7,310.3,459.7,312.8,461.4z"/>
		<path class="st3" d="M213,411.1c0-26.7,0-53.3,0-80c0.6-0.1,1.3-0.2,1.9-0.3c0.5,2.1,1.5,4.2,1.5,6.3c0.1,23.6,0.1,47.3,0,70.9
			c0,1.5-1.3,2.9-2,4.4C213.8,411.8,213.4,411.4,213,411.1z"/>
		<path class="st3" d="M265.2,337.1c-3.7,14.3-9.2,24.5-13.3,24.6C254.4,348.9,261,336.7,265.2,337.1z"/>
		<path class="st3" d="M276.2,336.4c-6.9,22.2-6.9,22.2-12.4,22.1C268,350.9,268.6,341.7,276.2,336.4z"/>
		<path class="st3" d="M288.6,336.8c-5.2,15.6-6.4,17.7-10.6,18.1C278.9,346,284.1,336.7,288.6,336.8z"/>
		<path class="st3" d="M361.4,558.2c-0.4-2-1.2-4-1.2-6c-0.1-23.4-0.1-46.9,0-70.3c0-1.7,1.2-3.4,3-4.7c1.1,27.2,1.3,54,1,80.9
			C363.2,558.1,362.3,558.1,361.4,558.2z"/>
		<path class="st3" d="M311.1,552.3c4.4-16.1,9.3-24.9,13.6-24.9C321.7,540.4,315.6,552,311.1,552.3z"/>
		<path class="st3" d="M300.3,552.7c3.7-16.1,7.4-22.5,12.3-22C308.1,537.9,308.2,547.6,300.3,552.7z"/>
		<path class="st3" d="M287.9,552.1c4.4-14.5,6.4-17.8,10.7-17.8C296.7,545.1,292.3,552.5,287.9,552.1z"/>
	</g>
</g>
</svg>
