<?xml version="1.0" encoding="utf-8"?>
<!-- Generator: Adobe Illustrator 22.1.0, SVG Export Plug-In . SVG Version: 6.00 Build 0)  -->
<svg version="1.1" id="Layer_1" xmlns="http://www.w3.org/2000/svg" xmlns:xlink="http://www.w3.org/1999/xlink" x="0px" y="0px"
	 viewBox="0 0 430 630" style="enable-background:new 0 0 430 630;" xml:space="preserve">
<style type="text/css">
	.st0{fill:#FFFFFF;stroke:#000000;stroke-width:1.5;stroke-miterlimit:10;}
	.st1{fill:none;}
	.st2{fill:#FFFFFF;}
	.st3{fill:#FF0084;}
</style>
<g>
	<path class="st0" d="M400,615H30c-8.3,0-15-6.7-15-15V30c0-8.3,6.7-15,15-15h370c8.3,0,15,6.7,15,15v570
		C415,608.3,408.3,615,400,615z"/>
	<g>
		<g>
			<path d="M84.8,175.4c-6.6-3.7-11.7-9-15.3-15.9c-3.6-6.8-5.4-14.8-5.4-23.8v-34.8c0-9,1.8-16.9,5.4-23.8
				c3.6-6.8,8.7-12.1,15.3-15.9c6.6-3.7,14.2-5.6,22.8-5.6s16.2,1.9,22.8,5.6s11.7,9,15.3,15.9c3.6,6.8,5.4,14.8,5.4,23.8v34.8
				c0,9-1.8,16.9-5.4,23.8c-3.6,6.8-8.7,12.1-15.3,15.9c-6.6,3.7-14.2,5.6-22.8,5.6S91.4,179.1,84.8,175.4z M120.4,159.2
				c3.7-2.2,6.5-5.2,8.5-9.2c2-3.9,3-8.5,3-13.8v-35.9c0-5.2-1-9.8-3-13.8c-2-3.9-4.8-7-8.5-9.2s-7.9-3.2-12.8-3.2
				c-4.8,0-9.1,1.1-12.8,3.2c-3.7,2.2-6.5,5.2-8.5,9.2c-2,3.9-3,8.5-3,13.8v35.9c0,5.2,1,9.8,3,13.8c2,3.9,4.8,7,8.5,9.2
				s7.9,3.2,12.8,3.2C112.4,162.5,116.7,161.4,120.4,159.2z M106.5,145.7l9.8-12.4l46.2,35.9l-9.8,12.5L106.5,145.7z"/>
		</g>
	</g>
	<g>
		<path d="M118.3,328.4c-1.3-5.6-2-11-2.3-16.3c2.7,7.2,7.7,13.2,14.1,17.2v-58.9h-41V330c6.9-4,12.3-10.2,15.2-17.7
			c-0.3,5-1,10.2-2.1,15.4c-0.9,4.1-2.1,8.3-3.5,12.5c-2.3,6.5-5.1,12.7-8.4,18.2v0.9h39.9v-0.9c-3.3-5.6-6.1-11.7-8.4-18.2
			C120.3,336.2,119.2,332.3,118.3,328.4z"/>
		<path class="st1" d="M103,291c-6.1,5.9-11.1,19.9-13.9,38v-58.7H95c1,1.5,1.8,3.1,2.6,4.7c0.4,0.8,0.8,1.6,1.1,2.4
			C100.6,281.6,102,286.2,103,291z"/>
		<path class="st1" d="M104.3,312.2c-2.9,7.5-8.3,13.8-15.2,17.7c0,0-0.1,0.1-0.2,0.1c0-0.3,0.1-0.7,0.2-1
			c2.8-18.2,7.8-32.1,13.9-38C104.3,297.6,104.8,304.8,104.3,312.2z"/>
		<path class="st1" d="M142.9,255c-1.8,4.8-4.7,9.1-8.4,12.6c-1.8,0.8-3.5,1.7-5.1,2.8h-4.1C129.7,263.3,135.7,258,142.9,255z"/>
		<path class="st2" d="M104.3,312.2c-0.3,5-1,10.2-2.1,15.4c-10.2,8.6-21.9,13.1-35.7,10c-19-4.2-32.3-25.8-29.4-46.6
			c1.9-13.5,7.7-25.3,15.8-36c0.5-0.6,0.9-1.2,1.4-1.8c7.1-1.7,14.3-1.5,21.1,0.9c0.7,0.3,1.4,0.5,2.1,0.8c1.8,4.8,4.7,9,8.4,12.5
			c1.8,0.8,3.5,1.7,5.1,2.8h-1.8v58.7c-0.1,0.3-0.1,0.7-0.2,1c0.1,0,0.1,0,0.2-0.1C96,326,101.4,319.7,104.3,312.2z"/>
		<path class="st2" d="M182.4,298.6c-0.8,16.7-8,30.4-24,37.2c-14.9,6.3-28.3,2-40.1-7.4c-1.3-5.5-2-11-2.3-16.3
			c2.7,7.2,7.7,13.2,14.1,17.2l0,0l0,0c0-0.1,0-0.1,0-0.1v-58.8h-0.7c1.6-1.1,3.3-2,5.1-2.8c3.6-3.5,6.5-7.8,8.4-12.6
			c0.7-0.3,1.4-0.6,2.1-0.8c6.5-2.3,13.3-2.6,20.2-1.1C176.3,265.6,183.3,280.9,182.4,298.6z"/>
		<path class="st1" d="M130.1,270.3v58.8V329c-0.1-0.5-0.2-1-0.2-1.5c-0.1-0.8-0.2-1.5-0.4-2.3c-0.1-0.7-0.2-1.3-0.4-1.9
			c0-0.2-0.1-0.3-0.1-0.5c-0.1-0.7-0.3-1.3-0.4-2c-0.1-0.7-0.3-1.3-0.4-1.9c-0.3-1.1-0.5-2.3-0.8-3.4c-0.1-0.5-0.2-0.9-0.4-1.4
			c-0.2-0.7-0.4-1.5-0.6-2.2c-0.1-0.3-0.2-0.7-0.3-1s-0.2-0.7-0.3-1s-0.2-0.7-0.3-1c-0.1-0.2-0.1-0.4-0.2-0.6
			c-0.1-0.3-0.2-0.7-0.3-1c-0.4-1.1-0.7-2.1-1.1-3.1c-0.1-0.3-0.2-0.6-0.3-0.9c-0.2-0.6-0.5-1.1-0.7-1.7s-0.5-1.1-0.7-1.6
			c0-0.1-0.1-0.1-0.1-0.2c-0.2-0.3-0.3-0.6-0.5-1c-0.1-0.1-0.1-0.2-0.2-0.4c-0.1-0.2-0.2-0.5-0.4-0.7c-0.1-0.3-0.3-0.5-0.4-0.8
			c-0.2-0.4-0.5-0.8-0.7-1.2c-0.1-0.1-0.2-0.3-0.2-0.4c-0.2-0.3-0.3-0.5-0.5-0.8c-0.7-1-1.4-1.9-2.1-2.7c0.9-5.2,2.4-10,4.3-14.4
			c0.4-0.9,0.8-1.7,1.2-2.5c0.8-1.6,1.7-3.2,2.7-4.7h4.8L130.1,270.3L130.1,270.3z"/>
		<path class="st1" d="M130.1,329.3L130.1,329.3L130.1,329.3c-6.4-4-11.4-10.1-14.1-17.2c-0.4-7,0-13.7,1.2-20
			c0.7,0.8,1.4,1.7,2.1,2.7c0.2,0.3,0.3,0.5,0.5,0.8c0.1,0.1,0.2,0.3,0.2,0.4c0.2,0.4,0.5,0.8,0.7,1.2c0.1,0.3,0.3,0.5,0.4,0.8
			c0.1,0.2,0.3,0.5,0.4,0.7c0.1,0.1,0.1,0.2,0.2,0.4c0.2,0.3,0.3,0.6,0.5,1c0,0.1,0.1,0.1,0.1,0.2c0.2,0.5,0.5,1,0.7,1.6
			c0.2,0.5,0.5,1.1,0.7,1.7c0.1,0.3,0.2,0.6,0.3,0.9c0.4,1,0.7,2,1.1,3.1c0.1,0.3,0.2,0.7,0.3,1c0.1,0.2,0.1,0.4,0.2,0.6
			c0.1,0.3,0.2,0.7,0.3,1s0.2,0.7,0.3,1s0.2,0.7,0.3,1c0.2,0.7,0.4,1.4,0.6,2.2c0.1,0.5,0.2,0.9,0.4,1.4c0.3,1.1,0.5,2.2,0.8,3.4
			c0.1,0.6,0.3,1.3,0.4,1.9c0.1,0.7,0.3,1.3,0.4,2c0,0.2,0.1,0.3,0.1,0.5c0.1,0.6,0.2,1.3,0.4,1.9c0.1,0.7,0.3,1.5,0.4,2.3
			C130.1,328.3,130.2,328.8,130.1,329.3l0.1,0.1l0,0C130.1,329.2,130.1,329.2,130.1,329.3z"/>
		<path class="st1" d="M95,270.3h-4c-1.6-1.1-3.3-2-5.1-2.8c-3.6-3.5-6.5-7.7-8.4-12.5C84.7,258,90.6,263.4,95,270.3z"/>
		<path class="st1" d="M118.3,328.4c-1.3-5.6-2-11-2.3-16.3c2.7,7.2,7.7,13.2,14.1,17.2v-0.2V329c-0.1-0.5-0.2-1-0.2-1.5
			c-0.1-0.7-0.3-1.5-0.4-2.2c-0.1-0.7-0.2-1.3-0.4-1.9c0-0.2,0-0.3-0.1-0.5c-0.1-0.7-0.3-1.3-0.4-2c-0.1-0.7-0.3-1.3-0.4-2
			c-0.3-1.1-0.5-2.2-0.8-3.4c-0.1-0.5-0.3-0.9-0.4-1.4c-0.2-0.7-0.4-1.5-0.6-2.1c-0.1-0.4-0.2-0.7-0.3-1s-0.2-0.7-0.3-1
			s-0.2-0.7-0.3-1c-0.1-0.2-0.1-0.4-0.2-0.6c-0.1-0.4-0.2-0.7-0.3-1c-0.4-1.1-0.7-2.1-1.1-3.1c-0.1-0.3-0.2-0.6-0.4-0.9
			c-0.2-0.6-0.5-1.1-0.7-1.7c-0.2-0.5-0.5-1.1-0.7-1.6c0-0.1-0.1-0.1-0.1-0.2c-0.1-0.3-0.3-0.6-0.5-0.9c-0.1-0.1-0.1-0.2-0.2-0.4
			c-0.1-0.2-0.2-0.5-0.4-0.7c-0.1-0.3-0.3-0.6-0.4-0.8c-0.3-0.4-0.5-0.8-0.7-1.2c-0.1-0.2-0.2-0.3-0.3-0.4c-0.2-0.3-0.3-0.5-0.5-0.8
			c-0.7-1-1.4-1.9-2.1-2.7c-0.7-0.8-1.4-1.5-2.1-2c-1.8-1.4-3.6-2.1-5.4-2.1c-1.5,0-3,0.5-4.5,1.4c-0.7,0.5-1.5,1.1-2.2,1.7
			c-6.1,6-11.1,19.9-13.8,38.1c-0.1,0.3-0.1,0.7-0.2,1c0.1,0,0.1-0.1,0.2-0.1c6.9-4,12.3-10.2,15.2-17.7c-0.3,5-1,10.2-2.1,15.4
			c-0.9,4.1-2.1,8.3-3.5,12.5c-2.3,6.5-5.1,12.7-8.4,18.2v0.9H130v-0.9c-3.3-5.6-6.1-11.7-8.4-18.2
			C120.3,336.2,119.2,332.3,118.3,328.4z"/>
		<g>
			<path d="M182.4,298.6c-0.8,16.7-8,30.4-24,37.2c-14.9,6.3-28.3,2-40.1-7.4c-0.8-0.7-1.6-1.3-2.4-2c-2-1.8-3.7-3.9-5.9-6.2
				c-2.1,2.1-3.5,3.7-5.1,5.1c-0.9,0.8-1.8,1.6-2.7,2.4c-10.2,8.6-21.9,13.1-35.7,10c-19-4.2-32.3-25.8-29.4-46.6
				c1.9-13.5,7.7-25.3,15.8-36c0.5-0.6,0.9-1.2,1.4-1.8c14.3-18.2,33.4-31.1,51.7-44.8c0.4-0.3,0.9-0.7,1.3-1
				c1.2-0.9,4.3-0.7,5.5,0.3c0.8,0.6,1.6,1.3,2.4,1.9c15.5,12.7,31.5,24.9,45.7,38.8c1.5,1.5,2.9,3,4.3,4.5
				C176.3,265.6,183.3,280.9,182.4,298.6z"/>
			<rect x="90.2" y="212.7" transform="matrix(0.7071 -0.7071 0.7071 0.7071 -131.752 145.3848)" width="38.9" height="38.1"/>
		</g>
	</g>
	<g>
		<path class="st2" d="M393.5,522.3c0,24.8,0,49.6,0,74.7c-42.2,0-84.3,0-126.5,0c2.5-3.4,5-6.8,7.5-10.2c0.6,0.5,1.2,1.1,1.8,1.6
			c3.4,2.4,6.7,4.9,10.8,7.8c3.8-10.9,10.4-12.7,19.1-5.8c2-4.8,3.6-8.7,5.2-12.6c4,0.5,7.7,0.9,12.6,1.5c-3.8-5.4-6.8-9.9-10.1-14
			c-2.5-3.2-3.1-5.9-1.5-10.1c6.9-18.4,14.3-36.5,25.8-52.6c-20.4-12.7-49-5.7-60.1,14.6c9.8,15.5,12.2,25.1,8,38
			c-4.5,13.9-3.8,12.6-17,13.3c-2.7,0.1-5.5,0.1-8.2-0.3c-1.2-0.2-3-1.1-3.3-2.1c-2.8-8.3-5.3-16.7-8.2-25.7c4.9,0,5.8-3.3,6.2-7.4
			c0.4-4.4,0.1-10.7,2.6-12.6c2.9-2.2,8.5-0.5,13-0.5c0.1-0.2,0.2-0.3,0.3-0.5c-5.8-1.5-11.5-2.9-16.8-4.3
			c-5.1,7.8,2.7,20.5-10.5,23.2c3,8.9,6,17.3,8.5,25.9c0.7,2.3,0.5,5.2-0.1,7.5c-1.8,6.6-4,13.1-6.4,20.5c4.4-2.2,7.9-3.9,11.6-5.8
			c2.9,3.6,5.5,7,8.1,10.3c-27.2,0-54.4,0-81.8,0c0-73.1,0-146.3,0-219.4c2.3,7.7,5.4,14.6,13.6,17.6c10.3,3.8,15.5,15.2,12.6,26.9
			c-4.1,0.3-8.8,0.2-8.6,6.5c0.3,7,2.2,14.3,0.8,20.9c-1.7,7.5,1.3,9.4,8,10.4c-2.5,4-4.7,7.4-6.9,11c0.8,1.1,1.7,2.2,3,3.9
			c2.8-3.7,5.1-6.8,7.8-10.2c10,10.4,19.9,20.8,30.3,31.5c7-10.7,13.7-20.9,20.5-31.3c10.6,9.5,20.9,18.8,31.3,27.9
			c1.3,1.2,3.9,1.9,5.5,1.5c12.3-3.2,24.2-1.8,35.5,3.8c4,2,6.6,1.6,9.6-1.2c4.6-4.3,9.3-8.6,15.1-13.9c-0.9,4.6-1,7.9-2.1,10.8
			c-1.8,4.6-2.7,9.8-8.5,11.5c-11.3,3.3-15.3,8.7-16.5,21.4c9.6,1.4,17.8-4.7,21.2-15.2c0.9-2.9,2.6-5.6,4-8.4
			c0.4,0.2,0.7,0.4,1.1,0.6c0,8.4,0,16.8,0,25.2c-10.9-0.7-14.1,3.1-11.7,14c-4.2,2.3-6.8,5.6-5.4,10.9c1.5,5.6,6,6.4,10.7,6.3
			c0.9,5.2,3.2,8.8,8.5,9c5.5,0.1,7.9-3.7,8.9-8.8c4.8,0.7,9.1,0,10.9-5.2c1.8-5.3-0.6-9.1-5-11.6c3.2-10.8-0.1-14.7-11.5-14.1
			c0-10.5,0-20.9,0-31.4c0.4-0.2,0.8-0.5,1.2-0.7C373.1,509.2,376.7,523.3,393.5,522.3z M266,471.5c-5.8,8.9-11.4,17.3-16.6,25.8
			c-0.6,1,0.5,3.2,0.8,4.9c0.5-0.1,1-0.2,1.5-0.3c4.6-6.9,9.1-13.8,13.9-21c7.8,7,15.2,13.6,22.6,20.1c2.2-1.4,4.1-2.6,6.2-4
			C284.9,488.6,275.8,480.3,266,471.5z"/>
		<path class="st2" d="M184.1,374.2c0-24.8,0-49.6,0-74.7c42.2,0,84.3,0,126.5,0c-2.5,3.4-5,6.8-7.5,10.2c-0.6-0.5-1.2-1.1-1.8-1.6
			c-3.4-2.5-6.7-4.9-10.8-7.9c-3.7,11-10.4,12.7-18.9,6c-0.7,1.4-1.1,2-1.4,2.7c-4,9.3-4,9.3-13.6,8.5c-0.6-0.1-1.3,0.1-2.5,0.3
			c1.2,1.8,2,3.4,3.1,4.4c9.6,9,10,18.7,3.8,30.2c-7.4,13.7-13.6,28.1-20.4,42.2c21.8,12.7,47.6,3.5,58.9-15.7
			c-6.6-8.7-10.4-18.3-9.7-29.7c1.1-16.6,5.9-21.5,21.6-21.4c1.8,0,3.7-0.1,5.4,0.2c1.1,0.2,2.7,0.9,3,1.8c2.8,8.5,5.4,17,8,25.5
			c-10.6,4-3.5,15.1-8.7,21.6c-4.1-0.4-8.4-0.9-12.8-1.3c-0.1,0.5-0.2,0.9-0.3,1.4c5.8,1.4,11.6,2.8,17.8,4.3
			c0.7-5.6,1.8-10.1,1.6-14.5c-0.4-6.2,3.8-7.3,7.9-8.8c-2.8-8.1-5.8-15.7-8-23.7c-1-3.5-0.8-7.7,0-11.3c1.4-6.1,3.7-12.1,5.8-18.9
			c-4.3,2.1-7.8,3.8-11.6,5.6c-2.8-3.6-5.4-6.9-8.1-10.2c27.2,0,54.4,0,81.8,0c0,73.1,0,146.3,0,219.4c-2.5-9.8-7.6-16.9-17.8-18.9
			c-0.8-0.2-1.6-0.8-2.2-1.5c-5.6-6.9-8.4-14.7-6.7-24c4.4-0.4,9.2-0.1,9-6.5c-0.2-7-2.2-14.3-0.8-20.8c1.6-7.5-1-9.6-7.9-10.3
			c2.5-4.1,4.6-7.4,7-11.2c-1-0.9-2.1-2-3.4-3.3c-2.6,3.4-4.9,6.5-7.8,10.3c-10.2-10.7-20.1-21.1-30.1-31.7
			c-6.7,10.3-13.4,20.5-20.2,30.9c-10.8-9.7-21.1-19-31.5-28.1c-1.3-1.1-3.6-1.9-5.1-1.5c-12.9,3.5-25.2,1.8-37-4.2
			c-3-1.5-5.1-1.1-7.3,0.9c-5,4.5-10,9-15.1,13.6c-1.2-8.8,3.6-19.4,9.6-21.2c11-3.3,15.5-9.3,16.2-21.5c-9.6-1-17.7,5-20.9,15
			c-1,3-2.6,5.7-3.9,8.6c-0.4-0.2-0.8-0.3-1.2-0.5c0-8.4,0-16.7,0-25.1c11,0.4,14.2-3.3,11.6-14c4.1-2.3,6.9-5.6,5.4-10.9
			c-1.5-5.5-5.9-6.6-10.7-6.3c-1.1-5.3-3.5-9.1-9-9c-5.2,0.1-7.5,3.9-8.5,8.9c-4.8-1-9.1-0.1-10.9,5c-1.9,5.2,0.5,9.1,4.9,11.6
			c-3,11,0.3,14.9,11.6,14.1c0,10.5,0,21,0,31.4c-0.4,0.3-0.8,0.5-1.2,0.8C204.5,387.3,201,373.1,184.1,374.2z M283.2,399.4
			c9.6,8.6,18.8,16.9,28.4,25.5c5.7-8.8,11.2-17,16.3-25.4c0.8-1.2,0.1-3.4,0.1-5.1c-0.6-0.1-1.3-0.2-1.9-0.3
			c-4.6,7-9.3,14.1-14.1,21.4c-7.9-7-15.2-13.6-22.6-20.1C287.2,396.9,285.3,398,283.2,399.4z"/>
		<path class="st3" d="M184.1,374.2c16.9-1.1,20.3,13.2,25.4,25.5c0.4-0.3,0.8-0.5,1.2-0.8c0-10.5,0-21,0-31.4
			c-11.3,0.8-14.6-3.2-11.6-14.1c-4.4-2.5-6.7-6.4-4.9-11.6c1.8-5.1,6.1-6,10.9-5c1-5.1,3.2-8.8,8.5-8.9c5.5-0.1,7.9,3.7,9,9
			c4.8-0.2,9.2,0.8,10.7,6.3c1.5,5.3-1.4,8.6-5.4,10.9c2.6,10.7-0.6,14.4-11.6,14c0,8.4,0,16.8,0,25.1c0.4,0.2,0.8,0.3,1.2,0.5
			c1.3-2.9,3-5.6,3.9-8.6c3.2-10,11.3-15.9,20.9-15c-0.7,12.1-5.2,18.2-16.2,21.5c-6,1.8-10.8,12.4-9.6,21.2
			c5.1-4.6,10.1-9.1,15.1-13.6c2.2-2,4.3-2.4,7.3-0.9c11.8,6,24.1,7.7,37,4.2c1.5-0.4,3.8,0.4,5.1,1.5c10.4,9.1,20.7,18.4,31.5,28.1
			c6.8-10.4,13.4-20.6,20.2-30.9c10.1,10.6,20,21,30.1,31.7c2.9-3.9,5.2-6.9,7.8-10.3c1.4,1.3,2.5,2.4,3.4,3.3
			c-2.3,3.8-4.4,7.1-7,11.2c7,0.8,9.6,2.8,7.9,10.3c-1.4,6.6,0.5,13.9,0.8,20.8c0.2,6.4-4.6,6.1-9,6.5c-1.7,9.3,1.1,17.1,6.7,24
			c0.5,0.7,1.4,1.4,2.2,1.5c10.1,2.1,15.3,9.1,17.8,18.9c0,1.1,0,2.3,0,3.4c-16.8,1-20.4-13.1-25.4-25.5c-0.4,0.2-0.8,0.5-1.2,0.7
			c0,10.5,0,20.9,0,31.4c11.4-0.6,14.7,3.4,11.5,14.1c4.4,2.5,6.8,6.3,5,11.6c-1.8,5.2-6.1,5.9-10.9,5.2c-1,5.1-3.4,9-8.9,8.8
			c-5.2-0.1-7.6-3.8-8.5-9c-4.8,0.2-9.2-0.7-10.7-6.3c-1.5-5.2,1.2-8.6,5.4-10.9c-2.4-10.9,0.8-14.7,11.7-14c0-8.4,0-16.8,0-25.2
			c-0.4-0.2-0.7-0.4-1.1-0.6c-1.3,2.8-3,5.5-4,8.4c-3.4,10.5-11.6,16.6-21.2,15.2c1.2-12.7,5.2-18,16.5-21.4c5.7-1.7,6.7-7,8.5-11.5
			c1.1-2.9,1.2-6.2,2.1-10.8c-5.8,5.3-10.5,9.5-15.1,13.9c-3,2.8-5.7,3.2-9.6,1.2c-11.3-5.6-23.2-7-35.5-3.8
			c-1.6,0.4-4.2-0.3-5.5-1.5c-10.4-9.1-20.7-18.4-31.3-27.9c-6.8,10.4-13.5,20.6-20.5,31.3c-10.4-10.8-20.3-21.2-30.3-31.5
			c-2.6,3.5-4.9,6.5-7.8,10.2c-1.3-1.7-2.2-2.8-3-3.9c2.2-3.6,4.4-7,6.9-11c-6.7-0.9-9.6-2.8-8-10.4c1.4-6.6-0.5-13.9-0.8-20.9
			c-0.2-6.3,4.5-6.3,8.6-6.5c3-11.7-2.3-23.1-12.6-26.9c-8.2-3-11.3-9.9-13.6-17.6C184.1,376.4,184.1,375.3,184.1,374.2z
			 M360.3,470.7L360.3,470.7c3.1,0,6.1,0.2,9.2-0.1c1-0.1,1.9-1.2,2.9-1.9c-0.8-0.8-1.6-2.3-2.5-2.3c-6.3-0.2-12.6-0.2-18.9,0
			c-0.8,0-1.5,1.2-2.2,1.9c0.8,0.8,1.5,2.1,2.4,2.2C354.2,470.8,357.2,470.7,360.3,470.7z M216.4,438.6L216.4,438.6
			c2.9,0,5.8,0.2,8.7-0.1c1-0.1,2-1.5,2.9-2.3c-0.9-0.7-1.8-2-2.7-2c-5.8-0.2-11.6-0.2-17.3,0c-0.9,0-1.8,1.3-2.7,2
			c1,0.8,2,2.1,3,2.2C211,438.8,213.7,438.6,216.4,438.6z M361.2,462.3c2.9,0,5.8,0.2,8.7-0.1c0.9-0.1,1.7-1.4,2.5-2.2
			c-0.9-0.7-1.8-2-2.7-2c-5.8-0.2-11.6-0.2-17.3,0c-0.9,0-1.9,1.2-2.8,1.9c1,0.8,1.9,2.2,2.9,2.3
			C355.4,462.5,358.3,462.3,361.2,462.3z M216.2,447.3L216.2,447.3c2.9,0,5.8,0.2,8.7-0.1c0.9-0.1,1.7-1.5,2.5-2.3
			c-0.8-0.6-1.5-1.8-2.3-1.8c-5.8-0.2-11.6-0.2-17.3,0c-0.8,0-1.6,1.4-2.4,2.2c0.9,0.7,1.8,1.9,2.8,2
			C210.8,447.5,213.5,447.3,216.2,447.3z M360.9,453.6L360.9,453.6c2.9,0,5.8,0.2,8.7-0.1c1-0.1,1.9-1.2,2.8-1.9
			c-0.8-0.8-1.6-2.3-2.4-2.3c-5.8-0.2-11.5-0.2-17.3,0c-0.8,0-1.5,1.6-2.3,2.5c0.8,0.6,1.6,1.6,2.5,1.7
			C355.4,453.7,358.1,453.6,360.9,453.6z M217.4,425.8L217.4,425.8c-3.1,0-6.1-0.2-9.2,0.1c-1,0.1-1.9,1.2-2.9,1.8
			c0.8,0.8,1.6,2.3,2.4,2.3c6.3,0.2,12.6,0.1,18.9-0.1c0.8,0,1.5-1.5,2.3-2.3c-0.8-0.6-1.6-1.7-2.4-1.7
			C223.5,425.7,220.4,425.8,217.4,425.8z M361.8,440.8c-2.7,0-5.4-0.2-8.1,0.1c-0.9,0.1-1.7,1.4-2.5,2.1c0.9,0.7,1.7,2.1,2.6,2.1
			c5.4,0.2,10.8,0.1,16.2,0c0.8,0,1.5-1.2,2.3-1.9c-0.8-0.8-1.5-2.2-2.4-2.3C367.3,440.7,364.5,440.9,361.8,440.8z M215.8,455.6
			c2.7,0,5.4,0.2,8.1-0.1c0.9-0.1,1.7-1.4,2.5-2.1c-0.7-0.7-1.4-2-2.1-2c-5.6-0.2-11.2-0.2-16.7,0c-0.8,0-1.5,1.3-2.2,1.9
			c0.8,0.8,1.5,2.2,2.4,2.3C210.3,455.8,213.1,455.6,215.8,455.6z M220.5,349c-3.1-2.3-5.2-5.1-6.7-4.7c-1.9,0.4-3.4,3.3-5,5.1
			c1.7,1.6,3.3,4.2,5.1,4.3C215.6,353.8,217.4,351.3,220.5,349z M370.9,547.7c-3-2.4-4.8-4.9-6.5-4.9c-1.8,0.1-3.5,2.7-5.2,4.2
			c1.6,1.9,3,4.8,4.9,5.3C365.5,552.6,367.7,549.9,370.9,547.7z M288.9,442.8c-1.8,2.5-3.8,4.1-3.6,5.4c0.1,1.4,2.2,3.6,3.5,3.7
			c1.3,0,3.4-2.1,3.6-3.5C292.5,447,290.6,445.3,288.9,442.8z M275.9,430.9c-2.8-1.7-4.4-3.4-5.9-3.3c-1.2,0.1-3.4,2.6-3.1,3.5
			c0.4,1.5,2.2,3.6,3.6,3.7C271.8,435,273.3,432.9,275.9,430.9z M312.7,465.3c-2.5-1.9-4-3.8-5.3-3.7c-1.4,0.1-2.6,2.2-3.9,3.5
			c1.2,1.3,2.3,3.5,3.7,3.7C308.5,469.1,310.1,467.1,312.7,465.3z"/>
		<path class="st3" d="M311.7,299.5c2.6,3.3,5.2,6.7,8.1,10.2c3.7-1.8,7.3-3.5,11.6-5.6c-2.1,6.8-4.4,12.7-5.8,18.9
			c-0.8,3.6-1,7.8,0,11.3c2.2,7.9,5.2,15.6,8,23.7c-4.1,1.6-8.3,2.6-7.9,8.8c0.3,4.4-0.9,8.9-1.6,14.5c-6.2-1.5-12-2.9-17.8-4.3
			c0.1-0.5,0.2-0.9,0.3-1.4c4.3,0.4,8.7,0.9,12.8,1.3c5.2-6.5-1.9-17.6,8.7-21.6c-2.6-8.5-5.2-17.1-8-25.5c-0.3-0.9-1.9-1.6-3-1.8
			c-1.8-0.3-3.6-0.2-5.4-0.2c-15.7-0.1-20.5,4.8-21.6,21.4c-0.7,11.4,3.1,21,9.7,29.7c-11.2,19.2-37.1,28.4-58.9,15.7
			c6.8-14.1,13-28.5,20.4-42.2c6.2-11.5,5.8-21.3-3.8-30.2c-1.2-1.1-1.9-2.6-3.1-4.4c1.2-0.1,1.8-0.3,2.5-0.3
			c9.6,0.8,9.6,0.8,13.6-8.5c0.3-0.7,0.7-1.3,1.4-2.7c8.5,6.7,15.2,5,18.9-6c4.1,3,7.4,5.4,10.8,7.9c0.6,0.5,1.2,1.1,1.8,1.6
			c2.5-3.4,5-6.8,7.5-10.2C311,299.5,311.4,299.5,311.7,299.5z"/>
		<path class="st3" d="M265.9,597c-2.6-3.3-5.2-6.7-8.1-10.3c-3.7,1.8-7.2,3.6-11.6,5.8c2.3-7.4,4.6-13.9,6.4-20.5
			c0.6-2.4,0.8-5.2,0.1-7.5c-2.6-8.6-5.6-17.1-8.5-25.9c13.2-2.7,5.3-15.4,10.5-23.2c5.3,1.4,11.1,2.8,16.8,4.3
			c-0.1,0.2-0.2,0.3-0.3,0.5c-4.5,0-10.1-1.7-13,0.5c-2.5,1.9-2.1,8.2-2.6,12.6c-0.4,4.1-1.3,7.4-6.2,7.4c2.8,9,5.4,17.4,8.2,25.7
			c0.3,1,2.1,2,3.3,2.1c2.7,0.4,5.4,0.4,8.2,0.3c13.2-0.7,12.4,0.6,17-13.3c4.2-12.9,1.8-22.5-8-38c11.1-20.2,39.7-27.3,60.1-14.6
			c-11.5,16-18.9,34.1-25.8,52.6c-1.6,4.2-1,6.9,1.5,10.1c3.3,4.2,6.3,8.6,10.1,14c-4.9-0.6-8.5-1.1-12.6-1.5
			c-1.6,4-3.3,7.9-5.2,12.6c-8.7-6.9-15.3-5.1-19.1,5.8c-4-2.9-7.4-5.4-10.8-7.8c-0.6-0.5-1.2-1.1-1.8-1.6c-2.5,3.4-5,6.8-7.5,10.2
			C266.7,597,266.3,597,265.9,597z"/>
		<path class="st3" d="M266,471.5c9.8,8.8,18.9,17,28.4,25.6c-2.1,1.4-4,2.5-6.2,4c-7.4-6.6-14.7-13.1-22.6-20.1
			c-4.8,7.2-9.3,14.1-13.9,21c-0.5,0.1-1,0.2-1.5,0.3c-0.3-1.7-1.4-3.8-0.8-4.9C254.7,488.8,260.2,480.5,266,471.5z"/>
		<path class="st3" d="M283.2,399.4c2.1-1.4,3.9-2.5,6.2-4c7.3,6.5,14.7,13.1,22.6,20.1c4.8-7.3,9.5-14.4,14.1-21.4
			c0.6,0.1,1.3,0.2,1.9,0.3c0,1.7,0.7,3.9-0.1,5.1c-5.2,8.4-10.6,16.6-16.3,25.4C302,416.3,292.8,408,283.2,399.4z"/>
		<path class="st2" d="M360.3,470.7c-3.1,0-6.1,0.2-9.2-0.1c-0.8-0.1-1.6-1.4-2.4-2.2c0.7-0.7,1.5-1.9,2.2-1.9
			c6.3-0.2,12.6-0.2,18.9,0c0.8,0,1.7,1.5,2.5,2.3c-1,0.7-1.9,1.8-2.9,1.9C366.4,470.8,363.4,470.7,360.3,470.7L360.3,470.7z"/>
		<path class="st2" d="M216.4,438.6c-2.7,0-5.4,0.2-8.1-0.1c-1.1-0.1-2-1.4-3-2.2c0.9-0.7,1.8-2,2.7-2c5.8-0.2,11.5-0.2,17.3,0
			c0.9,0,1.8,1.3,2.7,2c-1,0.8-1.9,2.1-2.9,2.3C222.2,438.8,219.3,438.6,216.4,438.6L216.4,438.6z"/>
		<path class="st2" d="M361.2,462.3c-2.9,0-5.8,0.2-8.7-0.1c-1-0.1-1.9-1.5-2.9-2.3c0.9-0.7,1.8-1.9,2.8-1.9
			c5.8-0.2,11.6-0.2,17.3,0c0.9,0,1.8,1.3,2.7,2c-0.8,0.8-1.6,2.1-2.5,2.2C367,462.5,364.1,462.3,361.2,462.3z"/>
		<path class="st2" d="M216.2,447.3c-2.7,0-5.4,0.2-8.1-0.1c-1-0.1-1.9-1.3-2.8-2c0.8-0.8,1.6-2.2,2.4-2.2c5.8-0.2,11.6-0.2,17.3,0
			c0.8,0,1.5,1.2,2.3,1.8c-0.8,0.8-1.6,2.2-2.5,2.3C222,447.5,219.1,447.3,216.2,447.3L216.2,447.3z"/>
		<path class="st2" d="M360.9,453.6c-2.7,0-5.4,0.1-8.1-0.1c-0.9-0.1-1.6-1.1-2.5-1.7c0.8-0.9,1.5-2.4,2.3-2.5
			c5.8-0.2,11.5-0.2,17.3,0c0.8,0,1.6,1.5,2.4,2.3c-0.9,0.6-1.8,1.8-2.8,1.9C366.6,453.8,363.7,453.6,360.9,453.6L360.9,453.6z"/>
		<path class="st2" d="M217.4,425.8c3.1,0,6.1-0.1,9.2,0.1c0.8,0.1,1.6,1.1,2.4,1.7c-0.8,0.8-1.5,2.3-2.3,2.3
			c-6.3,0.2-12.6,0.2-18.9,0.1c-0.8,0-1.6-1.5-2.4-2.3c1-0.6,1.9-1.7,2.9-1.8C211.2,425.6,214.3,425.8,217.4,425.8L217.4,425.8z"/>
		<path class="st2" d="M361.8,440.8c2.7,0,5.4-0.2,8.1,0.1c0.9,0.1,1.6,1.5,2.4,2.3c-0.8,0.7-1.5,1.9-2.3,1.9
			c-5.4,0.2-10.8,0.2-16.2,0c-0.9,0-1.8-1.4-2.6-2.1c0.8-0.7,1.6-2,2.5-2.1C356.4,440.7,359.1,440.8,361.8,440.8z"/>
		<path class="st2" d="M215.8,455.6c-2.7,0-5.4,0.2-8.1-0.1c-0.9-0.1-1.6-1.5-2.4-2.3c0.7-0.7,1.5-1.9,2.2-1.9
			c5.6-0.2,11.2-0.2,16.7,0c0.7,0,1.4,1.3,2.1,2c-0.8,0.7-1.6,2-2.5,2.1C221.2,455.8,218.5,455.6,215.8,455.6z"/>
		<path class="st2" d="M220.5,349c-3,2.3-4.9,4.8-6.6,4.7c-1.8-0.1-3.4-2.8-5.1-4.3c1.6-1.8,3.1-4.7,5-5.1
			C215.2,344,217.4,346.7,220.5,349z"/>
		<path class="st2" d="M370.9,547.7c-3.2,2.3-5.4,4.9-6.8,4.6c-1.9-0.5-3.3-3.4-4.9-5.3c1.7-1.5,3.4-4.1,5.2-4.2
			C366.1,542.7,367.9,545.3,370.9,547.7z"/>
		<path class="st2" d="M288.9,442.8c1.7,2.6,3.6,4.2,3.4,5.5c-0.2,1.4-2.3,3.6-3.6,3.5c-1.3,0-3.4-2.2-3.5-3.7
			C285.1,446.8,287.1,445.3,288.9,442.8z"/>
		<path class="st2" d="M275.9,430.9c-2.6,2-4.1,4-5.4,3.9c-1.4-0.1-3.2-2.2-3.6-3.7c-0.2-0.9,2-3.4,3.1-3.5
			C271.5,427.6,273.1,429.3,275.9,430.9z"/>
		<path class="st2" d="M312.7,465.3c-2.6,1.8-4.2,3.7-5.5,3.5c-1.4-0.2-2.5-2.4-3.7-3.7c1.3-1.2,2.5-3.3,3.9-3.5
			C308.7,461.5,310.2,463.5,312.7,465.3z"/>
	</g>
</g>
</svg>
