<?xml version="1.0" standalone="no"?>
<!DOCTYPE svg PUBLIC "-//W3C//DTD SVG 20010904//EN"
 "http://www.w3.org/TR/2001/REC-SVG-20010904/DTD/svg10.dtd">
<svg version="1.0" xmlns="http://www.w3.org/2000/svg"
 width="512.000000pt" height="512.000000pt" viewBox="0 0 512.000000 512.000000"
 preserveAspectRatio="xMidYMid meet">
<metadata>
Created by potrace 1.11, written by Peter Selinger 2001-2013
</metadata>
<g transform="translate(0.000000,512.000000) scale(0.100000,-0.100000)"
fill="#000000" stroke="none">
<path d="M1108 4829 c-203 -30 -387 -124 -531 -273 -132 -134 -218 -290 -274
-492 l-27 -99 -6 -660 c-3 -363 -7 -648 -8 -633 -4 52 -11 58 -63 58 -27 0
-58 5 -68 12 -14 8 -31 9 -58 2 l-38 -9 -5 -185 c-7 -244 -1 -1083 8 -1092 12
-11 225 -21 218 -10 -3 6 -2 13 4 17 6 4 10 -15 10 -52 2 -255 138 -570 320
-739 129 -119 224 -178 377 -231 l78 -27 735 -6 c404 -3 659 -7 567 -8 -109
-1 -166 -6 -162 -12 3 -5 22 -10 40 -10 19 0 54 -6 77 -14 43 -14 100 -25 168
-32 59 -6 113 -12 165 -18 131 -15 267 -24 465 -31 175 -7 190 -9 215 -22 11
-6 40 -14 65 -17 25 -4 61 -13 80 -21 19 -7 66 -23 105 -35 38 -12 72 -25 75
-30 3 -5 48 -10 100 -11 52 -1 104 -5 115 -10 11 -4 -612 -7 -1385 -6 l-1405
2 -120 33 c-223 63 -351 138 -521 307 -176 173 -301 394 -349 613 -26 119 -33
102 -10 -23 20 -107 34 -162 56 -211 10 -23 36 -83 59 -134 22 -52 48 -103 58
-114 10 -12 33 -43 52 -71 73 -108 130 -169 237 -256 135 -109 264 -171 451
-219 l120 -30 1464 2 1463 3 127 37 c124 37 247 96 357 171 60 41 230 212 270
272 106 157 151 249 200 410 63 204 71 302 71 866 0 389 -3 509 -12 521 -16
20 -68 36 -138 43 -30 3 -56 10 -58 15 -11 31 -20 -1 -21 -77 -1 -48 -4 -89
-7 -92 -2 -2 -4 358 -4 802 0 656 -3 827 -15 919 -35 265 -121 450 -294 630
-119 126 -261 212 -430 260 l-76 22 -1415 2 c-778 1 -1441 -2 -1472 -7z m489
-85 c-3 -3 -12 -4 -19 -1 -8 3 -5 6 6 6 11 1 17 -2 13 -5z m276 -1 c-7 -2 -21
-2 -30 0 -10 3 -4 5 12 5 17 0 24 -2 18 -5z m1414 1 c-3 -3 -12 -4 -19 -1 -8
3 -5 6 6 6 11 1 17 -2 13 -5z m481 -1 c-87 -2 -229 -2 -315 0 -87 1 -16 3 157
3 173 0 244 -2 158 -3z m-495 -114 c17 -8 37 -37 62 -93 21 -44 64 -136 96
-204 33 -68 59 -125 59 -128 0 -2 14 -32 31 -66 31 -64 100 -211 204 -438 31
-69 74 -161 95 -205 21 -44 68 -145 106 -225 37 -80 91 -196 120 -258 30 -62
54 -115 54 -117 0 -2 25 -57 56 -122 31 -65 70 -147 86 -183 41 -90 91 -196
151 -323 70 -149 72 -145 -113 -231 -98 -45 -176 -81 -315 -146 -44 -21 -111
-52 -150 -70 -38 -18 -96 -45 -127 -60 l-57 -27 -3 46 c-3 51 3 49 -107 40
l-55 -4 -12 80 c-6 44 -17 99 -24 123 -7 23 -11 45 -8 48 3 3 36 10 74 15 37
5 69 11 71 13 7 7 -44 123 -86 195 -44 74 -172 236 -195 244 -8 3 -30 -19 -55
-54 l-41 -59 -63 51 c-34 27 -82 62 -107 76 -25 14 -47 27 -49 29 -2 1 18 30
44 64 34 44 62 69 101 88 30 14 54 29 54 32 0 3 -22 18 -48 34 l-47 29 40 14
c70 24 115 82 115 148 0 79 -54 125 -148 125 -49 0 -52 2 -73 40 -29 51 -94
85 -147 77 -77 -13 -120 -102 -89 -186 l16 -45 -34 -37 c-33 -37 -53 -95 -42
-123 5 -12 -10 -13 -90 -9 l-96 6 6 -39 c4 -21 10 -55 13 -75 l6 -36 -93 -11
c-52 -7 -110 -15 -130 -18 l-36 -6 -13 76 c-13 74 -13 76 -39 69 -109 -27
-274 -119 -362 -201 l-61 -57 66 -47 c36 -27 66 -52 66 -56 0 -5 -12 -19 -26
-33 -15 -13 -48 -57 -74 -97 l-47 -72 -66 50 -66 50 -19 -37 c-20 -40 -48
-130 -54 -173 -2 -21 1 -24 20 -22 12 2 22 -2 22 -8 0 -8 17 -11 49 -8 39 2
47 0 39 -9 -6 -7 -6 -13 -1 -13 5 0 6 -24 2 -57 -10 -82 -10 -145 0 -139 4 3
11 38 14 78 3 40 13 92 22 115 15 36 19 40 31 28 8 -7 14 -21 14 -29 0 -12 10
-16 40 -16 34 0 40 -3 40 -21 0 -11 4 -18 8 -15 4 2 7 -41 6 -97 l-2 -102 8
100 c26 310 232 534 540 585 355 59 731 -195 815 -552 28 -119 15 -284 -30
-391 -6 -13 -4 -16 9 -11 9 3 14 10 11 14 -3 5 -1 20 5 35 10 26 11 27 35 11
13 -9 37 -16 53 -16 20 0 35 -8 45 -23 14 -22 13 -29 -23 -110 -44 -99 -95
-172 -169 -241 -29 -26 -50 -50 -47 -53 8 -9 137 130 174 187 19 30 44 68 54
83 11 15 30 56 43 90 13 34 24 56 25 49 0 -19 25 -42 44 -42 9 0 16 -4 16 -10
0 -5 13 -10 29 -10 23 0 30 -5 34 -27 5 -26 4 -26 -9 -8 -17 22 -18 16 -4 -20
6 -15 6 -24 1 -20 -5 3 -12 1 -16 -5 -3 -5 -1 -10 6 -10 7 0 5 -6 -6 -13 -10
-8 -15 -19 -11 -25 4 -7 2 -12 -4 -12 -6 0 -8 -5 -4 -12 5 -8 2 -9 -11 -4 -14
5 -16 4 -6 -7 9 -11 -5 -38 -65 -131 -42 -64 -80 -114 -84 -111 -5 3 -31 -14
-58 -37 -89 -76 -302 -188 -357 -188 -13 0 -92 -117 -88 -130 1 -4 -3 -7 -10
-8 -7 -1 -43 -8 -82 -16 -69 -15 -175 -21 -175 -11 0 3 16 31 35 61 19 30 35
56 35 58 0 2 -11 1 -24 -1 -72 -14 -312 43 -468 111 l-38 16 -36 -54 -36 -55
-51 32 c-79 47 -167 117 -167 131 0 7 -26 39 -58 72 -32 32 -65 70 -75 84 -49
71 -65 89 -71 82 -4 -4 -6 -2 -4 3 4 15 -23 75 -32 70 -11 -7 -23 29 -29 88
-1 5 -5 6 -10 3 -5 -4 -7 2 -4 12 2 11 -3 26 -12 36 -22 21 -54 181 -59 291
-2 47 -6 88 -8 89 -1 2 -23 15 -48 30 -25 15 -79 51 -120 82 -41 30 -115 82
-165 115 -49 34 -107 75 -129 92 -21 17 -75 56 -120 86 -45 31 -101 70 -125
86 -235 165 -251 179 -251 210 0 20 171 284 295 455 11 15 42 60 69 99 27 40
53 74 58 77 4 3 3 14 -2 25 -16 29 9 66 85 128 37 30 74 66 83 80 18 27 444
636 494 706 36 49 73 62 108 37 14 -10 53 -38 88 -62 43 -29 61 -47 58 -57 -4
-8 15 3 41 25 27 22 156 130 288 241 284 239 274 235 356 139 29 -35 56 -67
61 -72 5 -6 25 -1 50 11 24 12 81 39 128 61 146 68 222 103 310 145 162 76
149 72 183 56z m-296 -1885 c-2 -2 -12 -1 -22 2 -17 7 -17 8 1 21 17 12 19 12
22 -2 2 -9 2 -19 -1 -21z m419 -1151 c-10 -10 -19 5 -10 18 6 11 8 11 12 0 2
-7 1 -15 -2 -18z m181 -75 c-3 -8 -6 -5 -6 6 -1 11 2 17 5 13 3 -3 4 -12 1
-19z m-231 -456 c-18 -16 -18 -16 -6 6 6 13 14 21 18 18 3 -4 -2 -14 -12 -24z
m1375 -69 c-12 -20 -14 -14 -5 12 4 9 9 14 11 11 3 -2 0 -13 -6 -23z m-21 -43
c-6 -11 -13 -20 -16 -20 -2 0 0 9 6 20 6 11 13 20 16 20 2 0 0 -9 -6 -20z
m-35 -60 c-9 -16 -18 -30 -21 -30 -2 0 2 14 11 30 9 17 18 30 21 30 2 0 -2
-13 -11 -30z m-34 -58 c-5 -10 -18 -25 -27 -33 -11 -9 -9 -2 6 19 26 35 36 42
21 14z m-81 -105 c0 -2 -19 -21 -42 -42 l-43 -40 40 43 c36 39 45 47 45 39z
m-130 -121 c0 -2 -8 -10 -17 -17 -16 -13 -17 -12 -4 4 13 16 21 21 21 13z
m-397 -193 c-7 -2 -19 -2 -25 0 -7 3 -2 5 12 5 14 0 19 -2 13 -5z m-1470 -10
c-7 -2 -19 -2 -25 0 -7 3 -2 5 12 5 14 0 19 -2 13 -5z m1165 0 c-142 -2 -374
-2 -515 0 -142 1 -26 2 257 2 283 0 399 -1 258 -2z"/>
<path d="M1785 3979 c-27 -16 -46 -29 -41 -29 15 0 96 43 96 52 0 4 -1 8 -2 7
-2 -1 -25 -14 -53 -30z"/>
<path d="M1688 3662 l-3 -129 22 10 c19 9 20 11 7 25 -24 24 -12 55 31 79 l40
22 24 -24 c21 -21 23 -26 10 -41 -11 -13 -4 -12 31 6 49 24 66 37 37 27 -14
-5 -37 10 -90 61 -116 110 -105 113 -109 -36z m81 20 c9 -5 -15 -21 -41 -27
-28 -7 -28 -7 -28 41 l0 48 32 -30 c18 -16 35 -30 37 -32z"/>
<path d="M1790 3525 c-7 -8 -10 -29 -8 -47 3 -20 0 -38 -8 -46 -19 -18 -18
-57 2 -76 18 -19 47 -20 76 -5 19 10 20 9 14 -15 l-7 -26 38 15 c48 20 50 23
27 40 -11 8 -14 15 -6 15 21 0 52 39 52 65 0 27 -41 61 -60 50 -6 -4 -22 5
-35 19 -27 29 -66 34 -85 11z"/>
<path d="M1155 3249 c18 -56 38 -128 49 -177 12 -53 12 -53 30 -33 11 12 14
21 7 21 -6 0 -17 11 -23 25 -9 21 -8 28 8 46 40 44 88 48 103 8 6 -19 8 -19
31 6 19 21 21 25 7 25 -10 0 -59 21 -110 47 -50 26 -96 50 -101 52 -4 2 -5 -7
-1 -20z m84 -57 l23 -19 -28 -22 c-32 -25 -38 -20 -49 43 -7 35 -6 37 11 27
11 -6 30 -19 43 -29z"/>
<path d="M1350 2961 l0 -70 58 -11 c31 -6 63 -13 70 -15 10 -4 12 12 10 67
l-3 72 -50 13 c-86 22 -85 22 -85 -56z"/>
<path d="M710 2637 c0 -2 27 -49 60 -103 33 -54 60 -104 60 -112 0 -17 17 -7
30 18 8 16 7 18 -4 14 -9 -3 -21 5 -31 20 -17 25 -16 28 6 61 13 19 29 35 34
35 25 0 54 -13 57 -26 2 -8 12 1 25 21 13 20 17 32 10 29 -11 -4 -170 25 -229
42 -10 3 -18 3 -18 1z m128 -62 c5 -5 -29 -55 -37 -55 -6 0 -51 65 -51 74 0 4
82 -13 88 -19z"/>
<path d="M3950 2613 c-33 -14 -34 -15 -15 -30 15 -11 16 -17 7 -20 -19 -7 -52
-45 -52 -60 0 -20 38 -53 61 -53 11 0 28 -9 37 -20 10 -10 29 -22 44 -25 35
-9 63 30 53 73 -4 20 -1 33 10 42 44 36 -10 104 -66 83 -26 -10 -29 -9 -29 8
0 22 -4 22 -50 2z"/>
<path d="M978 2483 c-36 -4 -37 -5 -31 -36 19 -99 29 -122 56 -137 27 -14 29
-14 52 12 l24 27 8 -25 9 -26 27 41 c33 49 33 51 5 51 -17 0 -19 3 -10 12 7 7
12 24 12 40 0 45 -32 53 -152 41z"/>
<path d="M2465 2439 c-129 -19 -243 -77 -335 -169 -68 -67 -137 -187 -126
-216 3 -8 2 -13 -3 -10 -14 9 -22 -33 -25 -144 -2 -58 -1 -68 1 -22 2 46 8 80
13 77 5 -3 8 7 7 21 -1 16 4 29 13 32 12 4 13 2 3 -9 -9 -12 -4 -14 34 -15 25
-1 48 -6 52 -12 4 -6 26 -14 49 -18 23 -3 39 -10 37 -14 -3 -5 3 -6 14 -3 11
3 21 -2 24 -11 4 -9 16 -16 27 -16 24 0 24 3 5 -51 -27 -77 8 -180 80 -235 66
-50 119 -57 236 -32 11 2 15 -14 20 -72 l5 -75 2 91 2 92 -37 -20 c-55 -29
-146 -20 -205 18 -62 42 -101 121 -94 192 2 29 14 69 25 88 12 20 18 41 15 47
-4 7 -4 9 1 5 4 -4 26 6 48 22 23 17 47 30 54 30 9 0 10 6 3 26 -38 100 45
223 150 224 81 0 169 -78 170 -151 0 -22 4 -26 23 -22 36 7 99 -14 146 -48 98
-70 109 -222 23 -312 -38 -41 -94 -67 -142 -67 -22 0 -40 -4 -40 -10 0 -17 83
-11 120 8 19 11 41 17 48 15 7 -3 11 1 10 7 -3 13 4 16 60 26 30 6 32 4 32
-21 0 -26 2 -27 45 -23 25 2 45 0 45 -4 0 -5 9 -8 20 -8 11 0 20 -4 20 -9 0
-14 38 -20 44 -7 3 8 5 7 5 -1 1 -7 -10 -38 -24 -69 -14 -32 -23 -59 -21 -62
7 -6 53 98 67 151 18 64 15 222 -5 297 -22 79 -73 180 -125 243 -148 179 -398
279 -616 246z"/>
<path d="M4160 2398 c-15 -6 -20 -12 -12 -15 6 -3 12 -19 12 -37 0 -29 -5 -35
-40 -51 -39 -17 -41 -17 -60 0 -12 10 -18 25 -15 33 4 10 -1 12 -18 7 -38 -12
-43 -24 -17 -42 23 -16 63 -50 142 -121 l27 -25 3 132 c2 72 3 131 3 130 0 0
-11 -5 -25 -11z m-2 -164 l-3 -26 -27 22 c-16 12 -28 25 -28 30 0 5 12 16 28
24 25 13 27 13 30 -5 2 -10 2 -30 0 -45z"/>
<path d="M1911 1764 c0 -11 3 -14 6 -6 3 7 2 16 -1 19 -3 4 -6 -2 -5 -13z"/>
<path d="M3211 1493 c-7 -15 -26 -45 -43 -67 l-30 -41 32 35 c33 37 64 89 57
96 -2 2 -9 -8 -16 -23z"/>
<path d="M3421 1464 c0 -11 3 -14 6 -6 3 7 2 16 -1 19 -3 4 -6 -2 -5 -13z"/>
<path d="M3094 1438 l-19 -23 23 19 c21 18 27 26 19 26 -2 0 -12 -10 -23 -22z"/>
<path d="M2735 1395 c-77 -18 -151 -35 -165 -38 -14 -3 -7 -4 15 -3 51 4 272
53 293 66 25 14 10 12 -143 -25z"/>
<path d="M3104 1348 l-29 -33 33 29 c30 28 37 36 29 36 -2 0 -16 -15 -33 -32z"/>
</g>
</svg>
