<?xml version="1.0" encoding="utf-8"?>
<!-- Generator: Adobe Illustrator 22.1.0, SVG Export Plug-In . SVG Version: 6.00 Build 0)  -->
<svg version="1.1" id="Layer_1" xmlns="http://www.w3.org/2000/svg" xmlns:xlink="http://www.w3.org/1999/xlink" x="0px" y="0px"
	 viewBox="0 0 430 630" style="enable-background:new 0 0 430 630;" xml:space="preserve">
<style type="text/css">
	.st0{fill:#FFFFFF;stroke:#CB1E25;stroke-width:1.5;stroke-miterlimit:10;}
	.st1{fill:#CB1E25;}
</style>
<g>
	<path class="st0" d="M400,615H30c-8.3,0-15-6.7-15-15V30c0-8.3,6.7-15,15-15h370c8.3,0,15,6.7,15,15v570
		C415,608.3,408.3,615,400,615z"/>
	<g>
		<g>
			<path class="st1" d="M89.4,173.6c-5.2-2.9-9.2-7.1-11.9-12.7c-2.7-5.5-4.1-12.2-4.1-20v-0.1c0-4.6,0.5-9.3,1.6-14.3
				s2.6-9.9,4.6-14.8c0.3-0.8,0.7-1.7,1.1-2.5s0.8-1.6,1.2-2.4L108.1,54h20.4l-30.9,61.2l-1.4-3c1.4-2.6,3.5-4.7,6.2-6.2
				s5.9-2.2,9.5-2.2c6.5,0,12,1.4,16.6,4.3s8.1,7,10.5,12.5s3.6,12.1,3.6,19.8v0.1c0,7.9-1.4,14.6-4.1,20.3
				c-2.7,5.6-6.7,9.9-11.9,12.8c-5.2,2.9-11.5,4.4-18.8,4.4C100.9,178,94.6,176.5,89.4,173.6z M120,155.3c2.8-3.1,4.2-7.6,4.2-13.4
				v-0.1c0-6.4-1.4-11.4-4.3-14.9c-2.9-3.5-7-5.2-12.4-5.2c-4.8,0-8.6,1.8-11.3,5.3c-2.7,3.5-4,8.5-4,14.9v0.1
				c0,5.8,1.4,10.2,4.2,13.3c2.8,3.1,6.7,4.6,11.8,4.6C113.2,160,117.2,158.4,120,155.3z"/>
		</g>
	</g>
	<g>
		<path class="st1" d="M109.9,224.6c2.1-2.3,3.8-4.4,5.8-6.1c12.3-10.7,26.2-16,41.9-9.3c15.8,6.6,22.9,20.2,23.7,36.6
			c1,19.7-7.8,36.2-21.3,49.4c-14.8,14.4-31.4,26.9-47.3,40.1c-1.2,1-4.3,1.2-5.4,0.3c-19-14.3-38.9-27.5-53.5-46.8
			c-8-10.6-13.7-22.1-15.5-35.4c-2.9-20.6,10.2-41.8,28.9-45.9c14.8-3.3,27.1,2.3,37.8,12.2C106.4,221,107.8,222.6,109.9,224.6z"/>
		
			<rect x="90.7" y="292.5" transform="matrix(0.7071 -0.7071 0.7071 0.7071 -188.3246 168.6976)" class="st1" width="37.5" height="38.3"/>
	</g>
	<g>
		<path class="st1" d="M275.1,388.5c3.5-4.1,6.3-8,9.6-11.2c20.3-19.5,43.4-29.1,69.4-17c26.1,12.1,37.9,36.8,39.2,66.7
			c1.6,35.8-13,66-35.3,89.9c-24.5,26.3-52,49.1-78.5,73.1c-1.9,1.8-7.1,2.2-9,0.6c-31.4-26.1-64.5-50.2-88.7-85.3
			c-13.3-19.2-22.7-40.3-25.7-64.6c-4.7-37.5,16.9-76.2,48-83.7c24.6-5.9,44.9,4.1,62.6,22.3C269.3,381.9,271.7,384.7,275.1,388.5z"
			/>
		<polygon class="st1" points="274,498.3 230.1,546.6 275,595.9 318.9,547.6 		"/>
	</g>
</g>
</svg>
