<?xml version="1.0" encoding="utf-8"?>
<!-- Generator: Adobe Illustrator 22.1.0, SVG Export Plug-In . SVG Version: 6.00 Build 0)  -->
<svg version="1.1" id="Layer_1" xmlns="http://www.w3.org/2000/svg" xmlns:xlink="http://www.w3.org/1999/xlink" x="0px" y="0px"
	 viewBox="0 0 430 630" style="enable-background:new 0 0 430 630;" xml:space="preserve">
<style type="text/css">
	.st0{fill:#FFFFFF;stroke:#CB1E25;stroke-width:1.5;stroke-miterlimit:10;}
	.st1{fill:#CB1E25;}
	.st2{fill:#FFFFFF;}
	.st3{fill:#FF0084;}
</style>
<g>
	<path class="st0" d="M400,615H30c-8.3,0-15-6.7-15-15V30c0-8.3,6.7-15,15-15h370c8.3,0,15,6.7,15,15v570
		C415,608.3,408.3,615,400,615z"/>
	<g>
		<g>
			<path class="st1" d="M85.8,175.4c-6.6-3.7-11.7-9-15.3-15.9c-3.6-6.8-5.4-14.8-5.4-23.8v-34.8c0-9,1.8-16.9,5.4-23.8
				c3.6-6.8,8.7-12.1,15.3-15.9c6.6-3.7,14.2-5.6,22.8-5.6s16.2,1.9,22.8,5.6s11.7,9,15.3,15.9c3.6,6.8,5.4,14.8,5.4,23.8v34.8
				c0,9-1.8,16.9-5.4,23.8c-3.6,6.8-8.7,12.1-15.3,15.9c-6.6,3.7-14.2,5.6-22.8,5.6S92.4,179.1,85.8,175.4z M121.4,159.2
				c3.7-2.2,6.5-5.2,8.5-9.2c2-3.9,3-8.5,3-13.8v-35.9c0-5.2-1-9.8-3-13.8c-2-3.9-4.8-7-8.5-9.2s-7.9-3.2-12.8-3.2
				c-4.8,0-9.1,1.1-12.8,3.2c-3.7,2.2-6.5,5.2-8.5,9.2c-2,3.9-3,8.5-3,13.8v35.9c0,5.2,1,9.8,3,13.8c2,3.9,4.8,7,8.5,9.2
				s7.9,3.2,12.8,3.2C113.4,162.5,117.7,161.4,121.4,159.2z M107.5,145.7l9.8-12.4l46.2,35.9l-9.8,12.5L107.5,145.7z"/>
		</g>
	</g>
	<g>
		<path class="st1" d="M109.9,224.6c2.1-2.3,3.8-4.4,5.8-6.1c12.3-10.7,26.2-16,41.9-9.3c15.8,6.6,22.9,20.2,23.7,36.6
			c1,19.7-7.8,36.2-21.3,49.4c-14.8,14.4-31.4,26.9-47.3,40.1c-1.2,1-4.3,1.2-5.4,0.3c-19-14.3-38.9-27.5-53.5-46.8
			c-8-10.6-13.7-22.1-15.5-35.4c-2.9-20.6,10.2-41.8,28.9-45.9c14.8-3.3,27.1,2.3,37.8,12.2C106.4,221,107.8,222.6,109.9,224.6z"/>
		
			<rect x="90.7" y="292.5" transform="matrix(0.7071 -0.7071 0.7071 0.7071 -188.3246 168.6976)" class="st1" width="37.5" height="38.3"/>
	</g>
	<g>
		<path class="st2" d="M393.5,524c0,24.1,0,48.2,0,72.5c-42.5,0-85,0-127.5,0c2.5-3.3,5-6.6,7.6-9.9c0.6,0.5,1.2,1,1.8,1.6
			c3.4,2.4,6.8,4.8,10.9,7.6c3.8-10.6,10.4-12.3,19.2-5.6c2-4.6,3.6-8.4,5.3-12.3c4.1,0.5,7.8,0.9,12.7,1.5
			c-3.9-5.2-6.8-9.6-10.2-13.6c-2.5-3.1-3.1-5.7-1.5-9.8c7-17.9,14.4-35.5,26-51.1c-20.5-12.4-49.3-5.5-60.6,14.1
			c9.9,15.1,12.3,24.4,8.1,37c-4.6,13.5-3.8,12.3-17.1,12.9c-2.7,0.1-5.5,0.1-8.2-0.3c-1.2-0.2-3-1.1-3.3-2.1
			c-2.8-8.1-5.4-16.2-8.2-25c5,0,5.8-3.2,6.2-7.2c0.4-4.3,0.1-10.4,2.6-12.2c2.9-2.1,8.6-0.5,13.1-0.5c0.1-0.1,0.2-0.3,0.3-0.4
			c-5.8-1.4-11.6-2.9-17-4.2c-5.2,7.6,2.7,19.9-10.6,22.5c3,8.6,6,16.8,8.6,25.2c0.7,2.2,0.5,5-0.1,7.3c-1.8,6.4-4.1,12.7-6.4,19.9
			c4.4-2.1,7.9-3.8,11.7-5.6c2.9,3.5,5.5,6.8,8.2,10c-27.4,0-54.8,0-82.4,0c0-71.1,0-142.1,0-213.2c2.4,7.5,5.5,14.2,13.7,17.1
			c10.3,3.6,15.7,14.8,12.7,26.1c-4.1,0.3-8.9,0.2-8.6,6.4c0.3,6.8,2.2,13.9,0.8,20.3c-1.7,7.3,1.3,9.2,8,10.1
			c-2.6,3.9-4.7,7.2-7,10.7c0.8,1,1.7,2.1,3,3.8c2.8-3.6,5.2-6.6,7.8-9.9c10.1,10.1,20.1,20.2,30.5,30.6
			c7.1-10.4,13.8-20.3,20.7-30.4c10.7,9.3,21,18.3,31.5,27.1c1.4,1.1,3.9,1.9,5.6,1.5c12.4-3.1,24.4-1.8,35.8,3.7
			c4,1.9,6.7,1.6,9.7-1.2c4.6-4.2,9.4-8.3,15.2-13.5c-0.9,4.5-1,7.7-2.1,10.5c-1.8,4.4-2.8,9.5-8.5,11.2
			c-11.4,3.2-15.4,8.4-16.6,20.7c9.6,1.3,17.9-4.5,21.3-14.8c0.9-2.8,2.6-5.4,4-8.2c0.4,0.2,0.7,0.4,1.1,0.6c0,8.2,0,16.3,0,24.5
			c-11-0.7-14.2,3-11.8,13.6c-4.2,2.2-6.9,5.5-5.4,10.6c1.6,5.4,6,6.3,10.8,6.1c0.9,5.1,3.3,8.6,8.5,8.7c5.6,0.1,7.9-3.6,9-8.6
			c4.9,0.7,9.2,0,11-5.1s-0.6-8.8-5-11.3c3.2-10.5-0.1-14.3-11.6-13.7c0-10.2,0-20.3,0-30.5c0.4-0.2,0.8-0.5,1.2-0.7
			C373,511.2,376.5,524.9,393.5,524z M265,474.6c-5.8,8.7-11.4,16.8-16.7,25.1c-0.6,1,0.5,3.1,0.8,4.7c0.5-0.1,1-0.2,1.5-0.3
			c4.6-6.7,9.2-13.4,14-20.4c7.9,6.8,15.3,13.2,22.8,19.6c2.3-1.4,4.1-2.5,6.2-3.9C284.1,491.2,274.9,483.2,265,474.6z"/>
		<path class="st2" d="M182.5,380c0-24.1,0-48.2,0-72.5c42.5,0,85,0,127.5,0c-2.5,3.3-5.1,6.6-7.6,9.9c-0.6-0.5-1.2-1-1.8-1.6
			c-3.4-2.4-6.8-4.8-10.9-7.6c-3.8,10.6-10.5,12.3-19,5.8c-0.7,1.4-1.1,2-1.4,2.6c-4,9-4,9-13.7,8.3c-0.6,0-1.3,0.1-2.5,0.3
			c1.3,1.8,2,3.3,3.1,4.3c9.7,8.7,10.1,18.2,3.8,29.4c-7.4,13.3-13.7,27.3-20.5,41c22,12.4,48,3.4,59.3-15.2
			c-6.6-8.4-10.5-17.8-9.8-28.8c1.1-16.1,6-20.9,21.7-20.8c1.8,0,3.7-0.1,5.5,0.2c1.1,0.2,2.7,0.9,3,1.8c2.8,8.2,5.4,16.5,8.1,24.8
			c-10.7,3.9-3.6,14.7-8.8,20.9c-4.1-0.4-8.5-0.8-12.9-1.3c-0.1,0.5-0.2,0.9-0.3,1.4c5.8,1.3,11.7,2.7,17.9,4.1
			c0.7-5.5,1.8-9.8,1.6-14.1c-0.4-6,3.9-7.1,7.9-8.6c-2.8-7.8-5.8-15.3-8-23c-1-3.4-0.8-7.5,0-11c1.4-6,3.7-11.7,5.9-18.3
			c-4.3,2-7.9,3.7-11.7,5.4c-2.8-3.5-5.5-6.7-8.1-9.9c27.4,0,54.8,0,82.4,0c0,71.1,0,142.1,0,213.2c-2.5-9.5-7.7-16.4-17.9-18.4
			c-0.8-0.2-1.7-0.8-2.2-1.5c-5.6-6.7-8.5-14.3-6.7-23.3c4.4-0.4,9.3-0.1,9.1-6.3c-0.3-6.8-2.2-13.9-0.8-20.3c1.6-7.3-1-9.3-8-10
			c2.5-3.9,4.7-7.2,7-10.9c-1-0.9-2.1-1.9-3.5-3.2c-2.6,3.3-4.9,6.3-7.9,10c-10.3-10.4-20.2-20.5-30.4-30.8
			c-6.8,10-13.5,19.9-20.3,30c-10.9-9.4-21.2-18.4-31.7-27.3c-1.3-1.1-3.6-1.9-5.1-1.5c-13,3.4-25.4,1.7-37.3-4.1
			c-3-1.5-5.1-1.1-7.4,0.9c-5,4.4-10.1,8.8-15.2,13.2c-1.2-8.5,3.6-18.8,9.6-20.6c11.1-3.2,15.6-9.1,16.3-20.9
			c-9.7-0.9-17.8,4.8-21,14.6c-1,2.9-2.6,5.6-4,8.4c-0.4-0.2-0.8-0.3-1.2-0.5c0-8.1,0-16.3,0-24.4c11.1,0.4,14.3-3.2,11.7-13.6
			c4.1-2.3,6.9-5.4,5.5-10.6c-1.5-5.4-5.9-6.4-10.8-6.2c-1.1-5.2-3.5-8.8-9.1-8.7c-5.3,0.1-7.5,3.8-8.5,8.7c-4.9-0.9-9.2-0.1-11,4.9
			c-1.9,5.1,0.5,8.8,4.9,11.3c-3,10.6,0.3,14.5,11.7,13.7c0,10.2,0,20.4,0,30.5c-0.4,0.3-0.8,0.5-1.2,0.8
			C203,392.8,199.5,379,182.5,380z M282.4,404.6c9.6,8.4,19,16.4,28.7,24.8c5.8-8.6,11.2-16.5,16.4-24.6c0.8-1.2,0.1-3.3,0.1-5
			c-0.6-0.1-1.3-0.2-1.9-0.3c-4.7,6.8-9.4,13.7-14.2,20.8c-7.9-6.8-15.4-13.2-22.8-19.6C286.3,402.1,284.5,403.2,282.4,404.6z"/>
		<path class="st3" d="M182.5,380c17-1,20.5,12.8,25.6,24.8c0.4-0.3,0.8-0.5,1.2-0.8c0-10.2,0-20.4,0-30.5
			c-11.4,0.8-14.7-3.1-11.7-13.7c-4.4-2.5-6.8-6.2-4.9-11.3c1.8-5,6.1-5.8,11-4.9c1-4.9,3.2-8.6,8.5-8.7c5.6-0.1,8,3.6,9.1,8.7
			c4.9-0.2,9.2,0.8,10.8,6.2c1.5,5.1-1.4,8.3-5.5,10.6c2.6,10.4-0.6,14-11.7,13.6c0,8.1,0,16.3,0,24.4c0.4,0.2,0.8,0.3,1.2,0.5
			c1.3-2.8,3-5.5,4-8.4c3.3-9.7,11.4-15.5,21-14.6c-0.7,11.8-5.2,17.7-16.3,20.9c-6,1.7-10.9,12-9.6,20.6
			c5.1-4.4,10.1-8.8,15.2-13.2c2.3-2,4.4-2.3,7.4-0.9c11.9,5.8,24.3,7.5,37.3,4.1c1.5-0.4,3.8,0.4,5.1,1.5
			c10.5,8.8,20.8,17.9,31.7,27.3c6.8-10.1,13.6-20,20.3-30c10.2,10.3,20.1,20.4,30.4,30.8c2.9-3.8,5.3-6.7,7.9-10
			c1.4,1.3,2.5,2.3,3.5,3.2c-2.4,3.7-4.5,6.9-7,10.9c7,0.7,9.6,2.8,8,10c-1.4,6.4,0.6,13.5,0.8,20.3c0.2,6.2-4.7,5.9-9.1,6.3
			c-1.7,9.1,1.1,16.6,6.7,23.3c0.6,0.7,1.4,1.3,2.2,1.5c10.2,2,15.4,8.9,17.9,18.4c0,1.1,0,2.2,0,3.3c-17,1-20.5-12.7-25.6-24.7
			c-0.4,0.2-0.8,0.5-1.2,0.7c0,10.2,0,20.3,0,30.5c11.5-0.5,14.8,3.3,11.6,13.7c4.4,2.4,6.8,6.1,5,11.3c-1.8,5.1-6.1,5.7-11,5.1
			c-1,5-3.4,8.7-9,8.6c-5.3-0.1-7.6-3.7-8.5-8.7c-4.8,0.2-9.3-0.7-10.8-6.1c-1.5-5.1,1.2-8.4,5.4-10.6c-2.4-10.6,0.8-14.3,11.8-13.6
			c0-8.2,0-16.3,0-24.5c-0.4-0.2-0.7-0.4-1.1-0.6c-1.4,2.7-3.1,5.3-4,8.2c-3.4,10.2-11.7,16.1-21.3,14.8
			c1.3-12.3,5.3-17.5,16.6-20.7c5.8-1.6,6.8-6.8,8.5-11.2c1.1-2.8,1.3-6,2.1-10.5c-5.9,5.2-10.6,9.3-15.2,13.5
			c-3,2.7-5.7,3.1-9.7,1.2c-11.4-5.5-23.4-6.8-35.8-3.7c-1.7,0.4-4.2-0.3-5.6-1.5c-10.5-8.8-20.8-17.9-31.5-27.1
			c-6.9,10.1-13.6,20.1-20.7,30.4c-10.4-10.5-20.5-20.5-30.5-30.6c-2.6,3.4-5,6.3-7.8,9.9c-1.3-1.6-2.2-2.7-3-3.8
			c2.3-3.5,4.4-6.8,7-10.7c-6.8-0.9-9.7-2.7-8-10.1c1.4-6.4-0.5-13.5-0.8-20.3c-0.2-6.1,4.5-6.1,8.6-6.4c3-11.3-2.3-22.5-12.7-26.1
			c-8.3-2.9-11.4-9.6-13.7-17.1C182.5,382.2,182.5,381.1,182.5,380z M360.1,473.8L360.1,473.8c3.1,0,6.2,0.2,9.3-0.1
			c1-0.1,1.9-1.2,2.9-1.8c-0.8-0.8-1.6-2.2-2.5-2.2c-6.3-0.2-12.7-0.2-19,0c-0.8,0-1.5,1.2-2.2,1.8c0.8,0.8,1.5,2.1,2.4,2.2
			C353.9,473.9,357,473.8,360.1,473.8z M215.1,442.6L215.1,442.6c2.9,0,5.8,0.2,8.7-0.1c1.1-0.1,2-1.4,3-2.2
			c-0.9-0.7-1.8-1.9-2.7-1.9c-5.8-0.2-11.6-0.2-17.5,0c-0.9,0-1.8,1.3-2.7,2c1,0.7,2,2,3.1,2.1C209.6,442.8,212.3,442.6,215.1,442.6
			z M360.9,465.7c2.9,0,5.8,0.2,8.7-0.1c0.9-0.1,1.7-1.4,2.6-2.1c-0.9-0.7-1.8-1.9-2.7-2c-5.8-0.2-11.6-0.2-17.5,0
			c-1,0-1.9,1.2-2.8,1.8c1,0.8,1.9,2.2,2.9,2.3C355.1,465.9,358,465.7,360.9,465.7z M214.8,451.1L214.8,451.1c2.9,0,5.8,0.2,8.7-0.1
			c0.9-0.1,1.7-1.5,2.5-2.2c-0.8-0.6-1.5-1.8-2.3-1.8c-5.8-0.2-11.6-0.2-17.5,0c-0.8,0-1.6,1.4-2.4,2.1c0.9,0.7,1.8,1.8,2.8,1.9
			C209.3,451.3,212.1,451.1,214.8,451.1z M360.6,457.2L360.6,457.2c2.9,0,5.8,0.2,8.7-0.1c1-0.1,1.9-1.2,2.9-1.8
			c-0.8-0.8-1.6-2.2-2.4-2.3c-5.8-0.2-11.6-0.2-17.4,0c-0.8,0-1.6,1.6-2.3,2.4c0.8,0.6,1.6,1.6,2.5,1.6
			C355.1,457.3,357.9,457.2,360.6,457.2z M216,430.2L216,430.2c-3.1,0-6.2-0.2-9.2,0.1c-1,0.1-1.9,1.2-2.9,1.8
			c0.8,0.8,1.6,2.2,2.4,2.3c6.3,0.2,12.7,0.1,19-0.1c0.8,0,1.6-1.5,2.3-2.3c-0.8-0.6-1.6-1.6-2.4-1.7
			C222.2,430.1,219.1,430.2,216,430.2z M361.6,444.8c-2.7,0-5.5-0.2-8.2,0.1c-0.9,0.1-1.7,1.3-2.5,2.1c0.9,0.7,1.7,2,2.7,2
			c5.4,0.2,10.9,0.1,16.3,0c0.8,0,1.5-1.2,2.3-1.8c-0.8-0.8-1.5-2.1-2.4-2.2C367.1,444.6,364.3,444.8,361.6,444.8z M214.4,459.2
			c2.7,0,5.5,0.2,8.2-0.1c0.9-0.1,1.7-1.4,2.5-2.1c-0.7-0.7-1.4-2-2.1-2c-5.6-0.2-11.3-0.2-16.9,0c-0.8,0-1.5,1.2-2.3,1.9
			c0.8,0.8,1.5,2.1,2.4,2.2C208.9,459.4,211.7,459.2,214.4,459.2z M219.1,355.6c-3.1-2.3-5.3-4.9-6.8-4.6c-1.9,0.4-3.4,3.2-5,5
			c1.7,1.5,3.3,4.1,5.1,4.2C214.2,360.3,216.1,357.8,219.1,355.6z M370.7,548.6c-3-2.3-4.8-4.8-6.6-4.7c-1.8,0.1-3.5,2.6-5.3,4
			c1.6,1.8,3,4.6,4.9,5.1C365.3,553.4,367.5,550.8,370.7,548.6z M288.1,446.7c-1.8,2.4-3.8,3.9-3.7,5.2c0.1,1.4,2.2,3.5,3.5,3.6
			c1.3,0,3.4-2.1,3.6-3.4C291.7,450.7,289.8,449.2,288.1,446.7z M275,435.2c-2.8-1.6-4.4-3.3-5.9-3.2c-1.2,0.1-3.4,2.5-3.2,3.4
			c0.4,1.5,2.2,3.5,3.6,3.6C270.8,439.1,272.3,437.1,275,435.2z M312.1,468.6c-2.6-1.8-4.1-3.7-5.4-3.6c-1.4,0.1-2.6,2.2-3.9,3.4
			c1.2,1.3,2.4,3.4,3.7,3.6C307.9,472.2,309.5,470.3,312.1,468.6z"/>
		<path class="st3" d="M311.1,307.5c2.6,3.2,5.3,6.5,8.1,9.9c3.8-1.8,7.3-3.4,11.7-5.4c-2.2,6.6-4.5,12.3-5.9,18.3
			c-0.8,3.5-1,7.6,0,11c2.2,7.7,5.2,15.2,8,23c-4.1,1.5-8.3,2.5-7.9,8.6c0.3,4.3-0.9,8.7-1.6,14.1c-6.3-1.5-12.1-2.8-17.9-4.1
			c0.1-0.5,0.2-0.9,0.3-1.4c4.4,0.4,8.7,0.9,12.9,1.3c5.2-6.3-1.9-17.1,8.8-20.9c-2.7-8.3-5.3-16.6-8.1-24.8c-0.3-0.9-1.9-1.6-3-1.8
			c-1.8-0.3-3.6-0.2-5.5-0.2c-15.8-0.1-20.7,4.7-21.7,20.8c-0.7,11.1,3.1,20.4,9.8,28.8c-11.3,18.6-37.4,27.6-59.3,15.2
			c6.8-13.7,13.1-27.7,20.5-41c6.2-11.2,5.9-20.6-3.8-29.4c-1.2-1-1.9-2.6-3.1-4.3c1.2-0.1,1.8-0.3,2.5-0.3
			c9.6,0.7,9.6,0.7,13.7-8.3c0.3-0.7,0.7-1.3,1.4-2.6c8.6,6.5,15.3,4.8,19-5.8c4.1,2.9,7.5,5.3,10.9,7.6c0.6,0.5,1.2,1,1.8,1.6
			c2.5-3.3,5.1-6.6,7.6-9.9C310.4,307.5,310.7,307.5,311.1,307.5z"/>
		<path class="st3" d="M264.9,596.5c-2.6-3.2-5.3-6.5-8.2-10c-3.7,1.8-7.3,3.5-11.7,5.6c2.3-7.2,4.6-13.5,6.4-19.9
			c0.6-2.3,0.8-5.1,0.1-7.3c-2.6-8.4-5.6-16.6-8.6-25.2c13.3-2.6,5.4-14.9,10.6-22.5c5.4,1.3,11.2,2.7,17,4.2
			c-0.1,0.1-0.2,0.3-0.3,0.4c-4.5,0-10.2-1.6-13.1,0.5c-2.5,1.8-2.2,8-2.6,12.2c-0.4,4-1.3,7.2-6.2,7.2c2.8,8.8,5.4,16.9,8.2,25
			c0.3,1,2.1,1.9,3.3,2.1c2.7,0.4,5.5,0.4,8.2,0.3c13.3-0.7,12.5,0.6,17.1-12.9c4.2-12.6,1.8-21.9-8.1-37
			c11.2-19.6,40-26.5,60.6-14.1c-11.6,15.6-19,33.1-26,51.1c-1.6,4.1-1,6.7,1.5,9.8c3.3,4,6.3,8.4,10.2,13.6
			c-4.9-0.6-8.6-1-12.7-1.5c-1.6,3.9-3.3,7.7-5.3,12.3c-8.8-6.7-15.4-4.9-19.2,5.6c-4.1-2.9-7.5-5.2-10.9-7.6
			c-0.6-0.5-1.2-1-1.8-1.6c-2.5,3.3-5,6.6-7.6,9.9C265.7,596.5,265.3,596.5,264.9,596.5z"/>
		<path class="st3" d="M265,474.6c9.8,8.5,19.1,16.6,28.6,24.8c-2.1,1.3-4,2.5-6.2,3.9c-7.4-6.4-14.8-12.8-22.8-19.6
			c-4.8,7-9.4,13.7-14,20.4c-0.5,0.1-1,0.2-1.5,0.3c-0.3-1.6-1.4-3.7-0.8-4.7C253.6,491.4,259.2,483.3,265,474.6z"/>
		<path class="st3" d="M282.4,404.6c2.1-1.3,4-2.5,6.3-3.9c7.4,6.4,14.8,12.8,22.8,19.6c4.9-7.1,9.5-13.9,14.2-20.8
			c0.6,0.1,1.3,0.2,1.9,0.3c0,1.7,0.7,3.8-0.1,5c-5.2,8.1-10.7,16.1-16.4,24.6C301.3,421,292,412.9,282.4,404.6z"/>
		<path class="st2" d="M360.1,473.8c-3.1,0-6.2,0.2-9.2-0.1c-0.9-0.1-1.6-1.4-2.4-2.2c0.7-0.6,1.5-1.8,2.2-1.8
			c6.3-0.2,12.7-0.2,19,0c0.9,0,1.7,1.4,2.5,2.2c-1,0.6-1.9,1.7-2.9,1.8C366.2,474,363.1,473.8,360.1,473.8L360.1,473.8z"/>
		<path class="st2" d="M215.1,442.6c-2.7,0-5.5,0.2-8.2-0.1c-1.1-0.1-2-1.4-3.1-2.1c0.9-0.7,1.8-1.9,2.7-2c5.8-0.2,11.6-0.2,17.5,0
			c0.9,0,1.8,1.3,2.7,1.9c-1,0.8-1.9,2.1-3,2.2C220.9,442.8,218,442.6,215.1,442.6L215.1,442.6z"/>
		<path class="st2" d="M360.9,465.7c-2.9,0-5.8,0.2-8.7-0.1c-1-0.1-2-1.5-2.9-2.3c0.9-0.6,1.9-1.8,2.8-1.8c5.8-0.2,11.6-0.2,17.5,0
			c0.9,0,1.8,1.3,2.7,2c-0.9,0.7-1.6,2-2.6,2.1C366.8,465.8,363.8,465.7,360.9,465.7z"/>
		<path class="st2" d="M214.8,451.1c-2.7,0-5.5,0.2-8.2-0.1c-1-0.1-1.9-1.3-2.8-1.9c0.8-0.7,1.6-2.1,2.4-2.1
			c5.8-0.2,11.6-0.2,17.5,0c0.8,0,1.5,1.2,2.3,1.8c-0.8,0.8-1.6,2.1-2.5,2.2C220.7,451.2,217.7,451.1,214.8,451.1L214.8,451.1z"/>
		<path class="st2" d="M360.6,457.2c-2.7,0-5.5,0.1-8.2-0.1c-0.9-0.1-1.7-1.1-2.5-1.6c0.8-0.8,1.5-2.4,2.3-2.4
			c5.8-0.2,11.6-0.2,17.4,0c0.8,0,1.6,1.5,2.4,2.3c-1,0.6-1.9,1.7-2.9,1.8C366.4,457.3,363.5,457.2,360.6,457.2L360.6,457.2z"/>
		<path class="st2" d="M216,430.2c3.1,0,6.2-0.1,9.2,0.1c0.8,0.1,1.6,1.1,2.4,1.7c-0.8,0.8-1.5,2.3-2.3,2.3
			c-6.3,0.2-12.7,0.2-19,0.1c-0.8,0-1.6-1.5-2.4-2.3c1-0.6,1.9-1.7,2.9-1.8C209.8,430,212.9,430.2,216,430.2L216,430.2z"/>
		<path class="st2" d="M361.6,444.8c2.7,0,5.5-0.2,8.2,0.1c0.9,0.1,1.6,1.4,2.4,2.2c-0.8,0.6-1.5,1.8-2.3,1.8
			c-5.4,0.2-10.9,0.2-16.3,0c-0.9,0-1.8-1.3-2.7-2c0.8-0.7,1.6-2,2.5-2.1C356.1,444.6,358.9,444.8,361.6,444.8z"/>
		<path class="st2" d="M214.4,459.2c-2.7,0-5.5,0.2-8.2-0.1c-0.9-0.1-1.6-1.4-2.4-2.2c0.8-0.7,1.5-1.8,2.3-1.9
			c5.6-0.2,11.3-0.2,16.9,0c0.7,0,1.4,1.3,2.1,2c-0.8,0.7-1.6,2-2.5,2.1C219.8,459.4,217.1,459.2,214.4,459.2z"/>
		<path class="st2" d="M219.1,355.6c-3,2.2-4.9,4.7-6.7,4.6s-3.4-2.7-5.1-4.2c1.7-1.8,3.1-4.5,5-5
			C213.9,350.7,216,353.3,219.1,355.6z"/>
		<path class="st2" d="M370.7,548.6c-3.2,2.2-5.4,4.8-6.9,4.4c-2-0.5-3.3-3.3-4.9-5.1c1.8-1.5,3.5-4,5.3-4
			C365.9,543.8,367.7,546.3,370.7,548.6z"/>
		<path class="st2" d="M288.1,446.7c1.7,2.5,3.6,4.1,3.5,5.4c-0.2,1.4-2.4,3.5-3.6,3.4c-1.3,0-3.4-2.2-3.5-3.6
			C284.3,450.6,286.3,449.1,288.1,446.7z"/>
		<path class="st2" d="M275,435.2c-2.6,1.9-4.1,3.9-5.5,3.8s-3.2-2.1-3.6-3.6c-0.2-0.9,2-3.3,3.2-3.4
			C270.5,431.9,272.1,433.5,275,435.2z"/>
		<path class="st2" d="M312.1,468.6c-2.6,1.7-4.2,3.6-5.5,3.4c-1.4-0.2-2.5-2.3-3.7-3.6c1.3-1.2,2.5-3.3,3.9-3.4
			C308,464.9,309.5,466.8,312.1,468.6z"/>
	</g>
</g>
</svg>
