<?xml version="1.0" encoding="utf-8"?>
<!-- Generator: Adobe Illustrator 22.1.0, SVG Export Plug-In . SVG Version: 6.00 Build 0)  -->
<svg version="1.1" id="Layer_1" xmlns="http://www.w3.org/2000/svg" xmlns:xlink="http://www.w3.org/1999/xlink" x="0px" y="0px"
	 viewBox="0 0 430 630" style="enable-background:new 0 0 430 630;" xml:space="preserve">
<style type="text/css">
	.st0{fill:#FFFFFF;stroke:#CB1E25;stroke-width:1.5;stroke-miterlimit:10;}
	.st1{fill:#CB1E25;}
</style>
<g>
	<path class="st0" d="M400,615H30c-8.3,0-15-6.7-15-15V30c0-8.3,6.7-15,15-15h370c8.3,0,15,6.7,15,15v570
		C415,608.3,408.3,615,400,615z"/>
	<g>
		<g>
			<path class="st1" d="M90.6,175.8c-5.7-2.8-10.1-6.8-13.2-11.9c-3.1-5.1-4.6-11.1-4.6-17.9v-2c0-6.1,1.6-11.9,4.7-17.3
				c3.1-5.4,7.3-9.5,12.6-12.2c-4.4-2.4-8-5.8-10.7-10.2c-2.7-4.4-4.1-9.1-4.1-14.1v-3c0-6.4,1.4-12.1,4.3-16.9
				c2.9-4.9,7-8.6,12.3-11.3s11.5-4,18.4-4c7,0,13.1,1.3,18.4,4s9.4,6.4,12.3,11.3c2.9,4.9,4.3,10.5,4.3,16.9v3
				c0,5.1-1.4,9.8-4.1,14.2c-2.8,4.4-6.4,7.8-10.9,10.1c5.3,2.8,9.5,6.9,12.7,12.3c3.2,5.4,4.8,11.1,4.8,17.3v2
				c0,6.8-1.5,12.8-4.6,17.9c-3.1,5.1-7.5,9.1-13.2,11.9c-5.7,2.8-12.3,4.2-19.8,4.2C102.9,180,96.3,178.6,90.6,175.8z M120.4,159.8
				c2.9-1.5,5.1-3.6,6.7-6.3s2.4-5.8,2.4-9.4v-1.2c0-3.5-0.8-6.6-2.4-9.3c-1.6-2.6-3.8-4.7-6.7-6.2s-6.2-2.2-10-2.2s-7.1,0.7-10,2.2
				s-5.1,3.5-6.7,6.2s-2.4,5.8-2.4,9.3v1.3c0,3.5,0.8,6.7,2.4,9.3c1.6,2.7,3.8,4.7,6.7,6.2c2.9,1.5,6.2,2.2,10,2.2
				C114.2,162,117.5,161.3,120.4,159.8z M119,105.1c2.5-1.4,4.4-3.4,5.8-6s2.1-5.6,2.1-8.9V89c0-3.3-0.7-6.1-2.1-8.6
				c-1.4-2.4-3.3-4.3-5.8-5.7c-2.5-1.4-5.3-2-8.6-2s-6.1,0.7-8.6,2c-2.5,1.4-4.4,3.3-5.8,5.7c-1.4,2.5-2.1,5.3-2.1,8.6v1.3
				c0,3.3,0.7,6.3,2.1,8.8c1.4,2.6,3.3,4.5,5.8,5.9s5.3,2.1,8.6,2.1C113.7,107.2,116.6,106.5,119,105.1z"/>
		</g>
	</g>
	<g>
		<path class="st1" d="M109.9,224.6c2.1-2.3,3.8-4.4,5.8-6.1c12.3-10.7,26.2-16,41.9-9.3c15.8,6.6,22.9,20.2,23.7,36.6
			c1,19.7-7.8,36.2-21.3,49.4c-14.8,14.4-31.4,26.9-47.3,40.1c-1.2,1-4.3,1.2-5.4,0.3c-19-14.3-38.9-27.5-53.5-46.8
			c-8-10.6-13.7-22.1-15.5-35.4c-2.9-20.6,10.2-41.8,28.9-45.9c14.8-3.3,27.1,2.3,37.8,12.2C106.4,221,107.8,222.6,109.9,224.6z"/>
		
			<rect x="90.7" y="292.5" transform="matrix(0.7071 -0.7071 0.7071 0.7071 -188.3246 168.6976)" class="st1" width="37.5" height="38.3"/>
	</g>
	<g>
		<path class="st1" d="M275.1,388.5c3.5-4.1,6.3-8,9.6-11.2c20.3-19.5,43.4-29.1,69.4-17c26.1,12.1,37.9,36.8,39.2,66.7
			c1.6,35.8-13,66-35.3,89.9c-24.5,26.3-52,49.1-78.5,73.1c-1.9,1.8-7.1,2.2-9,0.6c-31.4-26.1-64.5-50.2-88.7-85.3
			c-13.3-19.2-22.7-40.3-25.7-64.6c-4.7-37.5,16.9-76.2,48-83.7c24.6-5.9,44.9,4.1,62.6,22.3C269.3,381.9,271.7,384.7,275.1,388.5z"
			/>
		<polygon class="st1" points="274,498.3 230.1,546.6 275,595.9 318.9,547.6 		"/>
	</g>
</g>
</svg>
