<?xml version="1.0" encoding="utf-8"?>
<!-- Generator: Adobe Illustrator 22.1.0, SVG Export Plug-In . SVG Version: 6.00 Build 0)  -->
<svg version="1.1" id="Layer_1" xmlns="http://www.w3.org/2000/svg" xmlns:xlink="http://www.w3.org/1999/xlink" x="0px" y="0px"
	 viewBox="0 0 430 630" style="enable-background:new 0 0 430 630;" xml:space="preserve">
<style type="text/css">
	.st0{fill:#FFFFFF;stroke:#CB1E25;stroke-width:1.5;stroke-miterlimit:10;}
	.st1{fill:#CB1E25;}
	.st2{fill:#FDC20F;}
	.st3{fill:#FFFFFF;}
</style>
<g>
	<path class="st0" d="M400,615H30c-8.3,0-15-6.7-15-15V30c0-8.3,6.7-15,15-15h370c8.3,0,15,6.7,15,15v570
		C415,608.3,408.3,615,400,615z"/>
	<g>
		<g>
			<path class="st1" d="M82.3,174.9c-5.6-2.7-10-6.5-13.4-11.5l15.3-11.1c1.7,2.8,4,4.9,7,6.4s6.3,2.2,10,2.2c6.1,0,10.9-2,14.3-5.9
				s5.1-9.4,5.1-16.5V55h18.9v83.7c0,8.5-1.5,15.8-4.5,21.8s-7.4,10.6-13.2,13.8s-12.7,4.7-20.9,4.7C94.1,179,87.9,177.6,82.3,174.9
				z"/>
		</g>
	</g>
	<g>
		<path class="st1" d="M109.9,224.6c2.1-2.3,3.8-4.4,5.8-6.1c12.3-10.7,26.2-16,41.9-9.3c15.8,6.6,22.9,20.2,23.7,36.6
			c1,19.7-7.8,36.2-21.3,49.4c-14.8,14.4-31.4,26.9-47.3,40.1c-1.2,1-4.3,1.2-5.4,0.3c-19-14.3-38.9-27.5-53.5-46.8
			c-8-10.6-13.7-22.1-15.5-35.4c-2.9-20.6,10.2-41.8,28.9-45.9c14.8-3.3,27.1,2.3,37.8,12.2C106.4,221,107.8,222.6,109.9,224.6z"/>
		
			<rect x="90.7" y="292.5" transform="matrix(0.7071 -0.7071 0.7071 0.7071 -188.3246 168.6976)" class="st1" width="37.5" height="38.3"/>
	</g>
	<g>
		<path class="st2" d="M361.8,596.5c-0.8,0-1.5,0-2.3,0c0.1-1.7,0.3-3.5,0.3-5.2c0-27,0.2-54,0-81c-0.1-9.7,3-17.7,9-25.1
			c2.2-2.7,2.9-6.8,4.3-10.2c-0.6-0.4-1.3-0.7-1.9-1.1c-9.6,10.1-19.7,19.5-32.8,24.6c-8.3-12.4-15.5-15.3-29.3-12.5
			c-2,0.4-5-0.3-6.6-1.7c-11.1-9-22-18.4-33-27.6c-6.6-5.5-13.2-11-20.4-17.1c-4.2,16.3-8.2,31.7-12.5,48.7
			c-12.5-12.6-23.9-24.1-35.3-35.6c-2.6,3.3-5.2,6.6-8.1,10.2c-1.6-1.7-2.7-2.9-3.6-4c2.5-4,4.8-7.6,7.5-11.8
			c-6-0.6-9.7-2.1-9.3-8.2c0.5-7.8,1.3-15.6,0.9-23.3c-0.5-9.3-0.7-9.6,9.3-11.1c0-7.5,0.3-15-0.1-22.5c-0.3-5.7,1.1-10,5.7-13.5
			c1.6-1.2,2.2-3.7,3.2-5.5c-0.4-0.3-0.9-0.6-1.3-0.9c-2.3,1.8-4.6,3.6-7.3,5.9c0-9.1-2.5-18,7-23.5c1-0.6,0.9-3.1,1.7-6.1
			c-3.6,2.9-5.9,4.7-9.1,7.2c0-13.3,0-25.5,0-37.7c-0.5,0-1.1,0-1.6,0c-4.2,25.2-0.5,50.8-2.3,76.1c-0.5,0.2-1,0.4-1.6,0.7
			c-3.1-5.5-6.2-11.1-9.3-16.6c0-18.7,0-37.3,0-56c1.1-4.1,2-8.2,3.4-12.2c4.6-14,15.4-21.7,28-27.4c0.8,0,1.5,0,2.3,0
			c-0.1,1.3-0.3,2.7-0.3,4c0,27.2-0.3,54.4,0.1,81.6c0.1,10.2-2.8,18.7-9.6,25.9c-3.2,3.4-3,6.8-2.2,11.5
			c9.9-10.8,20.1-19.9,33-25.2c7.3,10.5,14.1,15.4,22.9,13.1c8.7-2.3,14.3,0.8,19.8,6.4c1.8,1.8,3.8,3.3,5.7,4.9
			c13.5,11.3,26.9,22.6,41.1,34.5c4.1-16.1,8.1-31.6,12.5-48.8c12.4,12.7,23.8,24.3,35.2,35.8c2.8-3.5,5.4-6.8,8.3-10.4
			c1.6,1.9,2.7,3.2,3.6,4.1c-2.6,4-4.9,7.6-7.4,11.4c8.1,1.9,9.5,3.9,9,9.1c-0.7,7.6-1.3,15.2-0.8,22.8c0.5,9.3,0.7,9.6-9.3,11.1
			c0,7.6-0.3,15.4,0.1,23.1c0.3,5.3-1,9.3-5.3,12.6c-1.7,1.3-2.5,3.9-3.7,5.9c0.5,0.3,0.9,0.6,1.4,1c2.3-1.8,4.6-3.6,7.5-5.9
			c0,5.7,0,10.5,0,15.4c0,0.4,0,0.9-0.2,1.1c-2.3,2.3-4.9,4.4-6.9,7c-1,1.2-1,3.3-1.9,6.6c3.7-3.1,5.9-5,9.1-7.6
			c0,13.4,0,25.6,0,37.8c0.6,0,1.1,0,1.7,0c4.3-25.3,0.6-51,2.4-76.4c0.5-0.2,1.1-0.4,1.6-0.6c3.1,5.6,6.2,11.2,9.3,16.8
			c0,18.7,0,37.3,0,56c-3.3,8.1-5.2,17.4-10.5,24C377.5,587.5,368.9,591.4,361.8,596.5z M205.3,409L205.3,409
			c-3.3,0-6.6-0.2-9.8,0.1c-1.4,0.1-2.6,1.5-3.9,2.3c1.2,0.9,2.4,2.6,3.6,2.7c6.7,0.3,13.4,0.3,20.1,0c1.2,0,2.4-1.7,3.6-2.6
			c-1.3-0.8-2.5-2.2-3.9-2.4C211.9,408.8,208.6,409,205.3,409z M370.8,454.7L370.8,454.7c-3.5,0-7-0.2-10.4,0.1
			c-1.2,0.1-2.3,1.5-3.4,2.3c1.2,0.9,2.4,2.6,3.6,2.6c6.8,0.3,13.5,0.2,20.3,0c1.2,0,2.3-1.5,3.4-2.3c-1.2-0.9-2.3-2.5-3.6-2.7
			C377.4,454.4,374.1,454.7,370.8,454.7z M371.2,450.2L371.2,450.2c3.3,0,6.6,0.2,9.8-0.1c1.2-0.1,2.2-1.5,3.4-2.3
			c-1-0.9-2.1-2.5-3.1-2.5c-6.7-0.2-13.5-0.2-20.2,0c-1,0-2,1.7-3.1,2.6c1.1,0.8,2.2,2.1,3.4,2.3
			C364.6,450.4,367.9,450.2,371.2,450.2z M204.5,423.8L204.5,423.8c3.5,0,7,0.3,10.4-0.1c1.1-0.1,2.1-1.6,3.2-2.5
			c-0.9-0.8-1.8-2.3-2.7-2.3c-6.9-0.2-13.9-0.2-20.8-0.1c-1,0-1.9,1.4-2.9,2.2c1,0.9,1.9,2.5,3,2.6
			C197.9,424,201.2,423.8,204.5,423.8z M204.3,433.3L204.3,433.3c3.3,0,6.5,0.2,9.8-0.1c1-0.1,1.9-1.7,2.9-2.7c-1-0.7-1.9-2-2.9-2.1
			c-6.5-0.2-13-0.2-19.6,0.1c-1,0-1.9,1.7-2.9,2.7c1,0.7,1.9,2,2.9,2C197.8,433.4,201.1,433.3,204.3,433.3z M371.7,440.6
			C371.7,440.6,371.7,440.5,371.7,440.6c3.1,0,6.2,0.2,9.3-0.1c1.2-0.1,2.2-1.5,3.3-2.2c-1-0.9-2-2.4-3.1-2.4
			c-6.4-0.2-12.8-0.2-19.1,0c-1,0-2,1.6-3,2.5c1.1,0.8,2.2,2,3.4,2.2C365.4,440.8,368.6,440.6,371.7,440.6z M371.7,431L371.7,431
			c3.3,0,6.6,0.1,9.8-0.1c1-0.1,1.9-1.4,2.8-2.2c-0.9-0.8-1.7-2.3-2.6-2.3c-6.3-0.2-12.7-0.2-19,0c-1,0-1.9,1.4-2.8,2.1
			c1.1,0.8,2.1,2.2,3.2,2.4C365.9,431.2,368.8,431,371.7,431z M203.5,442.6L203.5,442.6c3.3,0,6.5,0.1,9.8-0.1
			c1-0.1,1.9-1.4,2.8-2.1c-0.9-0.8-1.7-2.3-2.6-2.3c-6.3-0.2-12.7-0.2-19,0c-0.9,0-1.9,1.4-2.8,2.2c1.1,0.8,2,2.1,3.2,2.3
			C197.7,442.9,200.6,442.6,203.5,442.6z M273.3,415c-3.5-1.9-5.5-4-7-3.6c-1.6,0.4-3.4,2.8-3.7,4.6c-0.2,1,2.7,3.4,4.2,3.4
			C268.4,419.4,270.1,417.3,273.3,415z M294.4,434.8c-3-2.3-4.6-4.4-6.3-4.5c-1.4-0.1-4.1,2.4-4,3.6c0.1,1.7,2.1,4.3,3.6,4.7
			C289.1,438.9,291.1,436.8,294.4,434.8z M315.9,453.6c-3.2-2.1-4.9-4.1-6.6-4c-1.4,0-4.2,2.6-4,3.6c0.4,1.7,2.3,4.1,3.9,4.4
			C310.7,457.7,312.6,455.6,315.9,453.6z"/>
		<path class="st3" d="M182.9,368c3.1,5.5,6.2,11.1,9.3,16.6c0.5-0.2,1-0.4,1.6-0.7c1.8-25.3-1.9-50.9,2.3-76.1c0.5,0,1.1,0,1.6,0
			c0,12.2,0,24.4,0,37.7c3.2-2.5,5.5-4.4,9.1-7.2c-0.8,3-0.7,5.6-1.7,6.1c-9.5,5.5-7,14.4-7,23.5c2.8-2.2,5.1-4,7.3-5.9
			c0.4,0.3,0.9,0.6,1.3,0.9c-1,1.9-1.6,4.4-3.2,5.5c-4.7,3.5-6.1,7.8-5.7,13.5c0.5,7.5,0.1,15.1,0.1,22.5c-10,1.5-9.8,1.8-9.3,11.1
			c0.4,7.7-0.4,15.5-0.9,23.3c-0.4,6.1,3.3,7.6,9.3,8.2c-2.7,4.3-5,7.9-7.5,11.8c1,1.1,2.1,2.3,3.6,4c2.9-3.6,5.5-6.9,8.1-10.2
			c11.4,11.5,22.8,23,35.3,35.6c4.3-16.9,8.3-32.3,12.5-48.7c7.2,6,13.8,11.5,20.4,17.1c11,9.2,21.9,18.6,33,27.6
			c1.6,1.3,4.5,2.1,6.6,1.7c13.8-2.8,21.1,0.1,29.3,12.5c13.1-5.1,23.2-14.5,32.8-24.6c0.6,0.4,1.3,0.7,1.9,1.1
			c-1.4,3.4-2,7.5-4.3,10.2c-6,7.4-9.1,15.4-9,25.1c0.3,27,0.1,54,0,81c0,1.7-0.2,3.5-0.3,5.2c-58.8,0-117.6,0-176.6,0
			C182.9,520.3,182.9,444.2,182.9,368z M234.1,529.4c15.7-0.3,26.6-9.8,38.3-17.2c-9.6-5.8-18.3,2.1-28.1,1.8
			c0.3-4.5,0.7-8.6,1.1-13.6c9.6,0.7,18.6,1.4,28.3,2.1c-10.6-5.7-21.3-6.1-32.1-5.6c-0.3,0.9-0.6,1.2-0.6,1.6
			c-0.4,4.6-0.8,9.3-1.1,13.9c-0.7,10.8-0.7,10.8-10.7,14.2c-0.3,0.1-0.5,0.5-0.8,0.8c3.4,9.5,7,18.9,10,28.5c0.9,3,0.8,6.8-0.2,9.9
			c-2.1,6.9-5,13.6-7.9,21.3c30.2,6.5,58.6,4.8,87.3-4.9c-2-5.3-3.5-9.7-5.4-13.9c-2.1-4.7-2.2-9-0.1-13.8
			c3.8-8.6,6.9-17.5,10.2-26.2c-3-1-5.4-1.9-7.8-2.7c1.2-1.1,2.1-1.2,3-1.3c11.9-0.4,18.6-7.6,17.7-18.9
			c-0.8-10.4-10.1-17.4-21-15.8c-8.1,1.1-14.8,5-19.2,11.8c-3.9,6.2-7.1,12.8-10.1,19.5c-3.3,7.4-5.4,15.4-8.9,22.7
			c-5.6,11.8-15.1,17.3-28.3,15.6c-1.4-0.2-3.4-1.3-3.8-2.4C240.7,548.1,237.7,539.4,234.1,529.4z M299.2,490.5
			c-15.6-13.2-31-26.1-47-39.7c-3.4,13.9-6.5,26.4-9.6,38.8c8.7,1.2,16.7,1.7,24.3,3.5c7.8,1.8,15.2,5,22.9,7.6
			C292.7,497.5,295.7,494.3,299.2,490.5z"/>
		<path class="st3" d="M393.1,500.9c-3.1-5.6-6.2-11.2-9.3-16.8c-0.5,0.2-1.1,0.4-1.6,0.6c-1.7,25.4,1.9,51.1-2.4,76.4
			c-0.6,0-1.1,0-1.7,0c0-12.2,0-24.4,0-37.8c-3.2,2.7-5.4,4.6-9.1,7.6c0.9-3.3,0.9-5.3,1.9-6.6c2-2.5,4.6-4.7,6.9-7
			c0.2-0.2,0.2-0.7,0.2-1.1c0-4.8,0-9.6,0-15.4c-2.9,2.3-5.2,4.1-7.5,5.9c-0.5-0.3-0.9-0.6-1.4-1c1.2-2,2-4.6,3.7-5.9
			c4.3-3.3,5.6-7.3,5.3-12.6c-0.4-7.7-0.1-15.5-0.1-23.1c10-1.5,9.8-1.8,9.3-11.1c-0.4-7.5,0.2-15.2,0.8-22.8c0.5-5.1-1-7.2-9-9.1
			c2.5-3.8,4.8-7.4,7.4-11.4c-0.8-0.9-1.9-2.2-3.6-4.1c-2.9,3.6-5.5,6.9-8.3,10.4c-11.3-11.5-22.7-23.2-35.2-35.8
			c-4.4,17.2-8.4,32.6-12.5,48.8c-14.1-11.9-27.6-23.2-41.1-34.5c-1.9-1.6-4-3.1-5.7-4.9c-5.5-5.6-11.1-8.7-19.8-6.4
			c-8.7,2.3-15.6-2.5-22.9-13.1c-12.9,5.3-23.1,14.4-33,25.2c-0.9-4.7-1-8.1,2.2-11.5c6.8-7.2,9.7-15.8,9.6-25.9
			c-0.4-27.2-0.1-54.4-0.1-81.6c0-1.3,0.2-2.7,0.3-4c58.9,0,117.7,0,176.6,0C393.1,348.6,393.1,424.7,393.1,500.9z M261.3,343.2
			c-0.1,0.4-0.1,0.9-0.2,1.3c-1,0-1.9,0.1-2.9,0.1c-11.3,0.4-17.8,7-17.5,17.9c0.3,10.1,8.4,17.4,19,16.9
			c9.4-0.4,17.1-4.9,21.6-12.8c5.1-8.8,8.7-18.5,13-27.8c3-6.5,5.4-13.3,9.2-19.3c5.3-8.5,16.7-12.4,26.1-10c0.9,0.2,2,1.2,2.3,2
			c3.3,8.8,6.4,17.7,9.9,27.7c-15.8,0.4-26.6,9.7-38.3,17.3c9.6,5.4,18.3-2,28-2c-0.3,4.4-0.7,8.6-1,13.7
			c-9.5-0.7-18.4-1.3-27.9-1.9c10.2,5.7,20.9,6.1,32.1,5.5c0.4-5.1,1.1-9.7,1.1-14.3c0-8.1-0.5-16.3,12.1-14.9
			c-3.6-10.1-6.8-19.2-10.2-28.2c-1.6-4.2-1.9-8,0-12.3c2.8-6.3,5-12.9,7.8-20.4c-29.9-6.6-58.4-4.8-87.2,4.8
			c2,5.4,3.5,10.2,5.6,14.8c2,4.4,1.7,8.3-0.1,12.7c-3.7,8.7-6.9,17.6-10.3,26.5C256.4,341.6,258.9,342.4,261.3,343.2z M276.9,378.5
			c15.4,13,30.8,26,46.9,39.6c3.4-13.8,6.5-26.4,9.4-37.9c-12.3-2.6-24.3-3.4-34.7-7.8c-9.4-4-15.3-3.4-20.7,4.8
			C277.5,377.4,277.3,377.7,276.9,378.5z"/>
		<path class="st3" d="M214.2,272.4c-12.7,5.7-23.4,13.4-28,27.4c-1.3,4-2.2,8.1-3.4,12.2c0-13.2,0-26.4,0-39.6
			C193.3,272.4,203.8,272.4,214.2,272.4z"/>
		<path class="st3" d="M361.8,596.5c7.1-5.1,15.7-9,20.9-15.6c5.2-6.6,7.1-15.9,10.5-24c0,13.2,0,26.4,0,39.6
			C382.7,596.5,372.2,596.5,361.8,596.5z"/>
		<path class="st3" d="M205.3,409c3.3,0,6.6-0.2,9.8,0.1c1.4,0.1,2.6,1.5,3.9,2.4c-1.2,0.9-2.4,2.6-3.6,2.6
			c-6.7,0.3-13.4,0.3-20.1,0c-1.2,0-2.4-1.7-3.6-2.7c1.3-0.8,2.6-2.2,3.9-2.3C198.8,408.8,202.1,409,205.3,409L205.3,409z"/>
		<path class="st3" d="M370.8,454.7c3.3,0,6.6-0.3,9.8,0.1c1.3,0.2,2.4,1.8,3.6,2.7c-1.1,0.8-2.2,2.2-3.4,2.3
			c-6.8,0.2-13.5,0.2-20.3,0c-1.2,0-2.4-1.7-3.6-2.6c1.1-0.8,2.2-2.2,3.4-2.3C363.9,454.5,367.3,454.7,370.8,454.7L370.8,454.7z"/>
		<path class="st3" d="M371.2,450.2c-3.3,0-6.6,0.2-9.8-0.1c-1.2-0.1-2.3-1.5-3.4-2.3c1-0.9,2-2.5,3.1-2.6c6.7-0.2,13.5-0.3,20.2,0
			c1.1,0,2.1,1.6,3.1,2.5c-1.1,0.8-2.2,2.2-3.4,2.3C377.8,450.4,374.5,450.2,371.2,450.2L371.2,450.2z"/>
		<path class="st3" d="M204.5,423.8c-3.3,0-6.6,0.2-9.8-0.1c-1.1-0.1-2-1.7-3-2.6c1-0.8,1.9-2.2,2.9-2.2c6.9-0.2,13.9-0.2,20.8,0.1
			c0.9,0,1.8,1.5,2.7,2.3c-1.1,0.9-2.1,2.4-3.2,2.5C211.4,424,207.9,423.8,204.5,423.8L204.5,423.8z"/>
		<path class="st3" d="M204.3,433.3c-3.3,0-6.5,0.2-9.8-0.1c-1-0.1-1.9-1.3-2.9-2c1-0.9,1.9-2.6,2.9-2.7c6.5-0.3,13-0.2,19.6-0.1
			c1,0,1.9,1.3,2.9,2.1c-1,0.9-1.8,2.5-2.9,2.7C210.9,433.5,207.6,433.3,204.3,433.3L204.3,433.3z"/>
		<path class="st3" d="M371.7,440.6c-3.1,0-6.2,0.2-9.3-0.1c-1.2-0.1-2.3-1.4-3.4-2.2c1-0.9,2-2.5,3-2.5c6.4-0.2,12.8-0.2,19.1,0
			c1.1,0,2.1,1.6,3.1,2.4c-1.1,0.8-2.1,2.1-3.3,2.2C377.9,440.7,374.8,440.5,371.7,440.6C371.7,440.5,371.7,440.6,371.7,440.6z"/>
		<path class="st3" d="M371.7,431c-2.9,0-5.8,0.2-8.6-0.1c-1.2-0.1-2.2-1.5-3.2-2.4c0.9-0.7,1.9-2.1,2.8-2.1c6.3-0.2,12.7-0.2,19,0
			c0.9,0,1.7,1.5,2.6,2.3c-0.9,0.8-1.8,2.1-2.8,2.2C378.3,431.2,375,431,371.7,431L371.7,431z"/>
		<path class="st3" d="M203.5,442.6c-2.9,0-5.8,0.2-8.6-0.1c-1.1-0.1-2.1-1.5-3.2-2.3c0.9-0.8,1.8-2.2,2.8-2.2
			c6.3-0.2,12.7-0.2,19,0c0.9,0,1.8,1.5,2.6,2.3c-0.9,0.7-1.8,2-2.8,2.1C210,442.8,206.7,442.6,203.5,442.6L203.5,442.6z"/>
		<path class="st3" d="M273.3,415c-3.2,2.3-4.8,4.3-6.5,4.4c-1.5,0-4.3-2.4-4.2-3.4c0.3-1.8,2.1-4.2,3.7-4.6
			C267.8,411.1,269.8,413.1,273.3,415z"/>
		<path class="st3" d="M294.4,434.8c-3.2,1.9-5.2,4.1-6.7,3.7c-1.6-0.3-3.5-2.9-3.6-4.7c-0.1-1.2,2.7-3.7,4-3.6
			C289.8,430.4,291.4,432.5,294.4,434.8z"/>
		<path class="st3" d="M315.9,453.6c-3.3,2-5.2,4.1-6.7,3.9c-1.6-0.3-3.5-2.6-3.9-4.4c-0.2-1,2.5-3.5,4-3.6
			C310.9,449.5,312.7,451.5,315.9,453.6z"/>
		<path class="st2" d="M234.1,529.4c3.6,10,6.6,18.7,9.9,27.4c0.4,1.2,2.4,2.3,3.8,2.4c13.1,1.6,22.7-3.8,28.3-15.6
			c3.5-7.3,5.6-15.3,8.9-22.7c2.9-6.7,6.2-13.4,10.1-19.5c4.3-6.8,11-10.7,19.2-11.8c10.9-1.5,20.2,5.5,21,15.8
			c0.9,11.3-5.8,18.5-17.7,18.9c-0.9,0-1.8,0.1-3,1.3c2.4,0.8,4.8,1.6,7.8,2.7c-3.4,8.7-6.5,17.6-10.2,26.2c-2.1,4.8-2,9.1,0.1,13.8
			c1.9,4.2,3.4,8.6,5.4,13.9c-28.6,9.7-57.1,11.3-87.3,4.9c2.9-7.7,5.8-14.4,7.9-21.3c0.9-3.1,1.1-6.9,0.2-9.9
			c-3-9.6-6.6-19-10-28.5c0.3-0.3,0.5-0.7,0.8-0.8c10-3.4,10-3.4,10.7-14.2c0.3-4.6,0.7-9.3,1.1-13.9c0-0.4,0.3-0.7,0.6-1.6
			c10.8-0.5,21.6-0.1,32.1,5.6c-9.7-0.7-18.6-1.4-28.3-2.1c-0.4,5-0.7,9.2-1.1,13.6c9.8,0.3,18.5-7.7,28.1-1.8
			C260.7,519.7,249.8,529.1,234.1,529.4z"/>
		<path class="st2" d="M299.2,490.5c-3.5,3.8-6.5,7-9.4,10.2c-7.6-2.6-15.1-5.7-22.9-7.6c-7.6-1.8-15.6-2.3-24.3-3.5
			c3.1-12.4,6.1-24.9,9.6-38.8C268.3,464.3,283.6,477.3,299.2,490.5z"/>
		<path class="st2" d="M261.3,343.2c-2.5-0.8-4.9-1.6-7.8-2.5c3.4-8.9,6.6-17.8,10.3-26.5c1.9-4.4,2.1-8.3,0.1-12.7
			c-2.1-4.6-3.6-9.4-5.6-14.8c28.8-9.7,57.3-11.4,87.2-4.8c-2.8,7.5-5.1,14.1-7.8,20.4c-1.9,4.3-1.6,8.1,0,12.3
			c3.5,9,6.6,18.1,10.2,28.2c-12.6-1.5-12.1,6.7-12.1,14.9c0,4.6-0.7,9.2-1.1,14.3c-11.2,0.5-21.9,0.2-32.1-5.5
			c9.4,0.7,18.4,1.3,27.9,1.9c0.4-5.1,0.7-9.3,1-13.7c-9.7,0.1-18.4,7.5-28,2c11.7-7.6,22.5-16.9,38.3-17.3
			c-3.6-10-6.7-18.9-9.9-27.7c-0.3-0.9-1.4-1.8-2.3-2c-9.4-2.4-20.8,1.5-26.1,10c-3.8,6-6.2,12.8-9.2,19.3c-4.3,9.3-7.9,19-13,27.8
			c-4.5,7.9-12.2,12.3-21.6,12.8c-10.6,0.5-18.7-6.8-19-16.9c-0.3-10.9,6.2-17.5,17.5-17.9c1,0,1.9-0.1,2.9-0.1
			C261.2,344.1,261.3,343.7,261.3,343.2z"/>
		<path class="st2" d="M276.9,378.5c0.4-0.7,0.6-1.1,0.8-1.4c5.5-8.1,11.4-8.8,20.7-4.8c10.4,4.4,22.3,5.2,34.7,7.8
			c-2.9,11.6-6,24.2-9.4,37.9C307.6,404.5,292.2,391.5,276.9,378.5z"/>
	</g>
</g>
</svg>
