<?xml version="1.0" encoding="utf-8"?>
<!-- Generator: Adobe Illustrator 22.1.0, SVG Export Plug-In . SVG Version: 6.00 Build 0)  -->
<svg version="1.1" id="Layer_1" xmlns="http://www.w3.org/2000/svg" xmlns:xlink="http://www.w3.org/1999/xlink" x="0px" y="0px"
	 viewBox="0 0 430 630" style="enable-background:new 0 0 430 630;" xml:space="preserve">
<style type="text/css">
	.st0{fill:#FFFFFF;stroke:#CB1E25;stroke-width:1.5;stroke-miterlimit:10;}
	.st1{fill:#CB1E25;}
</style>
<g>
	<path class="st0" d="M400,615H30c-8.3,0-15-6.7-15-15V30c0-8.3,6.7-15,15-15h370c8.3,0,15,6.7,15,15v570
		C415,608.3,408.3,615,400,615z"/>
	<g>
		<g>
			<path class="st1" d="M97.9,182c0,0-2.7-1.3-8.1-3.8c-5.4-2.6-9.7-6.3-12.9-11.1c-3.2-4.8-5.2-10.7-5.9-17.5h19.2
				c0.4,3.2,1.4,5.9,3,8c1.5,2.1,3.5,3.7,6,4.8c2.4,1.1,5.3,1.6,8.6,1.6c5.3,0,9.5-1.4,12.5-4.3c3-2.9,4.5-7,4.5-12.2V144
				c0-5.8-1.4-10.3-4.1-13.4c-2.7-3.1-6.6-4.7-11.6-4.7H100V108h9.1c4.3,0,7.7-1.4,10.1-4.1s3.6-6.5,3.6-11.5V89
				c0-4.6-1.3-8.1-3.8-10.6s-6.1-3.8-10.8-3.8c-2.7,0-5.1,0.5-7.3,1.6c-2.2,1.1-4,2.8-5.5,5s-2.6,5-3.2,8.2H73
				c1-6.9,3.1-12.8,6.3-17.7c3.2-4.9,7.2-8.7,12.2-11.3c4.9-2.6,10.5-3.8,16.8-3.8c10.7,0,18.9,2.8,24.8,8.4
				c5.8,5.6,8.7,13.4,8.7,23.5v2.4c0,6-1.6,11.3-4.8,15.7c-3.2,4.5-7.8,7.8-13.7,9.8c6.5,1.5,11.6,4.7,15.1,9.7
				c3.6,5,5.4,11.5,5.4,19.3v2.4c0,7.1-1.4,13.2-4.2,18.3s-6.8,8.9-12.1,11.6c-5.3,2.6-11.7,4-19.2,4C101.4,182,97.9,182,97.9,182z"
				/>
		</g>
	</g>
	<g>
		<path class="st1" d="M109.9,224.6c2.1-2.3,3.8-4.4,5.8-6.1c12.3-10.7,26.2-16,41.9-9.3c15.8,6.6,22.9,20.2,23.7,36.6
			c1,19.7-7.8,36.2-21.3,49.4c-14.8,14.4-31.4,26.9-47.3,40.1c-1.2,1-4.3,1.2-5.4,0.3c-19-14.3-38.9-27.5-53.5-46.8
			c-8-10.6-13.7-22.1-15.5-35.4c-2.9-20.6,10.2-41.8,28.9-45.9c14.8-3.3,27.1,2.3,37.8,12.2C106.4,221,107.8,222.6,109.9,224.6z"/>
		
			<rect x="90.7" y="292.5" transform="matrix(0.7071 -0.7071 0.7071 0.7071 -188.3246 168.6976)" class="st1" width="37.5" height="38.3"/>
	</g>
	<g>
		<path class="st1" d="M275.1,388.5c3.5-4.1,6.3-8,9.6-11.2c20.3-19.5,43.4-29.1,69.4-17c26.1,12.1,37.9,36.8,39.2,66.7
			c1.6,35.8-13,66-35.3,89.9c-24.5,26.3-52,49.1-78.5,73.1c-1.9,1.8-7.1,2.2-9,0.6c-31.4-26.1-64.5-50.2-88.7-85.3
			c-13.3-19.2-22.7-40.3-25.7-64.6c-4.7-37.5,16.9-76.2,48-83.7c24.6-5.9,44.9,4.1,62.6,22.3C269.3,381.9,271.7,384.7,275.1,388.5z"
			/>
		<polygon class="st1" points="274,498.3 230.1,546.6 275,595.9 318.9,547.6 		"/>
	</g>
</g>
</svg>
