<?xml version="1.0" encoding="utf-8"?>
<!-- Generator: Adobe Illustrator 22.1.0, SVG Export Plug-In . SVG Version: 6.00 Build 0)  -->
<svg version="1.1" id="Layer_1" xmlns="http://www.w3.org/2000/svg" xmlns:xlink="http://www.w3.org/1999/xlink" x="0px" y="0px"
	 viewBox="0 0 430 630" style="enable-background:new 0 0 430 630;" xml:space="preserve">
<style type="text/css">
	.st0{fill:#FFFFFF;stroke:#CB1E25;stroke-width:1.5;stroke-miterlimit:10;}
	.st1{fill:#CB1E25;}
</style>
<g>
	<path class="st0" d="M400,615H30c-8.3,0-15-6.7-15-15V30c0-8.3,6.7-15,15-15h370c8.3,0,15,6.7,15,15v570
		C415,608.3,408.3,615,400,615z"/>
	<g>
		<g>
			<path class="st1" d="M76.5,178.7H57.9V76.9L41,86.4V66.8L58.7,56h17.8V178.7z"/>
			<path class="st1" d="M112.5,170.8c-6-6.1-9-14.7-9-25.7V89.3c0-11,3-19.6,9.1-25.7c6-6.1,14.8-9.2,26.4-9.2s20.4,3,26.4,9.1
				s9,14.7,9,25.7V145c0,11-3,19.6-9.1,25.7c-6,6.1-14.8,9.2-26.4,9.2C127.4,180,118.6,176.9,112.5,170.8z M151.7,157.4
				c2.7-3.2,4.1-7.7,4.1-13.7V90.8c0-6-1.4-10.5-4.1-13.7c-2.7-3.2-6.9-4.8-12.7-4.8s-10,1.6-12.7,4.8c-2.7,3.2-4.1,7.8-4.1,13.7
				v52.9c0,6,1.4,10.5,4.1,13.7s7,4.8,12.7,4.8S148.9,160.6,151.7,157.4z"/>
		</g>
	</g>
	<g>
		<path class="st1" d="M109.9,224.6c2.1-2.3,3.8-4.4,5.8-6.1c12.3-10.7,26.2-16,41.9-9.3c15.8,6.6,22.9,20.2,23.7,36.6
			c1,19.7-7.8,36.2-21.3,49.4c-14.8,14.4-31.4,26.9-47.3,40.1c-1.2,1-4.3,1.2-5.4,0.3c-19-14.3-38.9-27.5-53.5-46.8
			c-8-10.6-13.7-22.1-15.5-35.4c-2.9-20.6,10.2-41.8,28.9-45.9c14.8-3.3,27.1,2.3,37.8,12.2C106.4,221,107.8,222.6,109.9,224.6z"/>
		
			<rect x="90.7" y="292.5" transform="matrix(0.7071 -0.7071 0.7071 0.7071 -188.3246 168.6976)" class="st1" width="37.5" height="38.3"/>
	</g>
	<g>
		<path class="st1" d="M275.1,388.5c3.5-4.1,6.3-8,9.6-11.2c20.3-19.5,43.4-29.1,69.4-17c26.1,12.1,37.9,36.8,39.2,66.7
			c1.6,35.8-13,66-35.3,89.9c-24.5,26.3-52,49.1-78.5,73.1c-1.9,1.8-7.1,2.2-9,0.6c-31.4-26.1-64.5-50.2-88.7-85.3
			c-13.3-19.2-22.7-40.3-25.7-64.6c-4.7-37.5,16.9-76.2,48-83.7c24.6-5.9,44.9,4.1,62.6,22.3C269.3,381.9,271.7,384.7,275.1,388.5z"
			/>
		<polygon class="st1" points="274,498.3 230.1,546.6 275,595.9 318.9,547.6 		"/>
	</g>
</g>
</svg>
