<?xml version="1.0" encoding="utf-8"?>
<!-- Generator: Adobe Illustrator 22.1.0, SVG Export Plug-In . SVG Version: 6.00 Build 0)  -->
<svg version="1.1" id="Layer_1" xmlns="http://www.w3.org/2000/svg" xmlns:xlink="http://www.w3.org/1999/xlink" x="0px" y="0px"
	 viewBox="0 0 1090 840" style="enable-background:new 0 0 1090 840;" xml:space="preserve">
<style type="text/css">
	.st0{fill:#FCDECA;}
	.st1{fill:#660203;}
	.st2{fill:#FBDDC9;}
	.st3{fill:#760201;}
	.st4{fill:#B70303;}
	.st5{fill:#EDB894;}
	.st6{fill:#FAC9B0;}
	.st7{fill:#580404;}
	.st8{fill:#950301;}
	.st9{fill:#E7432E;}
	.st10{fill:#F38270;}
	.st11{fill:#431909;}
	.st12{fill:#23A43F;}
	.st13{fill:#FEFEFE;}
	.st14{fill:#B70101;}
	.st15{fill:#CF5C30;stroke:#CF5C30;stroke-width:2;stroke-miterlimit:10;}
	.st16{fill:none;}
	.st17{fill:#EDE234;stroke:#EDE234;stroke-width:3;stroke-miterlimit:10;}
	.st18{opacity:0.97;fill:#3A1307;}
	.st19{opacity:0.97;fill:#180601;}
	.st20{opacity:0.95;fill:#57230C;}
	.st21{opacity:0.1;fill:#FFFFFF;stroke:#000000;stroke-width:0.2222;stroke-miterlimit:10;}
	.st22{fill:url(#SVGID_1_);}
</style>
<g>
	<path class="st0" d="M450.1,159.6c-4.9-5-8-11.3-12.1-16.9c-4.6-6.3-9-12.7-13.5-19.1c0-2,0-3.9,0-5.9c5-10.9,13.4-18.9,22.9-25.3
		c10.4-7,21.4-13.4,33.3-17.8c3-1.1,6.1-1.5,9.3-1.5c-2,10.7-2,21.4-0.7,32.1c-0.7-1.1-1.4-0.8-2.2,0c-1.6,1.6-3.2,3.1-4.9,4.6
		c-0.6,0-1.1,0.1-1.4,0.7l0,0c-1.2,0-2.1,0.6-2.9,1.3c-6.2,4.8-12.8,7.4-20.9,5.4c-1.8-0.4-3.8-1.3-6.1-0.5
		c3.9,2.5,13.9,5.1,19.2,4.2c2.2,4.2,5.6,7.4,8,11.4c7.5,12.1,14.9,24.3,21.8,36.7c1.5,2.7,2.4,6.6,6.5,7.2
		c-0.1,1.2,0.8,1.6,1.7,1.9c0.4,0.3,0.8,0.7,1.3,1c9.2,5.4,18,11.4,23.4,21.1c0.9,1.5,2.2,1.1,3.4,0.4c-0.9,3.2-3.9,4.8-5.9,7.1
		c-6.5,7.9-13.5,15.4-21,22.5c-1.5-0.9-2.3-2.5-2.7-3.9c-3.9-11.4-11-20.8-18.9-29.5c-11.5-12.5-23.9-24.1-35.8-36.1
		C451.5,160.1,450.9,159.7,450.1,159.6z"/>
	<path class="st1" d="M698.7,235.4c-1.2-13.3-5.9-24.8-10.4-36.9c-3.2-1.5-6.4-3.2-9.7-4.3c-2.8-1-6.5-2-7.5-5.8
		c-2.6,1.3-5,2.7-7.1,4.6c-0.4,2,1.4,2.6,2.4,3.5c8,6.3,14,14.3,20.5,22c4.8,5.8,8.5,12.1,11.9,18.7
		C698.8,236.6,698.8,236,698.7,235.4z"/>
	<path class="st2" d="M525.6,304.7c-0.5,8.4,1.6,16.6,2.7,24.9c1.2,9.1,1.9,18.2,0.4,27.3c0,0.3,0.1,0.6,0.2,0.9c-2.2,0-4.4,0-6.6,0
		c-0.3-0.9-0.6-1.9-1-2.8c-6.8-18-12.7-36.4-18.1-54.9c7.5-0.6,12.9-4.4,16.8-11.1c1.5,4.3,1.4,9,5.3,11.8c0.1,0.6,0.1,1.3,0.2,1.9
		C525.6,303.3,525.6,304,525.6,304.7z"/>
	<path class="st3" d="M683.9,186.8c-0.8-1-1.5-2.1-2-3.3c-0.1-0.3-0.2-0.6-0.3-0.9c-0.3-0.6-0.5-1.2-0.5-2c-0.1-0.1-0.1-0.1-0.1-0.2
		c0.2-0.3,0.4-0.5,0.6-0.7c0,0,0-0.1,0-0.1c-3.2,3.2-6.7,6.1-10.5,8.8c1,3.8,4.7,4.9,7.5,5.8c3.4,1.2,6.5,2.8,9.7,4.3
		c-1.2-3.3-2.4-6.6-3.5-10C684.5,188,684.2,187.4,683.9,186.8z"/>
	<path class="st4" d="M503.2,300.1c5.4,18.5,11.3,36.9,18.1,54.9c0.3,0.9,0.6,1.8,1,2.8c-5.5,0-10.9,0-16.4,0
		c-0.8-2.3-1.6-4.5-2.4-6.8c-5.1-16.1-10.3-32.3-10.4-49.5c3.3-0.3,6.6-0.1,9.6-1.7C503,299.9,503.1,300,503.2,300.1z"/>
	<path class="st5" d="M493.2,301.5c0,17.2,5.3,33.3,10.4,49.5c0.7,2.3,1.6,4.5,2.4,6.8c-1.1,0-2.2,0-3.3,0
		c-5.9-18.6-11.7-37.2-12.5-57C491.1,301,492.2,301.2,493.2,301.5z"/>
	<path class="st5" d="M576.1,357.8c2-1.5,4.8-0.9,7-2.4c-2.6-0.9-5,0.5-8.3,0c3.7-1.4,6.7-2.7,9.8-3.8c2-0.7,2.8-1.9,2.8-4.1
		c0.1-5.5,0.4-11.1,0.7-16.6c1.2,3.1,0.4,6.4,0.5,9.6c0,1.2-0.2,2.1,1.4,2.3c-0.6,3.3-1.2,6.5,0.3,9.7c0.8,1.7-0.7,3.5-0.3,5.3
		C585.3,357.8,580.7,357.8,576.1,357.8z"/>
	<path class="st0" d="M721.3,116.6c-8.5-9.6-18-18-28.9-24.7c-9.6-5.8-19.4-11.1-29.7-15.6c-0.9,8.3-0.7,16.7-0.6,25
		c0.1,4.2,1,8.4,0.6,12.6c-0.1,1.2,0.8,1.7,1.3,2.5c3.2,1.2,5.9,3.3,8.6,5.1c3.9,2.6,7.9,3.2,12.4,2.4c2.8-0.5,5.6-0.7,8.6-1.1
		c-2.5,2.4-12.1,4.8-17.8,4.7c0.1,0.9-0.3,1.6-1,2.3c-5.6,5.5-11.2,11-16.8,16.5c-0.4,0.4-1.1,0.6-1.7,0.9c-1.3,3.4-4.3,5.4-6.6,8
		c-0.3,0.4-0.6,0.7-1,1.1c0,0-0.1,0.1-0.1,0.1c-0.6,1.1-1.4,2-2.5,2.7c-0.2,0.2-0.4,0.4-0.6,0.6c-1,1.1-2,2.2-3,3.3
		c-0.3,0.3-0.6,0.5-0.9,0.8l0.1-0.1c-0.2,0.3-0.5,0.5-0.7,0.8l0.1-0.1c-0.2,0.2-0.5,0.5-0.7,0.7l0.1,0c-2.3,3.3-5.5,5.5-8.9,7.5
		c-8.7,5.2-17.9,9.5-26.3,15.1c-8.5,5.7-16.2,12.1-20.2,22c-1.3,1-3.5,0-4.5,1.7c-0.6,5.4-2.1,10.7-3.8,15.9
		c-3.3,10.4-2.5,20.3,1.3,30.4c3.7,9.7,6.9,19.5,8.4,29.8c1.3,1.6,2.2,0.7,3.2-0.8c-0.2,4.6,0,8.9-2.7,12.6c0,0.4,0,0.8-0.1,1.2
		c0,0.5,0,1,0,1.5c0,7.9,0.1,15.7,0.7,23.5c3.9-5.5,5.4-12,7.7-18.2c1.4-3.7,3-7.4,4.2-11.2c2.3-7.2,3.5-14.6,3.8-22.2
		c0.1-3.5,0.2-7,0-10.5c-0.2-4.6,0.3-8.8,2.9-12.8c1.9-2.7,0.5-6.8,3.6-9.2c0.6-4.1,3.3-7,5.8-9.9c3.5-4,7.2-7.8,11.3-11.1
		c4.4-4.7,10.1-7.7,15.2-11.5c2.2-1.7,4.7-3.1,6.9-4.8c0.9-0.7,1.7-0.7,2.7-0.8c4.3-3.2,7.2-7.9,11.9-10.6c2.1-1.9,4.6-3.4,7.1-4.6
		c3.7-2.7,7.2-5.6,10.5-8.8c0.4-1.1,1.1-2,2.2-2.7c0.2-0.2,0.5-0.5,0.7-0.7c0.2-0.2,0.4-0.4,0.6-0.5c-0.6,0.4,0.2-0.3,0.3-0.5
		c0.2-0.2,0.3-0.3,0.5-0.4c0.1-0.2,0.2-0.4,0.5-0.7c7.6-7.1,14.7-14.9,21.6-22.8c5.2-5.9,10.5-11.6,14.8-18.2
		C726.3,127.8,725.1,120.9,721.3,116.6z"/>
	<path class="st6" d="M662.7,76.3c-0.9,8.3-0.7,16.7-0.6,25c0.1,4.2,1,8.4,0.6,12.6c-0.1,1.2,0.8,1.7,1.3,2.5c0,0.4,0,0.8,0,1.2
		c-0.9-0.7-1.8-1.5-2.7-2.2c-3.7-2.9-6.9-6.4-11-8.8c0.3-4.9,1.5-9.6,2.3-14.4c1.1-6.5,1.2-13.2,1.7-19.7
		C657.1,73.5,660.1,74.4,662.7,76.3z"/>
	<path class="st7" d="M675.7,221.2c1.8,0.2,2.5,1.4,3.1,2.2c7.2,9.6,14.1,19.5,19.9,30c0-1.6,0-3.3,0.1-4.9c0.1-1.8,0.4-3.6,0.8-5.3
		c-0.3-2-0.5-4.1-0.7-6.1c-3.4-6.5-7.1-12.9-11.9-18.7c-6.5-7.7-12.6-15.7-20.5-22c-1.1-0.9-2.8-1.5-2.4-3.5
		c-4.7,2.8-7.6,7.4-11.9,10.6c-3,4-6.9,7.2-10.3,10.9c-3.2,3.5-6.5,7.1-8.7,11.4c5.8,1.1,11.5,2.2,17.3,3.4
		c17.4,3.3,29.5,13.3,36.8,29.2c0.7,1.6,0.9,3.5,2.1,4.9c1-1.6,1-3.3,0.9-4.9C689.5,244.6,682.4,233.1,675.7,221.2z"/>
	<path class="st6" d="M652.1,203.6c-3,4-6.9,7.2-10.3,10.9c-3.2,3.5-6.5,7.1-8.7,11.4c-3.1,8.4-5.4,17.3-11.1,24.5
		c-2,2.6-2.2,5.6-2.6,8.6c-2.4,18.2-9.4,34.9-15.7,51.8c-3.3,8.9-8.1,17.1-11.9,25.7c-0.9,2-0.8,4.3-2.1,6.1c-1.5-0.1-1.3-1-1.4-2.3
		c0-3.2,0.7-6.4-0.5-9.6c0-1.8-0.1-3.5-0.1-5.3c3.9-5.5,5.4-12,7.7-18.2c1.4-3.7,3-7.4,4.2-11.2c2.3-7.2,3.5-14.6,3.8-22.2
		c0.1-3.5,0.2-7,0-10.5c-0.2-4.6,0.3-8.8,2.9-12.8c1.9-2.7,0.5-6.8,3.6-9.2c1.1,0.1,1.4-0.8,2-1.5c3.3-4.4,7-8.5,10.5-12.8
		c1.7-2,4.7-3.4,4.7-6.8c4.4-4.7,10.1-7.7,15.2-11.5c2.2-1.7,4.7-3.1,6.9-4.8C650.3,203.7,651.1,203.6,652.1,203.6z"/>
	<path class="st6" d="M509.6,230.1c-1.8,2.2-4.1,3.9-6.4,5.5c0.1-1.3-0.1-2.6-0.9-3.7c-10.3-14.4-20.2-29.1-30.6-43.5
		c-5.4-7.4-11.5-14.2-16.6-21.8c-1.6-2.4-4.1-4.2-5-7.1c0.8,0,1.4,0.4,2,1c12,12,24.4,23.6,35.8,36.1c7.9,8.6,15,18.1,18.9,29.5
		C507.3,227.6,508.1,229.2,509.6,230.1z"/>
	<path class="st8" d="M484.9,298.6c0.1-0.6,0.3-1.2,1-1.1c5.4,0.1,10.4-1.3,15.2-3.4c0.4,1.1,0.9,2.3,1.3,3.4
		c0.1,0.8,0.2,1.5,0.4,2.3c-3,1.6-6.4,1.3-9.6,1.7c-1-0.2-2-0.4-3.1-0.7C488.4,300.1,486.7,299.3,484.9,298.6z"/>
	<path class="st9" d="M494.6,242.1c-0.4,3.8-4.6,6.6-7.7,5.3C489.2,245.3,491.6,243.3,494.6,242.1z"/>
	<path class="st5" d="M481,110.5c-1.8,3.1-5,4.8-7.4,7.3c-1,1.1-2.2,2.1-3.2,3.1c-5.3,0.9-15.3-1.7-19.2-4.2
		c2.2-0.8,4.3,0.1,6.1,0.5c8,2,14.7-0.6,20.9-5.4C478.9,111.1,479.8,110.5,481,110.5z"/>
	<path class="st4" d="M517,164.5c-2.4,4.8-5.7,9.1-8.6,13.6c-1-0.3-1.8-0.7-1.7-1.9c3.5-3.9,5.6-8.9,9.9-12
		C516.8,164.2,516.9,164.3,517,164.5z"/>
	<path class="st5" d="M482.3,109.8c-0.3,0.6-0.8,0.7-1.4,0.7C481.2,109.9,481.8,109.8,482.3,109.8z"/>
	<path class="st3" d="M581.4,304.6c1-1.4,1.5-3.5,4-2.6C584.6,303.8,583.4,304.9,581.4,304.6z"/>
	<path class="st5" d="M586.8,301.9c0.1-0.4,0.2-0.9,0.4-1.3c0,0.5,0,1,0,1.5C587,302,586.9,302,586.8,301.9z"/>
	<path class="st5" d="M525.5,297.4c-0.1,1.1-0.1,2.2-0.2,3.3c-3.9-2.7-3.8-7.4-5.3-11.8c-3.9,6.7-9.4,10.5-16.8,11.1
		c-0.1-0.1-0.3-0.2-0.4-0.3c-0.1-0.8-0.2-1.5-0.4-2.3c1.1-0.6,2.2-0.7,3.4-0.8c6.5-0.4,13.3-6.6,14.4-13.1
		c1.2-6.2,3.4-12.2,6.6-17.6c3.5-5.9,3.5-5.8,5.7-6.6c0.3,1.3-0.8,2-1.3,2.8c-3,5.1-6.8,9.8-7.1,16.1c-1.7,0.5-1.5,1.5-0.6,2.7
		c0,0.4,0,0.9,0,1.3C522,287.6,523.7,292.5,525.5,297.4z"/>
	<path class="st8" d="M534.1,52.9c-0.2-3.9,2.1-6.7,4.8-8.5c5.6-3.8,11.5-7.1,18.5-8c4-0.5,5.6,0.9,4.9,4.9
		c-0.2,1.4-0.4,2.8-0.6,4.2c-0.9,5.9,4.9,7.8,9.5,7.6c2.8-0.2,5.3-1.1,7.7-2.2c2.7-1.2,3.8,0,4.3,2.5c0.1,0.5,0.1,1.1,0.2,1.6
		c0.6,3.2,1.4,3.7,3.9,1.7c3.3-2.5,7-4.4,9.5-7.9c0.4-0.5,0.7-1.2,1.5-1.1c0.8,0.2,0.9,0.9,0.8,1.6c-0.7,7.3-2.3,14.1-8.7,18.7
		c-0.6,0.4-1.2,0.6-1.8,0.3c-0.7-0.4-0.5-1.1-0.3-1.7c0.1-0.4,0.3-0.8,0.4-1.2c0.4-1.2,1.3-2.7,0.1-3.6c-1.2-1-2.3,0.3-3.5,0.9
		c-4.5,2.2-8.5,5.5-13.3,7c-3,0.9-5.5,0.2-7-2.9c-2.2-4.6-6.1-5.9-10.6-6c-2.9-0.1-5.7,0.3-6.4-3.7c-0.4-2.1-2.5-1.7-4.1-1.4
		c-1.9,0.4-3.7,1.1-5.7,1.1C535.2,56.8,533.9,55.6,534.1,52.9z"/>
	<path class="st2" d="M515.1,120.9c-10.3-7.2-11.8-24.3-3.1-33.4c1.9-1.9,4-2.4,6.5-1.9c0.4,0.4,0.7,0.8,1.1,1.2
		c0.1,0.2,0.3,0.4,0.4,0.6c0,0.4,0.1,0.8,0.1,1.3c-0.1,0.1-0.2,0.2-0.2,0.2c0.1,0.2,0.2,0.3,0.2,0.5c0,2.2,0,4.3,0,6.5
		c-0.1,0.1-0.2,0.2-0.2,0.2c0.1,0.2,0.2,0.3,0.3,0.5c0,0.6,0.1,1.3,0.1,1.9c-1.3,1.4-2.7,2.8-3.9,4.3c-1.1,1.4-2.7,2.8-2.9,4.3
		c-0.4,3.2,2.7,3.9,4.9,4.4c2.1,0.5,2.8,1.3,2.5,3.3c-1.5,0.2-3.3-0.2-3.8,2c-0.4,1.7,0.4,2.8,1.9,3.6
		C517.8,121.5,516.4,120.7,515.1,120.9z M519.1,94.3c-0.5-2.4-1.9-2.9-3.6-2.7c-2.8,0.5-4.6,3.8-4.4,8.3
		C512.8,96.4,514.3,93,519.1,94.3z"/>
	<path class="st1" d="M579.6,87.6c-2.9,1.6-6.3,2-9.4,3.2c-1.6,0.2-3.2,0.4-5.3,0.6c1-0.9,1.5-1.4,2.1-1.9c1.7-1.3,3.4-2.7,5.2-4
		c0,0.9,0,1.8,0,2.7l-0.3,0.1l0.1,0.1l0.2-0.3c6.3-2.7,11.8-6.7,17.2-10.8c6.9-5.2,10.9-12.2,13.7-20c1.8-4.9,1.6-10,0.9-15.1
		c-0.3-1.7-0.4-3.3,0.2-5c1,1.6,2.4,3,2.1,4.9c-0.9,5.2,1.6,9.5,3.8,13.8c0.9,1.8,1.3,3.9,3,5.3c0.8,0.6,0.7,1.8-0.3,2.6
		c-1.6-0.6-1.5-2.4-2.5-3.3c-1.1-2.3-2.3-4.6-3.8-7.6c-2,11.1-6.3,20.1-14,27.3c-2.5,1.5-4.6,3.8-7.5,4.7c-0.3,0.2-0.6,0.4-1,0.6
		c-0.3,0.4-0.9,0.7-0.8,1.3C582,87.1,580.8,87.4,579.6,87.6z"/>
	<path class="st5" d="M520.4,98.6c1,3.6,1.8,7.3,3.3,10.8c-0.7,5.2,0.9,10.3,0.5,15.5c-3.4-0.5-6.6-1.4-9.1-3.9
		c1.3-0.2,2.7,0.5,3.8-0.5c3.9-0.8,4.5-2.5,1.9-5.5c0.3-1.9-0.4-2.7-2.5-3.3c-2.2-0.5-5.3-1.2-4.9-4.4c0.2-1.5,1.8-3,2.9-4.3
		C517.7,101.4,519.1,100,520.4,98.6z M520.5,108.8c0.3-1.5,1.2-3.1-0.7-4.1c-0.6-0.3-1.5,0.2-1.7,0.7
		C517.7,107.3,519.6,107.7,520.5,108.8z"/>
	<path class="st10" d="M517,155.2c-2.5-0.1-3-1.4-2.5-3.7c0.5-2.5,0.8-5.1,1.1-7.6c1.4-6,1.8-12.3,3.8-18.3c1.3,0.4,1,1.2,1,1.8
		c-0.1,7.8-0.1,15.7-0.3,23.5C520,152.7,520.3,155.3,517,155.2z"/>
	<path class="st1" d="M635.2,147.9c0.4-1.7,0.6-3.6,1.7-5.1c1.6,5.7,4.2,11,7.1,16.1c0.3,0.6,1,0.7,1.7,0.8c-1,1.1-2,2.2-3,3.3
		c-0.5,0.1-0.8,0.3-0.9,0.8c0,0,0.1-0.1,0.1-0.1c-0.5,0-0.7,0.3-0.7,0.8c0,0,0.1-0.1,0.1-0.1c-0.5,0-0.7,0.3-0.7,0.7
		c0,0,0.1,0,0.1,0c-1.5-0.2-2.1-1.3-2.7-2.5c-1.9-3.6-3.3-7.4-3.9-11.4c0.1-0.3,0.2-0.5,0.3-0.8c0.5-0.4,1.3,2.3,1.5-0.2
		C635.8,149.4,636,148.6,635.2,147.9z"/>
	<path class="st1" d="M639,121.1c-0.4-2.8,0.4-5.5,0.5-8.2c0-1.3,0-2.7,0-4c-0.7-6.6-3.5-12.2-8.2-16.9c0,0,0,0,0,0
		c-0.1-0.4-0.3-0.7-0.4-1.1c0.7,0,1.5-0.1,2.2-0.1c0.1,0.8,0.2,1.5,1.1,1.7c0.4,0.1,0.6-0.2,0.6-0.6c-0.2-0.9-0.9-1.1-1.7-1.1
		c0.6-2.1-1.4-4.1-0.2-6.4c3.7,5.2,6.3,10.7,7.6,16.5c0.8,3.5,2.1,7.6,0,11.5c-1.3,2.4,1.6,3.8,1.5,5.9
		C640.2,118.4,640.6,120.8,639,121.1z"/>
	<path class="st1" d="M630.5,90.3c-1.1-0.7-1.5-2.4-3.2-2.3c-0.1-0.7-0.1-1.5-0.2-2.2c-5.4-6.6-10.6-13.3-14.1-21.2
		c2.4-0.1,3.2,2.2,3.6,3.5c1.2,3.8,4.4,6,6.1,9.2C625,81.8,630.9,84.2,630.5,90.3z"/>
	<path class="st2" d="M567,89.5c-2.5,0.2-4.8-1.1-7.3-0.9c3-2,6.6-2.6,9.3-5c1.2,0.4,2.9,0,3.2,1.9C570.4,86.8,568.7,88.2,567,89.5z
		"/>
	<path class="st5" d="M571.1,81c2.9-2.6,6.5-4.2,9.1-7.2c0.6-0.3,1.1-0.5,1.8-0.9C578.5,79.7,575.4,83,571.1,81z"/>
	<path class="st5" d="M639,121.1c1.6-0.3,1.2-2.7,3-2.8c-1,4.5-1.9,9.1-2.9,13.6c-0.2,1-0.1,2.2-1.2,2.8c-0.3,0-0.6-0.1-0.8-0.1
		c0.7-2.8,3-5.3,1.4-8.5C638.6,124.5,637.9,122.7,639,121.1z"/>
	<path class="st1" d="M648.8,156.3c-0.6,1.1-1.4,2-2.5,2.7C646,157.1,646.7,156.1,648.8,156.3z"/>
	<path class="st1" d="M499.9,139.4c-0.9-0.9-1.2-2-1.5-3.1C502.1,135.7,499.1,138.5,499.9,139.4z"/>
	<path class="st5" d="M630.9,90.9c0.1,0.4,0.3,0.7,0.4,1.1c-0.6-0.1-0.8-0.5-0.8-1.1C630.6,90.9,630.8,90.9,630.9,90.9z"/>
	<path class="st1" d="M498.4,136.3c-0.2-0.5-0.4-1-0.6-1.5C498.6,135,498.6,135.6,498.4,136.3z"/>
	<path class="st1" d="M649.8,155.1c-0.3,0.4-0.6,0.7-1,1.1C648.9,155.7,649.2,155.2,649.8,155.1z"/>
	<path class="st7" d="M634,151.2c0.6,4,2.1,7.8,3.9,11.4c0.6,1.2,1.2,2.3,2.7,2.5c-2.3,3.3-5.5,5.5-8.9,7.5
		c-8.7,5.2-17.9,9.5-26.3,15.1c-8.5,5.7-16.2,12.1-20.2,22c-1-0.6-2-1.2-3.1-1.8c-2.7-1.5-4.7-4.2-7.8-5.2
		c-0.8-3.4-0.1-6.9-0.5-10.3c0.1-3,0.2-6,0.3-9c2.3-0.1,4.1,1.2,6,2c6.4,2.8,12.6,2.3,18.4-1.3c10-6.1,18.9-13.6,27.6-21.4
		C629.9,159.7,631.7,155.3,634,151.2z"/>
	<path class="st5" d="M675.8,127.5c-3.9-3.3-7.9-6.6-11.8-9.9c0-0.4,0-0.8,0-1.2c3.2,1.2,5.9,3.3,8.6,5.1c3.9,2.6,7.9,3.2,12.4,2.4
		c2.8-0.5,5.6-0.7,8.6-1.1C691.1,125.2,681.5,127.6,675.8,127.5z"/>
	<path class="st5" d="M627.2,220.6c0,3.3-3,4.7-4.7,6.8c-3.5,4.2-7.2,8.3-10.5,12.8c-0.5,0.7-0.8,1.6-2,1.5c0.6-4.1,3.3-7,5.8-9.9
		C619.4,227.8,623.1,224,627.2,220.6z"/>
	<path class="st9" d="M574.4,202.8c3.1,0.9,5,3.7,7.8,5.2c1,0.6,2,1.2,3.1,1.8c-1.3,1.1-3.5,0-4.5,1.7c0-2.7-1-3.9-3.8-2.7
		C574.8,207.3,574.4,205.2,574.4,202.8z"/>
	<path class="st5" d="M586.6,290.8c0-1.1,0.1-2.2,0.1-3.3c1.3,1.6,2.2,0.7,3.2-0.8c-0.2,4.6,0,8.9-2.7,12.6
		c-0.5-1.8-0.6-3.5-0.1-5.3c1.2-0.6,1.2-1.2,0-1.8C586.9,291.8,586.7,291.3,586.6,290.8z"/>
	<path class="st7" d="M640.5,165.1c0-0.5,0.3-0.7,0.7-0.7C641,164.7,640.8,164.9,640.5,165.1z"/>
	<path class="st7" d="M641.2,164.5c0-0.5,0.3-0.7,0.7-0.8C641.7,164,641.4,164.2,641.2,164.5z"/>
	<path class="st7" d="M641.8,163.8c0.1-0.5,0.4-0.7,0.9-0.8C642.4,163.3,642.1,163.6,641.8,163.8z"/>
	<path class="st6" d="M500,289.5c3.6-1.3,7.6,0,11.2-2c1.9-1,4-1.6,5.8-3c1-0.8,2.1-1,3.3-1c-1.1,6.5-7.9,12.7-14.4,13.1
		c-1.2,0.1-2.4,0.1-3.4,0.8c-0.4-1.1-0.9-2.3-1.3-3.4C500.7,292.6,500.4,291.1,500,289.5z"/>
	<path class="st6" d="M523.6,282.3c1.6,1.6,1.8,3.8,2.1,5.8c0,0,0.2,0.1,0.2,0.1c0.2-0.1,0.3-0.2,0.5-0.3c0,1.6,0,3.2,0,4.8
		c-0.3,1.5-0.6,3.1-0.9,4.6C523.7,292.5,522,287.6,523.6,282.3z"/>
	<path class="st0" d="M587.1,292.2c1.2,0.6,1.2,1.2,0,1.8C587.1,293.4,587.1,292.8,587.1,292.2z"/>
	<path class="st6" d="M524.2,278.3c0,0.9,0.4,2-0.6,2.7C522.7,279.9,522.5,278.9,524.2,278.3z"/>
	<path class="st9" d="M613.8,148.1c-2.8,12.1-13.2,20.6-24.8,20.1c-13-0.5-23.1-9.5-24.9-22.2c-0.2-1.7-1-3.4-0.2-5.1
		c1.6,0.2,2,1.4,2.4,2.7c1.1,3.1,2.4,6.1,5.1,8.2c7.5,9.1,20.1,11.1,32.2,5.1C608.2,155.3,611.2,151.8,613.8,148.1z M573.5,157
		c-0.4-1.6-1.9-2-3.2-2.4c-0.6-0.2-1.1,0.3-1,0.9c0.3,1.6,1.7,2.3,2.9,2.9C573,158.9,573.1,157.6,573.5,157z M575.3,157.8
		c-0.7,0.2-1.3,0.7-1.2,1.6c0.3,1.3,1.5,1.7,2.6,2.1c0.7,0.3,1.4-0.2,1.2-1C577.8,159,576.8,158.2,575.3,157.8z"/>
	<path class="st11" d="M542,99.9c1.7,0.6,3.2,0.1,4.5-1c1-0.8,2-1.7,3-2.6c8-6.8,16.9-6.3,24.1,1.4c3,3.2,4.6,7.1,6.3,10.9
		c0.1,0.8,0.1,1.6,0.2,2.4c-1.4-0.1-1.4-1.6-2.2-2.3c-1.4-2.3-2.5-4.9-5-6.3c-1.5-1.9-2.9-3.9-5.9-4.3c0.6,1.9,0.8,3.6,0.4,5.3
		c-3.5-0.5-4.4,0.3-4.3,4c-5.5,0-7.8-2.6-7.5-8.6c-4.1,1.4-5.4,4.1-3.8,7.8c0.6,1.4,1.2,2.8,1.8,4.1c-4.1-2.1-7.9-4.6-10.7-8.4
		C542.2,101.8,540.6,101.3,542,99.9z"/>
	<path class="st11" d="M639.5,108.8c0,1.3,0,2.7,0,4c-3.1,1.7-5.7,4.5-9.6,4.8c0.6-0.9,1.3-1.7,1.9-2.6c2.9-4.7,0.9-9.5-4.4-11
		c-1.6-0.1-2.9-2.3-4.9-0.9c0.9,1.4,2.3,2.4,2.1,4.2c-3.6,1-4.2,2.2-2.4,5.5c-3.6,2.9-7.1,1.7-9.9-3.4c-1.8,1-2.3,3.4-4.5,3.9
		c0-1.9,1-3.3,1.9-4.8c0.8-1.1,1.7-2.3,2.5-3.4c2-2.6,4.4-4.8,7.5-6.2c6-2.6,10.8-1.3,15,4C636.2,105,636.8,107.9,639.5,108.8z"/>
	<path class="st5" d="M563.6,185.2c-4.6-4.5-9.4-8.8-13.8-13.5c-2.2-2.3-5.5-3.5-6.6-6.9c4.1,1.4,7.2,4.3,10.8,6.5
		c6,3.6,11.9,7.5,18.2,10.5c0.8,0.4,1.6,0.7,1.9,1.6c-0.1,3-0.2,6-0.3,9c-0.9,0-1.5-0.5-2.3-1C568.8,189.6,566.9,186.6,563.6,185.2z
		"/>
	<path class="st9" d="M566.8,140.6c6.3,0.7,12.6,1,18.7,2.9c5.5,1.7,11.1,2.2,16.8,1.4c3.9-0.5,7.8-0.4,11.8,0
		c-0.9,0.8-1.9,1.6-2.8,2.4c-0.2,0.2-0.3,0.4-0.5,0.6c0,0,0.1-0.1,0.1-0.1c-2.4,0.5-4.9,1.1-7.3,1.3c-11.7,1.2-22.8-1-33.4-6
		C569.3,142,567.6,141.9,566.8,140.6z"/>
	<path class="st12" d="M553.4,111c-0.6-1.4-1.2-2.8-1.8-4.1c-1.6-3.8-0.2-6.4,3.8-7.8c-0.2,6,2.1,8.6,7.5,8.6
		c1.4,1.6,2.9,2.4,4.8,0.8c1.9-1.7,0.9-3.3-0.4-4.8c0.4-1.7,0.3-3.4-0.4-5.3c3,0.3,4.4,2.4,5.9,4.3c-0.1,1.3-0.3,2.5-0.4,3.8
		c-1.2,3.9-3.7,6.7-7.4,8.4C560.9,114.3,556.9,113.3,553.4,111z"/>
	<path class="st12" d="M624.5,107.3c0.2-1.8-1.2-2.9-2.1-4.2c2-1.4,3.3,0.8,4.9,0.9c3.1,5.6,2.5,9.4-2.1,15c0,0,0,0,0,0
		c-0.2,0.2-0.5,0.4-0.7,0.6c-3.9,0.5-7.8,0.7-11.6-0.6c-2.3-1.2-2.7-4.3-5.3-5.2c0-0.1,0-0.3,0.1-0.4c2.2-0.5,2.7-2.9,4.5-3.9
		c2.8,5.1,6.3,6.2,9.9,3.4c1.9,0.9,3.6,1,4.6-1.2C627.8,109.3,626,108.3,624.5,107.3z"/>
	<path class="st5" d="M639.5,108.8c-2.7-1-3.3-3.8-4.9-5.8c-4.2-5.3-9-6.7-15-4c-3.1,1.3-5.4,3.6-7.5,6.2c-0.9,1.1-1.7,2.2-2.5,3.4
		c-0.8-2.9,1-4.9,2.5-6.8c5.1-6.2,11.6-9.5,20.1-4.9c1-1.9-1.8-3-0.9-4.9C636,96.6,638.8,102.2,639.5,108.8z"/>
	<path class="st5" d="M605.3,122.9c1.2,2,2.4,3.4,3.9,4.6c0.7,0.6,1.1,1.4,0.9,2.3c-1.1,3.8-3.1,7-6.7,8.8c-3.3,1.6-6.7,0.9-9.6-1.2
		c-1.5-1.1-4.5-2.2-3.6-4.4c1-2.3,3.2,0.1,4.9,0.2c3.2,0.1,6.3,1.3,9.5-0.7c1.9-1.2,2.6-2.2,1.8-4.4
		C605.9,126.7,604.5,125.3,605.3,122.9z"/>
	<path class="st5" d="M592.4,80.3c7.7-7.2,12-16.3,14-27.3c1.5,3,2.6,5.3,3.8,7.6c-2.4,1.1-2.7,3.7-4,5.6
		c-3.2,5.1-7.3,9.4-11.7,13.5C594,80.3,593.2,80.3,592.4,80.3z"/>
	<path class="st13" d="M565,114.7c3.7-1.7,6.2-4.5,7.4-8.4c2.2,0,2.7,3.5,5.4,2.6c0.8,0.7,0.8,2.2,2.2,2.3c0.6,2.1-0.1,3.1-2.3,3.5
		C573.4,115.5,569.2,115.7,565,114.7z"/>
	<path class="st13" d="M625.2,119c4.6-5.6,5.1-9.3,2.1-15c5.4,1.5,7.3,6.4,4.4,11c-0.6,0.9-1.2,1.7-1.9,2.6
		C628.7,119.4,626.9,118.9,625.2,119z"/>
	<path class="st11" d="M566.8,140.6c0.8,1.3,2.5,1.4,3.4,2.6c0.6,3.3,3.7,5,5.3,7.9c-1.5,0.3-2.9-0.3-4,0.9c-2.7-2.1-4-5.1-5.1-8.2
		c-0.5-1.3-0.8-2.5-2.4-2.7c-0.4-1-1.6-1.5-1.4-3C564.6,137.9,565,140.5,566.8,140.6z"/>
	<path class="st3" d="M627,85.7c0.1,0.7,0.1,1.5,0.2,2.2c-5,1.3-10.1,2.5-15.1,3.8c-0.1,0-0.3-0.2-0.9-0.7c3-3.1,6.4-4.9,10.8-5
		C623.7,86,625.4,86.7,627,85.7z"/>
	<path class="st0" d="M528.2,119c0-2,3.6-5.9,4.9-5.8c1.2,0.1,1.9,0.7,1.2,2c-1,1.7-1.3,3.6-1.5,5.6c-0.1,1.5-0.8,3-2.2,3.1
		c-1.2,0.1-1.7-1.5-1.9-2.7C528.4,120.3,528.3,119.3,528.2,119z"/>
	<path class="st11" d="M611.3,147.3c0.9-0.8,1.9-1.6,2.8-2.4c1.6,1.2-0.5,2.1-0.3,3.2c-2.7,3.7-5.6,7.2-10.1,8.8
		c-0.2-1.2-1.8-1.3-2.3-2.4c4.2-0.9,7.2-3.2,9.5-6.7c0,0-0.1,0.1-0.1,0.1C611,147.7,611.2,147.5,611.3,147.3z"/>
	<path class="st13" d="M607.7,113.8c2.5,0.9,3,4,5.3,5.2C608.2,118.2,606.9,117,607.7,113.8z"/>
	<path class="st3" d="M579.6,87.6c1.2-0.2,2.4-0.5,3.6-0.7c0.7,0.4,1.5,0.8,1.2,1.6c-0.3,1-1.3,0.4-1.9,0.2
		C581.5,88.5,580.6,88,579.6,87.6z"/>
	<path class="st7" d="M635.2,147.9c0.7,0.7,0.6,1.6,0.5,2.4c-0.2,2.5-1-0.2-1.5,0.2C634.6,149.6,634.9,148.7,635.2,147.9z"/>
	<path class="st5" d="M543.3,164.9c-0.4,0-0.7,0-1.1,0.1c-0.1-0.7-0.1-1.4-0.2-2C542.9,163.3,543.3,164,543.3,164.9z"/>
	<path class="st13" d="M624.6,119.6c0.2-0.2,0.5-0.4,0.7-0.6C625.1,119.2,625.6,120.3,624.6,119.6z"/>
	<path class="st3" d="M584,85.5c0.3-0.2,0.6-0.4,1-0.6C584.6,85.2,584.3,85.3,584,85.5z"/>
	<path class="st10" d="M520.9,114.9c2.6,3,2,4.7-1.9,5.5c-1.5-0.7-2.3-1.8-1.9-3.6C517.5,114.6,519.4,115.1,520.9,114.9z"/>
	<path class="st5" d="M519.1,94.3c-4.8-1.4-6.3,2.1-8.1,5.6c-0.2-4.5,1.6-7.8,4.4-8.3C517.1,91.4,518.6,92,519.1,94.3z"/>
	<path class="st5" d="M520.2,96c0,0.2,0,0.5,0.1,0.7c-0.1-0.2-0.2-0.3-0.3-0.5C520,96.2,520.1,96.1,520.2,96z"/>
	<path class="st5" d="M519.6,86.9c0.4,0,0.6,0.1,0.4,0.6C519.9,87.3,519.8,87.1,519.6,86.9z"/>
	<path class="st5" d="M520.2,88.8c0,0.2,0,0.5,0,0.7c-0.1-0.2-0.2-0.3-0.2-0.5C520,89,520.1,88.9,520.2,88.8z"/>
	<polygon class="st3" points="572.1,88.2 572,88.4 571.9,88.3 	"/>
	<path class="st2" d="M520.5,108.8c-0.9-1.1-2.8-1.5-2.3-3.4c0.1-0.5,1.1-1,1.7-0.7C521.7,105.7,520.8,107.3,520.5,108.8z"/>
	<path class="st3" d="M633.1,90.8c0.8,0.1,1.5,0.2,1.7,1.1c0.1,0.4-0.2,0.6-0.6,0.6C633.4,92.3,633.2,91.6,633.1,90.8
		C633.1,90.8,633.1,90.8,633.1,90.8z"/>
	<path class="st6" d="M563.6,185.2c3.2,1.4,5.1,4.4,8,6.3c0.8,0.5,1.4,1,2.3,1c0.4,3.4-0.4,6.9,0.5,10.3c0,2.4,0.4,4.5,2.5,6.1
		c0.1,0.4,0.2,0.9,0.3,1.3c-0.1,0.2-0.1,0.5-0.2,0.7c-0.5,2-1.1,3.9-1.6,5.9c-1.4-0.6-2.3-0.3-2.6,1.3c0,0,0,0,0,0
		c-1.1,0-2.1,0.1-3.1,0.7c-3.4,1.8-6.9,3.6-10.4,5.2c-1.5,0.7-3.8,1.9-4.8,0.9c-1.4-1.3,1.5-2.5,1.3-4.2c0.6-2.7,3.1-4,4.3-6.4
		c3-5.7,3-11.9,3.5-18C563.9,192.6,563.6,188.9,563.6,185.2z"/>
	<path class="st5" d="M572.8,218.1c0.3-1.6,1.2-1.9,2.6-1.3c0,0.2-0.1,0.5-0.1,0.7C574.4,217.6,573.6,217.8,572.8,218.1z"/>
	<path class="st9" d="M577,210.9c0.1-0.2,0.1-0.5,0.2-0.7C577.1,210.4,577.1,210.6,577,210.9z"/>
	<path class="st6" d="M526.6,287.4c-0.2-0.4-0.1-0.8,0.3-1.1C526.7,286.6,526.7,287,526.6,287.4z"/>
	<path class="st5" d="M555.7,220.7c0.1,1.7-2.8,2.9-1.3,4.2c1.1,0.9,3.3-0.2,4.8-0.9c3.5-1.6,7-3.3,10.4-5.2c1-0.6,2-0.7,3.1-0.7
		c-7.2,4.8-14,10.5-24.1,9C551.8,225.4,552.3,221.6,555.7,220.7z"/>
	<path class="st13" d="M610.9,147.8c-2.2,3.5-5.3,5.8-9.5,6.7c0.5,1.1,2,1.2,2.3,2.4c-12.1,6.1-24.7,4.1-32.2-5.1
		c1-1.1,2.5-0.5,4-0.9c-1.6-2.8-4.6-4.6-5.3-7.9c10.6,5.1,21.7,7.3,33.4,6C606,148.9,608.5,148.3,610.9,147.8z"/>
	<path class="st10" d="M573.5,157c-0.3,0.7-0.5,1.9-1.3,1.5c-1.2-0.6-2.6-1.3-2.9-2.9c-0.1-0.6,0.4-1.1,1-0.9
		C571.6,155,573,155.3,573.5,157z"/>
	<path class="st10" d="M575.3,157.8c1.5,0.4,2.5,1.2,2.7,2.7c0.1,0.8-0.5,1.2-1.2,1c-1.1-0.4-2.4-0.7-2.6-2.1
		C574,158.5,574.6,158,575.3,157.8z"/>
	<path class="st13" d="M567.3,103.6c1.3,1.5,2.3,3.1,0.4,4.8c-1.8,1.7-3.4,0.8-4.8-0.8C562.9,103.9,563.8,103.1,567.3,103.6z"/>
	<path class="st0" d="M577.8,108.8c-2.6,0.9-3.2-2.5-5.4-2.6c0.1-1.3,0.3-2.5,0.4-3.8C575.3,104,576.4,106.5,577.8,108.8z"/>
	<path class="st13" d="M624.5,107.3c1.6,1,3.3,1.9,2.2,4.3c-1,2.2-2.7,2.1-4.6,1.2C620.3,109.6,620.8,108.3,624.5,107.3z"/>
	<path class="st13" d="M611.3,147.3c-0.2,0.2-0.3,0.4-0.5,0.6C611,147.7,611.2,147.5,611.3,147.3z"/>
	<g>
		<g>
			<path class="st2" d="M619.3,134.9c0-0.7-0.3-2.2,0-2.9c-0.1-0.1-0.2-0.1-0.3-0.2c0.4-0.2,0.7-0.3,1.1-0.5
				c1.5-0.9,3.5-1.6,5.1-2.1c1.7-0.5,3.5,0.2,5.1-0.2c0.3,0,0.6,0.1,0.9,0.1c-0.4-1.1-0.7-2.2-1.1-3.3c-0.3-0.2-2.1,1.1-2.4,1.2
				c-5.7,2.7-11.1,5.8-13,12.3c-0.4,1.6,0.3,3.9,1.9,4.6c3.4,1.5,6.5,0.3,9.9-0.5c5.1-1.2,3-9.1-2.2-7.9c-0.3,0.1-4.4,1-3.6,1.4
				c0.6,1.5,1.3,3.1,1.9,4.6c1.6-5.5,8.3-6.1,12.3-9.1c3.7-2.7,4.3-8.6-0.4-10.8c-4.9-2.2-10.7-0.8-15.4,1.2
				c-2.2,0.9-4.8,1.6-6.3,3.5c-1.9,2.3-1.8,5.6-1.7,8.4C611.3,140.2,619.5,140.2,619.3,134.9L619.3,134.9z"/>
		</g>
	</g>
	<g>
		<g>
			<path class="st2" d="M623.5,132c-0.1-0.2-0.2-0.3-0.3-0.5c-0.6-0.9-1.4-1.6-2.5-1.9c-1-0.3-2.3-0.1-3.2,0.4
				c-0.9,0.6-1.6,1.4-1.9,2.5c-0.2,1-0.2,2.2,0.4,3.2c0.1,0.2,0.2,0.3,0.3,0.5c0.6,0.9,1.4,1.6,2.5,1.9c1,0.3,2.3,0.1,3.2-0.4
				c0.9-0.6,1.6-1.4,1.9-2.5C624.2,134.1,624.1,132.9,623.5,132L623.5,132z"/>
		</g>
	</g>
	<g>
		<g>
			<path class="st2" d="M623.3,129.6c0.8-0.3,1.6-0.7,2.4-1c0.9-0.4,1.6-1.6,1.9-2.5c0.3-1,0.1-2.3-0.4-3.2
				c-0.6-0.9-1.4-1.6-2.5-1.9c-0.4,0-0.7-0.1-1.1-0.1c-0.7,0-1.4,0.2-2.1,0.6c-0.8,0.3-1.6,0.7-2.4,1c-0.9,0.4-1.6,1.6-1.9,2.5
				c-0.3,1-0.1,2.3,0.4,3.2c0.6,0.9,1.4,1.6,2.5,1.9c0.4,0,0.7,0.1,1.1,0.1C622,130.2,622.6,130,623.3,129.6L623.3,129.6z"/>
		</g>
	</g>
	<g>
		<g>
			<path class="st2" d="M630.6,128.1c0,0.5-0.6,6.6-0.8,6.6c1-0.9,1-1,0.1-0.4c-0.4,0.3-0.9,0.5-1.4,0.7c-0.8,0.4-1.7,0.7-2.6,0.9
				c-5.1,1.4-2.9,9.4,2.2,7.9c2.9-0.8,7.2-2.2,8.8-5c0.8-1.4,0.9-3,1.2-4.6c0.3-2.1,0.5-4.1,0.7-6.2
				C639.2,122.8,631,122.9,630.6,128.1L630.6,128.1z"/>
		</g>
	</g>
	<g>
		<path class="st14" d="M576.1,357.8c-15.7,0-31.5,0-47.2,0c-0.1-0.3-0.2-0.6-0.2-0.9c1.6-9.1,0.8-18.2-0.4-27.3
			c-1.1-8.3-3.2-16.4-2.7-24.9c1.2,1.7,3.1,1.9,4.8,2.6c14.2,6.8,28.8,6.9,43.5,2.2c2.9-0.9,5.8-2.1,7.4-4.9l0,0
			c2.1,0.3,3.3-0.8,4-2.6c0.5,0,1-0.1,1.5-0.1c0.1,0.1,0.3,0.1,0.4,0.2c0,7.9,0.1,15.7,0.7,23.5c0,1.8,0.1,3.5,0.1,5.3
			c-0.2,5.5-0.6,11.1-0.7,16.6c0,2.2-0.8,3.4-2.8,4.1c-3.1,1.1-6.1,2.3-9.8,3.8c3.3,0.5,5.7-0.8,8.3,0
			C580.9,356.8,578.1,356.2,576.1,357.8z"/>
		<path class="st3" d="M489.4,105.2c-1.4-10.7-1.3-21.5,0.7-32.1c3-10.5,7.1-20.5,13.5-29.5c13.2-18.8,31.1-30,53.7-34.1
			c23.2-4.3,44.6-0.2,64.2,13.1c4.8,3.3,9.2,7.1,12.9,11.6c7.8,9.3,14.2,19.6,18.5,31c0.9,2.3,1,4.9,1.5,7.4
			c-0.5,6.6-0.5,13.2-1.7,19.7c-0.8,4.8-2.1,9.5-2.3,14.4c-0.2,1-0.5,1.9-0.6,2.9c-1.2,13.2,0.7,25.9,6.7,37.8
			c-1.3,3.4-4.3,5.4-6.6,8c-0.6,0.1-0.9,0.5-1,1.1l-0.1,0.1c-2.1-0.2-2.8,0.8-2.5,2.7c-0.2,0.2-0.4,0.4-0.6,0.6
			c-0.7,0-1.4-0.2-1.7-0.8c-2.9-5.1-5.5-10.4-7.1-16.1c-0.1-2.7,1.3-5.3,0.9-8c1.2-0.6,1-1.8,1.2-2.8c1-4.5,2-9.1,2.9-13.6
			c0.1-2.1-2.8-3.5-1.5-5.9c2-3.8,0.8-7.9,0-11.5c-1.3-5.8-3.9-11.4-7.6-16.5c-1.2,2.3,0.8,4.3,0.2,6.4l0,0c-0.7,0-1.5,0.1-2.2,0.1
			c-0.2,0-0.3,0-0.5,0c0-0.2,0-0.4,0-0.6c0.4-6.1-5.5-8.5-7.9-13c-1.7-3.2-4.9-5.4-6.1-9.2c-0.4-1.4-1.2-3.6-3.6-3.5
			c-0.1-0.2-0.1-0.4-0.1-0.6c1-0.8,1-1.9,0.3-2.6c-1.7-1.4-2.1-3.5-3-5.3c-2.2-4.3-4.7-8.6-3.8-13.8c0.3-1.9-1-3.4-2.1-4.9
			c-0.6,1.7-0.5,3.2-0.2,5c0.8,5.1,0.9,10.3-0.9,15.1c-2.8,7.8-6.8,14.8-13.7,20c-5.5,4.1-10.9,8.1-17.2,10.8c0-0.9,0-1.8,0-2.7
			c-0.4-1.9-2-1.5-3.2-1.9c-0.2-0.3-0.4-0.5-0.7-0.8c1-0.6,1.9-1.3,2.9-1.9c4.2,2.1,7.4-1.3,10.9-8c-0.7,0.3-1.3,0.6-1.8,0.9
			c-3.5-0.6-6,2.2-8.5,3.5c-4.1,2.2-8.2,4.4-12.4,6.6c-1.5,0.8-3.3,0.5-4.7,1.9c-1.3,1.3-3.3,2-5.1,1.6c-3.7-0.7-6.8,1.5-9.6,2.9
			c-5.3,2.6-10.2,6.4-13.4,11.7c-0.4,0.7-0.7,1.8-1.8,1.6c-1.1-0.2-1-1.3-1.3-2.1c-1.7-4.1-2.6-8.3-2.4-12.7
			c0.1-1.7,0.2-3.5-2.4-3.2c-2.5-0.5-4.7-0.1-6.5,1.9c-8.7,9.1-7.1,26.1,3.1,33.4c2.5,2.6,5.7,3.4,9.1,3.9c-0.1,3,0.2,6,0.9,9
			c2.5,10.8,7.6,20.2,15.6,28c0.8,2.3,0.7,4.6,0.5,6.7c-5.5-0.7-10.3-2.8-14.9-5.7c-3.2-2.1-5.4-5.6-9.4-6.6c0,0,0.1-0.8,0.2-1.2
			c3.2,0.1,3-2.5,3-4.3c0.2-7.8,0.3-15.7,0.3-23.5c0-0.5,0.4-1.3-1-1.8c-2,6-2.4,12.3-3.8,18.3c-2.8,2.3-1.1,6-2.5,8.9
			c-1.7-1.8-3.1-3.4-4.7-5c-0.8-0.8-1.9-1.2-2.4-2.5c-1.2-2.8-3.2-4.8-6.1-6l0,0c-0.8-0.9,2.2-3.7-1.5-3.1l0,0
			c0.2-0.7,0.2-1.2-0.6-1.5c-0.4-0.8-0.7-1.5-1.1-2.3C493.3,123.7,491.2,114.5,489.4,105.2z M534.1,52.9c-0.2,2.8,1.1,3.9,3.9,3.8
			c2-0.1,3.8-0.8,5.7-1.1c1.6-0.3,3.8-0.8,4.1,1.4c0.7,4.1,3.5,3.7,6.4,3.7c4.5,0.1,8.4,1.4,10.6,6c1.5,3.1,4.1,3.8,7,2.9
			c4.9-1.6,8.8-4.9,13.3-7c1.2-0.6,2.2-1.9,3.5-0.9c1.2,1,0.3,2.4-0.1,3.6c-0.1,0.4-0.3,0.8-0.4,1.2c-0.2,0.6-0.4,1.3,0.3,1.7
			c0.6,0.3,1.2,0.2,1.8-0.3c6.4-4.6,8-11.5,8.7-18.7c0.1-0.6,0-1.4-0.8-1.6c-0.8-0.2-1.1,0.5-1.5,1.1c-2.5,3.4-6.2,5.4-9.5,7.9
			c-2.6,1.9-3.3,1.5-3.9-1.7c-0.1-0.5-0.1-1.1-0.2-1.6c-0.5-2.5-1.6-3.7-4.3-2.5c-2.5,1.1-4.9,2.1-7.7,2.2
			c-4.7,0.3-10.5-1.6-9.5-7.6c0.2-1.4,0.4-2.8,0.6-4.2c0.7-4-0.9-5.3-4.9-4.9c-7,0.8-12.9,4.2-18.5,8
			C536.2,46.2,533.9,49,534.1,52.9z"/>
		<path class="st4" d="M509.6,230.1c7.5-7,14.5-14.6,21-22.5c1.9-2.4,5-3.9,5.9-7.1c1-1.2,2.4-0.8,3.7-0.8c-1.8,3.2-4.9,5.3-6.7,8.4
			c-0.6,0.3-1.1,0.7-1.3,1.4c-6,7-11.7,14.4-18.1,21.1c-10.5,11-16.3,23.9-17.8,39c-0.2,2,2.7,5.5-1.8,6.5c-0.3,0.1-0.1,1,0.4,0.9
			c2.3-0.1,1.7,1.8,2.1,3c1.1,3.2,2.1,6.4,3.1,9.6c0.4,1.5,0.7,3,1.1,4.6c-4.9,2.1-9.9,3.5-15.2,3.4c-0.6,0-0.9,0.6-1,1.1
			c-8.6-3-11.8-10-13.1-18.2c-2.4-14.4,2.8-25.3,15-33.1c3.2,1.3,7.3-1.5,7.7-5.3c2.9-2.1,5.8-4.3,8.7-6.4
			C505.5,234,507.8,232.3,509.6,230.1z"/>
		<path class="st9" d="M540.1,199.7c-1.3,0-2.7-0.4-3.7,0.8c-1.2,0.7-2.5,1.2-3.4-0.4c-5.4-9.7-14.1-15.7-23.4-21.1
			c-0.5-0.3-0.8-0.7-1.3-1c2.9-4.5,6.2-8.8,8.6-13.6c1.3,0.4,2.3,1.3,3.3,2.1c6.8,5.7,14.2,10.6,22,14.7c0.3,5.8,0.7,11.6-1.3,17.2
			C540.3,198.6,540,199,540.1,199.7L540.1,199.7z"/>
		<path class="st8" d="M587.2,299.4c0,0.4,0,0.8-0.1,1.2c-0.1,0.4-0.2,0.9-0.4,1.3c-0.5,0-1,0.1-1.5,0.1c-2.5-0.9-3,1.2-4,2.6
			c0,0,0,0,0,0c-0.7,0.2-1.5,0.3-2.1,0.7c-4.3,2.6-9.4,3.7-14.1,4.3c-8.9,1.1-18,0.3-26.7-2.5c-4.3-1.4-8.2-3.8-12.8-4.5
			c-0.1-0.6-0.1-1.3-0.2-1.9c0.1-1.1,0.1-2.2,0.2-3.3c0.3-1.5,0.6-3.1,0.9-4.6c1.1,0.8,2.2,1.7,3.4,2.5c7.5,4.9,16.2,5,24.6,6.1
			c9.2,1.1,17.5-2.1,25.7-5.7c2.5-1.1,4.8-2.5,6.4-4.8c0.2,0.5,0.3,0.9,0.5,1.4c0,0.6,0,1.2,0,1.8
			C586.6,295.8,586.7,297.6,587.2,299.4z"/>
		<path class="st3" d="M525.6,302.6c4.6,0.7,8.5,3.2,12.8,4.5c8.8,2.8,17.8,3.6,26.7,2.5c4.7-0.6,9.8-1.6,14.1-4.3
			c0.6-0.4,1.4-0.5,2.1-0.7c-1.6,2.9-4.5,4-7.4,4.9c-14.8,4.7-29.3,4.5-43.5-2.2c-1.6-0.8-3.6-1-4.8-2.6
			C525.6,304,525.6,303.3,525.6,302.6z"/>
		<path class="st2" d="M637.9,134.8c0.3,2.8-1.1,5.3-0.9,8c-1.1,1.5-1.2,3.4-1.7,5.1c-0.3,0.9-0.6,1.7-1,2.6
			c-0.1,0.3-0.2,0.5-0.3,0.8c-2.3,4-4.1,8.5-7.7,11.6c-8.7,7.8-17.6,15.2-27.6,21.4c-5.9,3.6-12,4.1-18.4,1.3c-1.9-0.8-3.8-2.2-6-2
			c-0.3-0.9-1.1-1.2-1.9-1.6c-6.4-3-12.2-6.9-18.2-10.5c-3.6-2.2-6.8-5.1-10.8-6.5l0,0c0-0.9-0.4-1.6-1.3-2c-0.4-0.3-0.9-0.7-1.3-1
			c-7.9-7.8-13-17.2-15.6-28c-0.7-3-1-6-0.9-9c0.4-5.2-1.2-10.3-0.5-15.5c1,1.7,1.6,1,2.3-0.3c2.8-4.9,5.9-9.6,10.5-13.2
			c1,0.2,1.9-0.3,2.8-0.5c3.5-1,6.8-2.9,11.1-3.2c-2.8,3.1-6.5,4.5-8.5,7.7c-1.3,1.3,0.3,1.9,0.8,2.6c2.8,3.8,6.5,6.4,10.7,8.4
			c3.5,2.3,7.5,3.3,11.6,3.7c4.2,1,8.4,0.9,12.7,0c2.3-0.5,2.9-1.4,2.3-3.5c-0.1-0.8-0.1-1.6-0.2-2.4c0.2-7.8-3.9-13.3-9.7-17.9
			c3.1-1.2,6.5-1.6,9.4-3.2c1,0.4,1.9,0.9,3,1.1c0.6,0.2,1.6,0.8,1.9-0.2c0.2-0.8-0.6-1.3-1.2-1.6c-0.1-0.6,0.4-0.9,0.8-1.3
			c0.3-0.2,0.6-0.4,1-0.6c2.9-0.9,5-3.2,7.5-4.7c0.8,0.1,1.5,0,2.1-0.5c4.4-4.1,8.5-8.4,11.7-13.5c1.2-1.9,1.5-4.6,4-5.6
			c1,1,1,2.8,2.5,3.3c0,0.2,0.1,0.4,0.1,0.6c3.5,7.9,8.7,14.6,14.1,21.2c-1.6,1-3.4,0.2-5,0.3c-4.3,0.2-7.7,1.9-10.8,5
			c0.6,0.4,0.8,0.7,0.9,0.7c5-1.2,10.1-2.5,15.1-3.8c1.7-0.1,2.1,1.6,3.2,2.3c0,0.2,0,0.4,0,0.6c0,0.6,0.2,1,0.8,1.1c0,0,0,0,0,0
			c-0.8,1.8,1.9,3,0.9,4.9c-8.5-4.6-15-1.3-20.1,4.9c-1.5,1.9-3.3,3.9-2.5,6.8c-0.9,1.5-1.9,3-1.9,4.8c0,0.1-0.1,0.3-0.1,0.4
			c-0.7,3.2,0.5,4.4,5.3,5.2c3.8,1.4,7.7,1.1,11.6,0.6c1,0.7,0.5-0.4,0.7-0.6l0,0c1.6-0.1,3.5,0.5,4.7-1.3c3.9-0.2,6.5-3,9.6-4.8
			c-0.1,2.7-1,5.5-0.5,8.2c-1.1,1.6-0.4,3.4-0.6,5.1c-5.7-6.8-15.7-6.6-22.4-1.3c-4.7,3.8-4.1,9.3,1,12.5c5.7,3.6,13.9,2.5,20-2.8
			C637.3,134.7,637.6,134.7,637.9,134.8z M566.8,140.6c-1.8-0.1-2.2-2.6-4.2-2.6c-0.2,1.5,1,2,1.4,3c-0.8,1.7,0,3.4,0.2,5.1
			c1.8,12.7,11.9,21.7,24.9,22.2c11.6,0.4,22-8,24.8-20.1c-0.2-1.1,1.9-2,0.3-3.2c-3.9-0.4-7.9-0.5-11.8,0
			c-5.7,0.8-11.3,0.3-16.8-1.4C579.4,141.6,573.1,141.3,566.8,140.6z M555.6,133.9c1.3-0.2,3-0.4,4.7-0.8c3.7-0.9,7.1-2.6,7.5-6.7
			c0.4-3.9-2.2-6.6-5.4-8.7c-5.7-3.7-12-4.4-18.5-3.2c-3.5,0.7-6.8,2.4-7.5,6.3c-0.7,3.8,1.5,6.3,4.4,8.5
			C545.1,132.6,550,133.6,555.6,133.9z M605.3,122.9c-0.8,2.4,0.6,3.8,1.1,5.3c0.8,2.2,0.2,3.3-1.8,4.4c-3.2,1.9-6.3,0.8-9.5,0.7
			c-1.7-0.1-3.9-2.5-4.9-0.2c-0.9,2.2,2.1,3.3,3.6,4.4c2.8,2,6.3,2.8,9.6,1.2c3.6-1.8,5.6-5,6.7-8.8c0.3-0.9-0.2-1.7-0.9-2.3
			C607.7,126.4,606.5,124.9,605.3,122.9z M528.2,119c0.1,0.3,0.2,1.3,0.4,2.2c0.3,1.2,0.7,2.8,1.9,2.7c1.4-0.1,2.1-1.7,2.2-3.1
			c0.1-2,0.5-3.8,1.5-5.6c0.7-1.3,0-1.9-1.2-2C531.8,113.1,528.2,116.9,528.2,119z"/>
		<path class="st1" d="M540.7,161.9c0.4,0.3,0.9,0.7,1.3,1c0.1,0.7,0.1,1.4,0.2,2c0,5.4,0.1,10.9,0.1,16.3c-7.9-4.1-15.2-9-22-14.7
			c-1-0.8-2-1.7-3.3-2.1c-0.1-0.2-0.2-0.3-0.4-0.4c0.2-1.5-1.1-2-1.9-2.8c-6.3-6.4-11.6-13.5-14.8-21.9c2.9,1.1,4.9,3.2,6.1,6
			c0.5,1.2,1.6,1.6,2.4,2.5c1.6,1.6,3.1,3.2,4.7,5c1.4-2.9-0.2-6.6,2.5-8.9c-0.4,2.6-0.6,5.1-1.1,7.6c-0.4,2.2,0,3.6,2.5,3.7
			c-0.1,0.4-0.2,1.1-0.2,1.2c4,0.9,6.1,4.5,9.4,6.6c4.6,2.9,9.4,5,14.9,5.7C541.4,166.5,541.5,164.2,540.7,161.9z"/>
		<path class="st1" d="M519.6,86.9c-0.4-0.4-0.7-0.8-1.1-1.2c2.6-0.3,2.5,1.5,2.4,3.2c-0.2,4.4,0.7,8.6,2.4,12.7
			c0.3,0.8,0.3,1.9,1.3,2.1c1.1,0.2,1.4-0.9,1.8-1.6c3.2-5.4,8.1-9.2,13.4-11.7c2.8-1.3,5.9-3.5,9.6-2.9c1.8,0.3,3.8-0.3,5.1-1.6
			c1.4-1.4,3.3-1.1,4.7-1.9c4.1-2.2,8.3-4.5,12.4-6.6c2.5-1.3,5-4.1,8.5-3.5c-2.6,2.9-6.3,4.5-9.1,7.2c-1,0.6-1.9,1.3-2.9,1.9
			c-0.5,0.1-1.1,0.1-1.6,0.4c-6.2,3.2-12.7,5.2-19.5,6.6c-4.1,0.9-7.7,3-10.6,6.1c-4.6,3.5-7.7,8.2-10.5,13.2
			c-0.8,1.3-1.3,2-2.3,0.3c-1.5-3.5-2.4-7.2-3.3-10.8c0-0.6-0.1-1.3-0.1-1.9c0-0.2,0-0.5-0.1-0.7c0-2.2,0-4.3,0-6.5
			c0-0.2,0-0.5,0-0.7c0-0.4-0.1-0.8-0.1-1.3C520.3,87.1,520,86.9,519.6,86.9z"/>
		<path class="st5" d="M536.6,95.9c2.9-3.1,6.5-5.2,10.6-6.1c6.8-1.5,13.3-3.4,19.5-6.6c0.5-0.2,1.1-0.2,1.6-0.4
			c0.2,0.3,0.4,0.5,0.7,0.8c-2.6,2.4-6.3,3-9.3,5c2.6-0.3,4.9,1.1,7.3,0.9c-0.5,0.5-1.1,1-2.1,1.9c2.1-0.2,3.7-0.4,5.3-0.6
			c5.7,4.6,9.9,10.1,9.7,17.9c-1.7-3.9-3.3-7.8-6.3-10.9c-7.2-7.7-16.1-8.2-24.1-1.4c-1,0.8-2,1.7-3,2.6c-1.3,1.1-2.8,1.6-4.5,1
			c2-3.2,5.7-4.6,8.5-7.7c-4.3,0.3-7.6,2.1-11.1,3.2C538.4,95.7,537.6,96.1,536.6,95.9z"/>
		<path class="st4" d="M586.6,290.8c-1.6,2.3-4,3.7-6.4,4.8c-8.2,3.6-16.5,6.8-25.7,5.7c-8.4-1-17.1-1.2-24.6-6.1
			c-1.2-0.8-2.3-1.7-3.4-2.5c0-1.6,0-3.2,0-4.8c0.1-0.2,0.2-0.3,0.1-0.5c0.1-0.4,0.2-0.7,0.3-1.1c1.2-6.2,2.8-12.2,7.6-16.7
			c6.6-6.1,13.1-12.2,20.3-17.6c7.3-5.5,14-11.5,16.6-20.8c1.2-4.6,2.7-9.2,4-13.8c0-0.2,0.1-0.5,0.1-0.7c0.5-2,1.1-3.9,1.6-5.9
			c0.1-0.2,0.1-0.5,0.2-0.7c-0.1-0.4-0.2-0.9-0.3-1.3c2.8-1.3,3.8-0.1,3.8,2.7c-0.6,5.4-2.1,10.7-3.8,15.9
			c-3.3,10.4-2.5,20.3,1.3,30.4c3.7,9.7,6.9,19.5,8.4,29.8C586.6,288.7,586.6,289.7,586.6,290.8z"/>
		<path class="st2" d="M526.6,287.4c0.1,0.2,0,0.4-0.1,0.5c-0.2,0.1-0.3,0.2-0.5,0.3c-0.1,0-0.2,0-0.2-0.1c-0.4-2.1-0.5-4.2-2.1-5.8
			c0-0.4,0-0.9,0-1.3c1-0.7,0.6-1.7,0.6-2.7c0.3-6.3,4.1-11,7.1-16.1c0.5-0.9,1.6-1.5,1.3-2.8c-2.2,0.7-2.3,0.7-5.7,6.6
			c-3.2,5.5-5.4,11.4-6.6,17.6c-1.2,0-2.3,0.2-3.3,1c-1.7,1.4-3.9,2-5.8,3c-3.6,1.9-7.6,0.6-11.2,2c-1-3.2-2-6.4-3.1-9.6
			c-0.4-1.2,0.1-3.1-2.1-3c-0.4,0-0.7-0.9-0.4-0.9c4.5-1,1.6-4.5,1.8-6.5c1.5-15.1,7.3-28,17.8-39c6.4-6.7,12.1-14,18.1-21.1
			c1.2,0.4,1.3,1.6,1.7,2.6c1.7,5.1,5,9.1,8.8,12.7c0.4,0.4,0.9,1.2,1.6,0.6c0.3-0.3,0.4-1,0.4-1.5c-0.3-4,0.4-7.8,1.4-11.6
			c0.2-0.6,0.9-1.3-0.2-2.1c-1.8,2.6-2,5.8-3.4,8.4c-1.1,2-1.7,2.2-3,0.1c-2.1-3.5-3.4-7.5-6-10.8c1.9-3.1,5-5.2,6.7-8.4
			c0,0-0.1,0-0.1,0c0.9,0,1-0.6,1-1.3c2-5.6,1.6-11.4,1.3-17.2c0-5.4-0.1-10.9-0.1-16.3c0.4,0,0.7,0,1.1-0.1c0,0,0,0,0,0
			c1.1,3.3,4.4,4.6,6.6,6.9c4.4,4.7,9.2,9,13.8,13.5c0,3.7,0.2,7.4-0.1,11.1c-0.5,6.1-0.5,12.3-3.5,18c-1.2,2.3-3.7,3.7-4.3,6.4
			c-3.4,0.9-3.9,4.7-7,6.3c10.1,1.6,16.9-4.2,24.1-9l0,0c0.8-0.2,1.6-0.4,2.5-0.7c-1.3,4.6-2.7,9.2-4,13.8
			c-2.5,9.4-9.3,15.3-16.6,20.8c-7.1,5.4-13.7,11.5-20.3,17.6c-4.8,4.4-6.5,10.5-7.6,16.7C526.5,286.6,526.4,286.9,526.6,287.4z"/>
		<path class="st5" d="M533.4,208.1c2.6,3.3,3.8,7.2,6,10.8c1.3,2.1,1.9,1.9,3-0.1c1.4-2.6,1.6-5.8,3.4-8.4c1.1,0.8,0.3,1.5,0.2,2.1
			c-1,3.8-1.7,7.6-1.4,11.6c0,0.5-0.1,1.2-0.4,1.5c-0.7,0.6-1.2-0.2-1.6-0.6c-3.8-3.6-7.1-7.7-8.8-12.7c-0.3-1-0.4-2.2-1.7-2.6
			C532.3,208.8,532.8,208.4,533.4,208.1z"/>
		<path class="st4" d="M541,198.5c0,0.6-0.1,1.3-1,1.3C540,199,540.3,198.6,541,198.5z"/>
		<g>
			<g>
				<path class="st2" d="M541.8,124.8c-0.5-0.5-1.9-4.1-2.2-3.3c0.4-0.9,4.6-0.8,5.8-0.8c3.7-0.1,7.4,0.4,10.9,1.5
					c2.9,0.9,8.3,4,3.1,5.8c-3.1,1.1-7.7,1.1-11,0.7c-2-0.2-3.4-1-5.1-2c-0.3,0.2-0.7,0.4-1,0.6c1.4-0.2,2.7-0.2,4.1,0
					c2.9,0.2,6.1,0.5,8.9,1.6c0.5,0.2,4.4,2.4,4.1,2.6c-0.1-1-0.3-2-0.4-3c-0.9-0.2-1.8-0.4-2.7-0.6c-3.9-0.9-7.8-1.8-11.7-2.6
					c-5.1-1.2-7.3,6.7-2.2,7.9c3.6,0.8,7.2,1.6,10.8,2.4c3.3,0.7,6.9,2,10.2,0.6c4.9-2.1,4.7-7.6,1.3-10.9
					c-4.3-4.2-10.4-5.3-16.2-5.9c-5-0.5-12.5-0.8-14,5.4c-1.3,5.1,4,9.5,8.2,11.1c6,2.2,14,1.6,20.1-0.1c5.3-1.4,8.3-6.4,6.9-11.7
					c-1.5-5.6-7-8.4-12.1-9.8c-6.1-1.7-16.6-3.3-22.3,0.4c-5.7,3.7-3.1,12.2,0.7,16.2C539.6,134.4,545.4,128.6,541.8,124.8
					L541.8,124.8z"/>
			</g>
		</g>
		<path class="st15" d="M834,356.8H650.7c-6.8,12.5-20,21-35.2,21h-142c-15.2,0-28.4-8.5-35.2-21H254c-116,0-210,94-210,210v12.5
			c0,84.5,68.5,153,153,153h694c84.5,0,153-68.5,153-153v-12.5C1044,450.8,950,356.8,834,356.8z"/>
		<path class="st16" d="M1041.2,530.8c-16.8-98.4-103-174-206.1-174H650.9c-6.8,12.2-19.9,20.5-34.9,20.5H474
			c-15,0-28.1-8.3-34.9-20.5H253.2c-103,0-189.3,75.6-206,174c-1.9,11.4-3,23.1-3,35v13c0,84.1,68.9,153,153,153h694
			c84.5,0,153-68.5,153-153v-13C1044.2,553.8,1043.1,542.1,1041.2,530.8z M998.7,530.8c-0.2-1.1-0.4-2.1-0.6-3.2
			c-0.2-0.9-0.4-1.8-0.5-2.7l-0.2-1c-0.2-0.9-0.4-1.8-0.6-2.7c-0.2-0.9-0.4-1.8-0.7-2.7c-0.3-1.3-0.7-2.6-1-4
			c-1.1-4-2.3-7.9-3.7-11.8c-0.7-1.9-1.4-3.8-2.1-5.6c-0.4-1.1-0.9-2.2-1.3-3.3c-0.4-0.9-0.8-1.8-1.1-2.7c0-0.1-0.1-0.2-0.1-0.3
			c-0.4-1-0.8-1.9-1.3-2.9c-0.9-1.9-1.8-3.8-2.7-5.7c-0.4-0.9-0.9-1.8-1.3-2.6c-1-2-2.1-4-3.2-5.9c-0.5-0.8-1-1.7-1.5-2.5
			c-0.5-0.8-1-1.7-1.5-2.5c0-0.1-0.1-0.1-0.1-0.2c-0.5-0.9-1.1-1.7-1.6-2.5c-0.1-0.2-0.2-0.4-0.3-0.5c-0.5-0.8-1-1.5-1.5-2.2
			c-0.6-0.9-1.2-1.7-1.8-2.6c-0.6-0.9-1.2-1.7-1.8-2.6c-0.6-0.9-1.2-1.7-1.8-2.5c-0.6-0.8-1.3-1.7-1.9-2.5c-0.6-0.8-1.3-1.7-1.9-2.5
			c-0.6-0.8-1.2-1.5-1.8-2.2c0-0.1-0.1-0.1-0.2-0.2c-0.7-0.8-1.3-1.6-2-2.4c-0.7-0.8-1.4-1.6-2.1-2.4c-0.7-0.8-1.4-1.5-2.1-2.3
			c-0.7-0.8-1.4-1.5-2.1-2.3s-1.4-1.5-2.2-2.3s-1.5-1.5-2.2-2.2c-0.1-0.1-0.1-0.1-0.2-0.2c-0.7-0.7-1.4-1.3-2.1-2
			c-0.7-0.7-1.4-1.3-2.1-2c-0.1-0.1-0.1-0.1-0.2-0.2c-0.8-0.7-1.5-1.4-2.3-2.1c-0.1-0.1-0.2-0.2-0.4-0.3c-0.7-0.6-1.3-1.2-2-1.7
			c-1.6-1.4-3.2-2.7-4.8-4c-0.7-0.6-1.4-1.1-2.1-1.6c-0.1-0.1-0.3-0.2-0.4-0.3c-0.8-0.6-1.7-1.3-2.5-1.9c-0.8-0.6-1.7-1.2-2.5-1.9
			c-1-0.7-1.9-1.4-2.9-2c-0.8-0.5-1.5-1-2.3-1.5c-0.9-0.6-1.7-1.1-2.6-1.7c-0.9-0.6-1.8-1.1-2.7-1.7c-0.9-0.5-1.8-1.1-2.7-1.6
			c-0.9-0.5-1.8-1.1-2.7-1.6c-0.9-0.5-1.8-1-2.8-1.5c-0.1,0-0.1-0.1-0.2-0.1c-0.8-0.5-1.7-0.9-2.6-1.4c-0.9-0.4-1.7-0.9-2.6-1.3
			c-0.1,0-0.1-0.1-0.2-0.1c-0.9-0.5-1.9-0.9-2.8-1.4c-0.7-0.4-1.5-0.7-2.2-1c-0.3-0.1-0.7-0.3-1-0.4c-0.9-0.4-1.7-0.8-2.6-1.2
			c-1-0.4-1.9-0.8-2.9-1.3c-0.8-0.3-1.7-0.7-2.5-1c-0.2-0.1-0.4-0.2-0.7-0.3c-0.7-0.3-1.4-0.5-2.1-0.8c-0.5-0.2-1-0.4-1.5-0.5
			c-0.7-0.3-1.5-0.5-2.2-0.8c-0.9-0.3-1.8-0.7-2.8-1c-0.1,0-0.2-0.1-0.3-0.1c-1-0.3-2-0.7-3-1c-0.8-0.3-1.6-0.5-2.4-0.7
			c-0.5-0.2-1-0.3-1.6-0.5c-0.8-0.2-1.5-0.4-2.3-0.6c-0.6-0.2-1.2-0.3-1.8-0.5c-0.5-0.1-1-0.3-1.6-0.4c-0.5-0.1-1-0.2-1.4-0.4
			c-0.7-0.2-1.4-0.3-2.2-0.5c-0.7-0.2-1.4-0.3-2.2-0.5c-0.2,0-0.3-0.1-0.5-0.1c-0.6-0.1-1.1-0.2-1.7-0.3c0,0-0.1,0-0.2,0
			c0,0-0.1,0-0.1,0c-1.5-0.3-3.1-0.6-4.6-0.9c-1.1-0.2-2.2-0.4-3.3-0.5c-1.3-0.2-2.6-0.4-3.9-0.6c-0.8-0.1-1.6-0.2-2.4-0.3
			c-0.8-0.1-1.6-0.2-2.4-0.3c-0.8-0.1-1.6-0.2-2.4-0.2c-0.4,0-0.9-0.1-1.3-0.1c-0.6,0-1.1-0.1-1.7-0.1c-2.4-0.2-4.9-0.3-7.4-0.4
			c-0.7,0-1.3-0.1-2-0.1c-0.8,0-1.7,0-2.5-0.1c-0.8,0-1.7,0-2.5,0H265.3c-88.6,0-162.2,64-177.2,148.3c-1.8,10.3-2.8,20.9-2.8,31.8
			v7.8c0,71.8,58.2,130,130,130h656.2c1.1,0,2.2,0,3.3,0c0.8,0,1.5,0,2.3-0.1c0.7,0,1.5-0.1,2.2-0.1c0.7,0,1.4-0.1,2.1-0.1
			c0.4,0,0.9-0.1,1.3-0.1c0.6,0,1.3-0.1,1.9-0.2c1.3-0.1,2.6-0.3,3.9-0.5c0.7-0.1,1.4-0.2,2.1-0.3c1.3-0.2,2.6-0.4,3.9-0.6
			c0.4-0.1,0.9-0.2,1.3-0.2c0,0,0.1,0,0.1,0c0.5-0.1,1-0.2,1.5-0.3c0.8-0.2,1.6-0.3,2.4-0.5c0.6-0.1,1.3-0.3,2-0.5
			c1.1-0.3,2.3-0.6,3.4-0.9c0.5-0.1,0.9-0.3,1.4-0.4c1.3-0.4,2.5-0.7,3.8-1.1c0.7-0.2,1.3-0.4,2-0.6c4.6-1.5,9.1-3.3,13.5-5.3
			c0.4-0.2,0.8-0.4,1.2-0.5c2.8-1.3,5.6-2.8,8.3-4.3c0.9-0.5,1.8-1,2.7-1.5c7.2-4.3,14-9.3,20.2-14.8c0.7-0.6,1.3-1.2,1.9-1.8
			c2.1-1.9,4-3.9,6-5.9c0.5-0.6,1.1-1.1,1.6-1.7c0.2-0.2,0.4-0.4,0.6-0.7c0.4-0.4,0.8-0.8,1.1-1.3c0.4-0.5,0.9-1,1.3-1.5
			c0.2-0.3,0.4-0.5,0.7-0.8c0.8-0.9,1.5-1.8,2.3-2.8c0.4-0.6,0.9-1.1,1.3-1.7c1.1-1.5,2.2-2.9,3.2-4.4c0.3-0.4,0.5-0.8,0.8-1.1
			c0,0,0.1-0.1,0.1-0.1c0.6-0.8,1.1-1.7,1.7-2.6c0.1-0.2,0.3-0.4,0.4-0.6c0.4-0.6,0.8-1.2,1.2-1.8c0-0.1,0.1-0.1,0.1-0.2
			c0.3-0.5,0.7-1.1,1-1.7c0.4-0.6,0.7-1.2,1.1-1.9c0.7-1.3,1.4-2.5,2.1-3.8c0.3-0.6,0.7-1.3,1-1.9c0.3-0.5,0.5-1,0.8-1.6
			c0.5-1.1,1-2.2,1.5-3.3c0.3-0.5,0.5-1.1,0.7-1.6c1.4-3.1,2.6-6.3,3.7-9.5c0.5-1.5,1-3,1.5-4.5c0.2-0.5,0.3-1,0.4-1.5
			c0.1-0.5,0.3-1,0.4-1.5c0.1-0.5,0.3-1,0.4-1.5c0.1-0.5,0.3-1,0.4-1.5c0.1-0.5,0.3-1,0.4-1.5c0.1-0.5,0.2-1,0.4-1.5s0.2-1,0.3-1.5
			c0.1-0.5,0.2-1.1,0.3-1.6c0.2-1,0.4-2,0.6-3.1c0.1-0.4,0.1-0.8,0.2-1.3c0-0.3,0.1-0.5,0.1-0.8c0.1-0.6,0.2-1.2,0.3-1.8
			c0.1-0.6,0.2-1.2,0.3-1.8c0.1-0.6,0.2-1.2,0.2-1.9s0.1-1.2,0.2-1.9c0.1-0.5,0.1-1.1,0.2-1.7c0.1-0.6,0.1-1.2,0.1-1.7
			c0-0.5,0.1-1.1,0.1-1.6c0-0.3,0-0.6,0.1-0.9c0-0.4,0-0.9,0.1-1.3c0-0.2,0-0.4,0-0.5c0-0.5,0-1.1,0-1.6c0-0.4,0-0.9,0-1.3
			c0-0.8,0-1.7,0-2.5v-7.8C1001.5,551.7,1000.5,541.1,998.7,530.8z"/>
		<path class="st17" d="M871.8,699.6h-656c-71.8,0-130-58.2-130-130v-7c0-99.4,80.6-180,180-180h556c99.4,0,180,80.6,180,180v7
			C1001.8,641.4,943.6,699.6,871.8,699.6z"/>
		<path class="st18" d="M1047.5,686.8c-39.6,60.7-97.7,99-162.4,99H205.6c-62.6,0-118.9-35.8-158.4-93c0.9,1.1,1.9,2.1,2.8,3.1
			c7,8.6,14.7,16.5,23.1,23.7c31.4,27,72.1,43.3,116.3,43.3h27.2v4c0-1.3,0.1-2.7,0.2-4H901c46.5,0,89-18,121.1-47.5
			c8.7-8,16.7-16.9,23.7-26.5C1046.4,688.1,1046.9,687.4,1047.5,686.8z"/>
		<path class="st19" d="M877.1,785.8c-14,27-52.9,46.5-98.7,46.5H664.8c-17.5-18.7-54.8-32.2-99-34.2c-3.9-0.2-7.8-0.3-11.8-0.3
			c-4.1,0-8.1,0.1-12,0.3c-44.1,2.1-81.3,15.6-98.8,34.2H401c0-0.4,0.1-0.7,0.2-1.1c-0.1,0.4-0.2,0.7-0.3,1.1h-72.2
			c-45.8,0-84.8-19.5-98.7-46.5H877.1z"/>
		<path class="st20" d="M1078.9,547.8c-15-121.2-119-215.8-244.1-215.8H640.8c-6.1,14.3-20.3,24.3-36.8,24.3H485
			c-16.5,0-30.7-10-36.8-24.3H255.3c-125.1,0-229.2,94.6-244.1,215.8c-1.2,9.9-1.9,20-1.9,30.2v5.1c0,43,15.3,82.6,40.7,113.7
			c0.1,0.2,0.3,0.3,0.4,0.5l0,0c6.8,8.3,14.4,16,22.6,23c31.4,26.7,72,42.8,116.3,42.8h711.5c46.5,0,89-17.8,121-47
			c8.7-8,16.7-16.8,23.7-26.3c0.1-0.1,0.2-0.2,0.2-0.3c0,0,0,0,0,0c22-29.8,35-66.6,35-106.3v-5.1
			C1080.7,567.7,1080.1,557.6,1078.9,547.8z M50.5,514.8c0.2-0.8,0.4-1.5,0.6-2.2c0.2-0.7,0.4-1.5,0.6-2.2c0.2-0.7,0.4-1.5,0.6-2.2
			c0.2-0.7,0.4-1.4,0.6-2.1c0-0.1,0.1-0.2,0.1-0.3c0.2-0.7,0.4-1.3,0.6-2c0.2-0.7,0.5-1.5,0.7-2.2c0.2-0.7,0.5-1.4,0.7-2.1
			c0,0,0,0,0-0.1c0.3-0.8,0.5-1.6,0.8-2.4c0-0.1,0.1-0.3,0.2-0.4c0-0.1,0.1-0.3,0.1-0.4c0,0,0,0,0-0.1c0.3-1,0.7-2,1.1-2.9
			c0.1-0.3,0.2-0.6,0.3-0.9c0.3-0.8,0.6-1.6,1-2.5c0.6-1.6,1.2-3.1,1.9-4.6c0.2-0.5,0.4-0.9,0.6-1.4c0.6-1.5,1.3-2.9,1.9-4.4
			c0.2-0.4,0.4-0.8,0.5-1.2c0-0.1,0-0.1,0.1-0.1c0.2-0.4,0.4-0.8,0.6-1.3c0.2-0.4,0.4-0.8,0.6-1.2c0,0,0-0.1,0.1-0.1
			c0.7-1.4,1.4-2.8,2.1-4.2c0.4-0.8,0.8-1.5,1.2-2.3c0,0,0,0,0,0c0.1-0.3,0.3-0.5,0.4-0.8c0.2-0.4,0.5-0.9,0.7-1.3
			c0.3-0.5,0.5-1,0.8-1.5c1.3-2.3,2.5-4.5,3.9-6.7c0.3-0.5,0.7-1.1,1-1.6s0.7-1.1,1-1.6c0.2-0.3,0.3-0.5,0.5-0.8
			c0.2-0.2,0.3-0.5,0.5-0.7c0.2-0.3,0.3-0.6,0.5-0.9c0.2-0.3,0.4-0.6,0.6-0.9c0.4-0.5,0.7-1.1,1.1-1.6c0.4-0.5,0.7-1.1,1.1-1.6
			c0,0,0,0,0,0c0.5-0.8,1.1-1.6,1.6-2.3c0.5-0.8,1.1-1.5,1.6-2.3c0.5-0.8,1.1-1.5,1.7-2.3c0.6-0.8,1.1-1.5,1.7-2.3
			c0.1-0.1,0.1-0.2,0.2-0.2c0.8-1,1.6-2,2.4-3c0.1-0.1,0.1-0.2,0.2-0.3c0.8-1,1.5-1.9,2.3-2.9c0.8-0.9,1.6-1.9,2.4-2.8
			c0.8-1,1.7-2,2.5-2.9c0,0,0,0,0,0c0.9-1,1.7-1.9,2.6-2.8c0.9-0.9,1.8-1.9,2.6-2.8c0.9-0.9,1.8-1.9,2.7-2.8
			c0.9-0.9,1.8-1.8,2.7-2.7c0.9-0.9,1.8-1.8,2.8-2.7c0.5-0.4,0.9-0.9,1.4-1.3c0.5-0.4,1-0.9,1.4-1.3c0.9-0.9,1.9-1.7,2.9-2.6
			c0.5-0.4,1-0.8,1.4-1.3c0.5-0.4,1-0.8,1.5-1.2c0,0,0,0,0.1-0.1c1-0.8,2-1.6,2.9-2.4c1.2-0.9,2.3-1.8,3.5-2.8
			c0.9-0.7,1.7-1.3,2.6-2c0.3-0.2,0.6-0.4,0.8-0.6c0.4-0.3,0.8-0.6,1.3-0.9c0.3-0.2,0.7-0.5,1-0.7c0.5-0.4,1-0.8,1.6-1.1
			c0.5-0.4,1-0.7,1.6-1.1c0.8-0.6,1.6-1.1,2.4-1.6c0.6-0.4,1.3-0.9,1.9-1.3c1-0.6,2-1.3,2.9-1.9c0.8-0.5,1.6-1,2.5-1.5
			c0.5-0.3,1.1-0.7,1.6-1c1.1-0.7,2.2-1.3,3.3-2c0.6-0.3,1.1-0.6,1.7-1c1.1-0.6,2.3-1.3,3.4-1.9c0.6-0.3,1.1-0.6,1.7-0.9
			c0.6-0.3,1.1-0.6,1.7-0.9c2.4-1.2,4.8-2.4,7.2-3.6c0.5-0.2,1-0.5,1.5-0.7c0.8-0.4,1.6-0.8,2.5-1.1c2.3-1,4.7-2,7-3
			c1.1-0.4,2.1-0.8,3.2-1.3c0.6-0.2,1.1-0.4,1.7-0.7c1.2-0.5,2.4-0.9,3.7-1.3c0.5-0.2,1-0.4,1.6-0.5c0.4-0.1,0.8-0.3,1.2-0.4
			c0.1,0,0.2-0.1,0.3-0.1c1.1-0.4,2.2-0.7,3.3-1.1c1-0.3,1.9-0.6,2.9-0.9c0.6-0.2,1.3-0.4,1.9-0.6c0.9-0.3,1.9-0.5,2.8-0.8
			c0.7-0.2,1.5-0.4,2.2-0.6c1.4-0.4,2.9-0.7,4.3-1.1c0.7-0.2,1.5-0.4,2.2-0.5c0.6-0.2,1.3-0.3,1.9-0.4c0.1,0,0.3-0.1,0.4-0.1
			c0.9-0.2,1.8-0.4,2.8-0.6c0.2-0.1,0.5-0.1,0.7-0.1c0.4-0.1,0.7-0.1,1.1-0.2c0.1,0,0.2,0,0.3-0.1c0.4-0.1,0.8-0.1,1.2-0.2
			c0.8-0.1,1.5-0.3,2.3-0.4c0.6-0.1,1.3-0.2,1.9-0.3c0.4-0.1,0.9-0.1,1.3-0.2c0.1,0,0.3,0,0.4-0.1c0.5-0.1,0.9-0.1,1.4-0.2
			c1.6-0.2,3.3-0.5,4.9-0.7c0.6-0.1,1.1-0.1,1.7-0.2c0.5,0,0.9-0.1,1.4-0.2c0.7-0.1,1.3-0.1,2-0.2c0.6-0.1,1.3-0.1,1.9-0.2
			c1.1-0.1,2.2-0.2,3.2-0.3c0.7,0,1.4-0.1,2-0.1c0.9-0.1,1.8-0.1,2.7-0.2c0.9,0,1.7-0.1,2.6-0.1h0c0.4,0,0.9,0,1.3,0
			c0.6,0,1.2,0,1.8,0c0.5,0,1.1,0,1.6,0c0.2,0,0.4,0,0.6,0c0.2,0,0.4,0,0.6,0c0.7,0,1.4,0,2.1,0h185.9c6.8,12.2,19.9,20.5,34.9,20.5
			h142c0.4,0,0.8,0,1.2,0c0.2,0,0.4,0,0.5,0c0.4,0,0.7,0,1.1-0.1c0.3,0,0.5,0,0.8-0.1c0.1,0,0.3,0,0.4,0c0.2,0,0.3,0,0.5,0
			c0.2,0,0.3,0,0.5-0.1c0.3,0,0.6-0.1,0.9-0.1c0.9-0.1,1.7-0.3,2.6-0.5c0.3,0,0.5-0.1,0.8-0.2c0,0,0,0,0,0c0.6-0.1,1.1-0.3,1.6-0.4
			c0,0,0.1,0,0.1,0c0.4-0.1,0.8-0.2,1.2-0.4c0.4-0.1,0.7-0.2,1.1-0.4c0.7-0.2,1.4-0.5,2-0.8c0.3-0.1,0.6-0.2,0.9-0.4
			c0.3-0.1,0.6-0.3,0.9-0.4c0.2-0.1,0.4-0.2,0.6-0.3c0.5-0.3,1-0.5,1.5-0.8c0.3-0.2,0.6-0.3,0.8-0.5c0.5-0.3,1-0.6,1.5-0.9
			c0.4-0.3,0.8-0.5,1.2-0.8c0.2-0.1,0.4-0.3,0.7-0.5c0.1,0,0.1-0.1,0.2-0.1c0.2-0.2,0.5-0.3,0.7-0.5c0.2-0.2,0.5-0.3,0.7-0.5
			c0.2-0.2,0.5-0.4,0.7-0.6c0.7-0.6,1.4-1.2,2.1-1.9c0,0,0,0,0,0s0,0,0,0c0,0,0,0,0,0c1.3-1.2,2.4-2.5,3.5-3.9
			c0.3-0.3,0.5-0.6,0.7-0.9c0.2-0.2,0.4-0.5,0.5-0.8c0.3-0.3,0.5-0.7,0.7-1c0-0.1,0.1-0.1,0.1-0.2c0.2-0.4,0.5-0.7,0.7-1.1
			c0.3-0.5,0.6-0.9,0.8-1.4h184.2c103,0,189.3,75.6,206.1,174c0.2,1.4,0.5,2.8,0.7,4.2c0.4,2.8,0.8,5.7,1.1,8.5
			c0.1,0.4,0.1,0.9,0.1,1.3v0c0.1,1,0.2,1.9,0.3,2.9c0.1,1.5,0.3,3,0.3,4.5c0,0.6,0.1,1.2,0.1,1.8c0,0.3,0,0.5,0,0.7
			c0.1,1.2,0.1,2.4,0.2,3.6c0,0.2,0,0.4,0,0.6c0,1.2,0.1,2.3,0.1,3.5c0,1.1,0,2.2,0,3.3v13c0,1,0,1.9,0,2.8c0,3-0.2,6-0.4,8.9
			c0,0.6-0.1,1.2-0.1,1.9c-0.1,0.7-0.1,1.3-0.2,2c-0.1,0.9-0.2,1.9-0.3,2.8c0,0,0,0,0,0.1c0,0.1,0,0.2,0,0.3
			c-0.1,0.9-0.2,1.8-0.4,2.7c0,0.2,0,0.3-0.1,0.5c0,0.4-0.1,0.7-0.2,1.1c0,0.3-0.1,0.6-0.1,0.9c-0.1,0.4-0.1,0.8-0.2,1.3
			c-0.1,0.6-0.2,1.3-0.3,1.9c-0.1,0.5-0.2,1-0.3,1.5c0,0.1,0,0.2-0.1,0.3c-0.1,0.7-0.3,1.4-0.4,2.1c-0.2,0.9-0.4,1.7-0.6,2.6
			c-0.2,0.8-0.4,1.6-0.5,2.4c-0.1,0.3-0.2,0.7-0.3,1.1c0,0.1-0.1,0.3-0.1,0.4c-0.2,0.7-0.3,1.3-0.5,2c-0.2,0.9-0.5,1.8-0.7,2.7
			c0,0.1,0,0.2-0.1,0.2c-0.1,0.3-0.2,0.7-0.3,1c-0.1,0.3-0.2,0.7-0.3,1c-0.1,0.3-0.1,0.5-0.2,0.8c-0.1,0.3-0.1,0.5-0.2,0.8
			c-0.1,0.5-0.3,0.9-0.4,1.3c-0.1,0.2-0.2,0.5-0.2,0.7c-0.1,0.4-0.3,0.9-0.4,1.3c0,0.1-0.1,0.2-0.1,0.3c-0.2,0.5-0.3,1-0.5,1.4
			c-0.5,1.4-1,2.7-1.5,4.1c-0.2,0.5-0.4,1-0.6,1.5c-0.2,0.6-0.5,1.2-0.7,1.8c-0.2,0.5-0.4,0.9-0.6,1.4c-0.5,1.1-1,2.3-1.5,3.5
			c-0.2,0.5-0.5,1.1-0.8,1.6c-0.4,0.8-0.8,1.6-1.2,2.5c-0.2,0.4-0.4,0.8-0.6,1.3c-0.2,0.4-0.4,0.8-0.6,1.3c0,0.1-0.1,0.1-0.1,0.2
			c-0.2,0.4-0.4,0.8-0.6,1.2c-0.2,0.4-0.4,0.8-0.6,1.2c-0.6,1.1-1.1,2.1-1.7,3.2c-0.3,0.6-0.7,1.2-1.1,1.8c-0.1,0.2-0.2,0.3-0.3,0.5
			c-0.4,0.7-0.9,1.4-1.3,2.1c-0.5,0.8-1,1.7-1.5,2.5c-0.5,0.8-1,1.6-1.5,2.3c-0.5,0.8-1,1.5-1.6,2.3c0,0,0,0,0,0
			c-0.5,0.8-1.1,1.5-1.6,2.2c-0.5,0.8-1.1,1.5-1.6,2.3c-0.3,0.3-0.5,0.7-0.8,1c-0.4,0.5-0.8,1.1-1.3,1.6c-0.4,0.6-0.9,1.1-1.3,1.7
			c-0.8,1-1.5,1.9-2.3,2.8c-0.6,0.7-1.1,1.3-1.7,2c0,0,0,0-0.1,0.1c-0.6,0.7-1.3,1.4-1.9,2.1c-0.2,0.3-0.5,0.5-0.7,0.8
			c-0.5,0.6-1,1.1-1.5,1.6c-1,1.1-2.1,2.2-3.1,3.2c-0.8,0.8-1.6,1.5-2.3,2.3c-0.4,0.4-0.7,0.7-1.1,1.1c-0.1,0.1-0.2,0.2-0.3,0.3
			c-0.9,0.8-1.7,1.6-2.6,2.4c-1.1,1-2.2,1.9-3.3,2.8c-0.7,0.6-1.3,1.1-2,1.7c-0.8,0.6-1.5,1.2-2.3,1.8c-0.7,0.6-1.5,1.1-2.2,1.7
			c-0.8,0.6-1.7,1.3-2.6,1.9c-0.6,0.4-1.2,0.9-1.8,1.3c-1.1,0.8-2.2,1.5-3.3,2.3c-0.6,0.4-1.3,0.8-1.9,1.2c-0.8,0.5-1.6,1-2.5,1.5
			c-1.3,0.8-2.6,1.6-4,2.3c-0.4,0.2-0.7,0.4-1.1,0.6c-1.6,0.9-3.3,1.8-4.9,2.6c-0.3,0.1-0.6,0.3-0.8,0.4c-0.7,0.3-1.3,0.7-2,1
			c-0.7,0.4-1.4,0.7-2.2,1c-0.2,0.1-0.4,0.2-0.6,0.3c-0.6,0.3-1.3,0.6-1.9,0.8c-0.1,0-0.1,0-0.1,0.1c-2.8,1.3-5.7,2.4-8.7,3.5
			c-0.8,0.3-1.6,0.6-2.3,0.8c-0.7,0.2-1.4,0.5-2.1,0.7c-0.5,0.2-1.1,0.4-1.6,0.5c-0.8,0.3-1.6,0.5-2.4,0.8c-1,0.3-1.9,0.6-2.9,0.8
			c-0.8,0.2-1.6,0.4-2.3,0.6c-0.4,0.1-0.8,0.2-1.2,0.3c-1.8,0.5-3.5,0.9-5.3,1.3c-0.5,0.1-1.1,0.2-1.6,0.3c-0.3,0.1-0.5,0.1-0.8,0.2
			c-0.6,0.1-1.1,0.2-1.7,0.3c-0.7,0.1-1.4,0.3-2.1,0.4c-0.9,0.2-1.7,0.3-2.6,0.4c-0.8,0.1-1.7,0.3-2.5,0.4c-0.8,0.1-1.7,0.2-2.5,0.3
			c-0.1,0-0.3,0-0.4,0.1c-0.4,0.1-0.9,0.1-1.3,0.2c-1.4,0.2-2.8,0.3-4.3,0.4c-0.6,0-1.1,0.1-1.7,0.1c-0.1,0-0.3,0-0.5,0
			c-0.1,0-0.2,0-0.3,0c-0.4,0-0.8,0.1-1.2,0.1c-0.2,0-0.3,0-0.4,0c-0.1,0-0.2,0-0.3,0c-0.7,0-1.4,0.1-2.2,0.1c-0.7,0-1.4,0.1-2,0.1
			c-0.7,0-1.4,0-2.1,0c-0.9,0-1.9,0-2.8,0h-694c-84.1,0-153-68.9-153-153v-13c0-1.1,0-2.2,0-3.3c0-1.2,0-2.3,0.1-3.5
			c0-0.2,0-0.4,0-0.6c0-1.2,0.1-2.4,0.2-3.6c0-0.2,0-0.5,0-0.7c0-0.6,0.1-1.2,0.1-1.8c0.1-1.5,0.2-3,0.3-4.5c0.1-1,0.2-2,0.3-2.9v0
			c0.1-0.4,0.1-0.9,0.1-1.3c0.3-2.8,0.7-5.7,1.1-8.5c0.2-1.4,0.4-2.8,0.7-4.2c0.1-0.8,0.3-1.6,0.4-2.4c0.3-1.5,0.5-2.9,0.8-4.3
			c0.1-0.3,0.1-0.6,0.2-0.9c0.1-0.7,0.3-1.3,0.4-2c0.1-0.5,0.2-0.9,0.3-1.4c0.2-1,0.5-2,0.7-3.1c0-0.1,0-0.2,0.1-0.3
			c0.1-0.3,0.2-0.6,0.2-1C50.4,515.2,50.4,515,50.5,514.8z"/>
		<path class="st21" d="M1078.9,547.8H11.1c15-121.3,119-216,244.1-216h192.9c6.1,14.3,20.3,24.3,36.8,24.3h119
			c16.5,0,30.7-10,36.8-24.3h193.9C959.8,331.8,1063.9,426.4,1078.9,547.8z"/>
		<radialGradient id="SVGID_1_" cx="543.8201" cy="541.08" r="336.0871" gradientUnits="userSpaceOnUse">
			<stop  offset="0" style="stop-color:#01AC42"/>
			<stop  offset="0.2347" style="stop-color:#01A33D"/>
			<stop  offset="0.6172" style="stop-color:#008B2F"/>
			<stop  offset="1" style="stop-color:#006C1E"/>
		</radialGradient>
		<path class="st22" d="M993.8,558.1v11c0,67-52.8,121.7-119,124.9c-2,0.1-4,0.1-6,0.1h-650c-0.8,0-1.5,0-2.3,0
			c-68-1.2-122.7-56.7-122.7-125v-11c0-9.3,0.8-18.4,2.2-27.3c13.1-80.9,83.2-142.7,167.8-142.7h560c84.6,0,154.7,61.8,167.8,142.7
			C993.1,539.7,993.8,548.8,993.8,558.1z"/>
	</g>
</g>
</svg>
