<?xml version="1.0" encoding="utf-8"?>
<!-- Generator: Adobe Illustrator 22.1.0, SVG Export Plug-In . SVG Version: 6.00 Build 0)  -->
<svg version="1.1" id="Layer_1" xmlns="http://www.w3.org/2000/svg" xmlns:xlink="http://www.w3.org/1999/xlink" x="0px" y="0px"
	 viewBox="0 0 1920 1080" style="enable-background:new 0 0 1920 1080;" xml:space="preserve">
<style type="text/css">
	.st0{fill:#CF5C30;stroke:#CF5C30;stroke-width:2;stroke-miterlimit:10;}
	.st1{fill:none;}
	.st2{fill:#EDE234;stroke:#EDE234;stroke-width:2;stroke-miterlimit:10;}
	.st3{opacity:0.97;fill:#3A1307;}
	.st4{opacity:0.97;fill:none;}
	.st5{opacity:0.97;fill:#180601;}
	.st6{opacity:0.95;fill:#57230C;}
	.st7{opacity:0.1;fill:#FFFFFF;stroke:#000000;stroke-width:0.2222;stroke-miterlimit:10;}
	.st8{fill:url(#SVGID_1_);}
</style>
<path class="st0" d="M1240.5,404h-183.3c-6.8,12.5-20,21-35.2,21H880c-15.2,0-28.4-8.5-35.2-21H660.5c-116,0-210,94-210,210v12.5
	c0,84.5,68.5,153,153,153h694c84.5,0,153-68.5,153-153V614C1450.5,498,1356.5,404,1240.5,404z"/>
<path class="st1" d="M1447.7,578c-16.8-98.4-103-174-206.1-174h-184.2c-6.8,12.2-19.9,20.5-34.9,20.5h-142c-15,0-28.1-8.3-34.9-20.5
	H659.7c-103,0-189.3,75.6-206,174c-1.9,11.4-3,23.1-3,35v13c0,84.1,68.9,153,153,153h694c84.5,0,153-68.5,153-153v-13
	C1450.7,601.1,1449.7,589.4,1447.7,578z M1405.2,578c-0.2-1.1-0.4-2.1-0.6-3.2c-0.2-0.9-0.4-1.8-0.5-2.7l-0.2-1
	c-0.2-0.9-0.4-1.8-0.6-2.7c-0.2-0.9-0.4-1.8-0.7-2.7c-0.3-1.3-0.7-2.6-1-4c-1.1-4-2.3-7.9-3.7-11.8c-0.7-1.9-1.4-3.8-2.1-5.6
	c-0.4-1.1-0.9-2.2-1.3-3.3c-0.4-0.9-0.8-1.8-1.1-2.7c0-0.1-0.1-0.2-0.1-0.3c-0.4-1-0.8-1.9-1.3-2.9c-0.9-1.9-1.8-3.8-2.7-5.7
	c-0.4-0.9-0.9-1.8-1.3-2.6c-1-2-2.1-4-3.2-5.9c-0.5-0.8-1-1.7-1.5-2.5c-0.5-0.8-1-1.7-1.5-2.5c0-0.1-0.1-0.1-0.1-0.2
	c-0.5-0.9-1.1-1.7-1.6-2.5c-0.1-0.2-0.2-0.4-0.3-0.5c-0.5-0.8-1-1.5-1.5-2.2c-0.6-0.9-1.2-1.7-1.8-2.6c-0.6-0.9-1.2-1.7-1.8-2.6
	c-0.6-0.9-1.2-1.7-1.8-2.5c-0.6-0.8-1.3-1.7-1.9-2.5c-0.6-0.8-1.3-1.7-1.9-2.5c-0.6-0.8-1.2-1.5-1.8-2.2c0-0.1-0.1-0.1-0.2-0.2
	c-0.7-0.8-1.3-1.6-2-2.4c-0.7-0.8-1.4-1.6-2.1-2.4c-0.7-0.8-1.4-1.5-2.1-2.3c-0.7-0.8-1.4-1.5-2.1-2.3s-1.4-1.5-2.2-2.3
	s-1.5-1.5-2.2-2.2c-0.1-0.1-0.1-0.1-0.2-0.2c-0.7-0.7-1.4-1.3-2.1-2c-0.7-0.7-1.4-1.3-2.1-2c-0.1-0.1-0.1-0.1-0.2-0.2
	c-0.8-0.7-1.5-1.4-2.3-2.1c-0.1-0.1-0.2-0.2-0.4-0.3c-0.7-0.6-1.3-1.2-2-1.7c-1.6-1.4-3.2-2.7-4.8-4c-0.7-0.6-1.4-1.1-2.1-1.6
	c-0.1-0.1-0.3-0.2-0.4-0.3c-0.8-0.6-1.7-1.3-2.5-1.9c-0.8-0.6-1.7-1.2-2.5-1.9c-1-0.7-1.9-1.4-2.9-2c-0.8-0.5-1.5-1-2.3-1.5
	c-0.9-0.6-1.7-1.1-2.6-1.7c-0.9-0.6-1.8-1.1-2.7-1.7c-0.9-0.5-1.8-1.1-2.7-1.6c-0.9-0.5-1.8-1.1-2.7-1.6c-0.9-0.5-1.8-1-2.8-1.5
	c-0.1,0-0.1-0.1-0.2-0.1c-0.8-0.5-1.7-0.9-2.6-1.4c-0.9-0.4-1.7-0.9-2.6-1.3c-0.1,0-0.1-0.1-0.2-0.1c-0.9-0.5-1.9-0.9-2.8-1.4
	c-0.7-0.4-1.5-0.7-2.2-1c-0.3-0.1-0.7-0.3-1-0.4c-0.9-0.4-1.7-0.8-2.6-1.2c-1-0.4-1.9-0.8-2.9-1.3c-0.8-0.3-1.7-0.7-2.5-1
	c-0.2-0.1-0.4-0.2-0.7-0.3c-0.7-0.3-1.4-0.5-2.1-0.8c-0.5-0.2-1-0.4-1.5-0.5c-0.7-0.3-1.5-0.5-2.2-0.8c-0.9-0.3-1.8-0.7-2.8-1
	c-0.1,0-0.2-0.1-0.3-0.1c-1-0.3-2-0.7-3-1c-0.8-0.3-1.6-0.5-2.4-0.7c-0.5-0.2-1-0.3-1.6-0.5c-0.8-0.2-1.5-0.4-2.3-0.6
	c-0.6-0.2-1.2-0.3-1.8-0.5c-0.5-0.1-1-0.3-1.6-0.4c-0.5-0.1-1-0.2-1.4-0.4c-0.7-0.2-1.4-0.3-2.2-0.5c-0.7-0.2-1.4-0.3-2.2-0.5
	c-0.2,0-0.3-0.1-0.5-0.1c-0.6-0.1-1.1-0.2-1.7-0.3c0,0-0.1,0-0.2,0c0,0-0.1,0-0.1,0c-1.5-0.3-3.1-0.6-4.6-0.9
	c-1.1-0.2-2.2-0.4-3.3-0.5c-1.3-0.2-2.6-0.4-3.9-0.6c-0.8-0.1-1.6-0.2-2.4-0.3c-0.8-0.1-1.6-0.2-2.4-0.3c-0.8-0.1-1.6-0.2-2.4-0.2
	c-0.4,0-0.9-0.1-1.3-0.1c-0.6,0-1.1-0.1-1.7-0.1c-2.4-0.2-4.9-0.3-7.4-0.4c-0.7,0-1.3-0.1-2-0.1c-0.8,0-1.7,0-2.5-0.1
	c-0.8,0-1.7,0-2.5,0H671.8c-88.6,0-162.2,64-177.2,148.3c-1.8,10.3-2.8,20.9-2.8,31.8v7.8c0,71.8,58.2,130,130,130H1278
	c1.1,0,2.2,0,3.3,0c0.8,0,1.5,0,2.3-0.1c0.7,0,1.5-0.1,2.2-0.1c0.7,0,1.4-0.1,2.1-0.1c0.4,0,0.9-0.1,1.3-0.1c0.6,0,1.3-0.1,1.9-0.2
	c1.3-0.1,2.6-0.3,3.9-0.5c0.7-0.1,1.4-0.2,2.1-0.3c1.3-0.2,2.6-0.4,3.9-0.6c0.4-0.1,0.9-0.2,1.3-0.2c0,0,0.1,0,0.1,0
	c0.5-0.1,1-0.2,1.5-0.3c0.8-0.2,1.6-0.3,2.4-0.5c0.6-0.1,1.3-0.3,2-0.5c1.1-0.3,2.3-0.6,3.4-0.9c0.5-0.1,0.9-0.3,1.4-0.4
	c1.3-0.4,2.5-0.7,3.8-1.1c0.7-0.2,1.3-0.4,2-0.6c4.6-1.5,9.1-3.3,13.5-5.3c0.4-0.2,0.8-0.4,1.2-0.5c2.8-1.3,5.6-2.8,8.3-4.3
	c0.9-0.5,1.8-1,2.7-1.5c7.2-4.3,14-9.3,20.2-14.8c0.7-0.6,1.3-1.2,1.9-1.8c2.1-1.9,4-3.9,6-5.9c0.5-0.6,1.1-1.1,1.6-1.7
	c0.2-0.2,0.4-0.4,0.6-0.7c0.4-0.4,0.8-0.8,1.1-1.3c0.4-0.5,0.9-1,1.3-1.5c0.2-0.3,0.4-0.5,0.7-0.8c0.8-0.9,1.5-1.8,2.3-2.8
	c0.4-0.6,0.9-1.1,1.3-1.7c1.1-1.5,2.2-2.9,3.2-4.4c0.3-0.4,0.5-0.8,0.8-1.1c0,0,0.1-0.1,0.1-0.1c0.6-0.8,1.1-1.7,1.7-2.6
	c0.1-0.2,0.3-0.4,0.4-0.6c0.4-0.6,0.8-1.2,1.2-1.8c0-0.1,0.1-0.1,0.1-0.2c0.3-0.5,0.7-1.1,1-1.7c0.4-0.6,0.7-1.2,1.1-1.9
	c0.7-1.3,1.4-2.5,2.1-3.8c0.3-0.6,0.7-1.3,1-1.9c0.3-0.5,0.5-1,0.8-1.6c0.5-1.1,1-2.2,1.5-3.3c0.3-0.5,0.5-1.1,0.7-1.6
	c1.4-3.1,2.6-6.3,3.7-9.5c0.5-1.5,1-3,1.5-4.5c0.2-0.5,0.3-1,0.4-1.5c0.1-0.5,0.3-1,0.4-1.5c0.1-0.5,0.3-1,0.4-1.5
	c0.1-0.5,0.3-1,0.4-1.5c0.1-0.5,0.3-1,0.4-1.5c0.1-0.5,0.2-1,0.4-1.5s0.2-1,0.3-1.5c0.1-0.5,0.2-1.1,0.3-1.6c0.2-1,0.4-2,0.6-3.1
	c0.1-0.4,0.1-0.8,0.2-1.3c0-0.3,0.1-0.5,0.1-0.8c0.1-0.6,0.2-1.2,0.3-1.8c0.1-0.6,0.2-1.2,0.3-1.8c0.1-0.6,0.2-1.2,0.2-1.9
	s0.1-1.2,0.2-1.9c0.1-0.5,0.1-1.1,0.2-1.7c0.1-0.6,0.1-1.2,0.1-1.7c0-0.5,0.1-1.1,0.1-1.6c0-0.3,0-0.6,0.1-0.9c0-0.4,0-0.9,0.1-1.3
	c0-0.2,0-0.4,0-0.5c0-0.5,0-1.1,0-1.6c0-0.4,0-0.9,0-1.3c0-0.8,0-1.7,0-2.5v-7.8C1408,598.9,1407,588.3,1405.2,578z"/>
<path class="st2" d="M1278.3,746.8h-656c-71.8,0-130-58.2-130-130v-7c0-99.4,80.6-180,180-180h556c99.4,0,180,80.6,180,180v7
	C1408.3,688.6,1350.1,746.8,1278.3,746.8z"/>
<path class="st1" d="M546.2,619.3c-0.2,1.3-0.2,2.6-0.2,3.9v-3.9H546.2z"/>
<path class="st3" d="M1454,734c-39.6,60.7-97.7,99-162.4,99H612.1c-62.6,0-118.9-35.8-158.4-93c0.9,1.1,1.9,2.1,2.8,3.1
	c7,8.6,14.7,16.5,23.1,23.7c31.4,27,72.1,43.3,116.3,43.3h27.2v4c0-1.3,0.1-2.7,0.2-4h684.2c46.5,0,89-18,121.1-47.5
	c8.7-8,16.7-16.9,23.7-26.5C1452.9,735.4,1453.4,734.7,1454,734z"/>
<path class="st1" d="M546.2,619.3c-0.2,1.3-0.2,2.6-0.2,3.9v-3.9H546.2z"/>
<path class="st4" d="M807.7,878.4c-0.1,0.4-0.2,0.7-0.2,1.1h-0.1C807.5,879.1,807.6,878.8,807.7,878.4z"/>
<path class="st5" d="M1283.6,833c-14,27-52.9,46.5-98.7,46.5h-113.6c-17.5-18.7-54.8-32.2-99-34.2c-3.9-0.2-7.8-0.3-11.8-0.3
	c-4.1,0-8.1,0.1-12,0.3c-44.1,2.1-81.3,15.6-98.8,34.2h-42.1c0-0.4,0.1-0.7,0.2-1.1c-0.1,0.4-0.2,0.7-0.3,1.1h-72.2
	c-45.8,0-84.8-19.5-98.7-46.5H1283.6z"/>
<path class="st1" d="M807.7,878.4c-0.1,0.4-0.2,0.7-0.2,1.1h-0.1C807.5,879.1,807.6,878.8,807.7,878.4z"/>
<path class="st1" d="M807.7,878.4c-0.1,0.4-0.2,0.7-0.2,1.1h-0.1C807.5,879.1,807.6,878.8,807.7,878.4z"/>
<path class="st6" d="M1485.4,595c-15-121.2-119-215.8-244.1-215.8h-193.9c-6.1,14.3-20.3,24.3-36.8,24.3h-119
	c-16.5,0-30.7-10-36.8-24.3H661.8c-125.1,0-229.2,94.6-244.1,215.8c-1.2,9.9-1.9,20-1.9,30.2v5.1c0,43,15.3,82.6,40.7,113.7
	c0.1,0.2,0.3,0.3,0.4,0.5l0,0c6.8,8.3,14.4,16,22.6,23c31.4,26.7,72,42.8,116.3,42.8h711.5c46.5,0,89-17.8,121-47
	c8.7-8,16.7-16.8,23.7-26.3c0.1-0.1,0.2-0.2,0.2-0.3c0,0,0,0,0,0c22-29.8,35-66.6,35-106.3v-5.1C1487.3,615,1486.6,604.9,1485.4,595
	z M457,562.1c0.2-0.8,0.4-1.5,0.6-2.2c0.2-0.7,0.4-1.5,0.6-2.2c0.2-0.7,0.4-1.5,0.6-2.2c0.2-0.7,0.4-1.4,0.6-2.1
	c0-0.1,0.1-0.2,0.1-0.3c0.2-0.7,0.4-1.3,0.6-2c0.2-0.7,0.5-1.5,0.7-2.2c0.2-0.7,0.5-1.4,0.7-2.1c0,0,0,0,0-0.1
	c0.3-0.8,0.5-1.6,0.8-2.4c0-0.1,0.1-0.3,0.2-0.4c0-0.1,0.1-0.3,0.1-0.4c0,0,0,0,0-0.1c0.3-1,0.7-2,1.1-2.9c0.1-0.3,0.2-0.6,0.3-0.9
	c0.3-0.8,0.6-1.6,1-2.5c0.6-1.6,1.2-3.1,1.9-4.6c0.2-0.5,0.4-0.9,0.6-1.4c0.6-1.5,1.3-2.9,1.9-4.4c0.2-0.4,0.4-0.8,0.5-1.2
	c0-0.1,0-0.1,0.1-0.1c0.2-0.4,0.4-0.8,0.6-1.3c0.2-0.4,0.4-0.8,0.6-1.2c0,0,0-0.1,0.1-0.1c0.7-1.4,1.4-2.8,2.1-4.2
	c0.4-0.8,0.8-1.5,1.2-2.3c0,0,0,0,0,0c0.1-0.3,0.3-0.5,0.4-0.8c0.2-0.4,0.5-0.9,0.7-1.3c0.3-0.5,0.5-1,0.8-1.5
	c1.3-2.3,2.5-4.5,3.9-6.7c0.3-0.5,0.7-1.1,1-1.6s0.7-1.1,1-1.6c0.2-0.3,0.3-0.5,0.5-0.8c0.2-0.2,0.3-0.5,0.5-0.7
	c0.2-0.3,0.3-0.6,0.5-0.9c0.2-0.3,0.4-0.6,0.6-0.9c0.4-0.5,0.7-1.1,1.1-1.6c0.4-0.5,0.7-1.1,1.1-1.6c0,0,0,0,0,0
	c0.5-0.8,1.1-1.6,1.6-2.3c0.5-0.8,1.1-1.5,1.6-2.3c0.5-0.8,1.1-1.5,1.7-2.3c0.6-0.8,1.1-1.5,1.7-2.3c0.1-0.1,0.1-0.2,0.2-0.2
	c0.8-1,1.6-2,2.4-3c0.1-0.1,0.1-0.2,0.2-0.3c0.8-1,1.5-1.9,2.3-2.9c0.8-0.9,1.6-1.9,2.4-2.8c0.8-1,1.7-2,2.5-2.9c0,0,0,0,0,0
	c0.9-1,1.7-1.9,2.6-2.8c0.9-0.9,1.8-1.9,2.6-2.8c0.9-0.9,1.8-1.9,2.7-2.8c0.9-0.9,1.8-1.8,2.7-2.7c0.9-0.9,1.8-1.8,2.8-2.7
	c0.5-0.4,0.9-0.9,1.4-1.3c0.5-0.4,1-0.9,1.4-1.3c0.9-0.9,1.9-1.7,2.9-2.6c0.5-0.4,1-0.8,1.4-1.3c0.5-0.4,1-0.8,1.5-1.2
	c0,0,0,0,0.1-0.1c1-0.8,2-1.6,2.9-2.4c1.2-0.9,2.3-1.8,3.5-2.8c0.9-0.7,1.7-1.3,2.6-2c0.3-0.2,0.6-0.4,0.8-0.6
	c0.4-0.3,0.8-0.6,1.3-0.9c0.3-0.2,0.7-0.5,1-0.7c0.5-0.4,1-0.8,1.6-1.1c0.5-0.4,1-0.7,1.6-1.1c0.8-0.6,1.6-1.1,2.4-1.6
	c0.6-0.4,1.3-0.9,1.9-1.3c1-0.6,2-1.3,2.9-1.9c0.8-0.5,1.6-1,2.5-1.5c0.5-0.3,1.1-0.7,1.6-1c1.1-0.7,2.2-1.3,3.3-2
	c0.6-0.3,1.1-0.6,1.7-1c1.1-0.6,2.3-1.3,3.4-1.9c0.6-0.3,1.1-0.6,1.7-0.9c0.6-0.3,1.1-0.6,1.7-0.9c2.4-1.2,4.8-2.4,7.2-3.6
	c0.5-0.2,1-0.5,1.5-0.7c0.8-0.4,1.6-0.8,2.5-1.1c2.3-1,4.7-2,7-3c1.1-0.4,2.1-0.8,3.2-1.3c0.6-0.2,1.1-0.4,1.7-0.7
	c1.2-0.5,2.4-0.9,3.7-1.3c0.5-0.2,1-0.4,1.6-0.5c0.4-0.1,0.8-0.3,1.2-0.4c0.1,0,0.2-0.1,0.3-0.1c1.1-0.4,2.2-0.7,3.3-1.1
	c1-0.3,1.9-0.6,2.9-0.9c0.6-0.2,1.3-0.4,1.9-0.6c0.9-0.3,1.9-0.5,2.8-0.8c0.7-0.2,1.5-0.4,2.2-0.6c1.4-0.4,2.9-0.7,4.3-1.1
	c0.7-0.2,1.5-0.4,2.2-0.5c0.6-0.2,1.3-0.3,1.9-0.4c0.1,0,0.3-0.1,0.4-0.1c0.9-0.2,1.8-0.4,2.8-0.6c0.2-0.1,0.5-0.1,0.7-0.1
	c0.4-0.1,0.7-0.1,1.1-0.2c0.1,0,0.2,0,0.3-0.1c0.4-0.1,0.8-0.1,1.2-0.2c0.8-0.1,1.5-0.3,2.3-0.4c0.6-0.1,1.3-0.2,1.9-0.3
	c0.4-0.1,0.9-0.1,1.3-0.2c0.1,0,0.3,0,0.4-0.1c0.5-0.1,0.9-0.1,1.4-0.2c1.6-0.2,3.3-0.5,4.9-0.7c0.6-0.1,1.1-0.1,1.7-0.2
	c0.5,0,0.9-0.1,1.4-0.2c0.7-0.1,1.3-0.1,2-0.2c0.6-0.1,1.3-0.1,1.9-0.2c1.1-0.1,2.2-0.2,3.2-0.3c0.7,0,1.4-0.1,2-0.1
	c0.9-0.1,1.8-0.1,2.7-0.2c0.9,0,1.7-0.1,2.6-0.1h0c0.4,0,0.9,0,1.3,0c0.6,0,1.2,0,1.8,0c0.5,0,1.1,0,1.6,0c0.2,0,0.4,0,0.6,0
	c0.2,0,0.4,0,0.6,0c0.7,0,1.4,0,2.1,0h185.9c6.8,12.2,19.9,20.5,34.9,20.5h142c0.4,0,0.8,0,1.2,0c0.2,0,0.4,0,0.5,0
	c0.4,0,0.7,0,1.1-0.1c0.3,0,0.5,0,0.8-0.1c0.1,0,0.3,0,0.4,0c0.2,0,0.3,0,0.5,0c0.2,0,0.3,0,0.5-0.1c0.3,0,0.6-0.1,0.9-0.1
	c0.9-0.1,1.7-0.3,2.6-0.5c0.3,0,0.5-0.1,0.8-0.2c0,0,0,0,0,0c0.6-0.1,1.1-0.3,1.6-0.4c0,0,0.1,0,0.1,0c0.4-0.1,0.8-0.2,1.2-0.4
	c0.4-0.1,0.7-0.2,1.1-0.4c0.7-0.2,1.4-0.5,2-0.8c0.3-0.1,0.6-0.2,0.9-0.4c0.3-0.1,0.6-0.3,0.9-0.4c0.2-0.1,0.4-0.2,0.6-0.3
	c0.5-0.3,1-0.5,1.5-0.8c0.3-0.2,0.6-0.3,0.8-0.5c0.5-0.3,1-0.6,1.5-0.9c0.4-0.3,0.8-0.5,1.2-0.8c0.2-0.1,0.4-0.3,0.7-0.5
	c0.1,0,0.1-0.1,0.2-0.1c0.2-0.2,0.5-0.3,0.7-0.5c0.2-0.2,0.5-0.3,0.7-0.5c0.2-0.2,0.5-0.4,0.7-0.6c0.7-0.6,1.4-1.2,2.1-1.9
	c0,0,0,0,0,0s0,0,0,0c0,0,0,0,0,0c1.3-1.2,2.4-2.5,3.5-3.9c0.3-0.3,0.5-0.6,0.7-0.9c0.2-0.2,0.4-0.5,0.5-0.8c0.3-0.3,0.5-0.7,0.7-1
	c0-0.1,0.1-0.1,0.1-0.2c0.2-0.4,0.5-0.7,0.7-1.1c0.3-0.5,0.6-0.9,0.8-1.4h184.2c103,0,189.3,75.6,206.1,174c0.2,1.4,0.5,2.8,0.7,4.2
	c0.4,2.8,0.8,5.7,1.1,8.5c0.1,0.4,0.1,0.9,0.1,1.3v0c0.1,1,0.2,1.9,0.3,2.9c0.1,1.5,0.3,3,0.3,4.5c0,0.6,0.1,1.2,0.1,1.8
	c0,0.3,0,0.5,0,0.7c0.1,1.2,0.1,2.4,0.2,3.6c0,0.2,0,0.4,0,0.6c0,1.2,0.1,2.3,0.1,3.5c0,1.1,0,2.2,0,3.3v13c0,1,0,1.9,0,2.8
	c0,3-0.2,6-0.4,8.9c0,0.6-0.1,1.2-0.1,1.9c-0.1,0.7-0.1,1.3-0.2,2c-0.1,0.9-0.2,1.9-0.3,2.8c0,0,0,0,0,0.1c0,0.1,0,0.2,0,0.3
	c-0.1,0.9-0.2,1.8-0.4,2.7c0,0.2,0,0.3-0.1,0.5c0,0.4-0.1,0.7-0.2,1.1c0,0.3-0.1,0.6-0.1,0.9c-0.1,0.4-0.1,0.8-0.2,1.3
	c-0.1,0.6-0.2,1.3-0.3,1.9c-0.1,0.5-0.2,1-0.3,1.5c0,0.1,0,0.2-0.1,0.3c-0.1,0.7-0.3,1.4-0.4,2.1c-0.2,0.9-0.4,1.7-0.6,2.6
	c-0.2,0.8-0.4,1.6-0.5,2.4c-0.1,0.3-0.2,0.7-0.3,1.1c0,0.1-0.1,0.3-0.1,0.4c-0.2,0.7-0.3,1.3-0.5,2c-0.2,0.9-0.5,1.8-0.7,2.7
	c0,0.1,0,0.2-0.1,0.2c-0.1,0.3-0.2,0.7-0.3,1c-0.1,0.3-0.2,0.7-0.3,1c-0.1,0.3-0.1,0.5-0.2,0.8c-0.1,0.3-0.1,0.5-0.2,0.8
	c-0.1,0.5-0.3,0.9-0.4,1.3c-0.1,0.2-0.2,0.5-0.2,0.7c-0.1,0.4-0.3,0.9-0.4,1.3c0,0.1-0.1,0.2-0.1,0.3c-0.2,0.5-0.3,1-0.5,1.4
	c-0.5,1.4-1,2.7-1.5,4.1c-0.2,0.5-0.4,1-0.6,1.5c-0.2,0.6-0.5,1.2-0.7,1.8c-0.2,0.5-0.4,0.9-0.6,1.4c-0.5,1.1-1,2.3-1.5,3.5
	c-0.2,0.5-0.5,1.1-0.8,1.6c-0.4,0.8-0.8,1.6-1.2,2.5c-0.2,0.4-0.4,0.8-0.6,1.3c-0.2,0.4-0.4,0.8-0.6,1.3c0,0.1-0.1,0.1-0.1,0.2
	c-0.2,0.4-0.4,0.8-0.6,1.2c-0.2,0.4-0.4,0.8-0.6,1.2c-0.6,1.1-1.1,2.1-1.7,3.2c-0.3,0.6-0.7,1.2-1.1,1.8c-0.1,0.2-0.2,0.3-0.3,0.5
	c-0.4,0.7-0.9,1.4-1.3,2.1c-0.5,0.8-1,1.7-1.5,2.5c-0.5,0.8-1,1.6-1.5,2.3c-0.5,0.8-1,1.5-1.6,2.3c0,0,0,0,0,0
	c-0.5,0.8-1.1,1.5-1.6,2.2c-0.5,0.8-1.1,1.5-1.6,2.3c-0.3,0.3-0.5,0.7-0.8,1c-0.4,0.5-0.8,1.1-1.3,1.6c-0.4,0.6-0.9,1.1-1.3,1.7
	c-0.8,1-1.5,1.9-2.3,2.8c-0.6,0.7-1.1,1.3-1.7,2c0,0,0,0-0.1,0.1c-0.6,0.7-1.3,1.4-1.9,2.1c-0.2,0.3-0.5,0.5-0.7,0.8
	c-0.5,0.6-1,1.1-1.5,1.6c-1,1.1-2.1,2.2-3.1,3.2c-0.8,0.8-1.6,1.5-2.3,2.3c-0.4,0.4-0.7,0.7-1.1,1.1c-0.1,0.1-0.2,0.2-0.3,0.3
	c-0.9,0.8-1.7,1.6-2.6,2.4c-1.1,1-2.2,1.9-3.3,2.8c-0.7,0.6-1.3,1.1-2,1.7c-0.8,0.6-1.5,1.2-2.3,1.8c-0.7,0.6-1.5,1.1-2.2,1.7
	c-0.8,0.6-1.7,1.3-2.6,1.9c-0.6,0.4-1.2,0.9-1.8,1.3c-1.1,0.8-2.2,1.5-3.3,2.3c-0.6,0.4-1.3,0.8-1.9,1.2c-0.8,0.5-1.6,1-2.5,1.5
	c-1.3,0.8-2.6,1.6-4,2.3c-0.4,0.2-0.7,0.4-1.1,0.6c-1.6,0.9-3.3,1.8-4.9,2.6c-0.3,0.1-0.6,0.3-0.8,0.4c-0.7,0.3-1.3,0.7-2,1
	c-0.7,0.4-1.4,0.7-2.2,1c-0.2,0.1-0.4,0.2-0.6,0.3c-0.6,0.3-1.3,0.6-1.9,0.8c-0.1,0-0.1,0-0.1,0.1c-2.8,1.3-5.7,2.4-8.7,3.5
	c-0.8,0.3-1.6,0.6-2.3,0.8c-0.7,0.2-1.4,0.5-2.1,0.7c-0.5,0.2-1.1,0.4-1.6,0.5c-0.8,0.3-1.6,0.5-2.4,0.8c-1,0.3-1.9,0.6-2.9,0.8
	c-0.8,0.2-1.6,0.4-2.3,0.6c-0.4,0.1-0.8,0.2-1.2,0.3c-1.8,0.5-3.5,0.9-5.3,1.3c-0.5,0.1-1.1,0.2-1.6,0.3c-0.3,0.1-0.5,0.1-0.8,0.2
	c-0.6,0.1-1.1,0.2-1.7,0.3c-0.7,0.1-1.4,0.3-2.1,0.4c-0.9,0.2-1.7,0.3-2.6,0.4c-0.8,0.1-1.7,0.3-2.5,0.4c-0.8,0.1-1.7,0.2-2.5,0.3
	c-0.1,0-0.3,0-0.4,0.1c-0.4,0.1-0.9,0.1-1.3,0.2c-1.4,0.2-2.8,0.3-4.3,0.4c-0.6,0-1.1,0.1-1.7,0.1c-0.1,0-0.3,0-0.5,0
	c-0.1,0-0.2,0-0.3,0c-0.4,0-0.8,0.1-1.2,0.1c-0.2,0-0.3,0-0.4,0c-0.1,0-0.2,0-0.3,0c-0.7,0-1.4,0.1-2.2,0.1c-0.7,0-1.4,0.1-2,0.1
	c-0.7,0-1.4,0-2.1,0c-0.9,0-1.9,0-2.8,0h-694c-84.1,0-153-68.9-153-153v-13c0-1.1,0-2.2,0-3.3c0-1.2,0-2.3,0.1-3.5
	c0-0.2,0-0.4,0-0.6c0-1.2,0.1-2.4,0.2-3.6c0-0.2,0-0.5,0-0.7c0-0.6,0.1-1.2,0.1-1.8c0.1-1.5,0.2-3,0.3-4.5c0.1-1,0.2-2,0.3-2.9v0
	c0.1-0.4,0.1-0.9,0.1-1.3c0.3-2.8,0.7-5.7,1.1-8.5c0.2-1.4,0.4-2.8,0.7-4.2c0.1-0.8,0.3-1.6,0.4-2.4c0.3-1.5,0.5-2.9,0.8-4.3
	c0.1-0.3,0.1-0.6,0.2-0.9c0.1-0.7,0.3-1.3,0.4-2c0.1-0.5,0.2-0.9,0.3-1.4c0.2-1,0.5-2,0.7-3.1c0-0.1,0-0.2,0.1-0.3
	c0.1-0.3,0.2-0.6,0.2-1C456.9,562.4,456.9,562.3,457,562.1z"/>
<path class="st7" d="M1485.4,595H417.6c15-121.3,119-216,244.1-216h192.9c6.1,14.3,20.3,24.3,36.8,24.3h119
	c16.5,0,30.7-10,36.8-24.3h193.9C1366.3,379,1470.4,473.7,1485.4,595z"/>
<radialGradient id="SVGID_1_" cx="950.3301" cy="588.33" r="336.0871" gradientUnits="userSpaceOnUse">
	<stop  offset="0" style="stop-color:#01AC42"/>
	<stop  offset="0.2347" style="stop-color:#01A33D"/>
	<stop  offset="0.6172" style="stop-color:#008B2F"/>
	<stop  offset="1" style="stop-color:#006C1E"/>
</radialGradient>
<path class="st8" d="M1400.3,605.3v11c0,67-52.8,121.7-119,124.9c-2,0.1-4,0.1-6,0.1h-650c-0.8,0-1.5,0-2.3,0
	c-68-1.2-122.7-56.7-122.7-125v-11c0-9.3,0.8-18.4,2.2-27.3c13.1-80.9,83.2-142.7,167.8-142.7h560c84.6,0,154.7,61.8,167.8,142.7
	C1399.6,586.9,1400.3,596,1400.3,605.3z"/>
</svg>
