<?xml version="1.0" encoding="utf-8"?>
<!-- Generator: Adobe Illustrator 22.1.0, SVG Export Plug-In . SVG Version: 6.00 Build 0)  -->
<svg version="1.1" id="Layer_1" xmlns="http://www.w3.org/2000/svg" xmlns:xlink="http://www.w3.org/1999/xlink" x="0px" y="0px"
	 viewBox="0 0 711.8 718.2" style="enable-background:new 0 0 711.8 718.2;" xml:space="preserve">
<style type="text/css">
	.st0{fill:#C81113;}
	.st1{fill:none;}
	.st2{fill:#FFFFFF;}
	.st3{fill:#E61A19;}
</style>
<g>
	<g>
		<path class="st0" d="M690.2,255.5c-5.3-17.5-11.7-34.3-19.4-50.5c-13.7-29.1-31.3-56-53-80.5c-1-1.1-2-2.3-3-3.4
			c-0.9-1-1.9-2.1-2.8-3.1c-0.1-0.1-0.2-0.2-0.3-0.3c-1.7-1.8-3.4-3.7-5.2-5.5c-0.6-0.7-1.2-1.3-1.9-1.9c-0.8-0.8-1.6-1.6-2.4-2.4
			c-0.7-0.7-1.4-1.4-2.1-2.1c-0.3-0.3-0.5-0.5-0.8-0.7c-0.6-0.6-1.3-1.3-1.9-1.9l-1.2-1.2c-0.4-0.4-0.8-0.8-1.2-1.2
			c-0.9-0.8-1.8-1.7-2.6-2.5c-0.1,0-0.1-0.1-0.2-0.1c-0.9-0.8-1.7-1.6-2.6-2.4c-0.7-0.6-1.3-1.2-2-1.8c-0.8-0.7-1.7-1.5-2.5-2.2
			c-2.5-2.2-5-4.4-7.6-6.5c-0.9-0.7-1.7-1.4-2.6-2.1c-0.8-0.7-1.6-1.3-2.4-2c-0.6-0.5-1.1-0.9-1.7-1.4c-0.3-0.2-0.5-0.4-0.8-0.6
			c-2-1.6-4-3.1-6-4.7c-0.8-0.6-1.6-1.2-2.4-1.8c-1.7-1.2-3.3-2.4-5-3.6c-0.8-0.6-1.7-1.2-2.5-1.8c-0.8-0.6-1.7-1.2-2.5-1.8
			c-0.9-0.6-1.8-1.2-2.7-1.8c-0.1-0.1-0.3-0.2-0.4-0.3c-0.1-0.1-0.2-0.2-0.3-0.2c-0.8-0.5-1.5-1-2.3-1.5c-0.9-0.6-1.8-1.2-2.7-1.7
			c0,0-0.1,0-0.1-0.1c-0.1-0.1-0.3-0.2-0.4-0.2c-0.8-0.5-1.6-1-2.3-1.5c-0.9-0.6-1.9-1.2-2.8-1.7c-0.9-0.6-1.8-1.1-2.7-1.7
			c-0.1,0-0.1-0.1-0.2-0.1c-0.9-0.5-1.8-1.1-2.7-1.6c-0.9-0.6-1.9-1.1-2.8-1.6c-0.5-0.3-1-0.5-1.4-0.8c-0.5-0.3-1-0.6-1.4-0.8
			c-0.1-0.1-0.3-0.2-0.4-0.2c-0.6-0.3-1.3-0.7-1.9-1c-0.3-0.1-0.5-0.3-0.8-0.4c-0.1-0.1-0.3-0.1-0.4-0.2c-0.8-0.4-1.5-0.8-2.3-1.3
			c-1-0.5-1.9-1-2.9-1.5s-1.9-1-2.9-1.5c-1.9-1-3.9-2-5.9-2.9l-4.5-2.1c-1.5-0.7-3-1.4-4.5-2.1c-0.8-0.4-1.7-0.8-2.5-1.1
			c-1.5-0.7-3.1-1.4-4.6-2c-0.1-0.1-0.3-0.1-0.5-0.2c-1.5-0.6-3-1.3-4.5-1.9c-0.9-0.4-1.7-0.7-2.6-1c-1.2-0.5-2.4-1-3.6-1.4
			c-1-0.4-2.1-0.8-3.1-1.2s-1.9-0.7-2.9-1.1c-0.7-0.2-1.3-0.5-2-0.7c-0.7-0.3-1.4-0.5-2.1-0.7c-0.8-0.3-1.6-0.6-2.4-0.8
			c-0.5-0.2-1.1-0.4-1.6-0.5s-1.1-0.4-1.6-0.5c-1.2-0.4-2.3-0.8-3.5-1.1h-0.1c-1-0.3-1.9-0.6-2.9-0.9c-0.2-0.1-0.4-0.1-0.6-0.2
			c-0.2,0-0.3-0.1-0.5-0.2c-0.7-0.2-1.3-0.4-2-0.6c-0.9-0.3-1.8-0.5-2.6-0.8c-0.7-0.2-1.4-0.4-2.2-0.6c-0.8-0.2-1.7-0.5-2.6-0.7
			c-0.8-0.2-1.6-0.4-2.4-0.7c-1.1-0.3-2.2-0.6-3.3-0.9c-1.1-0.3-2.2-0.6-3.3-0.8c-1.8-0.5-3.7-0.9-5.6-1.4c-1.5-0.3-3-0.7-4.4-1
			c-31.7-7.1-63.8-9.3-96.2-7.2C265.4,10.9,203.8,33.9,149,74.6c-53.4,39.7-91.9,91.2-116.7,152.9C21,255.7,13.5,284.9,10,314.9
			c-1,8.4-1.8,16.8-2.2,25.2c-0.3,6.5-0.5,13-0.5,19.4v6.4c0,1.5,0.1,3,0.1,4.5c0,1.1,0.1,2.1,0.1,3.2c0,0.8,0.1,1.6,0.1,2.4
			s0.1,1.7,0.1,2.5c0,0.2,0,0.3,0,0.5c0,0.2,0,0.4,0.1,0.7v0.4c0,0.1,0,0.2,0,0.4c0,0.4,0,0.7,0.1,1.1c0,0.2,0,0.3,0,0.5
			c0,0.1,0,0.3,0,0.4c0,0.4,0,0.8,0.1,1.2c0,0.2,0,0.3,0,0.4c0.1,1.2,0.2,2.4,0.3,3.5c0.1,1.2,0.2,2.4,0.3,3.5
			c0.1,1.2,0.2,2.3,0.3,3.5c0.1,0.7,0.1,1.3,0.2,2c0.1,0.7,0.1,1.5,0.2,2.2c0.1,1.1,0.2,2.2,0.4,3.3c0.2,1.3,0.3,2.5,0.5,3.8
			c0.1,0.7,0.2,1.3,0.3,2c0.1,1.1,0.3,2.1,0.5,3.2c0,0.3,0.1,0.5,0.1,0.8v0.1c0.1,0,0.2,0,0.3,0.1C36.7,580.2,181.8,709,357,709
			c104.7,0,198.6-46,262.7-118.9c0.1-0.1,0.1-0.2,0.2-0.2c6-7,11.7-14.3,17.2-21.8c35-47.8,56.5-101,64.6-159.5
			C709,356.7,705.4,305.7,690.2,255.5z M560.6,212.3C560.5,212.3,560.5,212.3,560.6,212.3c-4.6-5.4-9.1-10.8-13.7-16.1
			c-0.1-0.1-0.2-0.3-0.3-0.4c-9.3-10.9-18.4-21.8-27.5-32.6c-4.5-5.4-9.1-10.8-13.6-16.1c20.3-20.6,40.2-40.8,60.9-61.7
			c0.1-0.1,0.2-0.2,0.3-0.3c13.1,12.1,26.3,24,39.1,36.5c1,1.1,2.1,2.1,3.2,3.2l0.1,0.1c0.7,0.7,1.3,1.3,2,2c0.7,0.7,1.3,1.3,2,2
			c0.7,0.7,1.3,1.4,1.9,2c0.6,0.7,1.3,1.4,1.9,2c0.9,1,1.8,2,2.7,3c0.9,1,1.8,2,2.6,3c0.7,0.8,1.3,1.6,2,2.4
			c0.3,0.4,0.6,0.7,0.9,1.1c0.4,0.4,0.7,0.9,1.1,1.4c0.3,0.3,0.5,0.6,0.8,1c0.6,0.7,1.1,1.4,1.6,2.1c0.6,0.8,1.2,1.5,1.7,2.3
			c0.4,0.6,0.9,1.2,1.3,1.8c0.4,0.5,0.8,1.1,1.1,1.6c0.5,0.8,1.1,1.5,1.6,2.3c1,1.6,2,3.2,3,4.8c0.8,1.3,1.3,2.4,1.5,3.4
			c0,0.2,0.1,0.4,0.1,0.6c0.2,2-0.9,3.7-3.3,5.7c-20.8,16.5-41.2,33.2-61.8,49.9c-1.3,1-2.7,2-4.4,3.3c0,0,0,0,0,0
			C566.3,219.2,563.5,215.8,560.6,212.3z M454,572c-4.1,1.5-8.1,3-12.1,4.6c-0.5,0.2-1,0.4-1.5,0.6c-11.7,4.4-23.3,8.8-35,13.2
			c0,0,0,0,0,0c-1.7-4.3-3.2-8.3-5-12.9c16.2-6.1,32.1-12.1,48.7-18.4c0,0,0.1,0,0.1,0c1.6,4.2,3.2,8.2,5,12.9
			C454.1,572,454.1,572,454,572z M441.8,141.2c-0.5,1.7-1,3.3-1.5,4.9c-0.7,2.3-1.4,4.6-2.1,7c-0.1,0.4-0.3,0.9-0.4,1.3
			c-16.8-5.1-33.2-10.1-50.1-15.3c0,0,0,0,0,0c0.7-2.3,1.4-4.4,2-6.5c0.7-2.2,1.3-4.4,2.1-6.9C408.6,130.9,424.8,135.9,441.8,141.2
			C441.9,141.1,441.8,141.2,441.8,141.2z M270,150.3c-1.2-4.9-2.1-9-3.2-13.8c20.7-4.9,41-9.7,62-14.7c1.1,4.4,2.2,8.6,3.4,13.7
			C311.4,140.4,291,145.3,270,150.3z M223.8,174.9c-8.1,7.8-15.9,15.3-23.7,22.8c-4.6,4.5-9.3,9-13.9,13.5
			c-3.4-3.2-6.6-6.2-10.3-9.8c12.7-12.2,25.1-24.2,37.3-36c2.3,2.1,4.5,4,6.6,5.9C221.1,172.5,222.4,173.6,223.8,174.9L223.8,174.9z
			 M347.2,98.8c-3.1,0.7-6.2,1.4-9.3,2.1c-29.4,6.7-58.7,13.4-88.4,20.2c-9-27.3-18-54.2-27.2-81.8c0,0,0,0,0-0.1
			c1.9-0.6,3.7-1.2,5.5-1.8c9.3-3.1,18.4-6.3,27.6-9.3c20.3-6.4,40.8-12.4,62.2-14.3c0.5-0.1,1-0.2,1.5-0.2c0.1,0,0.3,0,0.4,0h0.1
			c1-0.1,1.9-0.1,2.7-0.2c0.2,0,0.3,0,0.5,0c0.2,0,0.4,0,0.7,0c0.6,0,1.2,0,1.7,0c3.8,0.2,4.2,1.9,5.6,8.5c5,23.4,10,46.7,15.1,70
			c0.5,2.1,0.9,4.3,1.4,7C347.2,98.8,347.2,98.8,347.2,98.8z M16.8,301c1.7-7.9,3.2-15.4,5-22.7c5.6-22.7,11.6-45.2,21.5-66.5
			c7.2-15.5,7.3-15.5,22.9-9.6c21.2,8,42.4,16.1,63.6,24.1c1.8,0.7,3.3,1.5,5.8,2.4c0,0,0.1,0,0.1,0.1
			c-11.5,31.3-22.9,62.5-34.5,94.1C73,315.6,45.3,308.5,16.8,301C16.8,301.1,16.8,301,16.8,301z M121.4,304.6
			c6.1-16.4,12.1-32.3,18.3-48.9c4.4,1.6,8.4,3.1,13.3,4.9c-0.8,2.1-1.5,4.1-2.3,6.1c-5.3,14.3-10.6,28.5-16.1,43.1
			C129.8,308,125.8,306.4,121.4,304.6C121.4,304.7,121.4,304.6,121.4,304.6z M124.2,380.2c0,0,0-0.1,0-0.1c4.5-1.5,8.6-2.8,13.4-4.4
			c1.4,4.4,2.8,8.8,4.2,13.2c3.7,11.4,7.3,22.6,11,34c0,0,0,0.1,0,0.1c0,0.1,0,0.1,0.1,0.2c1.3,3.9,2.7,7.8,3.9,11.8
			c0.4,1.3,0.9,2.7,1.3,4.1c-4.7,1.5-8.6,2.8-13.3,4.3c-2.1-6.6-4.3-13.1-6.4-19.7C133.7,409.3,129,394.9,124.2,380.2z M213,543.4
			c-9.7-11.7-19.1-23-28.9-34.9c4-3.3,7.7-6.4,11.9-9.9c9.6,11.7,19.1,23.1,28.9,34.9C220.8,536.9,217.1,540,213,543.4z
			 M529.6,220.3C529.5,220.3,529.5,220.3,529.6,220.3c-11.3-11.9-23.2-24.3-35.4-37.1c2.1-2,5.4-4.9,9-8.1c0,0,0,0,0-0.1
			c11.6,12.2,23.5,24.6,35.5,37.2C536.3,214.4,533.1,217.2,529.6,220.3z M158.8,639.6c-0.8-0.3-1.5-0.4-1.9-0.8
			c-23.4-18.7-46.1-38.1-65.5-61.1c-4.8-5.8-8.8-12.3-12.8-18.6c-0.7-1.1-0.2-4.2,0.8-5c16-12.5,32-24.9,48.2-37.4c0,0,0,0,0.1,0
			c9.7-7.5,19.4-15,29.1-22.5c0,0,0,0,0,0.1c23.4,26.4,46.3,52.4,69.7,78.8C203.9,595.2,181.4,617.3,158.8,639.6L158.8,639.6z
			 M340.3,580.6c-16.9-4-33.5-7.9-50.8-11.9c1.1-4.6,2.1-8.9,3.2-13.5c2.1,0.5,4.3,1,6.4,1.5c14.9,3.5,29.4,7,44.3,10.5c0,0,0,0,0,0
			C342.4,571.7,341.4,575.8,340.3,580.6z M512.4,662.3c-26.9,13.5-54.3,26-83.8,32.9c-17.5,4.1-17.5,3.9-22.2-13.3
			c-6.3-23.2-12.6-46.4-19.1-70.5c32.2-9.2,63.8-18.3,96.3-27.5c9.9,25.9,19.8,51.7,29.6,77.2C512.7,661.7,512.6,662.1,512.4,662.3z
			 M543.8,513.8c-5.4,4.6-10.8,9.2-16.2,13.8c-0.4,0.4-0.8,0.7-1.2,1c-2.9,2.5-5.8,4.9-8.7,7.4c0,0,0,0,0,0c-3-3.5-5.8-6.9-9-10.5
			c13.3-11.3,26.4-22.4,39.6-33.7c0,0,0,0,0.1,0c0.8,0.9,1.5,1.7,2.2,2.6c1.1,1.3,2.2,2.5,3.3,3.8c1.2,1.3,2.3,2.7,3.5,4.1
			C552.9,506.2,548.3,510,543.8,513.8z M565.9,275.2c3.3-0.8,6.6-1.5,10.1-2.3c1,4.3,2,8.5,3,12.7c2.9,12.6,5.8,25.1,8.9,38
			c-4.7,1.1-8.8,2.1-13.5,3.2c-4-17-7.9-33.6-11.9-50.8C563.6,275.7,564.7,275.4,565.9,275.2z M572.7,438.3c-1-0.3-2-0.6-3.1-1
			c5.5-16.6,10.8-32.8,16.4-49.6c4.7,1.5,8.6,2.8,13.2,4.3c0,0,0,0.1,0,0.1c-5.4,16.4-10.7,32.5-16.3,49.4c-3.4-1-6.5-2-9.8-3.1
			C573,438.4,572.9,438.3,572.7,438.3z M696.5,395.8c-0.7,5.9-1.3,11.8-2.6,17.5c-4.5,21.1-9.2,42.3-14.4,63.2
			c-1.4,5.7-4.5,11.1-7.4,16.4c-0.5,1-2.6,2.1-4.1,2.2c-0.1,0-0.1,0-0.2,0c-0.3,0-0.6,0-0.8-0.1c-26.7-9-53.3-18.3-79.9-27.6
			c0,0-0.1,0-0.1-0.1c0,0,0,0-0.1,0c-0.4-0.2-0.7-0.6-1.5-1c10.1-31.7,20.1-63.1,30.2-94.9c27.2,6.1,54,12.2,81.6,18.4
			C697,391.8,696.8,393.8,696.5,395.8z"/>
		<path class="st1" d="M619.7,590.1c-26.1,30.7-56.7,56.3-92.2,76.5c-42.9,24.5-88.9,39.6-138.3,43.9c-6.5,0.6-13,2-19.5,3h-2.1
			c-1.8-0.3-3.7-0.9-5.5-1c-9.3-0.5-18.5-0.8-27.8-1.3c-20.3-1-40.3-4.1-60-8.9c-23.1-5.7-45.4-13.6-66.8-23.9
			C159,655,118,622.3,84.4,580.2c-26.1-32.8-45.9-69-59.1-108.9c-0.8-2.3-1.5-4.6-2.2-6.9c-0.4-1.2-0.8-2.4-1.1-3.5
			c-0.3-1.2-0.7-2.3-1-3.5c-0.3-1-0.5-2-0.8-2.9c-0.2-0.9-0.5-1.8-0.7-2.7c-0.2-0.9-0.5-1.8-0.7-2.7c-0.3-1-0.6-2-0.8-3
			c-0.4-1.6-0.8-3.3-1.2-5V441c-0.2-1-0.5-2-0.7-3c-0.3-1.2-0.5-2.4-0.8-3.6v-0.1c-0.3-1.3-0.5-2.5-0.8-3.7c-0.2-1-0.4-2-0.6-3
			c-0.2-1.2-0.5-2.5-0.7-3.7c-0.1-0.1-0.1-0.2-0.1-0.3c-0.2-1.3-0.5-2.5-0.7-3.8c-0.3-1.3-0.5-2.6-0.7-3.9c-0.2-1.3-0.4-2.5-0.6-3.7
			V412c0.1,0,0.2,0,0.3,0.1C36.7,580.2,181.8,709,357,709C461.7,709,555.6,663,619.7,590.1z"/>
		<path class="st2" d="M156.9,494.1c23.4,26.5,46.3,52.4,69.7,78.9c-22.7,22.3-45.1,44.4-67.7,66.6c-0.8-0.3-1.5-0.4-1.9-0.8
			c-23.4-18.7-46.1-38.1-65.5-61.1c-4.8-5.7-8.8-12.3-12.8-18.6c-0.7-1.1-0.2-4.2,0.8-5C105,534.1,130.8,514.2,156.9,494.1z"/>
		<path class="st2" d="M635.4,169.4c-20.8,16.5-41.2,33.2-61.8,49.9c-1.3,1-2.7,2-4.4,3.3c-2.9-3.4-5.8-6.8-8.7-10.3
			c21-28.1,37.4-57.6,48.6-87.5c0.7,0.7,1.3,1.3,2,2s1.3,1.3,2,2s1.3,1.4,1.9,2c0.6,0.7,1.3,1.4,1.9,2c0.9,1,1.8,2,2.7,3
			s1.8,2,2.6,3c0.7,0.8,1.3,1.6,2,2.4c0.3,0.4,0.6,0.7,0.9,1.1c0.4,0.4,0.7,0.9,1.1,1.4c0.3,0.3,0.5,0.6,0.8,1
			c0.6,0.7,1.1,1.4,1.6,2.1c0.6,0.8,1.2,1.5,1.7,2.3c0.4,0.6,0.9,1.2,1.3,1.8c0.4,0.5,0.8,1.1,1.1,1.6c0.5,0.8,1.1,1.5,1.6,2.3
			c1,1.6,2,3.2,3,4.8C639.8,163.9,639.4,166.2,635.4,169.4z"/>
		<path class="st2" d="M585.5,466.3c10.1-31.7,20.1-63.1,30.2-94.9c27.2,6.1,54,12.2,81.6,18.4c-1.1,8-1.6,15.9-3.2,23.5
			c-4.5,21.1-9.2,42.3-14.4,63.2c-1.4,5.7-4.5,11.1-7.4,16.4c-0.7,1.3-3.8,2.6-5.1,2.1c-26.7-9-53.3-18.3-79.9-27.6
			C586.7,467.3,586.3,466.9,585.5,466.3z"/>
		<path class="st2" d="M387.3,611.4c32.2-9.2,63.8-18.2,96.3-27.5c9.9,25.9,19.8,51.7,29.6,77.2c-0.4,0.6-0.5,1-0.8,1.2
			c-26.9,13.5-54.3,26-83.8,32.9c-17.5,4.1-17.5,3.9-22.2-13.3C400.1,658.7,393.8,635.5,387.3,611.4z"/>
		<path class="st2" d="M158.1,439.1c-4.7,1.5-8.6,2.8-13.3,4.3c-2.1-6.6-4.3-13.1-6.4-19.7c4.8-0.2,9.6-0.4,14.5-0.8
			C154.6,428.3,156.4,433.6,158.1,439.1z"/>
		<path class="st2" d="M405.3,590.4c-1.7-4.4-3.2-8.3-5-12.9c16.2-6.1,32.2-12.1,48.8-18.4c1.6,4.3,3.2,8.3,5,13
			C437.7,578.2,421.7,584.2,405.3,590.4z"/>
		<path class="st2" d="M343.4,567.1c-1.1,4.6-2,8.7-3.1,13.5c-16.9-4-33.5-7.9-50.8-11.9c1.1-4.6,2.1-8.9,3.2-13.5
			C309.8,559.2,326.4,563.1,343.4,567.1z"/>
		<path class="st2" d="M587.9,323.5c-4.7,1.1-8.8,2.1-13.5,3.2c-4-17-7.9-33.6-11.9-50.8c4.6-1,8.9-2,13.5-3.1
			C580,289.9,583.9,306.3,587.9,323.5z"/>
		<path class="st2" d="M586.1,387.8c4.7,1.5,8.6,2.8,13.2,4.3c-5.4,16.4-10.7,32.6-16.3,49.5c-4.4-1.4-8.6-2.8-13.2-4.3
			C575.2,420.7,580.6,404.5,586.1,387.8z"/>
		<path class="st2" d="M557.4,502.3c-13.5,11.5-26.4,22.5-39.8,33.8c-3-3.5-5.8-6.9-9-10.6c13.3-11.3,26.4-22.4,39.7-33.7
			C551.5,495.3,554.2,498.5,557.4,502.3z"/>
		<path class="st2" d="M224.9,533.5c-4.1,3.4-7.8,6.5-11.9,9.9c-9.7-11.7-19.1-23-28.9-34.9c4-3.3,7.7-6.4,11.9-9.9
			C205.6,510.3,215.1,521.7,224.9,533.5z"/>
	</g>
	<path class="st2" d="M609.1,124.8c-11.2,29.9-27.6,59.4-48.6,87.5c-18.6-22.1-37-43.9-55-65.2c20.4-20.7,40.4-41,61.2-62
		c13.1,12.1,26.3,24,39.1,36.5C606.9,122.6,608,123.7,609.1,124.8z"/>
	<path class="st2" d="M441.9,141.2c-1.4,4.5-2.6,8.7-4.1,13.4c-16.8-5.1-33.2-10.1-50.1-15.3c1.4-4.6,2.6-8.6,4.1-13.5
		C408.6,131,424.8,136,441.9,141.2z"/>
	<path class="st3" d="M606.5,112.3c-0.6-0.7-1.2-1.3-1.9-1.9c-0.8-0.8-1.6-1.6-2.4-2.4c-0.7-0.7-1.4-1.4-2.1-2.1
		c-0.3-0.3-0.5-0.5-0.8-0.7c-0.6-0.6-1.3-1.3-1.9-1.9c-0.4-0.4-0.8-0.8-1.2-1.2c-0.4-0.4-0.8-0.8-1.2-1.2c-0.9-0.8-1.8-1.7-2.6-2.5
		c-0.1,0-0.1-0.1-0.2-0.1c-0.9-0.8-1.7-1.6-2.6-2.4c-0.7-0.6-1.3-1.2-2-1.8c-0.8-0.7-1.7-1.5-2.5-2.2c-2.5-2.2-5-4.4-7.6-6.5
		c-0.9-0.7-1.7-1.4-2.6-2.1c-0.8-0.7-1.6-1.3-2.4-2c-0.6-0.5-1.1-0.9-1.7-1.4c-0.3-0.2-0.5-0.4-0.8-0.6c-2-1.6-4-3.1-6-4.7
		c-0.8-0.6-1.6-1.2-2.4-1.8c-1.7-1.2-3.3-2.4-5-3.6c-0.8-0.6-1.7-1.2-2.5-1.8s-1.7-1.2-2.5-1.8c-0.9-0.6-1.8-1.2-2.7-1.8
		c-0.1-0.1-0.3-0.2-0.4-0.3c-0.1-0.1-0.2-0.2-0.3-0.2c-0.8-0.5-1.5-1-2.3-1.5c-0.9-0.6-1.8-1.2-2.7-1.7c0,0-0.1,0-0.1-0.1
		c-0.1-0.1-0.3-0.2-0.4-0.2c-0.8-0.5-1.6-1-2.3-1.5c-0.9-0.6-1.9-1.2-2.8-1.7c-0.9-0.6-1.8-1.1-2.7-1.7c-0.1,0-0.1-0.1-0.2-0.1
		c-0.9-0.5-1.8-1.1-2.7-1.6c-0.9-0.6-1.9-1.1-2.8-1.6c-0.5-0.3-1-0.5-1.4-0.8c-0.5-0.3-1-0.6-1.4-0.8c-0.1-0.1-0.3-0.2-0.4-0.2
		c-0.6-0.3-1.3-0.7-1.9-1c-0.3-0.1-0.5-0.3-0.8-0.4c-0.1-0.1-0.3-0.1-0.4-0.2c-0.8-0.4-1.5-0.8-2.3-1.3c-1-0.5-1.9-1-2.9-1.5
		s-1.9-1-2.9-1.5c-1.9-1-3.9-2-5.9-2.9c-1.5-0.7-3-1.4-4.5-2.1l-4.5-2.1c-0.8-0.4-1.7-0.8-2.5-1.1c-1.5-0.7-3.1-1.4-4.6-2
		c-0.1-0.1-0.3-0.1-0.5-0.2c-1.5-0.6-3-1.3-4.5-1.9c-0.9-0.4-1.7-0.7-2.6-1c-1.2-0.5-2.4-1-3.6-1.4c-1-0.4-2.1-0.8-3.1-1.2
		s-1.9-0.7-2.9-1.1c-0.7-0.2-1.3-0.5-2-0.7c-0.7-0.3-1.4-0.5-2.1-0.7c-0.8-0.3-1.6-0.6-2.4-0.8c-0.5-0.2-1.1-0.4-1.6-0.5
		c-0.5-0.1-1.1-0.4-1.6-0.5c-1.2-0.4-2.3-0.8-3.5-1.1h-0.1c-1-0.3-1.9-0.6-2.9-0.9c-0.2-0.1-0.4-0.1-0.6-0.2c-0.2,0-0.3-0.1-0.5-0.2
		c-0.7-0.2-1.3-0.4-2-0.6c-0.9-0.3-1.8-0.5-2.6-0.8c-0.7-0.2-1.4-0.4-2.2-0.6c-0.8-0.2-1.7-0.5-2.6-0.7c-0.8-0.2-1.6-0.4-2.4-0.7
		c-1.1-0.3-2.2-0.6-3.3-0.9c-1.1-0.3-2.2-0.6-3.3-0.8c-1.8-0.5-3.7-0.9-5.6-1.4c-1.5-0.3-3-0.7-4.4-1c-31.7-7.1-63.8-9.3-96.2-7.2
		C265.4,11,203.8,34,149,74.7c-53.4,39.7-91.9,91.2-116.7,152.9C21,255.8,13.5,285,10,315c-1,8.4-1.7,16.8-2.2,25.1
		c-0.3,6.5-0.5,13-0.5,19.4v6.4c0,1.5,0.1,3,0.1,4.5c0,1.1,0.1,2.1,0.1,3.2c0,0.8,0.1,1.6,0.1,2.4s0.1,1.7,0.1,2.5
		c0,0.2,0,0.3,0,0.5c0,0.2,0,0.5,0.1,0.8v0.3c0,0.1,0,0.2,0,0.4c0,0.4,0,0.7,0.1,1.1c0,0.2,0,0.3,0,0.5c0,0.1,0,0.3,0,0.4
		c0,0.4,0,0.8,0.1,1.2c0,0.2,0,0.3,0,0.4v0.1c0.1,1.2,0.2,2.4,0.3,3.5c0.1,1.2,0.2,2.4,0.3,3.5c0.1,1.2,0.2,2.3,0.3,3.5
		c0.1,0.7,0.1,1.3,0.2,2c0.1,0.7,0.1,1.5,0.2,2.2c0.1,1.1,0.2,2.2,0.4,3.3c0.2,1.3,0.3,2.5,0.5,3.8c0.1,0.7,0.2,1.3,0.3,2
		c0.1,1.1,0.3,2.1,0.5,3.2c0,0.3,0.1,0.5,0.1,0.8c0.1,0,0.2,0,0.3,0.1c39.2,9.5,82,13.6,126.8,11.8c-4.7-14.4-9.4-28.9-14.2-43.6
		c0.1,0,0.2,0,0.2-0.1c4.4-1.5,8.4-2.8,13.2-4.3c1.4,4.4,2.8,8.8,4.2,13.2c3.7,11.3,7.2,22.5,10.9,33.8v0c0,0.1,0.1,0.2,0.1,0.3
		c0.1,0,0.2,0,0.3,0c0,0,0.1,0,0.1,0c53.6-3.5,109.6-15.4,165.3-36.3c103.8-38.9,188-102.1,241.9-174.3c-18.6-22.1-37-43.9-55-65.2
		c0.1-0.1,0.2-0.2,0.3-0.3c20.3-20.6,40.2-40.8,60.9-61.7c13.1,12.1,26.3,24,39.1,36.5c1.1,1.1,2.2,2.2,3.3,3.3
		c0.1-0.1,0.1-0.3,0.2-0.4c0,0,0-0.1,0-0.1c0.7-1.9,1.3-3.8,2-5.6c0.1-0.3,0.3-0.7,0.4-1C610,115.9,608.3,114,606.5,112.3z
		 M74.4,315.9c-19.2-5-38.2-9.9-57.7-14.9c0,0-0.1,0-0.1,0c1.7-7.8,3.3-15.3,5.1-22.7c5.6-22.7,11.6-45.2,21.5-66.5
		c7.2-15.5,7.3-15.5,22.9-9.6c21.2,8,42.4,16.1,63.6,24.1c1.8,0.7,3.3,1.5,5.8,2.4c0,0,0.1,0,0.1,0.1
		c-11.5,31.3-22.9,62.5-34.5,94.1C92.2,320.6,83.3,318.2,74.4,315.9z M150.7,266.7c-5.3,14.3-10.6,28.4-16.1,43
		c-4.8-1.8-8.8-3.4-13.2-5.1c0,0,0,0,0,0c6.1-16.4,12.1-32.4,18.3-49c4.4,1.6,8.5,3.1,13.3,5C152.2,262.7,151.4,264.7,150.7,266.7z
		 M223.7,174.8c-8,7.8-15.9,15.4-23.6,22.9c-4.6,4.5-9.3,9-13.9,13.5c-3.4-3.2-6.6-6.2-10.3-9.8c12.7-12.3,25.1-24.2,37.3-36.1
		C216.9,168.6,220.2,171.5,223.7,174.8C223.7,174.8,223.7,174.8,223.7,174.8z M222.2,39.3c0,0,0.1,0,0.1,0c1.9-0.6,3.7-1.3,5.5-1.9
		c9.4-3.2,18.4-6.4,27.5-9.3c20.3-6.4,40.8-12.4,62.2-14.3c0.6-0.1,1.1-0.2,1.6-0.2c0.1,0,0.3,0,0.4,0c1.1-0.1,2-0.2,2.8-0.2
		c0.2,0,0.3,0,0.5,0c0.2,0,0.4,0,0.7,0c0.6,0,1.2,0,1.7,0c3.8,0.2,4.1,1.9,5.5,8.5c5,23.4,10,46.7,15.1,70c0.5,2.1,0.9,4.3,1.4,7
		c0,0,0,0,0,0c-3.1,0.7-6.2,1.4-9.3,2.1c-21.3,4.9-42.6,9.8-64,14.7c-8.2,1.9-16.4,3.7-24.6,5.6C240.4,93.9,231.4,67,222.2,39.3z
		 M270,150.3c-1.1-4.9-2.1-9-3.2-13.8c20.7-4.9,41-9.7,62-14.7c1.1,4.4,2.2,8.6,3.4,13.7C311.5,140.5,291.1,145.3,270,150.3z
		 M441.8,141.2c-0.5,1.7-1,3.3-1.5,4.9c-0.7,2.3-1.4,4.6-2.1,7c-0.1,0.5-0.3,0.9-0.4,1.4c-16.8-5.1-33.2-10.1-50.1-15.3
		c0,0,0-0.1,0-0.1c0.7-2.3,1.3-4.4,2-6.6c0.7-2.2,1.3-4.4,2.1-6.9C408.6,130.9,424.8,135.9,441.8,141.2
		C441.9,141.1,441.8,141.2,441.8,141.2z M529.5,220.3c-11.3-11.9-23.2-24.3-35.4-37.1c2.1-2,5.4-4.9,9-8.2c0,0,0,0,0,0.1
		c11.7,12.2,23.5,24.6,35.5,37.1C536.2,214.4,533,217.2,529.5,220.3C529.5,220.3,529.5,220.3,529.5,220.3z"/>
	<path class="st2" d="M152.9,422.9c-4.8,0.3-9.7,0.6-14.5,0.8c-4.7-14.4-9.4-28.9-14.2-43.6c4.5-1.5,8.6-2.8,13.4-4.4
		c1.4,4.4,2.8,8.8,4.2,13.2C145.6,400.2,149.2,411.5,152.9,422.9z"/>
	<path class="st2" d="M153,260.6c-6.1,16.4-12.1,32.5-18.4,49.2c-4.8-1.8-8.8-3.4-13.2-5.1c6.1-16.4,12.1-32.4,18.3-49
		C144.1,257.3,148.1,258.8,153,260.6z"/>
	<path class="st2" d="M135.6,228.7c-11.5,31.3-22.9,62.5-34.5,94.1c-28.2-7.3-55.9-14.4-84.4-21.8c1.7-7.8,3.3-15.3,5.1-22.7
		c5.6-22.7,11.6-45.2,21.5-66.5c7.2-15.5,7.3-15.5,22.9-9.6c21.2,8,42.4,16.1,63.6,24.1C131.5,226.9,133.2,227.7,135.6,228.7z"/>
	<path class="st2" d="M223.8,174.9c-12.9,12.4-25.2,24.3-37.6,36.3c-3.4-3.2-6.6-6.2-10.3-9.8c12.7-12.3,25.1-24.2,37.3-36.1
		C216.9,168.7,220.2,171.6,223.8,174.9z"/>
	<path class="st2" d="M332.2,135.5c-20.8,4.9-41.2,9.8-62.2,14.8c-1.1-4.9-2.1-9-3.2-13.8c20.7-4.9,41-9.7,62-14.7
		C329.9,126.3,331,130.5,332.2,135.5z"/>
	<path class="st2" d="M347.2,98.9c-32.6,7.4-64.9,14.8-97.8,22.3c-9-27.3-18-54.2-27.2-81.9c11.4-3.9,22.2-7.8,33.1-11.2
		c20.3-6.4,40.8-12.4,62.2-14.3c0.7-0.1,1.4-0.2,2-0.2c9.3-0.7,9.3-0.7,11.2,8.2c5,23.4,10,46.7,15.1,70
		C346.2,94,346.7,96.2,347.2,98.9z"/>
	<path class="st2" d="M538.6,212.2c-2.4,2.2-5.6,5-9.1,8.1c-11.3-11.9-23.2-24.3-35.4-37.1c2.1-2,5.4-4.9,9-8.2
		C514.8,187.2,526.6,199.6,538.6,212.2z"/>
</g>
<path class="st1" d="M706.6,359.4c0,88.3-32.7,169-86.8,230.5c-0.1,0.1-0.1,0.2-0.2,0.2C555.6,663,461.7,709,357,709
	C181.8,709,36.7,580.2,11.3,412.1c-2.6-17.2-4-34.8-4-52.7C7.4,166.3,163.9,9.7,357,9.7c100,0,190.3,42,254,109.4
	c24,25.3,44.2,54.3,59.8,85.9C693.7,251.6,706.6,304,706.6,359.4z"/>
</svg>
