<?xml version="1.0" encoding="utf-8"?>
<!-- Generator: Adobe Illustrator 22.1.0, SVG Export Plug-In . SVG Version: 6.00 Build 0)  -->
<svg version="1.1" id="Layer_1" xmlns="http://www.w3.org/2000/svg" xmlns:xlink="http://www.w3.org/1999/xlink" x="0px" y="0px"
	 viewBox="0 0 1100 800" style="enable-background:new 0 0 1100 800;" xml:space="preserve">
<style type="text/css">
	.st0{fill:#FCDECA;}
	.st1{fill:#660203;}
	.st2{fill:#FBDDC9;}
	.st3{fill:#760201;}
	.st4{fill:#B70303;}
	.st5{fill:#EDB894;}
	.st6{fill:#FAC9B0;}
	.st7{fill:#580404;}
	.st8{fill:#950301;}
	.st9{fill:#E7432E;}
	.st10{fill:#F38270;}
	.st11{fill:#431909;}
	.st12{fill:#23A43F;}
	.st13{fill:#FEFEFE;}
	.st14{fill:#B70101;}
	.st15{fill:#CF5C30;stroke:#CF5C30;stroke-width:2;stroke-miterlimit:10;}
	.st16{fill:none;}
	.st17{fill:#EDE234;stroke:#EDE234;stroke-width:3;stroke-miterlimit:10;}
	.st18{opacity:0.97;fill:#3A1307;}
	.st19{opacity:0.97;fill:#180601;}
	.st20{opacity:0.95;fill:#57230C;}
	.st21{opacity:0.1;fill:#FFFFFF;stroke:#000000;stroke-width:0.2222;stroke-miterlimit:10;}
	.st22{fill:url(#SVGID_1_);}
</style>
<g>
	<path class="st0" d="M465.5,141.5c-4.4-4.5-7.2-10.2-10.8-15.2c-4.1-5.7-8.1-11.4-12.1-17.2c0-1.8,0-3.5,0-5.3
		c4.5-9.8,12-17,20.6-22.8c9.4-6.3,19.2-12,29.9-16c2.7-1,5.5-1.4,8.3-1.4c-1.8,9.6-1.8,19.2-0.6,28.9c-0.7-1-1.2-0.8-2,0
		c-1.4,1.4-2.9,2.8-4.4,4.1c-0.5,0-1,0.1-1.2,0.6l0,0c-1,0-1.9,0.5-2.6,1.1c-5.6,4.3-11.5,6.7-18.8,4.9c-1.6-0.4-3.4-1.2-5.5-0.5
		c3.5,2.2,12.5,4.6,17.3,3.8c2,3.7,5,6.7,7.2,10.2c6.7,10.9,13.4,21.8,19.6,33c1.4,2.4,2.1,5.9,5.8,6.5c-0.1,1.1,0.7,1.5,1.6,1.7
		c0.4,0.3,0.7,0.6,1.1,0.9c8.3,4.9,16.2,10.3,21,19c0.8,1.4,1.9,1,3,0.3c-0.8,2.9-3.5,4.3-5.3,6.4c-5.8,7.1-12.1,13.9-18.8,20.2
		c-1.4-0.8-2-2.3-2.5-3.5c-3.5-10.2-9.9-18.7-17-26.5c-10.3-11.2-21.4-21.7-32.2-32.5C466.8,141.9,466.2,141.5,465.5,141.5z"/>
	<path class="st1" d="M689,209.6c-1.1-12-5.3-22.3-9.3-33.2c-2.9-1.4-5.7-2.8-8.7-3.9c-2.5-0.9-5.8-1.8-6.7-5.2
		c-2.3,1.1-4.5,2.4-6.4,4.2c-0.4,1.8,1.2,2.4,2.2,3.2c7.2,5.7,12.6,12.8,18.5,19.7c4.4,5.2,7.7,10.9,10.7,16.8
		C689.1,210.6,689.1,210.1,689,209.6z"/>
	<path class="st2" d="M533.4,271.9c-0.5,7.6,1.4,14.9,2.4,22.4c1.1,8.2,1.7,16.3,0.3,24.5c0,0.3,0.1,0.5,0.2,0.8c-2,0-3.9,0-5.9,0
		c-0.3-0.8-0.6-1.7-0.9-2.5c-6.1-16.2-11.4-32.7-16.3-49.4c6.7-0.5,11.6-3.9,15.1-10c1.4,3.9,1.2,8.1,4.8,10.6
		c0.1,0.6,0.1,1.1,0.2,1.7C533.4,270.6,533.4,271.2,533.4,271.9z"/>
	<path class="st3" d="M675.7,165.9c-0.7-0.9-1.4-1.9-1.8-3c-0.1-0.3-0.2-0.5-0.2-0.8c-0.3-0.5-0.5-1.1-0.5-1.8
		c-0.1,0-0.1-0.1-0.1-0.2c0.1-0.3,0.3-0.5,0.5-0.7c0,0,0-0.1,0-0.1c-2.9,2.9-6.1,5.5-9.4,7.9c0.9,3.4,4.2,4.4,6.7,5.2
		c3,1.1,5.9,2.5,8.7,3.9c-1.1-2.9-2.1-5.9-3.1-8.9C676.2,167,675.9,166.4,675.7,165.9z"/>
	<path class="st4" d="M513.3,267.7c4.9,16.6,10.1,33.1,16.3,49.4c0.3,0.8,0.6,1.7,0.9,2.5c-4.9,0-9.8,0-14.7,0
		c-0.7-2-1.5-4.1-2.1-6.1c-4.6-14.5-9.3-29-9.3-44.5c2.9-0.3,5.9-0.1,8.7-1.5C513,267.6,513.2,267.6,513.3,267.7z"/>
	<path class="st5" d="M504.3,269c0,15.5,4.7,30,9.3,44.5c0.6,2.1,1.4,4.1,2.1,6.1c-1,0-2,0-2.9,0c-5.3-16.7-10.5-33.5-11.2-51.2
		C502.4,268.6,503.3,268.8,504.3,269z"/>
	<path class="st5" d="M578.8,319.6c1.8-1.4,4.3-0.8,6.3-2.1c-2.3-0.8-4.5,0.4-7.5,0c3.3-1.3,6-2.4,8.8-3.4c1.8-0.6,2.5-1.7,2.5-3.7
		c0-5,0.4-10,0.6-14.9c1.1,2.8,0.4,5.7,0.4,8.6c0,1.1-0.1,1.9,1.2,2c-0.5,2.9-1.1,5.9,0.3,8.8c0.7,1.6-0.6,3.2-0.3,4.8
		C587,319.6,582.9,319.6,578.8,319.6z"/>
	<path class="st0" d="M709.3,102.8c-7.6-8.6-16.1-16.2-26-22.2c-8.6-5.2-17.5-9.9-26.7-14c-0.8,7.5-0.7,15-0.6,22.5
		c0,3.8,0.9,7.5,0.5,11.3c-0.1,1.1,0.7,1.5,1.2,2.2c2.8,1.1,5.3,2.9,7.8,4.6c3.5,2.3,7.1,2.9,11.2,2.2c2.5-0.4,5-0.7,7.7-1
		c-2.3,2.1-10.9,4.3-16,4.2c0.1,0.8-0.3,1.4-0.9,2c-5.1,4.9-10.1,9.9-15.1,14.8c-0.4,0.4-1,0.6-1.5,0.8c-1.2,3-3.8,4.9-5.9,7.2
		c-0.3,0.3-0.6,0.7-0.9,1c0,0-0.1,0.1-0.1,0.1c-0.6,1-1.3,1.8-2.2,2.5c-0.2,0.2-0.4,0.4-0.5,0.6c-0.9,1-1.8,2-2.7,3
		c-0.3,0.2-0.5,0.5-0.8,0.7l0.1-0.1c-0.2,0.2-0.4,0.4-0.6,0.7l0.1-0.1c-0.2,0.2-0.4,0.4-0.7,0.7l0.1,0c-2.1,2.9-5,4.9-8,6.7
		c-7.8,4.7-16.1,8.5-23.6,13.6c-7.7,5.1-14.6,10.9-18.1,19.8c-1.2,0.9-3.1,0-4.1,1.6c-0.5,4.9-1.9,9.6-3.4,14.3
		c-3,9.3-2.3,18.3,1.2,27.3c3.3,8.7,6.2,17.5,7.6,26.8c1.2,1.4,2,0.6,2.9-0.7c-0.1,4.1,0,8-2.4,11.3c0,0.4,0,0.7,0,1.1
		c0,0.4,0,0.9,0,1.3c0,7.1,0.1,14.1,0.6,21.2c3.5-4.9,4.9-10.8,6.9-16.3c1.3-3.3,2.7-6.6,3.8-10.1c2-6.5,3.2-13.1,3.4-19.9
		c0.1-3.1,0.1-6.3,0-9.4c-0.2-4.1,0.2-7.9,2.6-11.5c1.7-2.5,0.5-6.1,3.2-8.2c0.5-3.7,3-6.3,5.2-8.9c3.1-3.6,6.5-7,10.2-10
		c4-4.2,9.1-6.9,13.7-10.3c2-1.5,4.2-2.8,6.2-4.3c0.8-0.6,1.6-0.7,2.4-0.7c3.9-2.9,6.5-7.1,10.7-9.6c1.9-1.7,4.1-3,6.4-4.2
		c3.3-2.4,6.5-5,9.4-7.9c0.3-1,1-1.8,2-2.4c0.2-0.2,0.4-0.4,0.6-0.6c0.2-0.2,0.3-0.3,0.5-0.5c-0.6,0.4,0.2-0.3,0.3-0.4
		c0.1-0.1,0.3-0.3,0.4-0.4c0.1-0.2,0.2-0.4,0.4-0.6c6.9-6.4,13.2-13.4,19.4-20.5c4.6-5.3,9.4-10.5,13.3-16.4
		C713.8,112.9,712.7,106.6,709.3,102.8z"/>
	<path class="st6" d="M656.6,66.6c-0.8,7.5-0.7,15-0.6,22.5c0,3.8,0.9,7.5,0.5,11.3c-0.1,1.1,0.7,1.5,1.2,2.2c0,0.4,0,0.7,0,1.1
		c-0.8-0.7-1.6-1.4-2.5-2c-3.3-2.6-6.2-5.8-9.9-7.9c0.2-4.4,1.4-8.6,2.1-12.9c1-5.9,1-11.8,1.5-17.7
		C651.6,64.1,654.3,64.9,656.6,66.6z"/>
	<path class="st7" d="M668.3,196.8c1.6,0.2,2.2,1.2,2.8,2c6.5,8.7,12.7,17.5,17.9,27c0-1.5,0-2.9,0.1-4.4c0.1-1.6,0.4-3.2,0.7-4.8
		c-0.2-1.8-0.4-3.6-0.6-5.5c-3-5.9-6.4-11.6-10.7-16.8c-5.8-6.9-11.3-14.1-18.5-19.7c-1-0.8-2.6-1.4-2.2-3.2
		c-4.2,2.5-6.8,6.7-10.7,9.6c-2.7,3.6-6.2,6.5-9.2,9.8c-2.9,3.2-5.8,6.4-7.8,10.2c5.2,1,10.3,2,15.5,3c15.6,3,26.5,11.9,33.1,26.3
		c0.7,1.4,0.8,3.1,1.9,4.4c0.9-1.5,0.9-3,0.8-4.4C680.7,217.9,674.3,207.5,668.3,196.8z"/>
	<path class="st6" d="M647.1,181c-2.7,3.6-6.2,6.5-9.2,9.8c-2.9,3.2-5.8,6.4-7.8,10.2c-2.8,7.6-4.9,15.5-9.9,22.1
		c-1.8,2.4-2,5.1-2.3,7.7c-2.1,16.3-8.4,31.4-14.1,46.6c-3,8-7.3,15.4-10.7,23.1c-0.8,1.8-0.7,3.8-1.9,5.5c-1.4-0.1-1.2-0.9-1.2-2
		c0-2.9,0.6-5.8-0.4-8.6c0-1.6-0.1-3.2-0.1-4.7c3.5-4.9,4.9-10.8,6.9-16.3c1.3-3.3,2.7-6.6,3.8-10.1c2-6.5,3.2-13.1,3.4-19.9
		c0.1-3.1,0.1-6.3,0-9.4c-0.2-4.1,0.2-7.9,2.6-11.5c1.7-2.5,0.5-6.1,3.2-8.2c1,0.1,1.3-0.7,1.8-1.3c3-4,6.3-7.7,9.4-11.5
		c1.5-1.8,4.2-3.1,4.2-6.1c4-4.2,9.1-6.9,13.7-10.3c2-1.5,4.2-2.8,6.2-4.3C645.5,181.1,646.2,181,647.1,181z"/>
	<path class="st6" d="M519,204.8c-1.6,2-3.7,3.5-5.7,5c0.1-1.2-0.1-2.3-0.8-3.3c-9.2-13-18.2-26.2-27.5-39.1
		c-4.8-6.7-10.3-12.8-14.9-19.6c-1.5-2.2-3.7-3.8-4.5-6.3c0.7,0,1.3,0.4,1.8,0.9c10.8,10.8,21.9,21.2,32.2,32.5
		c7.1,7.7,13.5,16.3,17,26.5C517,202.6,517.6,204,519,204.8z"/>
	<path class="st8" d="M496.8,266.4c0.1-0.5,0.3-1,0.9-1c4.8,0.1,9.3-1.2,13.7-3c0.4,1,0.8,2,1.2,3c0.1,0.7,0.2,1.4,0.3,2.1
		c-2.7,1.4-5.7,1.2-8.7,1.5c-0.9-0.2-1.8-0.4-2.8-0.6C499.9,267.7,498.4,267.1,496.8,266.4z"/>
	<path class="st9" d="M505.5,215.6c-0.4,3.4-4.1,5.9-7,4.8C500.6,218.4,502.8,216.7,505.5,215.6z"/>
	<path class="st5" d="M493.3,97.3c-1.6,2.8-4.5,4.3-6.7,6.5c-0.9,1-1.9,1.9-2.9,2.8c-4.8,0.8-13.7-1.5-17.3-3.8
		c2-0.7,3.9,0.1,5.5,0.5c7.2,1.8,13.2-0.6,18.8-4.9C491.4,97.8,492.3,97.3,493.3,97.3z"/>
	<path class="st4" d="M525.7,145.8c-2.2,4.3-5.2,8.1-7.7,12.2c-0.9-0.3-1.6-0.6-1.6-1.7c3.1-3.5,5-8,8.9-10.8
		C525.5,145.6,525.6,145.7,525.7,145.8z"/>
	<path class="st5" d="M494.5,96.7c-0.3,0.5-0.7,0.6-1.2,0.6C493.5,96.8,494,96.7,494.5,96.7z"/>
	<path class="st3" d="M583.5,271.8c0.9-1.3,1.4-3.1,3.6-2.3C586.4,271.1,585.4,272,583.5,271.8z"/>
	<path class="st5" d="M588.4,269.4c0.1-0.4,0.2-0.8,0.3-1.2c0,0.4,0,0.9,0,1.3C588.6,269.5,588.5,269.4,588.4,269.4z"/>
	<path class="st5" d="M533.3,265.3c-0.1,1-0.1,2-0.2,3c-3.5-2.5-3.4-6.7-4.8-10.6c-3.5,6.1-8.4,9.5-15.1,10
		c-0.1-0.1-0.3-0.1-0.4-0.2c-0.1-0.7-0.2-1.4-0.3-2.1c1-0.6,2-0.6,3.1-0.7c5.9-0.4,11.9-6,12.9-11.8c1.1-5.6,3.1-10.9,6-15.9
		c3.1-5.3,3.2-5.3,5.2-5.9c0.3,1.2-0.7,1.8-1.2,2.6c-2.7,4.6-6.1,8.8-6.4,14.5c-1.5,0.5-1.4,1.4-0.6,2.4c0,0.4,0,0.8,0,1.2
		C530.2,256.5,531.6,260.9,533.3,265.3z"/>
	<path class="st8" d="M541,45.5c-0.2-3.5,1.9-6,4.3-7.7c5-3.4,10.3-6.4,16.6-7.2c3.6-0.4,5,0.8,4.4,4.4c-0.2,1.3-0.4,2.5-0.6,3.8
		c-0.9,5.3,4.4,7,8.6,6.8c2.5-0.1,4.7-1,6.9-2c2.4-1.1,3.4,0,3.8,2.2c0.1,0.5,0.1,1,0.2,1.5c0.5,2.9,1.2,3.3,3.5,1.6
		c3-2.2,6.3-4,8.5-7.1c0.3-0.5,0.6-1.1,1.3-1c0.7,0.2,0.8,0.8,0.7,1.4c-0.6,6.5-2,12.7-7.8,16.9c-0.5,0.4-1.1,0.5-1.6,0.2
		c-0.7-0.4-0.5-1-0.3-1.5c0.1-0.4,0.2-0.7,0.4-1.1c0.3-1.1,1.1-2.4,0.1-3.3c-1.1-0.9-2.1,0.3-3.1,0.8c-4.1,1.9-7.6,4.9-12,6.3
		c-2.7,0.9-5,0.2-6.3-2.6c-2-4.1-5.5-5.3-9.5-5.4c-2.6-0.1-5.1,0.3-5.7-3.4c-0.3-1.9-2.3-1.5-3.7-1.2c-1.7,0.4-3.4,1-5.2,1
		C542,49,540.8,48,541,45.5z"/>
	<path class="st2" d="M524,106.7c-9.2-6.5-10.6-21.8-2.8-30c1.7-1.7,3.6-2.2,5.9-1.7c0.3,0.4,0.7,0.7,1,1.1c0.1,0.2,0.3,0.4,0.4,0.5
		c0,0.4,0.1,0.8,0.1,1.1c-0.1,0.1-0.2,0.1-0.2,0.2c0,0.2,0.1,0.3,0.2,0.4c0,2,0,3.9,0,5.9c-0.1,0.1-0.2,0.2-0.2,0.2
		c0.1,0.2,0.2,0.3,0.2,0.4c0,0.6,0.1,1.1,0.1,1.7c-1.2,1.3-2.4,2.5-3.5,3.8c-1,1.2-2.4,2.5-2.6,3.9c-0.4,2.9,2.4,3.5,4.4,4
		c1.9,0.5,2.5,1.2,2.2,2.9c-1.3,0.2-3-0.2-3.4,1.8c-0.3,1.6,0.3,2.6,1.7,3.2C526.4,107.2,525.1,106.5,524,106.7z M527.5,82.8
		c-0.4-2.1-1.7-2.6-3.3-2.4c-2.5,0.4-4.2,3.4-4,7.4C521.8,84.7,523.2,81.5,527.5,82.8z"/>
	<path class="st1" d="M581.9,76.7c-2.6,1.5-5.7,1.8-8.4,2.9c-1.4,0.2-2.9,0.3-4.8,0.5c0.9-0.8,1.4-1.3,1.9-1.7
		c1.5-1.2,3.1-2.4,4.6-3.6c0,0.8,0,1.6,0,2.4l-0.2,0.1l0.1,0.1l0.1-0.2c5.7-2.4,10.6-6,15.5-9.7c6.2-4.6,9.8-10.9,12.3-18
		c1.6-4.4,1.5-9,0.8-13.6c-0.2-1.5-0.3-3,0.2-4.5c0.9,1.4,2.1,2.7,1.9,4.4c-0.8,4.7,1.4,8.5,3.4,12.4c0.8,1.6,1.2,3.5,2.7,4.7
		c0.7,0.6,0.6,1.6-0.2,2.3c-1.4-0.5-1.3-2.1-2.3-3c-1-2.1-2.1-4.1-3.4-6.9c-1.8,9.9-5.7,18.1-12.6,24.6c-2.3,1.4-4.1,3.4-6.8,4.2
		c-0.3,0.2-0.6,0.3-0.9,0.5c-0.3,0.4-0.8,0.6-0.7,1.2C584.1,76.3,583,76.5,581.9,76.7z"/>
	<path class="st5" d="M528.7,86.6c0.9,3.3,1.6,6.6,3,9.7c-0.6,4.7,0.8,9.2,0.5,13.9c-3-0.5-6-1.2-8.2-3.5c1.1-0.2,2.4,0.5,3.4-0.5
		c3.5-0.8,4-2.3,1.7-5c0.3-1.8-0.4-2.5-2.2-2.9c-1.9-0.5-4.8-1.1-4.4-4c0.2-1.4,1.6-2.7,2.6-3.9C526.3,89.1,527.5,87.9,528.7,86.6z
		 M528.8,95.8c0.3-1.4,1.1-2.8-0.6-3.6c-0.5-0.3-1.4,0.2-1.5,0.6C526.3,94.4,528,94.8,528.8,95.8z"/>
	<path class="st10" d="M525.7,137.5c-2.2-0.1-2.7-1.3-2.3-3.3c0.5-2.3,0.7-4.6,1-6.9c1.3-5.4,1.6-11.1,3.4-16.5
		c1.2,0.4,0.9,1.1,0.9,1.6c-0.1,7-0.1,14.1-0.3,21.1C528.4,135.3,528.6,137.6,525.7,137.5z"/>
	<path class="st1" d="M632,130.9c0.4-1.6,0.5-3.2,1.5-4.6c1.5,5.1,3.8,9.9,6.4,14.5c0.3,0.6,0.9,0.7,1.5,0.7c-0.9,1-1.8,2-2.7,3
		c-0.4,0.1-0.7,0.3-0.8,0.7c0,0,0.1-0.1,0.1-0.1c-0.4,0-0.6,0.3-0.6,0.7c0,0,0.1-0.1,0.1-0.1c-0.4,0-0.6,0.2-0.7,0.7
		c0,0,0.1,0,0.1,0c-1.3-0.2-1.8-1.2-2.4-2.2c-1.7-3.3-3-6.6-3.5-10.2c0.1-0.2,0.2-0.5,0.3-0.7c0.4-0.4,1.2,2.1,1.3-0.2
		C632.5,132.3,632.6,131.5,632,130.9z"/>
	<path class="st1" d="M635.3,106.8c-0.4-2.5,0.4-4.9,0.5-7.4c0-1.2,0-2.4,0-3.6c-0.6-5.9-3.1-11-7.4-15.2c0,0,0,0,0,0
		c-0.1-0.3-0.2-0.7-0.3-1c0.7,0,1.3-0.1,2-0.1c0.1,0.7,0.2,1.4,1,1.5c0.3,0.1,0.6-0.2,0.5-0.5c-0.2-0.8-0.8-1-1.5-1
		c0.6-1.9-1.3-3.7-0.2-5.7c3.3,4.6,5.7,9.6,6.8,14.9c0.7,3.2,1.9,6.9,0,10.3c-1.2,2.2,1.4,3.4,1.4,5.3
		C636.4,104.4,636.8,106.6,635.3,106.8z"/>
	<path class="st1" d="M627.7,79.1c-1-0.7-1.4-2.2-2.9-2.1c-0.1-0.7-0.1-1.3-0.2-2c-4.9-5.9-9.6-12-12.7-19c2.2-0.1,2.9,1.9,3.2,3.2
		c1.1,3.4,3.9,5.4,5.4,8.2C622.7,71.5,628,73.6,627.7,79.1z"/>
	<path class="st2" d="M570.6,78.4c-2.2,0.2-4.3-1-6.6-0.8c2.7-1.8,6-2.3,8.3-4.5c1.1,0.3,2.6,0,2.9,1.7
		C573.7,76,572.1,77.2,570.6,78.4z"/>
	<path class="st5" d="M574.3,70.7c2.6-2.4,5.9-3.8,8.2-6.4c0.5-0.2,1-0.5,1.6-0.8C580.9,69.6,578.1,72.6,574.3,70.7z"/>
	<path class="st5" d="M635.3,106.8c1.5-0.2,1.1-2.5,2.7-2.5c-0.9,4.1-1.7,8.2-2.6,12.3c-0.2,0.9,0,2-1.1,2.5c-0.3,0-0.5-0.1-0.8-0.1
		c0.6-2.5,2.7-4.8,1.2-7.6C635,109.9,634.3,108.2,635.3,106.8z"/>
	<path class="st1" d="M644.1,138.5c-0.6,1-1.3,1.8-2.2,2.5C641.6,139.2,642.2,138.3,644.1,138.5z"/>
	<path class="st1" d="M510.3,123.3c-0.8-0.8-1-1.8-1.4-2.8C512.3,120,509.6,122.5,510.3,123.3z"/>
	<path class="st5" d="M628.1,79.7c0.1,0.3,0.2,0.7,0.3,1c-0.6-0.1-0.8-0.5-0.8-1C627.8,79.6,628,79.7,628.1,79.7z"/>
	<path class="st1" d="M508.9,120.5c-0.2-0.4-0.4-0.9-0.6-1.3C509.1,119.4,509.1,119.9,508.9,120.5z"/>
	<path class="st1" d="M645,137.4c-0.3,0.3-0.6,0.7-0.9,1C644.3,137.9,644.5,137.5,645,137.4z"/>
	<path class="st7" d="M630.8,133.9c0.6,3.6,1.9,7,3.5,10.2c0.6,1.1,1.1,2,2.4,2.2c-2.1,2.9-5,4.9-8,6.7c-7.8,4.7-16.1,8.5-23.6,13.6
		c-7.7,5.1-14.6,10.9-18.1,19.8c-0.9-0.5-1.8-1.1-2.8-1.6c-2.4-1.4-4.2-3.8-7-4.6c-0.8-3.1-0.1-6.2-0.4-9.3c0.1-2.7,0.2-5.4,0.3-8.1
		c2-0.1,3.7,1,5.4,1.8c5.8,2.5,11.3,2.1,16.6-1.2c9-5.5,17-12.2,24.8-19.2C627.1,141.5,628.7,137.5,630.8,133.9z"/>
	<path class="st5" d="M668.4,112.6c-3.5-3-7.1-5.9-10.6-8.9c0-0.4,0-0.7,0-1.1c2.8,1.1,5.3,2.9,7.8,4.6c3.5,2.3,7.1,2.9,11.2,2.2
		c2.5-0.4,5-0.7,7.7-1C682.2,110.5,673.6,112.7,668.4,112.6z"/>
	<path class="st5" d="M624.8,196.3c0,3-2.7,4.2-4.2,6.1c-3.2,3.8-6.5,7.5-9.4,11.5c-0.5,0.6-0.8,1.4-1.8,1.3c0.5-3.7,3-6.3,5.2-8.9
		C617.7,202.7,621,199.3,624.8,196.3z"/>
	<path class="st9" d="M577.3,180.3c2.8,0.9,4.5,3.3,7,4.6c0.9,0.5,1.8,1.1,2.8,1.6c-1.2,0.9-3.1,0-4.1,1.6c0-2.4-0.9-3.5-3.4-2.4
		C577.7,184.3,577.2,182.4,577.3,180.3z"/>
	<path class="st5" d="M588.2,259.4c0-1,0.1-2,0.1-2.9c1.2,1.4,2,0.6,2.9-0.7c-0.1,4.1,0,8-2.4,11.3c-0.4-1.6-0.6-3.2-0.1-4.8
		c1.1-0.5,1.1-1.1,0-1.6C588.5,260.3,588.3,259.8,588.2,259.4z"/>
	<path class="st7" d="M636.7,146.4c0-0.4,0.2-0.6,0.7-0.7C637.1,146,636.9,146.2,636.7,146.4z"/>
	<path class="st7" d="M637.3,145.8c0-0.4,0.2-0.6,0.6-0.7C637.7,145.4,637.5,145.6,637.3,145.8z"/>
	<path class="st7" d="M637.8,145.2c0.1-0.4,0.4-0.7,0.8-0.7C638.4,144.8,638.1,145,637.8,145.2z"/>
	<path class="st6" d="M510.4,258.2c3.2-1.2,6.8,0,10-1.8c1.7-0.9,3.6-1.5,5.2-2.7c0.9-0.7,1.9-0.9,3-0.9c-1,5.8-7.1,11.4-12.9,11.8
		c-1.1,0.1-2.1,0.1-3.1,0.7c-0.4-1-0.8-2-1.2-3C511,261,510.7,259.6,510.4,258.2z"/>
	<path class="st6" d="M531.6,251.8c1.5,1.4,1.6,3.4,1.9,5.2c0,0,0.2,0.1,0.2,0.1c0.2-0.1,0.3-0.2,0.5-0.3c0,1.5,0,2.9,0,4.4
		c-0.3,1.4-0.6,2.8-0.8,4.2C531.6,260.9,530.2,256.5,531.6,251.8z"/>
	<path class="st0" d="M588.7,260.7c1.1,0.5,1.1,1.1,0,1.6C588.7,261.8,588.7,261.2,588.7,260.7z"/>
	<path class="st6" d="M532.1,248.2c0,0.8,0.3,1.8-0.6,2.4C530.8,249.5,530.6,248.7,532.1,248.2z"/>
	<path class="st9" d="M612.7,131.1c-2.5,10.9-11.8,18.5-22.3,18.1c-11.6-0.4-20.8-8.5-22.3-19.9c-0.2-1.5-0.9-3-0.2-4.6
		c1.4,0.2,1.8,1.3,2.2,2.4c1,2.8,2.1,5.5,4.6,7.4c6.8,8.2,18.1,10,28.9,4.5C607.6,137.5,610.3,134.5,612.7,131.1z M576.4,139.1
		c-0.4-1.5-1.7-1.8-2.9-2.1c-0.5-0.2-1,0.3-0.9,0.8c0.3,1.4,1.5,2.1,2.6,2.6C576,140.8,576.1,139.7,576.4,139.1z M578.1,139.8
		c-0.6,0.2-1.2,0.6-1,1.4c0.2,1.2,1.4,1.5,2.3,1.9c0.6,0.2,1.2-0.2,1.1-0.9C580.3,140.9,579.4,140.2,578.1,139.8z"/>
	<path class="st11" d="M548.1,87.8c1.5,0.5,2.9,0.1,4.1-0.9c0.9-0.8,1.8-1.5,2.7-2.3c7.2-6.1,15.2-5.6,21.6,1.3
		c2.7,2.9,4.1,6.4,5.7,9.8c0,0.7,0.1,1.5,0.1,2.2c-1.3-0.1-1.2-1.5-2-2.1c-1.2-2.1-2.2-4.4-4.5-5.7c-1.4-1.7-2.6-3.5-5.3-3.8
		c0.6,1.7,0.7,3.3,0.3,4.8c-3.2-0.5-4,0.3-3.9,3.6c-4.9,0-7-2.3-6.8-7.7c-3.7,1.3-4.9,3.7-3.5,7c0.5,1.3,1.1,2.5,1.6,3.7
		c-3.7-1.9-7.1-4.2-9.6-7.6C548.3,89.5,546.9,89,548.1,87.8z"/>
	<path class="st11" d="M635.8,95.8c0,1.2,0,2.4,0,3.6c-2.8,1.6-5.2,4.1-8.7,4.3c0.6-0.8,1.2-1.5,1.7-2.3c2.6-4.2,0.8-8.6-4-9.9
		c-1.5-0.1-2.6-2-4.4-0.8c0.8,1.2,2.1,2.2,1.9,3.8c-3.3,0.9-3.8,2-2.1,4.9c-3.2,2.6-6.4,1.5-8.9-3c-1.6,0.9-2.1,3.1-4,3.5
		c0-1.7,0.9-3,1.7-4.3c0.8-1,1.5-2,2.3-3c1.8-2.4,3.9-4.3,6.7-5.6c5.4-2.4,9.7-1.2,13.5,3.6C632.8,92.4,633.3,94.9,635.8,95.8z"/>
	<path class="st5" d="M567.6,164.5c-4.2-4-8.5-7.9-12.4-12.1c-1.9-2.1-4.9-3.2-5.9-6.2c3.7,1.2,6.5,3.9,9.7,5.8
		c5.4,3.3,10.7,6.8,16.4,9.5c0.7,0.4,1.4,0.6,1.7,1.5c-0.1,2.7-0.2,5.4-0.3,8.1c-0.8,0-1.4-0.4-2.1-0.9
		C572.2,168.5,570.5,165.7,567.6,164.5z"/>
	<path class="st9" d="M570.4,124.3c5.7,0.6,11.4,0.9,16.8,2.6c5,1.5,10,2,15.1,1.3c3.5-0.5,7.1-0.4,10.6,0c-0.8,0.7-1.7,1.5-2.5,2.2
		c-0.2,0.2-0.3,0.4-0.5,0.6c0,0,0.1-0.1,0.1-0.1c-2.2,0.4-4.4,1-6.6,1.2c-10.5,1.1-20.5-0.9-30-5.4
		C572.6,125.6,571.1,125.6,570.4,124.3z"/>
	<path class="st12" d="M558.4,97.7c-0.5-1.2-1.1-2.5-1.6-3.7c-1.4-3.4-0.2-5.8,3.5-7c-0.2,5.4,1.9,7.8,6.8,7.7
		c1.2,1.4,2.6,2.2,4.3,0.7c1.7-1.5,0.8-3-0.4-4.3c0.4-1.5,0.2-3-0.3-4.8c2.7,0.3,3.9,2.2,5.3,3.8c-0.1,1.1-0.2,2.3-0.3,3.4
		c-1.1,3.5-3.3,6-6.7,7.6C565.1,100.7,561.6,99.8,558.4,97.7z"/>
	<path class="st12" d="M622.3,94.5c0.2-1.6-1.1-2.6-1.9-3.8c1.8-1.2,3,0.7,4.4,0.8c2.8,5.1,2.3,8.4-1.9,13.4c0,0,0,0,0,0
		c-0.2,0.2-0.4,0.4-0.6,0.5c-3.5,0.4-7,0.7-10.5-0.6c-2.1-1.1-2.4-3.8-4.7-4.7c0-0.1,0-0.2,0.1-0.4c2-0.4,2.4-2.6,4-3.5
		c2.5,4.5,5.7,5.6,8.9,3c1.7,0.8,3.2,0.9,4.1-1.1C625.3,96.2,623.7,95.4,622.3,94.5z"/>
	<path class="st5" d="M635.8,95.8c-2.5-0.9-3-3.4-4.4-5.2c-3.8-4.8-8-6-13.5-3.6c-2.8,1.2-4.9,3.2-6.7,5.6c-0.8,1-1.5,2-2.3,3
		c-0.7-2.6,0.9-4.4,2.2-6.1c4.6-5.6,10.4-8.5,18.1-4.4c0.9-1.7-1.6-2.7-0.8-4.4C632.7,84.8,635.2,89.9,635.8,95.8z"/>
	<path class="st5" d="M605,108.5c1.1,1.8,2.2,3.1,3.5,4.2c0.6,0.5,1,1.2,0.8,2.1c-1,3.4-2.8,6.3-6,7.9c-2.9,1.5-6.1,0.8-8.6-1
		c-1.3-1-4-2-3.2-4c0.9-2,2.9,0.1,4.4,0.2c2.9,0.1,5.7,1.1,8.5-0.6c1.7-1.1,2.3-2,1.6-4C605.6,111.9,604.3,110.6,605,108.5z"/>
	<path class="st5" d="M593.5,70.1c6.9-6.5,10.8-14.6,12.6-24.6c1.3,2.7,2.4,4.8,3.4,6.9c-2.2,1-2.5,3.3-3.6,5.1
		c-2.9,4.6-6.5,8.5-10.5,12.1C594.8,70.2,594.2,70.2,593.5,70.1z"/>
	<path class="st13" d="M568.8,101.1c3.3-1.5,5.6-4,6.7-7.6c2,0,2.5,3.1,4.8,2.3c0.7,0.6,0.7,1.9,2,2.1c0.5,1.9-0.1,2.8-2.1,3.2
		C576.4,101.8,572.6,102,568.8,101.1z"/>
	<path class="st13" d="M623,104.9c4.2-5,4.6-8.4,1.9-13.4c4.8,1.4,6.6,5.7,4,9.9c-0.5,0.8-1.1,1.5-1.7,2.3
		C626.1,105.3,624.4,104.8,623,104.9z"/>
	<path class="st11" d="M570.4,124.3c0.7,1.2,2.2,1.3,3.1,2.3c0.6,2.9,3.3,4.5,4.7,7.1c-1.3,0.3-2.6-0.2-3.6,0.8
		c-2.4-1.9-3.6-4.6-4.6-7.4c-0.4-1.2-0.7-2.2-2.2-2.4c-0.4-0.9-1.4-1.4-1.3-2.7C568.5,122,568.8,124.2,570.4,124.3z"/>
	<path class="st3" d="M624.6,75c0.1,0.7,0.1,1.3,0.2,2c-4.5,1.1-9.1,2.3-13.6,3.4c-0.1,0-0.3-0.2-0.8-0.6c2.7-2.8,5.8-4.4,9.7-4.5
		C621.5,75.2,623.1,75.9,624.6,75z"/>
	<path class="st0" d="M535.7,104.9c0-1.8,3.2-5.3,4.4-5.2c1,0.1,1.7,0.6,1.1,1.8c-0.9,1.6-1.2,3.2-1.3,5c-0.1,1.3-0.7,2.7-2,2.8
		c-1.1,0.1-1.5-1.3-1.7-2.4C535.9,106.1,535.8,105.2,535.7,104.9z"/>
	<path class="st11" d="M610.5,130.4c0.8-0.7,1.7-1.5,2.5-2.2c1.4,1.1-0.4,1.9-0.3,2.9c-2.4,3.4-5.1,6.4-9.1,7.9
		c-0.2-1.1-1.6-1.2-2-2.2c3.8-0.8,6.5-2.9,8.5-6c0,0-0.1,0.1-0.1,0.1C610.2,130.7,610.3,130.6,610.5,130.4z"/>
	<path class="st13" d="M607.2,100.2c2.3,0.8,2.7,3.6,4.7,4.7C607.6,104.2,606.5,103.1,607.2,100.2z"/>
	<path class="st3" d="M581.9,76.7c1.1-0.2,2.2-0.4,3.3-0.7c0.6,0.3,1.3,0.8,1.1,1.5c-0.3,0.9-1.2,0.3-1.7,0.2
		C583.6,77.5,582.8,77.1,581.9,76.7z"/>
	<path class="st7" d="M632,130.9c0.6,0.6,0.5,1.4,0.5,2.1c-0.2,2.2-0.9-0.2-1.3,0.2C631.4,132.4,631.7,131.7,632,130.9z"/>
	<path class="st5" d="M549.3,146.2c-0.3,0-0.6,0-1,0.1c-0.1-0.6-0.1-1.2-0.2-1.8C548.9,144.8,549.3,145.4,549.3,146.2z"/>
	<path class="st13" d="M622.4,105.4c0.2-0.2,0.4-0.4,0.6-0.5C622.8,105.1,623.3,106.1,622.4,105.4z"/>
	<path class="st3" d="M585.9,74.9c0.3-0.2,0.6-0.3,0.9-0.5C586.4,74.5,586.1,74.7,585.9,74.9z"/>
	<path class="st10" d="M529.1,101.2c2.3,2.7,1.8,4.2-1.7,5c-1.4-0.6-2-1.6-1.7-3.2C526.1,101,527.8,101.4,529.1,101.2z"/>
	<path class="st5" d="M527.5,82.8c-4.3-1.2-5.7,1.9-7.3,5c-0.2-4,1.5-7,4-7.4C525.8,80.1,527.1,80.6,527.5,82.8z"/>
	<path class="st5" d="M528.5,84.3c0,0.2,0,0.4,0.1,0.6c-0.1-0.1-0.2-0.3-0.2-0.4C528.3,84.4,528.5,84.3,528.5,84.3z"/>
	<path class="st5" d="M528,76.1c0.4,0,0.6,0.1,0.4,0.5C528.3,76.5,528.1,76.3,528,76.1z"/>
	<path class="st5" d="M528.5,77.8c0,0.2,0,0.4,0,0.6c-0.1-0.1-0.2-0.3-0.2-0.4C528.3,77.9,528.4,77.9,528.5,77.8z"/>
	<polygon class="st3" points="575.2,77.2 575.1,77.5 575,77.4 	"/>
	<path class="st2" d="M528.8,95.8c-0.8-1-2.5-1.4-2.1-3c0.1-0.5,1-0.9,1.5-0.6C529.9,93,529.1,94.4,528.8,95.8z"/>
	<path class="st3" d="M630.1,79.6c0.7,0.1,1.4,0.2,1.5,1c0.1,0.3-0.2,0.6-0.5,0.5C630.3,80.9,630.1,80.3,630.1,79.6
		C630.1,79.6,630.1,79.6,630.1,79.6z"/>
	<path class="st6" d="M567.6,164.5c2.9,1.2,4.6,4,7.2,5.7c0.7,0.4,1.2,0.9,2.1,0.9c0.3,3.1-0.3,6.2,0.4,9.3c0,2.1,0.4,4.1,2.2,5.4
		c0.1,0.4,0.2,0.8,0.3,1.2c-0.1,0.2-0.1,0.4-0.2,0.6c-0.5,1.8-1,3.5-1.4,5.3c-1.2-0.5-2.1-0.2-2.3,1.2c0,0,0,0,0,0
		c-1,0-1.9,0.1-2.8,0.6c-3.1,1.7-6.2,3.2-9.4,4.7c-1.4,0.6-3.4,1.7-4.3,0.8c-1.3-1.1,1.3-2.3,1.2-3.7c0.5-2.4,2.8-3.6,3.9-5.7
		c2.7-5.1,2.7-10.7,3.2-16.2C567.8,171.1,567.6,167.8,567.6,164.5z"/>
	<path class="st5" d="M575.8,194c0.2-1.5,1.1-1.7,2.3-1.2c0,0.2-0.1,0.4-0.1,0.6C577.3,193.6,576.6,193.8,575.8,194z"/>
	<path class="st9" d="M579.6,187.5c0.1-0.2,0.1-0.4,0.2-0.6C579.7,187.1,579.6,187.3,579.6,187.5z"/>
	<path class="st6" d="M534.3,256.3c-0.2-0.4-0.1-0.7,0.2-1C534.4,255.6,534.3,256,534.3,256.3z"/>
	<path class="st5" d="M560.5,196.3c0.1,1.5-2.5,2.6-1.2,3.7c1,0.9,3-0.2,4.3-0.8c3.2-1.4,6.3-3,9.4-4.7c0.9-0.5,1.8-0.6,2.8-0.6
		c-6.4,4.3-12.6,9.4-21.7,8C557,200.6,557.4,197.1,560.5,196.3z"/>
	<path class="st13" d="M610.1,130.9c-2,3.1-4.7,5.2-8.5,6c0.4,1,1.8,1.1,2,2.2c-10.9,5.4-22.2,3.7-28.9-4.5c0.9-1,2.2-0.5,3.6-0.8
		c-1.4-2.6-4.2-4.1-4.7-7.1c9.5,4.6,19.5,6.5,30,5.4C605.7,131.8,607.9,131.3,610.1,130.9z"/>
	<path class="st10" d="M576.4,139.1c-0.3,0.6-0.4,1.7-1.2,1.3c-1.1-0.5-2.3-1.2-2.6-2.6c-0.1-0.6,0.4-1,0.9-0.8
		C574.7,137.3,576,137.6,576.4,139.1z"/>
	<path class="st10" d="M578.1,139.8c1.3,0.4,2.2,1.1,2.4,2.4c0.1,0.7-0.5,1.1-1.1,0.9c-1-0.4-2.1-0.7-2.3-1.9
		C576.9,140.5,577.5,140,578.1,139.8z"/>
	<path class="st13" d="M570.9,91.1c1.2,1.3,2.1,2.8,0.4,4.3c-1.7,1.5-3,0.7-4.3-0.7C566.9,91.3,567.7,90.6,570.9,91.1z"/>
	<path class="st0" d="M580.3,95.8c-2.4,0.8-2.9-2.3-4.8-2.3c0.1-1.1,0.2-2.3,0.3-3.4C578.1,91.4,579.1,93.7,580.3,95.8z"/>
	<path class="st13" d="M622.3,94.5c1.4,0.9,3,1.7,2,3.8c-0.9,2-2.5,1.9-4.1,1.1C618.5,96.5,619,95.3,622.3,94.5z"/>
	<path class="st13" d="M610.5,130.4c-0.2,0.2-0.3,0.4-0.5,0.6C610.2,130.7,610.3,130.6,610.5,130.4z"/>
	<g>
		<g>
			<path class="st2" d="M617.6,119.2c0-0.7-0.3-2,0-2.6c-0.1,0-0.2-0.1-0.3-0.1c0.3-0.1,0.6-0.3,1-0.4c1.3-0.8,3.1-1.4,4.6-1.9
				c1.5-0.5,3.2,0.2,4.6-0.2c0.3,0,0.5,0.1,0.8,0.1c-0.3-1-0.6-2-1-2.9c-0.3-0.1-1.9,1-2.2,1.1c-5.1,2.5-10,5.2-11.7,11
				c-0.4,1.4,0.2,3.5,1.7,4.2c3.1,1.3,5.8,0.3,8.9-0.5c4.6-1.1,2.7-8.2-2-7.1c-0.3,0.1-3.9,0.9-3.2,1.2c0.6,1.4,1.1,2.8,1.7,4.2
				c1.4-4.9,7.5-5.5,11.1-8.2c3.3-2.5,3.9-7.7-0.4-9.7c-4.4-2-9.6-0.7-13.8,1c-1.9,0.8-4.3,1.5-5.7,3.2c-1.7,2.1-1.6,5.1-1.6,7.6
				C610.4,124,617.8,124,617.6,119.2L617.6,119.2z"/>
		</g>
	</g>
	<g>
		<g>
			<path class="st2" d="M621.4,116.6c-0.1-0.2-0.2-0.3-0.3-0.5c-0.5-0.8-1.3-1.4-2.2-1.7c-0.9-0.2-2.1-0.1-2.8,0.4
				c-1.6,1-2.5,3.3-1.3,5c0.1,0.2,0.2,0.3,0.3,0.5c0.5,0.8,1.3,1.4,2.2,1.7c0.9,0.2,2.1,0.1,2.8-0.4
				C621.7,120.6,622.6,118.3,621.4,116.6L621.4,116.6z"/>
		</g>
	</g>
	<g>
		<g>
			<path class="st2" d="M621.2,114.5c0.7-0.3,1.4-0.6,2.1-0.9c0.8-0.3,1.5-1.4,1.7-2.2c0.2-0.9,0.1-2.1-0.4-2.8
				c-0.5-0.8-1.3-1.5-2.2-1.7c-0.3,0-0.7-0.1-1-0.1c-0.7,0-1.3,0.2-1.9,0.5c-0.7,0.3-1.4,0.6-2.1,0.9c-0.8,0.3-1.5,1.4-1.7,2.2
				c-0.2,0.9-0.1,2.1,0.4,2.8c0.5,0.8,1.3,1.5,2.2,1.7c0.3,0,0.7,0.1,1,0.1C620,115,620.6,114.8,621.2,114.5L621.2,114.5z"/>
		</g>
	</g>
	<g>
		<g>
			<path class="st2" d="M627.7,113.1c0,0.5-0.5,5.9-0.7,5.9c0.9-0.8,0.9-0.9,0.1-0.3c-0.4,0.2-0.8,0.4-1.2,0.6
				c-0.8,0.3-1.5,0.6-2.3,0.8c-4.6,1.3-2.6,8.4,2,7.1c2.6-0.7,6.4-2,7.9-4.5c0.7-1.2,0.8-2.7,1-4.1c0.3-1.9,0.5-3.7,0.6-5.6
				C635.5,108.4,628.1,108.4,627.7,113.1L627.7,113.1z"/>
		</g>
	</g>
	<path class="st14" d="M578.8,319.6c-14.2,0-28.3,0-42.5,0c-0.1-0.3-0.2-0.6-0.2-0.8c1.4-8.2,0.7-16.4-0.3-24.5
		c-1-7.4-2.9-14.8-2.4-22.4c1,1.5,2.8,1.7,4.3,2.4c12.8,6.1,25.9,6.2,39.1,2c2.6-0.8,5.2-1.8,6.7-4.4l0,0c1.8,0.2,2.9-0.7,3.6-2.3
		c0.4,0,0.9-0.1,1.3-0.1c0.1,0,0.2,0.1,0.3,0.2c0,7.1,0.1,14.1,0.6,21.2c0,1.6,0.1,3.2,0.1,4.7c-0.2,5-0.5,10-0.6,14.9
		c0,2-0.7,3-2.5,3.7c-2.8,1-5.5,2.1-8.8,3.4c2.9,0.4,5.1-0.7,7.5,0C583.1,318.8,580.6,318.2,578.8,319.6z"/>
	<path class="st3" d="M500.8,92.5c-1.2-9.7-1.2-19.3,0.6-28.9c2.7-9.4,6.4-18.5,12.1-26.6c11.9-16.9,28-26.9,48.2-30.7
		c20.8-3.9,40.1-0.2,57.7,11.8c4.3,2.9,8.2,6.4,11.6,10.4c7,8.4,12.7,17.6,16.6,27.8c0.8,2.1,0.9,4.4,1.3,6.6
		c-0.5,5.9-0.5,11.9-1.5,17.7c-0.7,4.3-1.8,8.6-2.1,12.9c-0.2,0.9-0.5,1.7-0.6,2.6c-1.1,11.9,0.6,23.3,6,34c-1.2,3-3.8,4.9-5.9,7.2
		c-0.6,0.1-0.8,0.5-0.9,1l-0.1,0.1c-1.9-0.2-2.5,0.7-2.2,2.5c-0.2,0.2-0.4,0.4-0.5,0.6c-0.6,0-1.2-0.2-1.5-0.7
		c-2.6-4.6-4.9-9.4-6.4-14.5c-0.1-2.5,1.1-4.7,0.9-7.2c1.1-0.5,0.9-1.6,1.1-2.5c0.9-4.1,1.8-8.2,2.6-12.3c0.1-1.9-2.5-3.1-1.4-5.3
		c1.8-3.4,0.7-7.1,0-10.3c-1.2-5.2-3.5-10.2-6.8-14.9c-1.1,2,0.7,3.9,0.2,5.7l0,0c-0.7,0-1.3,0.1-2,0.1c-0.1,0-0.3,0-0.4,0
		c0-0.2,0-0.3,0-0.5c0.4-5.5-4.9-7.7-7.1-11.7c-1.5-2.8-4.4-4.9-5.4-8.2c-0.4-1.2-1.1-3.3-3.2-3.2c-0.1-0.2-0.1-0.4-0.1-0.6
		c0.9-0.7,0.9-1.7,0.2-2.3c-1.5-1.3-1.9-3.1-2.7-4.7c-2-3.9-4.2-7.7-3.4-12.4c0.3-1.7-0.9-3-1.9-4.4c-0.5,1.5-0.4,2.9-0.2,4.5
		c0.7,4.6,0.8,9.2-0.8,13.6c-2.5,7-6.1,13.3-12.3,18c-4.9,3.7-9.8,7.2-15.5,9.7c0-0.8,0-1.6,0-2.4c-0.3-1.7-1.8-1.4-2.9-1.7
		c-0.2-0.2-0.4-0.5-0.6-0.7c0.9-0.6,1.7-1.1,2.6-1.7c3.8,1.9,6.6-1.1,9.8-7.2c-0.6,0.3-1.1,0.5-1.6,0.8c-3.1-0.6-5.4,1.9-7.6,3.1
		c-3.7,1.9-7.4,3.9-11.1,5.9c-1.3,0.7-3,0.4-4.2,1.7c-1.2,1.2-3,1.8-4.6,1.5c-3.4-0.6-6.1,1.4-8.6,2.6c-4.8,2.3-9.2,5.7-12.1,10.6
		c-0.4,0.6-0.6,1.6-1.6,1.4c-1-0.2-0.9-1.2-1.2-1.8c-1.6-3.6-2.4-7.4-2.2-11.4c0.1-1.5,0.1-3.1-2.2-2.9c-2.3-0.5-4.2,0-5.9,1.7
		c-7.8,8.1-6.4,23.5,2.8,30c2.2,2.3,5.2,3.1,8.2,3.5c-0.1,2.7,0.2,5.4,0.8,8.1c2.3,9.7,6.9,18.2,14,25.2c0.7,2,0.6,4.1,0.4,6.1
		c-5-0.6-9.3-2.5-13.4-5.1c-2.9-1.9-4.8-5.1-8.4-5.9c0,0,0.1-0.7,0.1-1c2.9,0.1,2.7-2.2,2.7-3.9c0.2-7,0.2-14.1,0.3-21.1
		c0-0.5,0.3-1.2-0.9-1.6c-1.8,5.4-2.1,11-3.4,16.5c-2.5,2.1-1,5.4-2.3,8c-1.5-1.6-2.8-3.1-4.3-4.5c-0.7-0.7-1.7-1.1-2.2-2.2
		c-1.1-2.5-2.9-4.4-5.4-5.4l0,0c-0.7-0.8,2-3.3-1.4-2.8l0,0c0.2-0.6,0.2-1.1-0.6-1.3c-0.3-0.7-0.7-1.4-1-2.1
		C504.3,109.1,502.5,100.9,500.8,92.5z M541,45.5c-0.2,2.5,1,3.5,3.5,3.5c1.8-0.1,3.4-0.7,5.2-1c1.4-0.3,3.4-0.7,3.7,1.2
		c0.6,3.7,3.1,3.3,5.7,3.4c4.1,0.1,7.6,1.3,9.5,5.4c1.3,2.8,3.6,3.4,6.3,2.6c4.4-1.4,7.9-4.4,12-6.3c1-0.5,2-1.7,3.1-0.8
		c1.1,0.9,0.3,2.2-0.1,3.3c-0.1,0.4-0.2,0.8-0.4,1.1c-0.2,0.6-0.4,1.2,0.3,1.5c0.5,0.3,1.1,0.2,1.6-0.2c5.8-4.2,7.2-10.3,7.8-16.9
		c0.1-0.6,0-1.3-0.7-1.4c-0.7-0.2-1,0.5-1.3,1c-2.2,3.1-5.6,4.9-8.5,7.1c-2.3,1.7-3,1.3-3.5-1.6c-0.1-0.5-0.1-1-0.2-1.5
		c-0.4-2.2-1.4-3.3-3.8-2.2c-2.2,1-4.4,1.9-6.9,2c-4.2,0.2-9.4-1.5-8.6-6.8c0.2-1.2,0.3-2.5,0.6-3.8c0.6-3.6-0.8-4.8-4.4-4.4
		c-6.3,0.7-11.6,3.7-16.6,7.2C542.9,39.5,540.8,42,541,45.5z"/>
	<path class="st4" d="M519,204.8c6.7-6.3,13-13.1,18.8-20.2c1.7-2.1,4.5-3.5,5.3-6.4c0.9-1.1,2.1-0.7,3.3-0.7
		c-1.6,2.9-4.4,4.8-6.1,7.5c-0.5,0.3-1,0.6-1.2,1.2c-5.4,6.3-10.5,12.9-16.3,18.9c-9.4,9.9-14.7,21.5-16,35.1
		c-0.2,1.8,2.4,4.9-1.6,5.8c-0.3,0.1-0.1,0.9,0.3,0.9c2-0.1,1.6,1.6,1.9,2.7c1,2.9,1.9,5.8,2.8,8.6c0.3,1.4,0.7,2.7,1,4.1
		c-4.4,1.9-8.9,3.1-13.7,3c-0.6,0-0.8,0.5-0.9,1c-7.8-2.7-10.6-9-11.8-16.3c-2.2-12.9,2.5-22.8,13.5-29.7c2.9,1.2,6.6-1.4,7-4.8
		c2.6-1.9,5.2-3.9,7.8-5.8C515.3,208.3,517.4,206.8,519,204.8z"/>
	<path class="st9" d="M546.4,177.5c-1.2,0-2.4-0.4-3.3,0.7c-1.1,0.6-2.2,1.1-3-0.3c-4.9-8.7-12.7-14.1-21-19
		c-0.4-0.2-0.8-0.6-1.1-0.9c2.6-4.1,5.5-7.9,7.7-12.2c1.1,0.4,2,1.1,2.9,1.9c6.1,5.1,12.7,9.5,19.8,13.2c0.2,5.2,0.6,10.4-1.2,15.4
		C546.6,176.5,546.3,176.9,546.4,177.5L546.4,177.5z"/>
	<path class="st8" d="M588.8,267.1c0,0.4,0,0.7,0,1.1c-0.1,0.4-0.2,0.8-0.3,1.2c-0.4,0-0.9,0.1-1.3,0.1c-2.2-0.8-2.7,1-3.6,2.3
		c0,0,0,0,0,0c-0.6,0.2-1.4,0.3-1.9,0.6c-3.9,2.4-8.4,3.3-12.7,3.8c-8,1-16.1,0.3-24-2.2c-3.9-1.2-7.4-3.5-11.5-4.1
		c-0.1-0.6-0.1-1.1-0.2-1.7c0.1-1,0.1-2,0.2-3c0.3-1.4,0.6-2.8,0.8-4.2c1,0.8,2,1.6,3,2.2c6.7,4.4,14.5,4.5,22.1,5.5
		c8.3,1,15.8-1.9,23.1-5.1c2.2-1,4.3-2.3,5.8-4.3c0.2,0.4,0.3,0.8,0.5,1.3c0,0.5,0,1.1,0,1.6C588.2,263.9,588.3,265.5,588.8,267.1z"
		/>
	<path class="st3" d="M533.4,270c4.1,0.6,7.6,2.8,11.5,4.1c7.9,2.5,16,3.2,24,2.2c4.2-0.5,8.8-1.5,12.7-3.8c0.6-0.3,1.3-0.4,1.9-0.6
		c-1.5,2.6-4.1,3.6-6.7,4.4c-13.3,4.2-26.4,4.1-39.1-2c-1.5-0.7-3.3-0.9-4.3-2.4C533.4,271.2,533.4,270.6,533.4,270z"/>
	<path class="st2" d="M634.3,119.1c0.3,2.5-1,4.8-0.9,7.2c-1,1.4-1.1,3-1.5,4.6c-0.3,0.8-0.6,1.5-0.9,2.3c-0.1,0.2-0.2,0.5-0.3,0.7
		c-2.1,3.6-3.7,7.6-6.9,10.5c-7.8,7-15.9,13.7-24.8,19.2c-5.3,3.3-10.8,3.7-16.6,1.2c-1.7-0.8-3.4-1.9-5.4-1.8
		c-0.3-0.8-1-1.1-1.7-1.5c-5.7-2.7-11-6.2-16.4-9.5c-3.2-2-6.1-4.6-9.7-5.8l0,0c0-0.8-0.4-1.5-1.2-1.8c-0.4-0.3-0.8-0.6-1.1-0.9
		c-7.1-7-11.7-15.5-14-25.2c-0.6-2.7-0.9-5.4-0.8-8.1c0.3-4.6-1.1-9.2-0.5-13.9c0.9,1.5,1.4,0.9,2.1-0.3c2.5-4.4,5.3-8.7,9.5-11.8
		c0.9,0.2,1.7-0.2,2.5-0.5c3.2-0.9,6.1-2.6,10-2.8c-2.6,2.8-5.8,4.1-7.7,6.9c-1.2,1.2,0.3,1.7,0.7,2.3c2.5,3.4,5.9,5.7,9.6,7.6
		c3.2,2.1,6.7,3,10.4,3.3c3.8,0.9,7.6,0.8,11.4,0c2-0.4,2.6-1.3,2.1-3.2c0-0.7-0.1-1.5-0.1-2.2c0.2-7-3.5-12-8.7-16.1
		c2.8-1,5.8-1.4,8.4-2.9c0.9,0.3,1.7,0.8,2.7,1c0.6,0.1,1.4,0.7,1.7-0.2c0.2-0.7-0.5-1.1-1.1-1.5c-0.1-0.6,0.4-0.8,0.7-1.2
		c0.3-0.2,0.6-0.3,0.9-0.5c2.6-0.8,4.5-2.9,6.8-4.2c0.7,0.1,1.4,0,1.9-0.5c4-3.7,7.6-7.6,10.5-12.1c1.1-1.7,1.4-4.1,3.6-5.1
		c0.9,0.9,0.9,2.5,2.3,3c0,0.2,0.1,0.4,0.1,0.6c3.1,7.1,7.8,13.1,12.7,19c-1.5,0.9-3,0.2-4.5,0.3c-3.9,0.1-6.9,1.7-9.7,4.5
		c0.5,0.4,0.7,0.6,0.8,0.6c4.5-1.1,9.1-2.2,13.6-3.4c1.5-0.1,1.9,1.5,2.9,2.1c0,0.2,0,0.3,0,0.5c0,0.5,0.2,0.9,0.8,1c0,0,0,0,0,0
		c-0.7,1.6,1.7,2.7,0.8,4.4c-7.6-4.1-13.5-1.1-18.1,4.4c-1.4,1.7-3,3.5-2.2,6.1c-0.8,1.3-1.7,2.7-1.7,4.3c0,0.1-0.1,0.2-0.1,0.4
		c-0.7,2.9,0.5,4,4.7,4.7c3.4,1.2,6.9,1,10.5,0.6c0.9,0.6,0.4-0.3,0.6-0.5l0,0c1.5-0.1,3.1,0.4,4.2-1.2c3.5-0.2,5.8-2.7,8.7-4.3
		c-0.1,2.5-0.9,4.9-0.5,7.4c-1,1.4-0.4,3-0.6,4.5c-5.1-6.1-14.1-6-20.1-1.1c-4.2,3.4-3.6,8.3,0.9,11.2c5.1,3.2,12.5,2.2,18-2.5
		C633.8,119,634,119.1,634.3,119.1z M570.4,124.3c-1.6-0.1-1.9-2.4-3.8-2.4c-0.1,1.3,0.9,1.8,1.3,2.7c-0.7,1.6,0,3.1,0.2,4.6
		c1.6,11.4,10.7,19.5,22.3,19.9c10.4,0.4,19.8-7.2,22.2-18.1c-0.2-1,1.7-1.8,0.3-2.9c-3.5-0.4-7.1-0.5-10.6,0
		c-5.2,0.7-10.2,0.3-15.1-1.3C581.8,125.3,576.1,125,570.4,124.3z M560.4,118.3c1.2-0.2,2.7-0.4,4.2-0.7c3.3-0.8,6.4-2.4,6.8-6
		c0.4-3.5-2-5.9-4.9-7.8c-5.1-3.4-10.8-4-16.6-2.8c-3.2,0.6-6.1,2.1-6.8,5.7c-0.6,3.4,1.4,5.7,3.9,7.6
		C550.9,117.2,555.4,118.1,560.4,118.3z M605,108.5c-0.7,2.1,0.5,3.4,1,4.8c0.7,2,0.2,2.9-1.6,4c-2.8,1.7-5.7,0.7-8.5,0.6
		c-1.5-0.1-3.5-2.2-4.4-0.2c-0.8,2,1.9,3,3.2,4c2.5,1.8,5.7,2.5,8.6,1c3.2-1.6,5-4.5,6-7.9c0.2-0.8-0.1-1.6-0.8-2.1
		C607.2,111.6,606.1,110.3,605,108.5z M535.7,104.9c0.1,0.3,0.2,1.2,0.4,2c0.2,1.1,0.6,2.5,1.7,2.4c1.3-0.1,1.9-1.5,2-2.8
		c0.1-1.8,0.4-3.4,1.3-5c0.7-1.1,0-1.7-1.1-1.8C539,99.6,535.7,103.1,535.7,104.9z"/>
	<path class="st1" d="M547,143.5c0.4,0.3,0.8,0.6,1.1,0.9c0.1,0.6,0.1,1.2,0.2,1.8c0,4.9,0.1,9.8,0.1,14.7
		c-7.1-3.7-13.7-8.1-19.8-13.2c-0.9-0.8-1.8-1.5-2.9-1.9c-0.1-0.2-0.2-0.3-0.4-0.3c0.2-1.3-1-1.8-1.7-2.5
		c-5.7-5.7-10.4-12.1-13.3-19.7c2.6,1,4.4,2.9,5.4,5.4c0.5,1.1,1.5,1.5,2.2,2.2c1.4,1.4,2.8,2.9,4.3,4.5c1.3-2.6-0.2-5.9,2.3-8
		c-0.3,2.3-0.6,4.6-1,6.9c-0.4,2,0,3.2,2.3,3.3c-0.1,0.4-0.2,1-0.1,1c3.6,0.8,5.5,4.1,8.4,5.9c4.1,2.6,8.4,4.5,13.4,5.1
		C547.6,147.7,547.7,145.6,547,143.5z"/>
	<path class="st1" d="M528,76.1c-0.3-0.4-0.7-0.7-1-1.1c2.3-0.3,2.3,1.4,2.2,2.9c-0.2,4,0.6,7.8,2.2,11.4c0.3,0.7,0.3,1.7,1.2,1.8
		c1,0.2,1.2-0.8,1.6-1.4c2.9-4.8,7.3-8.3,12.1-10.6c2.5-1.2,5.3-3.2,8.6-2.6c1.6,0.3,3.5-0.3,4.6-1.5c1.3-1.3,2.9-1,4.2-1.7
		c3.7-2,7.4-4,11.1-5.9c2.2-1.2,4.5-3.7,7.6-3.1c-2.3,2.6-5.6,4.1-8.2,6.4c-0.9,0.6-1.7,1.1-2.6,1.7c-0.5,0.1-1,0.1-1.4,0.3
		c-5.5,2.9-11.4,4.7-17.5,6c-3.7,0.8-6.9,2.7-9.5,5.5c-4.1,3.2-6.9,7.4-9.5,11.8c-0.7,1.2-1.2,1.8-2.1,0.3c-1.4-3.1-2.1-6.4-3-9.7
		c0-0.6-0.1-1.1-0.1-1.7c0-0.2,0-0.4-0.1-0.6c0-2,0-3.9,0-5.9c0-0.2,0-0.4,0-0.6c0-0.4-0.1-0.8-0.1-1.1
		C528.6,76.2,528.4,76.1,528,76.1z"/>
	<path class="st5" d="M543.2,84.2c2.6-2.8,5.9-4.7,9.5-5.5c6.1-1.3,12-3.1,17.5-6c0.4-0.2,0.9-0.2,1.4-0.3c0.2,0.2,0.4,0.5,0.6,0.7
		c-2.4,2.2-5.7,2.7-8.3,4.5c2.3-0.2,4.4,1,6.6,0.8c-0.5,0.4-1,0.9-1.9,1.7c1.9-0.2,3.3-0.4,4.8-0.5c5.2,4.1,8.9,9.1,8.7,16.1
		c-1.5-3.5-3-7-5.7-9.8c-6.5-6.9-14.5-7.4-21.6-1.3c-0.9,0.8-1.8,1.5-2.7,2.3c-1.2,1-2.5,1.4-4.1,0.9c1.8-2.8,5.1-4.1,7.7-6.9
		c-3.8,0.2-6.8,1.9-10,2.8C544.9,84,544.2,84.4,543.2,84.2z"/>
	<path class="st4" d="M588.2,259.4c-1.5,2-3.6,3.3-5.8,4.3c-7.4,3.2-14.9,6.1-23.1,5.1c-7.6-0.9-15.4-1.1-22.1-5.5
		c-1.1-0.7-2-1.5-3-2.2c0-1.5,0-2.9,0-4.4c0.1-0.1,0.2-0.3,0.1-0.5c0.1-0.3,0.2-0.7,0.2-1c1.1-5.6,2.6-11,6.9-15
		c5.9-5.4,11.8-10.9,18.2-15.8c6.6-5,12.6-10.3,14.9-18.7c1.1-4.2,2.4-8.3,3.6-12.4c0-0.2,0.1-0.4,0.1-0.6c0.5-1.8,1-3.5,1.4-5.3
		c0.1-0.2,0.1-0.4,0.2-0.6c-0.1-0.4-0.2-0.8-0.3-1.2c2.5-1.2,3.4-0.1,3.4,2.4c-0.5,4.9-1.9,9.6-3.4,14.3c-3,9.3-2.3,18.3,1.2,27.3
		c3.3,8.7,6.2,17.5,7.6,26.8C588.3,257.5,588.2,258.4,588.2,259.4z"/>
	<path class="st2" d="M534.3,256.3c0.1,0.2,0,0.3-0.1,0.5c-0.2,0.1-0.3,0.2-0.5,0.3c0,0-0.2,0-0.2-0.1c-0.3-1.9-0.5-3.8-1.9-5.2
		c0-0.4,0-0.8,0-1.2c0.9-0.6,0.5-1.6,0.6-2.4c0.2-5.7,3.7-9.9,6.4-14.5c0.5-0.8,1.5-1.4,1.2-2.6c-2,0.7-2,0.6-5.2,5.9
		c-2.9,4.9-4.9,10.2-6,15.9c-1.1,0-2.1,0.2-3,0.9c-1.5,1.2-3.5,1.8-5.2,2.7c-3.2,1.7-6.8,0.6-10,1.8c-0.9-2.9-1.8-5.8-2.8-8.6
		c-0.4-1.1,0.1-2.7-1.9-2.7c-0.4,0-0.6-0.8-0.3-0.9c4-0.9,1.4-4.1,1.6-5.8c1.3-13.6,6.6-25.2,16-35.1c5.7-6,10.9-12.6,16.3-18.9
		c1.1,0.4,1.2,1.5,1.5,2.4c1.6,4.6,4.5,8.2,7.9,11.4c0.4,0.4,0.8,1.1,1.4,0.6c0.3-0.2,0.4-0.9,0.4-1.3c-0.3-3.6,0.3-7,1.2-10.4
		c0.1-0.5,0.8-1.2-0.2-1.9c-1.6,2.4-1.8,5.2-3.1,7.6c-1,1.8-1.5,2-2.7,0.1c-1.9-3.2-3.1-6.7-5.4-9.7c1.7-2.8,4.5-4.7,6.1-7.5
		c0,0-0.1,0-0.1,0c0.8,0,0.9-0.6,0.9-1.1c1.8-5,1.4-10.2,1.2-15.4c0-4.9-0.1-9.8-0.1-14.7c0.3,0,0.6,0,1-0.1c0,0,0,0,0,0
		c1,3,3.9,4.1,5.9,6.2c4,4.2,8.3,8.1,12.4,12.1c0,3.3,0.2,6.7-0.1,10c-0.5,5.5-0.5,11-3.2,16.2c-1.1,2.1-3.3,3.3-3.9,5.7
		c-3.1,0.8-3.5,4.2-6.3,5.7c9.1,1.4,15.2-3.7,21.7-8l0,0c0.7-0.2,1.5-0.4,2.2-0.6c-1.2,4.1-2.5,8.3-3.6,12.4
		c-2.3,8.4-8.3,13.8-14.9,18.7c-6.4,4.8-12.3,10.3-18.2,15.8c-4.3,4-5.8,9.4-6.9,15C534.2,255.6,534.1,255.9,534.3,256.3z"/>
	<path class="st5" d="M540.4,185c2.3,2.9,3.5,6.5,5.4,9.7c1.1,1.9,1.7,1.7,2.7-0.1c1.3-2.4,1.5-5.2,3.1-7.6c1,0.7,0.3,1.3,0.2,1.9
		c-0.9,3.4-1.5,6.9-1.2,10.4c0,0.4-0.1,1.1-0.4,1.3c-0.6,0.5-1-0.2-1.4-0.6c-3.4-3.3-6.3-6.9-7.9-11.4c-0.3-0.9-0.4-2-1.5-2.4
		C539.4,185.6,539.8,185.3,540.4,185z"/>
	<path class="st4" d="M547.3,176.4c0,0.6-0.1,1.1-0.9,1.1C546.3,176.9,546.6,176.5,547.3,176.4z"/>
	<g>
		<g>
			<path class="st2" d="M547.9,110.2c-1-0.8-1.5-1.8-1.4-3.1c-1.1,0.3-0.8,0.2,1.1-0.2c2.5-0.4,5-0.5,7.6-0.2c2.4,0.3,5,0.8,7.3,1.7
				c2.2,0.5,3.1,1.9,2.5,4.4c-1.1,0.2-2.3,0.4-3.4,0.6c-2.2,0.3-4.6,0.5-6.9,0.3c-1.1-0.1-7.2-1.2-2.5-1.4c3.7-0.2,9.9,0.9,12,4.3
				c-0.1-0.9-0.2-1.9-0.4-2.8c0.1-0.9-11.8-3.1-13.2-3.4c-4.6-1-6.6,6.1-2,7.1c4.7,1.1,9.7,2.8,14.5,3.2c2.8,0.3,5.8-0.3,7.3-3.1
				c3.2-6.1-5.6-10.4-10.1-11.6c-5-1.3-14.8-3.3-18.1,2.3c-3.8,6.4,5.1,11.7,10.2,12.4c5.5,0.8,16.5,0.9,19.9-4.5
				c3.6-5.8-1-12.1-6.3-14.4c-6.2-2.7-16.5-4.5-22.9-1.3c-6,2.9-4,11-0.2,14.9C546,118.8,551.2,113.6,547.9,110.2L547.9,110.2z"/>
		</g>
	</g>
	<path class="st15" d="M839,319.6H655.7c-6.8,12.5-20,21-35.2,21h-142c-15.2,0-28.4-8.5-35.2-21H259c-116,0-210,94-210,210v12.5
		c0,84.5,68.5,153,153,153h694c84.5,0,153-68.5,153-153v-12.5C1049,413.6,955,319.6,839,319.6z"/>
	<path class="st16" d="M1046.2,493.6c-16.8-98.4-103-174-206.1-174H655.9c-6.8,12.2-19.9,20.5-34.9,20.5H479
		c-15,0-28.1-8.3-34.9-20.5H258.2c-103,0-189.3,75.6-206,174c-1.9,11.4-3,23.1-3,35v13c0,84.1,68.9,153,153,153h694
		c84.5,0,153-68.5,153-153v-13C1049.2,516.6,1048.1,504.9,1046.2,493.6z M1003.7,493.6c-0.2-1.1-0.4-2.1-0.6-3.2
		c-0.2-0.9-0.4-1.8-0.5-2.7l-0.2-1c-0.2-0.9-0.4-1.8-0.6-2.7c-0.2-0.9-0.4-1.8-0.7-2.7c-0.3-1.3-0.7-2.6-1-4
		c-1.1-4-2.3-7.9-3.7-11.8c-0.7-1.9-1.4-3.8-2.1-5.6c-0.4-1.1-0.9-2.2-1.3-3.3c-0.4-0.9-0.8-1.8-1.1-2.7c0-0.1-0.1-0.2-0.1-0.3
		c-0.4-1-0.8-1.9-1.3-2.9c-0.9-1.9-1.8-3.8-2.7-5.7c-0.4-0.9-0.9-1.8-1.3-2.6c-1-2-2.1-4-3.2-5.9c-0.5-0.8-1-1.7-1.5-2.5
		c-0.5-0.8-1-1.7-1.5-2.5c0-0.1-0.1-0.1-0.1-0.2c-0.5-0.9-1.1-1.7-1.6-2.5c-0.1-0.2-0.2-0.4-0.3-0.5c-0.5-0.8-1-1.5-1.5-2.2
		c-0.6-0.9-1.2-1.7-1.8-2.6c-0.6-0.9-1.2-1.7-1.8-2.6c-0.6-0.9-1.2-1.7-1.8-2.5c-0.6-0.8-1.3-1.7-1.9-2.5c-0.6-0.8-1.3-1.7-1.9-2.5
		c-0.6-0.8-1.2-1.5-1.8-2.2c0-0.1-0.1-0.1-0.2-0.2c-0.7-0.8-1.3-1.6-2-2.4c-0.7-0.8-1.4-1.6-2.1-2.4c-0.7-0.8-1.4-1.5-2.1-2.3
		c-0.7-0.8-1.4-1.5-2.1-2.3s-1.4-1.5-2.2-2.3s-1.5-1.5-2.2-2.2c-0.1-0.1-0.1-0.1-0.2-0.2c-0.7-0.7-1.4-1.3-2.1-2
		c-0.7-0.7-1.4-1.3-2.1-2c-0.1-0.1-0.1-0.1-0.2-0.2c-0.8-0.7-1.5-1.4-2.3-2.1c-0.1-0.1-0.2-0.2-0.4-0.3c-0.7-0.6-1.3-1.2-2-1.7
		c-1.6-1.4-3.2-2.7-4.8-4c-0.7-0.6-1.4-1.1-2.1-1.6c-0.1-0.1-0.3-0.2-0.4-0.3c-0.8-0.6-1.7-1.3-2.5-1.9c-0.8-0.6-1.7-1.2-2.5-1.9
		c-1-0.7-1.9-1.4-2.9-2c-0.8-0.5-1.5-1-2.3-1.5c-0.9-0.6-1.7-1.1-2.6-1.7c-0.9-0.6-1.8-1.1-2.7-1.7c-0.9-0.5-1.8-1.1-2.7-1.6
		c-0.9-0.5-1.8-1.1-2.7-1.6c-0.9-0.5-1.8-1-2.8-1.5c-0.1,0-0.1-0.1-0.2-0.1c-0.8-0.5-1.7-0.9-2.6-1.4c-0.9-0.4-1.7-0.9-2.6-1.3
		c-0.1,0-0.1-0.1-0.2-0.1c-0.9-0.5-1.9-0.9-2.8-1.4c-0.7-0.4-1.5-0.7-2.2-1c-0.3-0.1-0.7-0.3-1-0.4c-0.9-0.4-1.7-0.8-2.6-1.2
		c-1-0.4-1.9-0.8-2.9-1.3c-0.8-0.3-1.7-0.7-2.5-1c-0.2-0.1-0.4-0.2-0.7-0.3c-0.7-0.3-1.4-0.5-2.1-0.8c-0.5-0.2-1-0.4-1.5-0.5
		c-0.7-0.3-1.5-0.5-2.2-0.8c-0.9-0.3-1.8-0.7-2.8-1c-0.1,0-0.2-0.1-0.3-0.1c-1-0.3-2-0.7-3-1c-0.8-0.3-1.6-0.5-2.4-0.7
		c-0.5-0.2-1-0.3-1.6-0.5c-0.8-0.2-1.5-0.4-2.3-0.6c-0.6-0.2-1.2-0.3-1.8-0.5c-0.5-0.1-1-0.3-1.6-0.4c-0.5-0.1-1-0.2-1.4-0.4
		c-0.7-0.2-1.4-0.3-2.2-0.5c-0.7-0.2-1.4-0.3-2.2-0.5c-0.2,0-0.3-0.1-0.5-0.1c-0.6-0.1-1.1-0.2-1.7-0.3c0,0-0.1,0-0.2,0
		c0,0-0.1,0-0.1,0c-1.5-0.3-3.1-0.6-4.6-0.9c-1.1-0.2-2.2-0.4-3.3-0.5c-1.3-0.2-2.6-0.4-3.9-0.6c-0.8-0.1-1.6-0.2-2.4-0.3
		c-0.8-0.1-1.6-0.2-2.4-0.3c-0.8-0.1-1.6-0.2-2.4-0.2c-0.4,0-0.9-0.1-1.3-0.1c-0.6,0-1.1-0.1-1.7-0.1c-2.4-0.2-4.9-0.3-7.4-0.4
		c-0.7,0-1.3-0.1-2-0.1c-0.8,0-1.7,0-2.5-0.1c-0.8,0-1.7,0-2.5,0H270.3c-88.6,0-162.2,64-177.2,148.3c-1.8,10.3-2.8,20.9-2.8,31.8
		v7.8c0,71.8,58.2,130,130,130h656.2c1.1,0,2.2,0,3.3,0c0.8,0,1.5,0,2.3-0.1c0.7,0,1.5-0.1,2.2-0.1c0.7,0,1.4-0.1,2.1-0.1
		c0.4,0,0.9-0.1,1.3-0.1c0.6,0,1.3-0.1,1.9-0.2c1.3-0.1,2.6-0.3,3.9-0.5c0.7-0.1,1.4-0.2,2.1-0.3c1.3-0.2,2.6-0.4,3.9-0.6
		c0.4-0.1,0.9-0.2,1.3-0.2c0,0,0.1,0,0.1,0c0.5-0.1,1-0.2,1.5-0.3c0.8-0.2,1.6-0.3,2.4-0.5c0.6-0.1,1.3-0.3,2-0.5
		c1.1-0.3,2.3-0.6,3.4-0.9c0.5-0.1,0.9-0.3,1.4-0.4c1.3-0.4,2.5-0.7,3.8-1.1c0.7-0.2,1.3-0.4,2-0.6c4.6-1.5,9.1-3.3,13.5-5.3
		c0.4-0.2,0.8-0.4,1.2-0.5c2.8-1.3,5.6-2.8,8.3-4.3c0.9-0.5,1.8-1,2.7-1.5c7.2-4.3,14-9.3,20.2-14.8c0.7-0.6,1.3-1.2,1.9-1.8
		c2.1-1.9,4-3.9,6-5.9c0.5-0.6,1.1-1.1,1.6-1.7c0.2-0.2,0.4-0.4,0.6-0.7c0.4-0.4,0.8-0.8,1.1-1.3c0.4-0.5,0.9-1,1.3-1.5
		c0.2-0.3,0.4-0.5,0.7-0.8c0.8-0.9,1.5-1.8,2.3-2.8c0.4-0.6,0.9-1.1,1.3-1.7c1.1-1.5,2.2-2.9,3.2-4.4c0.3-0.4,0.5-0.8,0.8-1.1
		c0,0,0.1-0.1,0.1-0.1c0.6-0.8,1.1-1.7,1.7-2.6c0.1-0.2,0.3-0.4,0.4-0.6c0.4-0.6,0.8-1.2,1.2-1.8c0-0.1,0.1-0.1,0.1-0.2
		c0.3-0.5,0.7-1.1,1-1.7c0.4-0.6,0.7-1.2,1.1-1.9c0.7-1.3,1.4-2.5,2.1-3.8c0.3-0.6,0.7-1.3,1-1.9c0.3-0.5,0.5-1,0.8-1.6
		c0.5-1.1,1-2.2,1.5-3.3c0.3-0.5,0.5-1.1,0.7-1.6c1.4-3.1,2.6-6.3,3.7-9.5c0.5-1.5,1-3,1.5-4.5c0.2-0.5,0.3-1,0.4-1.5
		c0.1-0.5,0.3-1,0.4-1.5c0.1-0.5,0.3-1,0.4-1.5c0.1-0.5,0.3-1,0.4-1.5c0.1-0.5,0.3-1,0.4-1.5c0.1-0.5,0.2-1,0.4-1.5s0.2-1,0.3-1.5
		c0.1-0.5,0.2-1.1,0.3-1.6c0.2-1,0.4-2,0.6-3.1c0.1-0.4,0.1-0.8,0.2-1.3c0-0.3,0.1-0.5,0.1-0.8c0.1-0.6,0.2-1.2,0.3-1.8
		c0.1-0.6,0.2-1.2,0.3-1.8c0.1-0.6,0.2-1.2,0.2-1.9s0.1-1.2,0.2-1.9c0.1-0.5,0.1-1.1,0.2-1.7c0.1-0.6,0.1-1.2,0.1-1.7
		c0-0.5,0.1-1.1,0.1-1.6c0-0.3,0-0.6,0.1-0.9c0-0.4,0-0.9,0.1-1.3c0-0.2,0-0.4,0-0.5c0-0.5,0-1.1,0-1.6c0-0.4,0-0.9,0-1.3
		c0-0.8,0-1.7,0-2.5v-7.8C1006.5,514.5,1005.5,503.9,1003.7,493.6z"/>
	<path class="st17" d="M876.8,662.4h-656c-71.8,0-130-58.2-130-130v-7c0-99.4,80.6-180,180-180h556c99.4,0,180,80.6,180,180v7
		C1006.8,604.2,948.6,662.4,876.8,662.4z"/>
	<path class="st18" d="M1052.5,649.6c-39.6,60.7-97.7,99-162.4,99H210.6c-62.6,0-118.9-35.8-158.4-93c0.9,1.1,1.9,2.1,2.8,3.1
		c7,8.6,14.7,16.5,23.1,23.7c31.4,27,72.1,43.3,116.3,43.3h27.2v4c0-1.3,0.1-2.7,0.2-4H906c46.5,0,89-18,121.1-47.5
		c8.7-8,16.7-16.9,23.7-26.5C1051.4,650.9,1051.9,650.2,1052.5,649.6z"/>
	<path class="st19" d="M882.1,748.6c-14,27-52.9,46.5-98.7,46.5H669.8c-17.5-18.7-54.8-32.2-99-34.2c-3.9-0.2-7.8-0.3-11.8-0.3
		c-4.1,0-8.1,0.1-12,0.3c-44.1,2.1-81.3,15.6-98.8,34.2H406c0-0.4,0.1-0.7,0.2-1.1c-0.1,0.4-0.2,0.7-0.3,1.1h-72.2
		c-45.8,0-84.8-19.5-98.7-46.5H882.1z"/>
	<path class="st20" d="M1083.9,510.6c-15-121.2-119-215.8-244.1-215.8H645.8c-6.1,14.3-20.3,24.3-36.8,24.3H490
		c-16.5,0-30.7-10-36.8-24.3H260.3c-125.1,0-229.2,94.6-244.1,215.8c-1.2,9.9-1.9,20-1.9,30.2v5.1c0,43,15.3,82.6,40.7,113.7
		c0.1,0.2,0.3,0.3,0.4,0.5l0,0c6.8,8.3,14.4,16,22.6,23c31.4,26.7,72,42.8,116.3,42.8h711.5c46.5,0,89-17.8,121-47
		c8.7-8,16.7-16.8,23.7-26.3c0.1-0.1,0.2-0.2,0.2-0.3c0,0,0,0,0,0c22-29.8,35-66.6,35-106.3v-5.1
		C1085.7,530.5,1085.1,520.5,1083.9,510.6z M55.5,477.6c0.2-0.8,0.4-1.5,0.6-2.2c0.2-0.7,0.4-1.5,0.6-2.2c0.2-0.7,0.4-1.5,0.6-2.2
		c0.2-0.7,0.4-1.4,0.6-2.1c0-0.1,0.1-0.2,0.1-0.3c0.2-0.7,0.4-1.3,0.6-2c0.2-0.7,0.5-1.5,0.7-2.2c0.2-0.7,0.5-1.4,0.7-2.1
		c0,0,0,0,0-0.1c0.3-0.8,0.5-1.6,0.8-2.4c0-0.1,0.1-0.3,0.2-0.4c0-0.1,0.1-0.3,0.1-0.4c0,0,0,0,0-0.1c0.3-1,0.7-2,1.1-2.9
		c0.1-0.3,0.2-0.6,0.3-0.9c0.3-0.8,0.6-1.6,1-2.5c0.6-1.6,1.2-3.1,1.9-4.6c0.2-0.5,0.4-0.9,0.6-1.4c0.6-1.5,1.3-2.9,1.9-4.4
		c0.2-0.4,0.4-0.8,0.5-1.2c0-0.1,0-0.1,0.1-0.1c0.2-0.4,0.4-0.8,0.6-1.3c0.2-0.4,0.4-0.8,0.6-1.2c0,0,0-0.1,0.1-0.1
		c0.7-1.4,1.4-2.8,2.1-4.2c0.4-0.8,0.8-1.5,1.2-2.3c0,0,0,0,0,0c0.1-0.3,0.3-0.5,0.4-0.8c0.2-0.4,0.5-0.9,0.7-1.3
		c0.3-0.5,0.5-1,0.8-1.5c1.3-2.3,2.5-4.5,3.9-6.7c0.3-0.5,0.7-1.1,1-1.6s0.7-1.1,1-1.6c0.2-0.3,0.3-0.5,0.5-0.8
		c0.2-0.2,0.3-0.5,0.5-0.7c0.2-0.3,0.3-0.6,0.5-0.9c0.2-0.3,0.4-0.6,0.6-0.9c0.4-0.5,0.7-1.1,1.1-1.6c0.4-0.5,0.7-1.1,1.1-1.6
		c0,0,0,0,0,0c0.5-0.8,1.1-1.6,1.6-2.3c0.5-0.8,1.1-1.5,1.6-2.3c0.5-0.8,1.1-1.5,1.7-2.3c0.6-0.8,1.1-1.5,1.7-2.3
		c0.1-0.1,0.1-0.2,0.2-0.2c0.8-1,1.6-2,2.4-3c0.1-0.1,0.1-0.2,0.2-0.3c0.8-1,1.5-1.9,2.3-2.9c0.8-0.9,1.6-1.9,2.4-2.8
		c0.8-1,1.7-2,2.5-2.9c0,0,0,0,0,0c0.9-1,1.7-1.9,2.6-2.8c0.9-0.9,1.8-1.9,2.6-2.8c0.9-0.9,1.8-1.9,2.7-2.8c0.9-0.9,1.8-1.8,2.7-2.7
		c0.9-0.9,1.8-1.8,2.8-2.7c0.5-0.4,0.9-0.9,1.4-1.3c0.5-0.4,1-0.9,1.4-1.3c0.9-0.9,1.9-1.7,2.9-2.6c0.5-0.4,1-0.8,1.4-1.3
		c0.5-0.4,1-0.8,1.5-1.2c0,0,0,0,0.1-0.1c1-0.8,2-1.6,2.9-2.4c1.2-0.9,2.3-1.8,3.5-2.8c0.9-0.7,1.7-1.3,2.6-2
		c0.3-0.2,0.6-0.4,0.8-0.6c0.4-0.3,0.8-0.6,1.3-0.9c0.3-0.2,0.7-0.5,1-0.7c0.5-0.4,1-0.8,1.6-1.1c0.5-0.4,1-0.7,1.6-1.1
		c0.8-0.6,1.6-1.1,2.4-1.6c0.6-0.4,1.3-0.9,1.9-1.3c1-0.6,2-1.3,2.9-1.9c0.8-0.5,1.6-1,2.5-1.5c0.5-0.3,1.1-0.7,1.6-1
		c1.1-0.7,2.2-1.3,3.3-2c0.6-0.3,1.1-0.6,1.7-1c1.1-0.6,2.3-1.3,3.4-1.9c0.6-0.3,1.1-0.6,1.7-0.9c0.6-0.3,1.1-0.6,1.7-0.9
		c2.4-1.2,4.8-2.4,7.2-3.6c0.5-0.2,1-0.5,1.5-0.7c0.8-0.4,1.6-0.8,2.5-1.1c2.3-1,4.7-2,7-3c1.1-0.4,2.1-0.8,3.2-1.3
		c0.6-0.2,1.1-0.4,1.7-0.7c1.2-0.5,2.4-0.9,3.7-1.3c0.5-0.2,1-0.4,1.6-0.5c0.4-0.1,0.8-0.3,1.2-0.4c0.1,0,0.2-0.1,0.3-0.1
		c1.1-0.4,2.2-0.7,3.3-1.1c1-0.3,1.9-0.6,2.9-0.9c0.6-0.2,1.3-0.4,1.9-0.6c0.9-0.3,1.9-0.5,2.8-0.8c0.7-0.2,1.5-0.4,2.2-0.6
		c1.4-0.4,2.9-0.7,4.3-1.1c0.7-0.2,1.5-0.4,2.2-0.5c0.6-0.2,1.3-0.3,1.9-0.4c0.1,0,0.3-0.1,0.4-0.1c0.9-0.2,1.8-0.4,2.8-0.6
		c0.2-0.1,0.5-0.1,0.7-0.1c0.4-0.1,0.7-0.1,1.1-0.2c0.1,0,0.2,0,0.3-0.1c0.4-0.1,0.8-0.1,1.2-0.2c0.8-0.1,1.5-0.3,2.3-0.4
		c0.6-0.1,1.3-0.2,1.9-0.3c0.4-0.1,0.9-0.1,1.3-0.2c0.1,0,0.3,0,0.4-0.1c0.5-0.1,0.9-0.1,1.4-0.2c1.6-0.2,3.3-0.5,4.9-0.7
		c0.6-0.1,1.1-0.1,1.7-0.2c0.5,0,0.9-0.1,1.4-0.2c0.7-0.1,1.3-0.1,2-0.2c0.6-0.1,1.3-0.1,1.9-0.2c1.1-0.1,2.2-0.2,3.2-0.3
		c0.7,0,1.4-0.1,2-0.1c0.9-0.1,1.8-0.1,2.7-0.2c0.9,0,1.7-0.1,2.6-0.1h0c0.4,0,0.9,0,1.3,0c0.6,0,1.2,0,1.8,0c0.5,0,1.1,0,1.6,0
		c0.2,0,0.4,0,0.6,0c0.2,0,0.4,0,0.6,0c0.7,0,1.4,0,2.1,0h185.9c6.8,12.2,19.9,20.5,34.9,20.5h142c0.4,0,0.8,0,1.2,0
		c0.2,0,0.4,0,0.5,0c0.4,0,0.7,0,1.1-0.1c0.3,0,0.5,0,0.8-0.1c0.1,0,0.3,0,0.4,0c0.2,0,0.3,0,0.5,0c0.2,0,0.3,0,0.5-0.1
		c0.3,0,0.6-0.1,0.9-0.1c0.9-0.1,1.7-0.3,2.6-0.5c0.3,0,0.5-0.1,0.8-0.2c0,0,0,0,0,0c0.6-0.1,1.1-0.3,1.6-0.4c0,0,0.1,0,0.1,0
		c0.4-0.1,0.8-0.2,1.2-0.4c0.4-0.1,0.7-0.2,1.1-0.4c0.7-0.2,1.4-0.5,2-0.8c0.3-0.1,0.6-0.2,0.9-0.4c0.3-0.1,0.6-0.3,0.9-0.4
		c0.2-0.1,0.4-0.2,0.6-0.3c0.5-0.3,1-0.5,1.5-0.8c0.3-0.2,0.6-0.3,0.8-0.5c0.5-0.3,1-0.6,1.5-0.9c0.4-0.3,0.8-0.5,1.2-0.8
		c0.2-0.1,0.4-0.3,0.7-0.5c0.1,0,0.1-0.1,0.2-0.1c0.2-0.2,0.5-0.3,0.7-0.5c0.2-0.2,0.5-0.3,0.7-0.5c0.2-0.2,0.5-0.4,0.7-0.6
		c0.7-0.6,1.4-1.2,2.1-1.9c0,0,0,0,0,0s0,0,0,0c0,0,0,0,0,0c1.3-1.2,2.4-2.5,3.5-3.9c0.3-0.3,0.5-0.6,0.7-0.9
		c0.2-0.2,0.4-0.5,0.5-0.8c0.3-0.3,0.5-0.7,0.7-1c0-0.1,0.1-0.1,0.1-0.2c0.2-0.4,0.5-0.7,0.7-1.1c0.3-0.5,0.6-0.9,0.8-1.4h184.2
		c103,0,189.3,75.6,206.1,174c0.2,1.4,0.5,2.8,0.7,4.2c0.4,2.8,0.8,5.7,1.1,8.5c0.1,0.4,0.1,0.9,0.1,1.3v0c0.1,1,0.2,1.9,0.3,2.9
		c0.1,1.5,0.3,3,0.3,4.5c0,0.6,0.1,1.2,0.1,1.8c0,0.3,0,0.5,0,0.7c0.1,1.2,0.1,2.4,0.2,3.6c0,0.2,0,0.4,0,0.6c0,1.2,0.1,2.3,0.1,3.5
		c0,1.1,0,2.2,0,3.3v13c0,1,0,1.9,0,2.8c0,3-0.2,6-0.4,8.9c0,0.6-0.1,1.2-0.1,1.9c-0.1,0.7-0.1,1.3-0.2,2c-0.1,0.9-0.2,1.9-0.3,2.8
		c0,0,0,0,0,0.1c0,0.1,0,0.2,0,0.3c-0.1,0.9-0.2,1.8-0.4,2.7c0,0.2,0,0.3-0.1,0.5c0,0.4-0.1,0.7-0.2,1.1c0,0.3-0.1,0.6-0.1,0.9
		c-0.1,0.4-0.1,0.8-0.2,1.3c-0.1,0.6-0.2,1.3-0.3,1.9c-0.1,0.5-0.2,1-0.3,1.5c0,0.1,0,0.2-0.1,0.3c-0.1,0.7-0.3,1.4-0.4,2.1
		c-0.2,0.9-0.4,1.7-0.6,2.6c-0.2,0.8-0.4,1.6-0.5,2.4c-0.1,0.3-0.2,0.7-0.3,1.1c0,0.1-0.1,0.3-0.1,0.4c-0.2,0.7-0.3,1.3-0.5,2
		c-0.2,0.9-0.5,1.8-0.7,2.7c0,0.1,0,0.2-0.1,0.2c-0.1,0.3-0.2,0.7-0.3,1c-0.1,0.3-0.2,0.7-0.3,1c-0.1,0.3-0.1,0.5-0.2,0.8
		c-0.1,0.3-0.1,0.5-0.2,0.8c-0.1,0.5-0.3,0.9-0.4,1.3c-0.1,0.2-0.2,0.5-0.2,0.7c-0.1,0.4-0.3,0.9-0.4,1.3c0,0.1-0.1,0.2-0.1,0.3
		c-0.2,0.5-0.3,1-0.5,1.4c-0.5,1.4-1,2.7-1.5,4.1c-0.2,0.5-0.4,1-0.6,1.5c-0.2,0.6-0.5,1.2-0.7,1.8c-0.2,0.5-0.4,0.9-0.6,1.4
		c-0.5,1.1-1,2.3-1.5,3.5c-0.2,0.5-0.5,1.1-0.8,1.6c-0.4,0.8-0.8,1.6-1.2,2.5c-0.2,0.4-0.4,0.8-0.6,1.3c-0.2,0.4-0.4,0.8-0.6,1.3
		c0,0.1-0.1,0.1-0.1,0.2c-0.2,0.4-0.4,0.8-0.6,1.2c-0.2,0.4-0.4,0.8-0.6,1.2c-0.6,1.1-1.1,2.1-1.7,3.2c-0.3,0.6-0.7,1.2-1.1,1.8
		c-0.1,0.2-0.2,0.3-0.3,0.5c-0.4,0.7-0.9,1.4-1.3,2.1c-0.5,0.8-1,1.7-1.5,2.5c-0.5,0.8-1,1.6-1.5,2.3c-0.5,0.8-1,1.5-1.6,2.3
		c0,0,0,0,0,0c-0.5,0.8-1.1,1.5-1.6,2.2c-0.5,0.8-1.1,1.5-1.6,2.3c-0.3,0.3-0.5,0.7-0.8,1c-0.4,0.5-0.8,1.1-1.3,1.6
		c-0.4,0.6-0.9,1.1-1.3,1.7c-0.8,1-1.5,1.9-2.3,2.8c-0.6,0.7-1.1,1.3-1.7,2c0,0,0,0-0.1,0.1c-0.6,0.7-1.3,1.4-1.9,2.1
		c-0.2,0.3-0.5,0.5-0.7,0.8c-0.5,0.6-1,1.1-1.5,1.6c-1,1.1-2.1,2.2-3.1,3.2c-0.8,0.8-1.6,1.5-2.3,2.3c-0.4,0.4-0.7,0.7-1.1,1.1
		c-0.1,0.1-0.2,0.2-0.3,0.3c-0.9,0.8-1.7,1.6-2.6,2.4c-1.1,1-2.2,1.9-3.3,2.8c-0.7,0.6-1.3,1.1-2,1.7c-0.8,0.6-1.5,1.2-2.3,1.8
		c-0.7,0.6-1.5,1.1-2.2,1.7c-0.8,0.6-1.7,1.3-2.6,1.9c-0.6,0.4-1.2,0.9-1.8,1.3c-1.1,0.8-2.2,1.5-3.3,2.3c-0.6,0.4-1.3,0.8-1.9,1.2
		c-0.8,0.5-1.6,1-2.5,1.5c-1.3,0.8-2.6,1.6-4,2.3c-0.4,0.2-0.7,0.4-1.1,0.6c-1.6,0.9-3.3,1.8-4.9,2.6c-0.3,0.1-0.6,0.3-0.8,0.4
		c-0.7,0.3-1.3,0.7-2,1c-0.7,0.4-1.4,0.7-2.2,1c-0.2,0.1-0.4,0.2-0.6,0.3c-0.6,0.3-1.3,0.6-1.9,0.8c-0.1,0-0.1,0-0.1,0.1
		c-2.8,1.3-5.7,2.4-8.7,3.5c-0.8,0.3-1.6,0.6-2.3,0.8c-0.7,0.2-1.4,0.5-2.1,0.7c-0.5,0.2-1.1,0.4-1.6,0.5c-0.8,0.3-1.6,0.5-2.4,0.8
		c-1,0.3-1.9,0.6-2.9,0.8c-0.8,0.2-1.6,0.4-2.3,0.6c-0.4,0.1-0.8,0.2-1.2,0.3c-1.8,0.5-3.5,0.9-5.3,1.3c-0.5,0.1-1.1,0.2-1.6,0.3
		c-0.3,0.1-0.5,0.1-0.8,0.2c-0.6,0.1-1.1,0.2-1.7,0.3c-0.7,0.1-1.4,0.3-2.1,0.4c-0.9,0.2-1.7,0.3-2.6,0.4c-0.8,0.1-1.7,0.3-2.5,0.4
		c-0.8,0.1-1.7,0.2-2.5,0.3c-0.1,0-0.3,0-0.4,0.1c-0.4,0.1-0.9,0.1-1.3,0.2c-1.4,0.2-2.8,0.3-4.3,0.4c-0.6,0-1.1,0.1-1.7,0.1
		c-0.1,0-0.3,0-0.5,0c-0.1,0-0.2,0-0.3,0c-0.4,0-0.8,0.1-1.2,0.1c-0.2,0-0.3,0-0.4,0c-0.1,0-0.2,0-0.3,0c-0.7,0-1.4,0.1-2.2,0.1
		c-0.7,0-1.4,0.1-2,0.1c-0.7,0-1.4,0-2.1,0c-0.9,0-1.9,0-2.8,0h-694c-84.1,0-153-68.9-153-153v-13c0-1.1,0-2.2,0-3.3
		c0-1.2,0-2.3,0.1-3.5c0-0.2,0-0.4,0-0.6c0-1.2,0.1-2.4,0.2-3.6c0-0.2,0-0.5,0-0.7c0-0.6,0.1-1.2,0.1-1.8c0.1-1.5,0.2-3,0.3-4.5
		c0.1-1,0.2-2,0.3-2.9v0c0.1-0.4,0.1-0.9,0.1-1.3c0.3-2.8,0.7-5.7,1.1-8.5c0.2-1.4,0.4-2.8,0.7-4.2c0.1-0.8,0.3-1.6,0.4-2.4
		c0.3-1.5,0.5-2.9,0.8-4.3c0.1-0.3,0.1-0.6,0.2-0.9c0.1-0.7,0.3-1.3,0.4-2c0.1-0.5,0.2-0.9,0.3-1.4c0.2-1,0.5-2,0.7-3.1
		c0-0.1,0-0.2,0.1-0.3c0.1-0.3,0.2-0.6,0.2-1C55.4,478,55.4,477.8,55.5,477.6z"/>
	<path class="st21" d="M1083.9,510.6H16.1c15-121.3,119-216,244.1-216h192.9c6.1,14.3,20.3,24.3,36.8,24.3h119
		c16.5,0,30.7-10,36.8-24.3h193.9C964.8,294.6,1068.9,389.3,1083.9,510.6z"/>
	<radialGradient id="SVGID_1_" cx="548.8201" cy="503.8925" r="336.0871" gradientUnits="userSpaceOnUse">
		<stop  offset="0" style="stop-color:#01AC42"/>
		<stop  offset="0.2347" style="stop-color:#01A33D"/>
		<stop  offset="0.6172" style="stop-color:#008B2F"/>
		<stop  offset="1" style="stop-color:#006C1E"/>
	</radialGradient>
	<path class="st22" d="M998.8,520.9v11c0,67-52.8,121.7-119,124.9c-2,0.1-4,0.1-6,0.1h-650c-0.8,0-1.5,0-2.3,0
		c-68-1.2-122.7-56.7-122.7-125v-11c0-9.3,0.8-18.4,2.2-27.3c13.1-80.9,83.2-142.7,167.8-142.7h560c84.6,0,154.7,61.8,167.8,142.7
		C998.1,502.5,998.8,511.6,998.8,520.9z"/>
</g>
</svg>
