<?xml version="1.0" encoding="utf-8"?>
<!-- Generator: Adobe Illustrator 22.1.0, SVG Export Plug-In . SVG Version: 6.00 Build 0)  -->
<svg version="1.1" id="Layer_1" xmlns="http://www.w3.org/2000/svg" xmlns:xlink="http://www.w3.org/1999/xlink" x="0px" y="0px"
	 viewBox="0 0 430 630" style="enable-background:new 0 0 430 630;" xml:space="preserve">
<style type="text/css">
	.st0{fill:#FFFFFF;stroke:#CB1E25;stroke-width:1.5;stroke-miterlimit:10;}
	.st1{fill:#CB1E25;}
	.st2{fill:none;}
</style>
<g>
	<path class="st0" d="M400,615H30c-8.3,0-15-6.7-15-15V30c0-8.3,6.7-15,15-15h370c8.3,0,15,6.7,15,15v570
		C415,608.3,408.3,615,400,615z"/>
	<g>
		<g>
			<path class="st1" d="M90.4,174.6c-5.2-2.9-9.2-7.1-11.9-12.7c-2.7-5.5-4.1-12.2-4.1-20v-0.1c0-4.6,0.5-9.3,1.6-14.3
				s2.6-9.9,4.6-14.8c0.3-0.8,0.7-1.7,1.1-2.5s0.8-1.6,1.2-2.4L109.1,55h20.4l-30.9,61.2l-1.4-3c1.4-2.6,3.5-4.7,6.2-6.2
				s5.9-2.2,9.5-2.2c6.5,0,12,1.4,16.6,4.3s8.1,7,10.5,12.5s3.6,12.1,3.6,19.8v0.1c0,7.9-1.4,14.6-4.1,20.3
				c-2.7,5.6-6.7,9.9-11.9,12.8c-5.2,2.9-11.5,4.4-18.8,4.4C101.9,179,95.6,177.5,90.4,174.6z M121,156.3c2.8-3.1,4.2-7.6,4.2-13.4
				v-0.1c0-6.4-1.4-11.4-4.3-14.9s-7-5.2-12.4-5.2c-4.8,0-8.6,1.8-11.3,5.3c-2.7,3.5-4,8.5-4,14.9v0.1c0,5.8,1.4,10.2,4.2,13.3
				c2.8,3.1,6.7,4.6,11.8,4.6C114.2,161,118.2,159.4,121,156.3z"/>
		</g>
	</g>
	<g>
		<polygon class="st1" points="182.1,286.5 109.4,350.4 36.6,286.5 109.4,222.7 		"/>
		<polygon class="st1" points="182.1,286.5 109.4,368.5 36.6,286.5 109.4,350.4 		"/>
		<polygon class="st1" points="182.1,286.5 109.4,222.7 36.6,286.5 109.4,204.6 		"/>
		<polygon class="st1" points="182.1,286.5 109.4,350.4 36.6,286.5 109.4,222.7 		"/>
		<line class="st2" x1="182.1" y1="286.5" x2="109.4" y2="204.6"/>
	</g>
	<g>
		<polygon class="st1" points="393.1,468.3 279.3,568.2 165.5,468.3 279.3,368.4 		"/>
		<polygon class="st1" points="393.1,468.3 279.3,596.5 165.5,468.3 279.3,568.2 		"/>
		<polygon class="st1" points="393.1,468.3 279.3,368.4 165.5,468.3 279.3,340.1 		"/>
		<polygon class="st1" points="393.1,468.3 279.3,568.2 165.5,468.3 279.3,368.4 		"/>
		<line class="st2" x1="393.1" y1="468.3" x2="279.3" y2="340.1"/>
	</g>
</g>
</svg>
