<?xml version="1.0" encoding="utf-8"?>
<!-- Generator: Adobe Illustrator 22.1.0, SVG Export Plug-In . SVG Version: 6.00 Build 0)  -->
<svg version="1.1" id="Layer_1" xmlns="http://www.w3.org/2000/svg" xmlns:xlink="http://www.w3.org/1999/xlink" x="0px" y="0px"
	 viewBox="0 0 430 630" style="enable-background:new 0 0 430 630;" xml:space="preserve">
<style type="text/css">
	.st0{fill:#FFFFFF;stroke:#CB1E25;stroke-width:1.5;stroke-miterlimit:10;}
	.st1{fill:#CB1E25;}
	.st2{fill:none;}
</style>
<g>
	<path class="st0" d="M400,615H30c-8.3,0-15-6.7-15-15V30c0-8.3,6.7-15,15-15h370c8.3,0,15,6.7,15,15v570
		C415,608.3,408.3,615,400,615z"/>
	<g>
		<g>
			<path class="st1" d="M74.2,162.3l42.6-56.6c2.4-3.1,4.2-6.3,5.5-9.6c1.3-3.3,1.9-6.4,1.9-9.2v-0.2c0-4.5-1.4-8-4.1-10.5
				s-6.5-3.7-11.5-3.7c-4.7,0-8.5,1.4-11.4,4.3c-2.9,2.8-4.7,6.9-5.4,12.1V89H72.7v-0.1c0.9-7.2,2.9-13.4,6-18.5s7.2-9,12.3-11.7
				c5.1-2.7,10.9-4,17.6-4c7.4,0,13.7,1.3,18.9,3.8c5.3,2.5,9.3,6.1,12,10.9s4.1,10.5,4.1,17.3v0.1c0,4.6-0.9,9.4-2.7,14.3
				s-4.4,9.6-7.7,14L99,160.9h45.3v17.8h-70v-16.4L74.2,162.3L74.2,162.3z"/>
		</g>
	</g>
	<g>
		<polygon class="st1" points="182.1,286.5 109.4,350.4 36.6,286.5 109.4,222.7 		"/>
		<polygon class="st1" points="182.1,286.5 109.4,368.5 36.6,286.5 109.4,350.4 		"/>
		<polygon class="st1" points="182.1,286.5 109.4,222.7 36.6,286.5 109.4,204.6 		"/>
		<polygon class="st1" points="182.1,286.5 109.4,350.4 36.6,286.5 109.4,222.7 		"/>
		<line class="st2" x1="182.1" y1="286.5" x2="109.4" y2="204.6"/>
	</g>
	<g>
		<polygon class="st1" points="393.1,468.3 279.3,568.2 165.5,468.3 279.3,368.4 		"/>
		<polygon class="st1" points="393.1,468.3 279.3,596.5 165.5,468.3 279.3,568.2 		"/>
		<polygon class="st1" points="393.1,468.3 279.3,368.4 165.5,468.3 279.3,340.1 		"/>
		<polygon class="st1" points="393.1,468.3 279.3,568.2 165.5,468.3 279.3,368.4 		"/>
		<line class="st2" x1="393.1" y1="468.3" x2="279.3" y2="340.1"/>
	</g>
</g>
</svg>
