<?xml version="1.0" encoding="utf-8"?>
<!-- Generator: Adobe Illustrator 22.1.0, SVG Export Plug-In . SVG Version: 6.00 Build 0)  -->
<svg version="1.1" id="Layer_1" xmlns="http://www.w3.org/2000/svg" xmlns:xlink="http://www.w3.org/1999/xlink" x="0px" y="0px"
	 viewBox="0 0 430 630" style="enable-background:new 0 0 430 630;" xml:space="preserve">
<style type="text/css">
	.st0{fill:#FFFFFF;stroke:#CB1E25;stroke-width:1.5;stroke-miterlimit:10;}
	.st1{fill:#CB1E25;}
	.st2{fill:none;}
</style>
<g>
	<path class="st0" d="M400,615H30c-8.3,0-15-6.7-15-15V30c0-8.3,6.7-15,15-15h370c8.3,0,15,6.7,15,15v570
		C415,608.3,408.3,615,400,615z"/>
	<g>
		<g>
			<path class="st1" d="M93.9,175.2C89,172.7,85,169,82,164.1c-3-4.8-5-10.6-5.9-17.4v-0.1h18.6v0.1c0.6,4.5,2.3,8,5.1,10.5
				c2.8,2.5,6.5,3.8,11,3.8c5.2,0,9.2-1.7,12-5.1c2.8-3.4,4.2-8.3,4.2-14.5v-10.3c0-6.2-1.4-11-4.1-14.4c-2.8-3.4-6.7-5.1-11.7-5.1
				c-3.1,0-6,0.8-8.6,2.5s-4.9,4.1-6.7,7.1H78.8V55h63.4v17.8H97.5V99c2.1-1.7,4.5-3.1,7.2-4.1s5.5-1.4,8.3-1.4
				c6.9,0,12.8,1.5,17.7,4.4c4.9,2.9,8.6,7.2,11.2,12.8c2.6,5.6,3.8,12.4,3.8,20.3v10.3c0,7.9-1.4,14.7-4.1,20.3
				c-2.7,5.6-6.7,9.9-11.9,12.9s-11.5,4.4-18.9,4.4C104.4,179,98.8,177.7,93.9,175.2z"/>
		</g>
	</g>
	<g>
		<polygon class="st1" points="182.1,286.5 109.4,350.4 36.6,286.5 109.4,222.7 		"/>
		<polygon class="st1" points="182.1,286.5 109.4,368.5 36.6,286.5 109.4,350.4 		"/>
		<polygon class="st1" points="182.1,286.5 109.4,222.7 36.6,286.5 109.4,204.6 		"/>
		<polygon class="st1" points="182.1,286.5 109.4,350.4 36.6,286.5 109.4,222.7 		"/>
		<line class="st2" x1="182.1" y1="286.5" x2="109.4" y2="204.6"/>
	</g>
	<g>
		<polygon class="st1" points="393.1,468.3 279.3,568.2 165.5,468.3 279.3,368.4 		"/>
		<polygon class="st1" points="393.1,468.3 279.3,596.5 165.5,468.3 279.3,568.2 		"/>
		<polygon class="st1" points="393.1,468.3 279.3,368.4 165.5,468.3 279.3,340.1 		"/>
		<polygon class="st1" points="393.1,468.3 279.3,568.2 165.5,468.3 279.3,368.4 		"/>
		<line class="st2" x1="393.1" y1="468.3" x2="279.3" y2="340.1"/>
	</g>
</g>
</svg>
