<?xml version="1.0" encoding="utf-8"?>
<!-- Generator: Adobe Illustrator 22.1.0, SVG Export Plug-In . SVG Version: 6.00 Build 0)  -->
<svg version="1.1" id="Layer_1" xmlns="http://www.w3.org/2000/svg" xmlns:xlink="http://www.w3.org/1999/xlink" x="0px" y="0px"
	 viewBox="0 0 430 630" style="enable-background:new 0 0 430 630;" xml:space="preserve">
<style type="text/css">
	.st0{fill:#FFFFFF;stroke:#CB1E25;stroke-width:1.5;stroke-miterlimit:10;}
	.st1{fill:#CB1E25;}
	.st2{fill:none;}
</style>
<g>
	<path class="st0" d="M400,615H30c-8.3,0-15-6.7-15-15V30c0-8.3,6.7-15,15-15h370c8.3,0,15,6.7,15,15v570
		C415,608.3,408.3,615,400,615z"/>
	<g>
		<g>
			<path class="st1" d="M88.6,175.8c-5.7-2.8-10.1-6.8-13.2-11.9c-3.1-5.1-4.6-11.1-4.6-17.9v-2c0-6.1,1.6-11.9,4.7-17.3
				c3.1-5.4,7.3-9.5,12.6-12.2c-4.4-2.4-8-5.8-10.7-10.2c-2.7-4.4-4.1-9.1-4.1-14.1v-3c0-6.4,1.4-12.1,4.3-16.9
				c2.9-4.9,7-8.6,12.3-11.3s11.5-4,18.4-4c7,0,13.1,1.3,18.4,4s9.4,6.4,12.3,11.3c2.9,4.9,4.3,10.5,4.3,16.9v3
				c0,5.1-1.4,9.8-4.1,14.2c-2.8,4.4-6.4,7.8-10.9,10.1c5.3,2.8,9.5,6.9,12.7,12.3c3.2,5.4,4.8,11.1,4.8,17.3v2
				c0,6.8-1.5,12.8-4.6,17.9c-3.1,5.1-7.5,9.1-13.2,11.9c-5.7,2.8-12.3,4.2-19.8,4.2C100.9,180,94.3,178.6,88.6,175.8z M118.4,159.8
				c2.9-1.5,5.1-3.6,6.7-6.3s2.4-5.8,2.4-9.4v-1.2c0-3.5-0.8-6.6-2.4-9.3c-1.6-2.6-3.8-4.7-6.7-6.2s-6.2-2.2-10-2.2s-7.1,0.7-10,2.2
				s-5.1,3.5-6.7,6.2s-2.4,5.8-2.4,9.3v1.3c0,3.5,0.8,6.7,2.4,9.3c1.6,2.7,3.8,4.7,6.7,6.2c2.9,1.5,6.2,2.2,10,2.2
				C112.2,162,115.5,161.3,118.4,159.8z M117,105.1c2.5-1.4,4.4-3.4,5.8-6s2.1-5.6,2.1-8.9V89c0-3.3-0.7-6.1-2.1-8.6
				c-1.4-2.4-3.3-4.3-5.8-5.7c-2.5-1.4-5.3-2-8.6-2s-6.1,0.7-8.6,2c-2.5,1.4-4.4,3.3-5.8,5.7c-1.4,2.5-2.1,5.3-2.1,8.6v1.3
				c0,3.3,0.7,6.3,2.1,8.8c1.4,2.6,3.3,4.5,5.8,5.9s5.3,2.1,8.6,2.1C111.7,107.2,114.6,106.5,117,105.1z"/>
		</g>
	</g>
	<g>
		<polygon class="st1" points="182.1,286.5 109.4,350.4 36.6,286.5 109.4,222.7 		"/>
		<polygon class="st1" points="182.1,286.5 109.4,368.5 36.6,286.5 109.4,350.4 		"/>
		<polygon class="st1" points="182.1,286.5 109.4,222.7 36.6,286.5 109.4,204.6 		"/>
		<polygon class="st1" points="182.1,286.5 109.4,350.4 36.6,286.5 109.4,222.7 		"/>
		<line class="st2" x1="182.1" y1="286.5" x2="109.4" y2="204.6"/>
	</g>
	<g>
		<polygon class="st1" points="393.1,468.3 279.3,568.2 165.5,468.3 279.3,368.4 		"/>
		<polygon class="st1" points="393.1,468.3 279.3,596.5 165.5,468.3 279.3,568.2 		"/>
		<polygon class="st1" points="393.1,468.3 279.3,368.4 165.5,468.3 279.3,340.1 		"/>
		<polygon class="st1" points="393.1,468.3 279.3,568.2 165.5,468.3 279.3,368.4 		"/>
		<line class="st2" x1="393.1" y1="468.3" x2="279.3" y2="340.1"/>
	</g>
</g>
</svg>
