<?xml version="1.0" encoding="utf-8"?>
<!-- Generator: Adobe Illustrator 22.1.0, SVG Export Plug-In . SVG Version: 6.00 Build 0)  -->
<svg version="1.1" id="Layer_1" xmlns="http://www.w3.org/2000/svg" xmlns:xlink="http://www.w3.org/1999/xlink" x="0px" y="0px"
	 viewBox="0 0 430 630" style="enable-background:new 0 0 430 630;" xml:space="preserve">
<style type="text/css">
	.st0{fill:#FFFFFF;stroke:#CB1E25;stroke-width:1.5;stroke-miterlimit:10;}
	.st1{fill:#CB1E25;}
	.st2{fill:none;}
</style>
<g>
	<path class="st0" d="M400,615H30c-8.3,0-15-6.7-15-15V30c0-8.3,6.7-15,15-15h370c8.3,0,15,6.7,15,15v570
		C415,608.3,408.3,615,400,615z"/>
	<g>
		<g>
			<path class="st1" d="M75.5,178.7H56.9V76.9L40,86.4V66.8L57.7,56h17.8V178.7z"/>
			<path class="st1" d="M111.5,170.8c-6-6.1-9-14.7-9-25.7V89.3c0-11,3-19.6,9.1-25.7c6-6.1,14.8-9.2,26.4-9.2s20.4,3,26.4,9.1
				s9,14.7,9,25.7V145c0,11-3,19.6-9.1,25.7c-6,6.1-14.8,9.2-26.4,9.2C126.4,180,117.6,176.9,111.5,170.8z M150.7,157.4
				c2.7-3.2,4.1-7.7,4.1-13.7V90.8c0-6-1.4-10.5-4.1-13.7c-2.7-3.2-6.9-4.8-12.7-4.8s-10,1.6-12.7,4.8c-2.7,3.2-4.1,7.8-4.1,13.7
				v52.9c0,6,1.4,10.5,4.1,13.7s7,4.8,12.7,4.8S147.9,160.6,150.7,157.4z"/>
		</g>
	</g>
	<g>
		<polygon class="st1" points="182.1,286.5 109.4,350.4 36.6,286.5 109.4,222.7 		"/>
		<polygon class="st1" points="182.1,286.5 109.4,368.5 36.6,286.5 109.4,350.4 		"/>
		<polygon class="st1" points="182.1,286.5 109.4,222.7 36.6,286.5 109.4,204.6 		"/>
		<polygon class="st1" points="182.1,286.5 109.4,350.4 36.6,286.5 109.4,222.7 		"/>
		<line class="st2" x1="182.1" y1="286.5" x2="109.4" y2="204.6"/>
	</g>
	<g>
		<polygon class="st1" points="393.1,468.3 279.3,568.2 165.5,468.3 279.3,368.4 		"/>
		<polygon class="st1" points="393.1,468.3 279.3,596.5 165.5,468.3 279.3,568.2 		"/>
		<polygon class="st1" points="393.1,468.3 279.3,368.4 165.5,468.3 279.3,340.1 		"/>
		<polygon class="st1" points="393.1,468.3 279.3,568.2 165.5,468.3 279.3,368.4 		"/>
		<line class="st2" x1="393.1" y1="468.3" x2="279.3" y2="340.1"/>
	</g>
</g>
</svg>
