<?xml version="1.0" encoding="utf-8"?>
<!-- Generator: Adobe Illustrator 22.1.0, SVG Export Plug-In . SVG Version: 6.00 Build 0)  -->
<svg version="1.1" id="Layer_1" xmlns="http://www.w3.org/2000/svg" xmlns:xlink="http://www.w3.org/1999/xlink" x="0px" y="0px"
	 viewBox="0 0 430 630" style="enable-background:new 0 0 430 630;" xml:space="preserve">
<style type="text/css">
	.st0{fill:#FFFFFF;stroke:#CB1E25;stroke-width:1.5;stroke-miterlimit:10;}
	.st1{fill:#CB1E25;}
	.st2{fill:none;}
</style>
<g>
	<path class="st0" d="M400,615H30c-8.3,0-15-6.7-15-15V30c0-8.3,6.7-15,15-15h370c8.3,0,15,6.7,15,15v570
		C415,608.3,408.3,615,400,615z"/>
	<g>
		<g>
			<path class="st1" d="M119.9,117.8l0.9,3c-1.4,2.6-3.5,4.5-6.4,5.7c-2.8,1.2-6.2,1.8-10.1,1.8c-5.9,0-11.1-1.5-15.7-4.5
				c-4.5-3-8-7.2-10.5-12.6s-3.7-11.7-3.7-18.9v-0.1c0-7.9,1.4-14.7,4.1-20.3s6.7-9.9,11.9-12.8c5.2-2.9,11.5-4.4,18.8-4.4
				s13.5,1.5,18.7,4.5s9.2,7.3,11.9,13s4.1,12.5,4.1,20.5v0.1c0,4.3-0.6,9-1.7,13.9c-1.2,4.9-2.8,9.9-4.9,15c-0.3,0.7-0.7,1.5-1,2.2
				c-0.3,0.8-0.7,1.5-1.1,2.2l-25.1,52.6h-20L119.9,117.8z M121,106.1c2.8-3.4,4.2-8.2,4.2-14.4v-0.1c0-6-1.4-10.7-4.2-14
				s-6.7-4.9-11.8-4.9c-5.1,0-9.1,1.6-11.9,4.9s-4.2,8-4.2,14v0.1c0,6.2,1.4,11,4.2,14.3s6.7,5.1,11.9,5.1
				C114.3,111.2,118.2,109.5,121,106.1z"/>
		</g>
	</g>
	<g>
		<polygon class="st1" points="182.1,286.5 109.4,350.4 36.6,286.5 109.4,222.7 		"/>
		<polygon class="st1" points="182.1,286.5 109.4,368.5 36.6,286.5 109.4,350.4 		"/>
		<polygon class="st1" points="182.1,286.5 109.4,222.7 36.6,286.5 109.4,204.6 		"/>
		<polygon class="st1" points="182.1,286.5 109.4,350.4 36.6,286.5 109.4,222.7 		"/>
		<line class="st2" x1="182.1" y1="286.5" x2="109.4" y2="204.6"/>
	</g>
	<g>
		<polygon class="st1" points="393.1,468.3 279.3,568.2 165.5,468.3 279.3,368.4 		"/>
		<polygon class="st1" points="393.1,468.3 279.3,596.5 165.5,468.3 279.3,568.2 		"/>
		<polygon class="st1" points="393.1,468.3 279.3,368.4 165.5,468.3 279.3,340.1 		"/>
		<polygon class="st1" points="393.1,468.3 279.3,568.2 165.5,468.3 279.3,368.4 		"/>
		<line class="st2" x1="393.1" y1="468.3" x2="279.3" y2="340.1"/>
	</g>
</g>
</svg>
