<?xml version="1.0" encoding="utf-8"?>
<!-- Generator: Adobe Illustrator 22.1.0, SVG Export Plug-In . SVG Version: 6.00 Build 0)  -->
<svg version="1.1" id="Layer_1" xmlns="http://www.w3.org/2000/svg" xmlns:xlink="http://www.w3.org/1999/xlink" x="0px" y="0px"
	 viewBox="0 0 430 630" style="enable-background:new 0 0 430 630;" xml:space="preserve">
<style type="text/css">
	.st0{fill:#FFFFFF;stroke:#CB1E25;stroke-width:1.5;stroke-miterlimit:10;}
	.st1{fill:#CB1E25;}
	.st2{fill:none;}
</style>
<g>
	<path class="st0" d="M400,615H30c-8.3,0-15-6.7-15-15V30c0-8.3,6.7-15,15-15h370c8.3,0,15,6.7,15,15v570
		C415,608.3,408.3,615,400,615z"/>
	<g>
		<g>
			<path class="st1" d="M96.9,180c0,0-2.7-1.3-8.1-3.8c-5.4-2.6-9.7-6.3-12.9-11.1c-3.2-4.8-5.2-10.7-5.9-17.5h19.2
				c0.4,3.2,1.4,5.9,3,8c1.5,2.1,3.5,3.7,6,4.8c2.4,1.1,5.3,1.6,8.6,1.6c5.3,0,9.5-1.4,12.5-4.3c3-2.9,4.5-7,4.5-12.2V142
				c0-5.8-1.4-10.3-4.1-13.4c-2.7-3.1-6.6-4.7-11.6-4.7H99V106h9.1c4.3,0,7.7-1.4,10.1-4.1s3.6-6.5,3.6-11.5V87
				c0-4.6-1.3-8.1-3.8-10.6s-6.1-3.8-10.8-3.8c-2.7,0-5.1,0.5-7.3,1.6c-2.2,1.1-4,2.8-5.5,5s-2.6,5-3.2,8.2H72
				c1-6.9,3.1-12.8,6.3-17.7c3.2-4.9,7.2-8.7,12.2-11.3c4.9-2.6,10.5-3.8,16.8-3.8c10.7,0,18.9,2.8,24.8,8.4
				c5.8,5.6,8.7,13.4,8.7,23.5v2.4c0,6-1.6,11.3-4.8,15.7c-3.2,4.5-7.8,7.8-13.7,9.8c6.5,1.5,11.6,4.7,15.1,9.7
				c3.6,5,5.4,11.5,5.4,19.3v2.4c0,7.1-1.4,13.2-4.2,18.3s-6.8,8.9-12.1,11.6c-5.3,2.6-11.7,4-19.2,4C100.4,180,96.9,180,96.9,180z"
				/>
		</g>
	</g>
	<g>
		<polygon class="st1" points="182.1,286.5 109.4,350.4 36.6,286.5 109.4,222.7 		"/>
		<polygon class="st1" points="182.1,286.5 109.4,368.5 36.6,286.5 109.4,350.4 		"/>
		<polygon class="st1" points="182.1,286.5 109.4,222.7 36.6,286.5 109.4,204.6 		"/>
		<polygon class="st1" points="182.1,286.5 109.4,350.4 36.6,286.5 109.4,222.7 		"/>
		<line class="st2" x1="182.1" y1="286.5" x2="109.4" y2="204.6"/>
	</g>
	<g>
		<polygon class="st1" points="393.1,468.3 279.3,568.2 165.5,468.3 279.3,368.4 		"/>
		<polygon class="st1" points="393.1,468.3 279.3,596.5 165.5,468.3 279.3,568.2 		"/>
		<polygon class="st1" points="393.1,468.3 279.3,368.4 165.5,468.3 279.3,340.1 		"/>
		<polygon class="st1" points="393.1,468.3 279.3,568.2 165.5,468.3 279.3,368.4 		"/>
		<line class="st2" x1="393.1" y1="468.3" x2="279.3" y2="340.1"/>
	</g>
</g>
</svg>
