<?xml version="1.0" encoding="utf-8"?>
<!-- Generator: Adobe Illustrator 22.1.0, SVG Export Plug-In . SVG Version: 6.00 Build 0)  -->
<svg version="1.1" id="Layer_1" xmlns="http://www.w3.org/2000/svg" xmlns:xlink="http://www.w3.org/1999/xlink" x="0px" y="0px"
	 viewBox="0 0 430 630" style="enable-background:new 0 0 430 630;" xml:space="preserve">
<style type="text/css">
	.st0{fill:#FFFFFF;stroke:#CB1E25;stroke-width:1.5;stroke-miterlimit:10;}
	.st1{fill:#CB1E25;}
	.st2{fill:none;}
	.st3{fill:#FDC20F;}
	.st4{fill:#FFFFFF;}
</style>
<g>
	<path class="st0" d="M400,615H30c-8.3,0-15-6.7-15-15V30c0-8.3,6.7-15,15-15h370c8.3,0,15,6.7,15,15v570
		C415,608.3,408.3,615,400,615z"/>
	<g>
		<g>
			<path class="st1" d="M82.3,175.9c-5.6-2.7-10-6.5-13.4-11.5l15.3-11.1c1.7,2.8,4,4.9,7,6.4s6.3,2.2,10,2.2c6.1,0,10.9-2,14.3-5.9
				s5.1-9.4,5.1-16.5V56h18.9v83.7c0,8.5-1.5,15.8-4.5,21.8s-7.4,10.6-13.2,13.8s-12.7,4.7-20.9,4.7C94.1,180,87.9,178.6,82.3,175.9
				z"/>
		</g>
	</g>
	<g>
		<polygon class="st1" points="182.1,286.5 109.4,350.4 36.6,286.5 109.4,222.7 		"/>
		<polygon class="st1" points="182.1,286.5 109.4,368.5 36.6,286.5 109.4,350.4 		"/>
		<polygon class="st1" points="182.1,286.5 109.4,222.7 36.6,286.5 109.4,204.6 		"/>
		<polygon class="st1" points="182.1,286.5 109.4,350.4 36.6,286.5 109.4,222.7 		"/>
		<line class="st2" x1="182.1" y1="286.5" x2="109.4" y2="204.6"/>
	</g>
	<g>
		<path class="st3" d="M362,596.5c-0.8,0-1.6,0-2.3,0c0.1-1.7,0.3-3.5,0.3-5.2c0-27,0.2-54,0-81c-0.1-9.7,3-17.7,9.1-25.1
			c2.2-2.7,2.9-6.8,4.3-10.2c-0.6-0.4-1.3-0.7-1.9-1.1c-9.6,10.1-19.8,19.5-32.9,24.6c-8.3-12.4-15.6-15.2-29.4-12.5
			c-2,0.4-5-0.3-6.6-1.7c-11.2-9-22.1-18.4-33.1-27.6c-6.6-5.5-13.3-11-20.5-17.1c-4.2,16.3-8.2,31.7-12.5,48.6
			c-12.6-12.6-24-24.1-35.4-35.6c-2.6,3.3-5.2,6.6-8.1,10.2c-1.6-1.7-2.7-2.9-3.6-4c2.5-4,4.8-7.6,7.6-11.8c-6-0.6-9.7-2.1-9.3-8.2
			c0.5-7.8,1.3-15.6,0.9-23.3c-0.5-9.3-0.7-9.6,9.3-11.1c0-7.5,0.3-15-0.1-22.5c-0.3-5.7,1.1-10,5.7-13.5c1.6-1.2,2.2-3.6,3.2-5.5
			c-0.4-0.3-0.9-0.6-1.3-0.9c-2.3,1.8-4.6,3.6-7.4,5.9c0-9.1-2.6-18,7-23.5c1-0.6,0.9-3.1,1.7-6.1c-3.6,2.9-5.9,4.7-9.1,7.2
			c0-13.3,0-25.5,0-37.7c-0.5,0-1.1,0-1.6,0c-4.2,25.2-0.5,50.8-2.3,76.1c-0.5,0.2-1,0.4-1.6,0.7c-3.1-5.5-6.2-11.1-9.3-16.6
			c0-18.6,0-37.3,0-55.9c1.1-4.1,2-8.2,3.4-12.2c4.6-14,15.4-21.7,28.1-27.4c0.8,0,1.6,0,2.3,0c-0.1,1.3-0.3,2.7-0.3,4
			c0,27.2-0.3,54.4,0.1,81.5c0.1,10.2-2.8,18.7-9.6,25.9c-3.2,3.4-3.1,6.8-2.2,11.5c9.9-10.8,20.1-19.9,33.1-25.2
			c7.3,10.5,14.2,15.4,22.9,13.1c8.7-2.3,14.3,0.8,19.9,6.4c1.8,1.8,3.8,3.3,5.8,4.9c13.5,11.3,27,22.6,41.2,34.5
			c4.2-16.1,8.1-31.6,12.5-48.8c12.5,12.7,23.9,24.3,35.3,35.8c2.8-3.5,5.4-6.8,8.3-10.4c1.7,1.9,2.7,3.2,3.6,4.1
			c-2.6,4-4.9,7.6-7.4,11.4c8.1,1.9,9.5,3.9,9.1,9.1c-0.7,7.6-1.3,15.2-0.8,22.7c0.5,9.3,0.7,9.6-9.3,11.1c0,7.6-0.3,15.4,0.1,23.1
			c0.3,5.3-1,9.3-5.3,12.6c-1.7,1.3-2.5,3.9-3.7,5.9c0.5,0.3,0.9,0.6,1.4,1c2.3-1.8,4.6-3.6,7.5-5.9c0,5.7,0,10.5,0,15.4
			c0,0.4,0,0.9-0.2,1.1c-2.3,2.3-4.9,4.4-6.9,7c-1,1.2-1,3.3-1.9,6.6c3.7-3.1,6-5,9.1-7.6c0,13.4,0,25.6,0,37.8c0.6,0,1.1,0,1.7,0
			c4.3-25.3,0.6-51,2.4-76.4c0.5-0.2,1.1-0.4,1.6-0.6c3.1,5.6,6.2,11.2,9.3,16.8c0,18.6,0,37.3,0,55.9c-3.4,8.1-5.2,17.4-10.5,24
			C377.8,587.5,369.2,591.4,362,596.5z M205.1,409C205.1,409,205.1,409.1,205.1,409c-3.3,0-6.6-0.2-9.8,0.1
			c-1.4,0.1-2.6,1.5-3.9,2.3c1.2,0.9,2.4,2.6,3.6,2.7c6.7,0.3,13.5,0.3,20.2,0c1.2,0,2.4-1.7,3.6-2.6c-1.3-0.8-2.5-2.2-3.9-2.4
			C211.7,408.8,208.4,409,205.1,409z M371.1,454.7L371.1,454.7c-3.5,0-7-0.2-10.5,0.1c-1.2,0.1-2.3,1.5-3.4,2.3
			c1.2,0.9,2.4,2.6,3.6,2.6c6.8,0.3,13.6,0.2,20.4,0c1.2,0,2.3-1.5,3.4-2.3c-1.2-0.9-2.3-2.5-3.6-2.7
			C377.7,454.5,374.4,454.7,371.1,454.7z M371.5,450.2L371.5,450.2c3.3,0,6.6,0.2,9.8-0.1c1.2-0.1,2.2-1.5,3.4-2.3
			c-1-0.9-2.1-2.5-3.1-2.5c-6.8-0.2-13.5-0.2-20.3,0c-1.1,0-2,1.7-3.1,2.6c1.1,0.8,2.2,2.1,3.4,2.3
			C364.9,450.4,368.2,450.2,371.5,450.2z M204.2,423.8L204.2,423.8c3.5,0,7,0.3,10.4-0.1c1.1-0.1,2.1-1.6,3.2-2.5
			c-0.9-0.8-1.8-2.3-2.7-2.3c-7-0.2-13.9-0.2-20.9-0.1c-1,0-1.9,1.4-2.9,2.2c1,0.9,1.9,2.5,3,2.6C197.6,424,200.9,423.8,204.2,423.8
			z M204.1,433.3L204.1,433.3c3.3,0,6.6,0.2,9.8-0.1c1-0.1,1.9-1.7,2.9-2.7c-1-0.7-1.9-2-2.9-2.1c-6.5-0.2-13.1-0.2-19.6,0.1
			c-1,0-1.9,1.7-2.9,2.7c1,0.7,1.9,2,2.9,2C197.6,433.5,200.8,433.3,204.1,433.3z M371.9,440.6L371.9,440.6c3.1,0,6.2,0.2,9.3-0.1
			c1.2-0.1,2.2-1.5,3.3-2.2c-1-0.9-2-2.4-3.1-2.4c-6.4-0.2-12.8-0.2-19.2,0c-1,0-2,1.6-3,2.5c1.1,0.8,2.2,2,3.4,2.2
			C365.7,440.8,368.8,440.6,371.9,440.6z M372,431.1C372,431,372,431,372,431.1c3.3,0,6.6,0.1,9.8-0.1c1-0.1,1.9-1.4,2.8-2.2
			c-0.9-0.8-1.7-2.3-2.6-2.3c-6.4-0.2-12.7-0.2-19.1,0c-1,0-1.9,1.4-2.8,2.1c1.1,0.8,2.1,2.2,3.2,2.4
			C366.2,431.3,369.1,431.1,372,431.1z M203.2,442.7C203.2,442.7,203.2,442.6,203.2,442.7c3.3,0,6.6,0.1,9.8-0.1
			c1-0.1,1.9-1.4,2.8-2.1c-0.9-0.8-1.7-2.3-2.6-2.3c-6.3-0.2-12.7-0.2-19,0c-1,0-1.9,1.4-2.8,2.2c1.1,0.8,2.1,2.1,3.2,2.3
			C197.4,442.9,200.4,442.7,203.2,442.7z M273.3,415.1c-3.5-1.9-5.5-3.9-7-3.6c-1.6,0.4-3.5,2.8-3.7,4.6c-0.2,1,2.7,3.4,4.2,3.4
			C268.4,419.4,270,417.4,273.3,415.1z M294.4,434.9c-3-2.3-4.6-4.4-6.3-4.5c-1.4-0.1-4.1,2.4-4,3.6c0.1,1.7,2.1,4.3,3.6,4.7
			C289.2,438.9,291.2,436.8,294.4,434.9z M316,453.6c-3.2-2.1-4.9-4.1-6.7-4c-1.4,0-4.2,2.6-4,3.6c0.4,1.7,2.3,4.1,3.9,4.4
			C310.8,457.8,312.7,455.7,316,453.6z"/>
		<path class="st4" d="M182.6,368.1c3.1,5.5,6.2,11.1,9.3,16.6c0.5-0.2,1-0.4,1.6-0.7c1.8-25.3-1.9-50.9,2.3-76.1c0.5,0,1.1,0,1.6,0
			c0,12.2,0,24.4,0,37.7c3.2-2.5,5.5-4.4,9.1-7.2c-0.8,3-0.7,5.6-1.7,6.1c-9.6,5.5-7,14.4-7,23.5c2.8-2.2,5.1-4,7.4-5.9
			c0.4,0.3,0.9,0.6,1.3,0.9c-1,1.9-1.6,4.4-3.2,5.5c-4.7,3.5-6.1,7.8-5.7,13.5c0.5,7.5,0.1,15.1,0.1,22.5c-10,1.5-9.8,1.8-9.3,11.1
			c0.4,7.7-0.4,15.5-0.9,23.3c-0.4,6.1,3.3,7.6,9.3,8.2c-2.7,4.3-5,7.9-7.6,11.8c1,1.1,2.1,2.3,3.6,4c2.9-3.6,5.5-6.9,8.1-10.2
			c11.4,11.5,22.8,23,35.4,35.6c4.4-16.9,8.3-32.3,12.5-48.6c7.2,6,13.9,11.5,20.5,17.1c11,9.2,21.9,18.6,33.1,27.6
			c1.6,1.3,4.6,2.1,6.6,1.7c13.9-2.8,21.1,0.1,29.4,12.5c13.2-5.1,23.3-14.5,32.9-24.6c0.6,0.4,1.3,0.7,1.9,1.1
			c-1.4,3.4-2,7.5-4.3,10.2c-6,7.4-9.2,15.4-9.1,25.1c0.3,27,0.1,54,0,81c0,1.7-0.2,3.5-0.3,5.2c-59,0-117.9,0-177.2,0
			C182.6,520.4,182.6,444.2,182.6,368.1z M234,529.4c15.7-0.3,26.6-9.8,38.4-17.2c-9.7-5.8-18.4,2.1-28.2,1.8
			c0.3-4.5,0.7-8.6,1.1-13.6c9.7,0.7,18.7,1.4,28.3,2.1c-10.6-5.7-21.4-6.1-32.2-5.6c-0.3,0.9-0.6,1.2-0.6,1.6
			c-0.4,4.6-0.8,9.3-1.1,13.9c-0.7,10.8-0.7,10.8-10.8,14.2c-0.3,0.1-0.5,0.5-0.8,0.8c3.4,9.5,7.1,18.9,10.1,28.5
			c0.9,3,0.8,6.8-0.2,9.9c-2.1,6.9-5,13.6-7.9,21.3c30.3,6.5,58.8,4.8,87.5-4.9c-2-5.3-3.5-9.7-5.4-13.9c-2.1-4.7-2.2-9-0.1-13.8
			c3.8-8.6,6.9-17.5,10.3-26.2c-3.1-1-5.4-1.9-7.8-2.7c1.2-1.1,2.1-1.2,3-1.3c11.9-0.4,18.6-7.6,17.7-18.9
			c-0.8-10.4-10.1-17.3-21.1-15.8c-8.1,1.1-14.9,5-19.2,11.8c-3.9,6.2-7.2,12.8-10.1,19.5c-3.3,7.4-5.4,15.4-8.9,22.7
			c-5.6,11.8-15.2,17.3-28.3,15.6c-1.4-0.2-3.4-1.3-3.8-2.4C240.6,548.2,237.6,539.4,234,529.4z M299.3,490.5
			c-15.6-13.2-31.1-26.1-47.1-39.7c-3.4,13.9-6.5,26.4-9.6,38.8c8.7,1.2,16.7,1.7,24.4,3.5c7.8,1.8,15.3,5,23,7.6
			C292.8,497.6,295.8,494.3,299.3,490.5z"/>
		<path class="st4" d="M393.5,500.9c-3.1-5.6-6.2-11.2-9.3-16.8c-0.5,0.2-1.1,0.4-1.6,0.6c-1.7,25.4,1.9,51.1-2.4,76.4
			c-0.6,0-1.1,0-1.7,0c0-12.2,0-24.4,0-37.8c-3.2,2.7-5.5,4.6-9.1,7.6c0.9-3.3,0.9-5.3,1.9-6.6c2-2.5,4.6-4.6,6.9-7
			c0.2-0.2,0.2-0.7,0.2-1.1c0-4.8,0-9.6,0-15.4c-2.9,2.3-5.2,4.1-7.5,5.9c-0.5-0.3-0.9-0.6-1.4-1c1.2-2,2-4.6,3.7-5.9
			c4.3-3.3,5.6-7.3,5.3-12.6c-0.4-7.7-0.1-15.5-0.1-23.1c10-1.5,9.8-1.8,9.3-11.1c-0.4-7.5,0.2-15.2,0.8-22.7c0.5-5.1-1-7.2-9.1-9.1
			c2.5-3.8,4.8-7.4,7.4-11.4c-0.8-0.9-1.9-2.2-3.6-4.1c-2.9,3.6-5.5,6.9-8.3,10.4c-11.4-11.5-22.8-23.2-35.3-35.8
			c-4.4,17.2-8.4,32.6-12.5,48.8c-14.2-11.9-27.7-23.2-41.2-34.5c-1.9-1.6-4-3.1-5.8-4.9c-5.5-5.6-11.1-8.7-19.9-6.4
			c-8.8,2.3-15.6-2.5-22.9-13.1c-13,5.3-23.2,14.4-33.1,25.2c-0.9-4.7-1-8.1,2.2-11.5c6.8-7.2,9.8-15.8,9.6-25.9
			c-0.4-27.2-0.1-54.4-0.1-81.5c0-1.3,0.2-2.7,0.3-4c59.1,0,118.1,0,177.2,0C393.5,348.6,393.5,424.8,393.5,500.9z M261.3,343.3
			c-0.1,0.4-0.1,0.9-0.2,1.3c-1,0-1.9,0.1-2.9,0.1c-11.4,0.4-17.9,7-17.5,17.9c0.3,10.1,8.4,17.4,19.1,16.9
			c9.5-0.4,17.1-4.9,21.7-12.8c5.1-8.8,8.7-18.5,13-27.8c3-6.5,5.4-13.3,9.2-19.3c5.4-8.5,16.8-12.4,26.2-9.9c0.9,0.2,2,1.2,2.3,2
			c3.3,8.8,6.4,17.7,10,27.7c-15.8,0.4-26.7,9.7-38.4,17.3c9.7,5.4,18.4-2,28.1-2c-0.3,4.4-0.7,8.6-1,13.7c-9.5-0.7-18.5-1.3-28-1.9
			c10.2,5.7,21,6.1,32.2,5.5c0.4-5.1,1.1-9.7,1.1-14.3c0-8.1-0.5-16.3,12.1-14.9c-3.7-10.1-6.8-19.2-10.3-28.2
			c-1.6-4.2-1.9-8,0-12.3c2.8-6.3,5-12.9,7.9-20.4c-30-6.6-58.6-4.8-87.5,4.8c2,5.4,3.5,10.2,5.6,14.8c2,4.4,1.7,8.3-0.1,12.7
			c-3.7,8.7-6.9,17.6-10.4,26.5C256.3,341.7,258.8,342.5,261.3,343.3z M276.9,378.5c15.4,13,30.9,26,47,39.6
			c3.4-13.8,6.5-26.3,9.4-37.9c-12.4-2.6-24.4-3.4-34.8-7.8c-9.4-4-15.3-3.4-20.8,4.8C277.5,377.5,277.3,377.8,276.9,378.5z"/>
		<path class="st4" d="M214,272.5c-12.7,5.7-23.5,13.4-28.1,27.4c-1.3,4-2.3,8.1-3.4,12.2c0-13.2,0-26.4,0-39.6
			C193,272.5,203.5,272.5,214,272.5z"/>
		<path class="st4" d="M362,596.5c7.1-5.1,15.7-9,21-15.6c5.2-6.6,7.1-15.9,10.5-24c0,13.2,0,26.4,0,39.6
			C383,596.5,372.5,596.5,362,596.5z"/>
		<path class="st4" d="M205.1,409c3.3,0,6.6-0.2,9.8,0.1c1.4,0.1,2.6,1.5,3.9,2.4c-1.2,0.9-2.4,2.6-3.6,2.6
			c-6.7,0.3-13.5,0.3-20.2,0c-1.2,0-2.4-1.7-3.6-2.7c1.3-0.8,2.6-2.2,3.9-2.3C198.5,408.8,201.8,409.1,205.1,409
			C205.1,409.1,205.1,409,205.1,409z"/>
		<path class="st4" d="M371.1,454.7c3.3,0,6.6-0.3,9.9,0.1c1.3,0.2,2.4,1.8,3.6,2.7c-1.1,0.8-2.3,2.2-3.4,2.3
			c-6.8,0.2-13.6,0.2-20.4,0c-1.2,0-2.4-1.7-3.6-2.6c1.1-0.8,2.2-2.2,3.4-2.3C364.1,454.5,367.6,454.7,371.1,454.7L371.1,454.7z"/>
		<path class="st4" d="M371.5,450.2c-3.3,0-6.6,0.2-9.8-0.1c-1.2-0.1-2.3-1.5-3.4-2.3c1-0.9,2-2.5,3.1-2.6c6.8-0.2,13.5-0.3,20.3,0
			c1.1,0,2.1,1.6,3.1,2.5c-1.1,0.8-2.2,2.2-3.4,2.3C378.1,450.4,374.8,450.2,371.5,450.2L371.5,450.2z"/>
		<path class="st4" d="M204.2,423.8c-3.3,0-6.6,0.2-9.9-0.1c-1.1-0.1-2-1.7-3-2.6c1-0.8,1.9-2.2,2.9-2.2c7-0.2,13.9-0.2,20.9,0.1
			c0.9,0,1.8,1.5,2.7,2.3c-1.1,0.9-2.1,2.4-3.2,2.5C211.2,424.1,207.7,423.9,204.2,423.8L204.2,423.8z"/>
		<path class="st4" d="M204.1,433.3c-3.3,0-6.6,0.2-9.8-0.1c-1-0.1-2-1.3-2.9-2c1-0.9,1.9-2.6,2.9-2.7c6.5-0.3,13.1-0.2,19.6-0.1
			c1,0,1.9,1.3,2.9,2.1c-1,0.9-1.8,2.5-2.9,2.7C210.7,433.5,207.4,433.3,204.1,433.3L204.1,433.3z"/>
		<path class="st4" d="M371.9,440.6c-3.1,0-6.2,0.2-9.3-0.1c-1.2-0.1-2.3-1.4-3.4-2.2c1-0.9,2-2.5,3-2.5c6.4-0.2,12.8-0.2,19.2,0
			c1.1,0,2.1,1.6,3.1,2.4c-1.1,0.8-2.2,2.1-3.3,2.2C378.2,440.8,375,440.6,371.9,440.6L371.9,440.6z"/>
		<path class="st4" d="M372,431.1c-2.9,0-5.8,0.2-8.7-0.1c-1.2-0.1-2.2-1.5-3.2-2.4c0.9-0.7,1.9-2.1,2.8-2.1
			c6.4-0.2,12.7-0.2,19.1,0c0.9,0,1.7,1.5,2.6,2.3c-0.9,0.8-1.8,2.1-2.8,2.2C378.6,431.2,375.3,431,372,431.1
			C372,431,372,431,372,431.1z"/>
		<path class="st4" d="M203.2,442.7c-2.9,0-5.8,0.2-8.7-0.1c-1.1-0.1-2.1-1.5-3.2-2.3c0.9-0.8,1.8-2.2,2.8-2.2
			c6.3-0.2,12.7-0.2,19,0c0.9,0,1.8,1.5,2.6,2.3c-0.9,0.7-1.8,2-2.8,2.1C209.8,442.8,206.5,442.6,203.2,442.7
			C203.2,442.6,203.2,442.7,203.2,442.7z"/>
		<path class="st4" d="M273.3,415.1c-3.2,2.3-4.9,4.3-6.5,4.4c-1.5,0-4.3-2.4-4.2-3.4c0.3-1.8,2.1-4.2,3.7-4.6
			C267.8,411.1,269.8,413.2,273.3,415.1z"/>
		<path class="st4" d="M294.4,434.9c-3.2,1.9-5.2,4.1-6.7,3.7c-1.6-0.3-3.5-2.9-3.6-4.7c-0.1-1.2,2.7-3.7,4-3.6
			C289.8,430.4,291.4,432.6,294.4,434.9z"/>
		<path class="st4" d="M316,453.6c-3.3,2-5.2,4.1-6.7,3.9c-1.6-0.2-3.5-2.6-3.9-4.4c-0.2-1,2.5-3.5,4-3.6
			C311,449.6,312.8,451.5,316,453.6z"/>
		<path class="st3" d="M234,529.4c3.6,10,6.6,18.7,9.9,27.4c0.4,1.2,2.4,2.3,3.8,2.4c13.2,1.6,22.8-3.8,28.3-15.6
			c3.5-7.3,5.6-15.3,8.9-22.7c3-6.7,6.2-13.4,10.1-19.5c4.4-6.8,11.1-10.7,19.2-11.8c11-1.5,20.2,5.5,21.1,15.8
			c0.9,11.3-5.8,18.5-17.7,18.9c-0.9,0-1.8,0.1-3,1.3c2.4,0.8,4.8,1.6,7.8,2.7c-3.4,8.7-6.5,17.6-10.3,26.2c-2.1,4.8-2,9.1,0.1,13.8
			c1.9,4.2,3.4,8.6,5.4,13.9c-28.7,9.7-57.2,11.3-87.5,4.9c2.9-7.7,5.8-14.3,7.9-21.3c0.9-3.1,1.1-6.9,0.2-9.9
			c-3-9.6-6.6-19-10.1-28.5c0.3-0.3,0.5-0.7,0.8-0.8c10-3.4,10-3.4,10.8-14.2c0.3-4.6,0.7-9.3,1.1-13.9c0-0.4,0.3-0.7,0.6-1.6
			c10.8-0.5,21.6-0.1,32.2,5.6c-9.7-0.7-18.7-1.4-28.3-2.1c-0.4,5-0.7,9.2-1.1,13.6c9.8,0.3,18.5-7.7,28.2-1.8
			C260.6,519.7,249.7,529.1,234,529.4z"/>
		<path class="st3" d="M299.3,490.5c-3.5,3.8-6.5,7-9.4,10.2c-7.7-2.6-15.2-5.7-23-7.6c-7.7-1.8-15.6-2.3-24.4-3.5
			c3.1-12.4,6.1-24.9,9.6-38.8C268.2,464.4,283.6,477.3,299.3,490.5z"/>
		<path class="st3" d="M261.3,343.3c-2.5-0.8-4.9-1.6-7.8-2.5c3.4-8.9,6.7-17.8,10.4-26.5c1.9-4.4,2.1-8.3,0.1-12.7
			c-2.1-4.6-3.6-9.4-5.6-14.8c28.9-9.7,57.5-11.4,87.5-4.8c-2.9,7.5-5.1,14.1-7.9,20.4c-1.9,4.3-1.6,8.1,0,12.3
			c3.5,9,6.6,18.1,10.3,28.2c-12.6-1.5-12.1,6.7-12.1,14.9c0,4.6-0.7,9.2-1.1,14.3c-11.2,0.5-22,0.2-32.2-5.5
			c9.5,0.7,18.5,1.3,28,1.9c0.4-5.1,0.7-9.3,1-13.7c-9.8,0.1-18.5,7.5-28.1,2c11.7-7.6,22.6-16.9,38.4-17.3
			c-3.6-10-6.7-18.9-10-27.7c-0.3-0.9-1.4-1.8-2.3-2c-9.4-2.4-20.8,1.5-26.2,9.9c-3.8,6-6.2,12.8-9.2,19.3c-4.3,9.3-7.9,19-13,27.8
			c-4.6,7.9-12.2,12.3-21.7,12.8c-10.6,0.5-18.8-6.8-19.1-16.9c-0.3-10.9,6.2-17.5,17.5-17.9c1,0,1.9-0.1,2.9-0.1
			C261.1,344.2,261.2,343.7,261.3,343.3z"/>
		<path class="st3" d="M276.9,378.5c0.4-0.7,0.6-1.1,0.8-1.4c5.5-8.1,11.4-8.8,20.8-4.8c10.4,4.4,22.4,5.2,34.8,7.8
			c-2.9,11.6-6,24.2-9.4,37.9C307.7,404.5,292.3,391.5,276.9,378.5z"/>
	</g>
</g>
</svg>
