<?xml version="1.0" encoding="utf-8"?>
<!-- Generator: Adobe Illustrator 22.1.0, SVG Export Plug-In . SVG Version: 6.00 Build 0)  -->
<svg version="1.1" id="Layer_1" xmlns="http://www.w3.org/2000/svg" xmlns:xlink="http://www.w3.org/1999/xlink" x="0px" y="0px"
	 viewBox="0 0 430 630" style="enable-background:new 0 0 430 630;" xml:space="preserve">
<style type="text/css">
	.st0{fill:#FFFFFF;stroke:#CB1E25;stroke-width:1.5;stroke-miterlimit:10;}
	.st1{fill:#CB1E25;}
	.st2{fill:none;}
	.st3{fill:#3FA9F5;}
	.st4{fill:#FFFFFF;}
</style>
<g>
	<path class="st0" d="M400,615H30c-8.3,0-15-6.7-15-15V30c0-8.3,6.7-15,15-15h370c8.3,0,15,6.7,15,15v570
		C415,608.3,408.3,615,400,615z"/>
	<g>
		<g>
			<path class="st1" d="M69.6,54h18.6v122.7H69.6V54z M83.2,124.3l53-70.3h23.1L82,151.2L83.2,124.3z M103.6,112.1l15.2-12.6
				l45.7,77.2h-22.7L103.6,112.1z"/>
		</g>
	</g>
	<g>
		<polygon class="st1" points="182.1,286.5 109.4,350.4 36.6,286.5 109.4,222.7 		"/>
		<polygon class="st1" points="182.1,286.5 109.4,368.5 36.6,286.5 109.4,350.4 		"/>
		<polygon class="st1" points="182.1,286.5 109.4,222.7 36.6,286.5 109.4,204.6 		"/>
		<polygon class="st1" points="182.1,286.5 109.4,350.4 36.6,286.5 109.4,222.7 		"/>
		<line class="st2" x1="182.1" y1="286.5" x2="109.4" y2="204.6"/>
	</g>
	<g>
		<path class="st3" d="M183.6,416.9c0-2.2,0-4.5,0-6.7c5,1.9,9.8,4.5,15,5.5c15.5,3,31.8-1,46.9,6.2c-0.2-5-0.2-5-21.2-10.1
			c0-1.9,0-3.9,0-6c0-21.9-0.4-43.8,0.2-65.6c0.3-10.3-6.7-17.1-9.6-26.6c-2.1,4.6-3.3,8.4-5.5,11.6c-3.8,5.6-4.3,11.6-4.3,18.1
			c0.2,20.6,0.1,41.1,0.1,61.7c0,2.2,0,4.4,0,6.6c-0.7,0.2-1.5,0.3-2.2,0.5c-0.6-2-1.7-3.9-1.7-5.9c-0.1-20.6,0.2-41.1-0.2-61.7
			c-0.1-8.4,0.9-16.1,5.7-23.4c3.3-4.9,5.3-10.7,7.9-16c0.1,0.1,0.6,0.2,0.7,0.5c13.2,24,13.2,24,13.2,51.3c0,5.2,0,10.5,0,15.7
			c0,7.6,0,15.2,0,23.5c3.6-2.2,6.3-4.1,9.3-5.5c3.3-1.5,4.8-3.2,4.1-7.2c-1-5.5,0.9-10.4,5.3-14c6.4-5.3,15-3.6,17.6,3.4
			c-0.6-0.2-1.1-0.5-1.5-0.7c-4.9-2-9.9-2.8-14.1,1.2c-3.5,3.4-4.5,7.6-2.7,12.3c2,5.5,6.1,8.4,11.8,8.8c8.4,0.7,15.8-3.9,19.3-11.7
			c2.5-5.5,4.8-11.1,7.4-17.1c13.7,22.9,30,31.2,49.4,25.9c-1.6-7.2-3.1-14.5-4.7-22c-9.5,0.3-17.5,3.7-23.2,9.7
			c-1.1-1.8-2-3.6-3.2-5c-4.2-5.1-8.7-10-12.8-15.3c-0.9-1.2-1.1-3.6-0.6-5.1c1.6-4.8,3.6-9.4,5.8-14c0.7-1.3,2.7-2,4-3
			c-0.2,4-1.2,6.8-2.4,9.5c-4.5,10.6-3.8,13.9,4.9,21.6c2.1,1.8,4.5,3.3,6.9,5c8.8-8.3,20.2-7,31.2-9c-2.7-8.9-5.4-17.3-7.7-25.7
			c-1-3.6-2.6-5-6.6-4.9c-18.9,0.3-37.8,0.1-56.7,0.1c-2.2,0-4.3,0-6.8,0c1.4-10.3-7.4-15.5-10.2-23.9c4.9,0.9,9.2,1.7,13.7,2.6
			c2.3-4.6,4.5-9,6.7-13.4c4.9,2.2,9.3,4.2,13.8,6.2c3.3-4.2,6.4-7.9,9.4-11.7c0.4,0,0.7,0,1.1,0c3.5,3.2,6.9,6.4,10.5,9.8
			c4.4-3.3,8.3-6.1,12.4-9.1c3.2,4.1,6.1,7.9,9.2,11.8c4.3-1.7,8.4-3.3,13.6-5.5c-1.6,4.1-2.4,7.1-3.8,9.8
			c-5.2,10.3-5.1,20.7-1.2,31.4c3,8.3,5.3,17,8.1,26.1c-4,0.5-7.4,1-12,1.6c2.2,8.9,4.3,17.4,6.4,26.2c-6.7-0.9-8.8,4.3-11,9.6
			c-3,7-6.4,13.8-9.8,21c-2.3-1.8-4.2-3.2-6.1-4.7c-11.1-9.1-22.2-18.3-33.4-27.3c-1.3-1-3.3-1.1-5-1.6c-0.2,0.6-0.4,1.3-0.7,1.9
			c15.3,12.6,30.6,25.3,46.4,38.2c5.3-11.3,10.3-22,16.1-34.2c6.8,7.3,12.9,13.8,19,20.3c6.3-9,14.4-11.2,21.3-6.3
			c6.8,4.8,7.4,13,1.5,21.1c-0.5,0.7-1.3,1.5-1.3,2.3c-0.1,10.8-0.1,21.5-0.1,31.8c6.3,2,11.4,3.7,16.5,5.4c0,1.9,0,3.7,0,5.6
			c-4.6-1.5-9-3.4-13.7-4.3c-16-3-32.8,0.8-48.6-5.4c4.9,8.1,13.8,6.6,21.6,9.1c0,1.5,0,3.2,0,4.8c0,22.4,0.4,44.9-0.1,67.3
			c-0.2,10.1,6.7,16.7,9.6,26.1c2.2-4.7,3.4-8.5,5.6-11.7c3.6-5.4,4.3-11.2,4.2-17.5c-0.3-20.9-0.1-41.9-0.1-62.8c0-2,0-4,0-6
			c0.7-0.2,1.5-0.3,2.2-0.5c0.6,1.8,1.7,3.6,1.7,5.4c0.1,23.6,0.1,47.1,0.1,70.7c0,1.8,0.1,3.9-0.7,5.5c-4.2,8.5-8.7,16.9-13.1,25.4
			c-13.6-26.4-13.6-26.4-13.6-55c0-5.4,0-10.8,0-16.3c0-6.3,0-12.5,0-19.6c-3.9,2.3-7,4.5-10.3,6c-3,1.3-3.6,3-3.1,6.1
			c1,5.7-0.8,10.8-5.3,14.6c-6.3,5.3-14.7,3.7-17.7-3.4c5.3,2.5,10.8,3.9,15.7-0.5c3.4-3.1,4.5-7.1,3-11.7
			c-1.7-5.4-5.3-8.4-10.8-9.3c-8.5-1.4-16.6,3.1-20.4,11.4c-2.6,5.5-4.9,11.2-7.5,17c-13.9-22.7-30-31-49.5-25.8
			c1.6,7.2,3.1,14.4,4.8,22.1c9.3-0.2,17.5-3.5,23.2-9.7c1.3,1.9,2.5,3.8,3.9,5.5c4.4,5.5,10,10.4,12.7,16.7
			c1.4,3.3-2.4,8.9-3.9,13.4c-0.5,1.4-0.9,3-1.8,4.1c-1,1.3-2.6,2.1-3.9,3.1c-0.4-0.4-0.8-0.8-1.2-1.2c2-5,4.1-9.9,5.9-15
			c0.6-1.7,0.9-4.4,0-5.6c-3.4-4.4-7.1-8.6-11.1-12.4c-1-1-3.9-0.7-5.6-0.2c-4.4,1.4-8.6,3.6-13,4.7c-5,1.2-10.2,1.4-15.8,2
			c2.7,8.8,5.4,17,7.6,25.2c1.1,4.1,2.9,5.5,7.3,5.5c19.3-0.3,38.5-0.1,57.8-0.1c1.6,0,3.2,0.2,4.8,0.3c-0.5,0.4-0.9,0.8-1.4,1.3
			c3.9,7.3,7.7,14.6,11.8,22.3c-4.8-0.9-9.1-1.7-13.6-2.6c-2.3,4.5-4.4,8.8-6.6,13.3c-4.7-2-9.7-6.1-13.3-5.1
			c-4,1.1-6.7,6.9-9.9,10.7c-0.4,0-0.7,0-1.1,0c-3.5-3.2-6.9-6.5-10.5-9.8c-4.4,3.3-8.3,6.1-12.4,9.1c-3.2-4.1-6.1-7.9-9.1-11.8
			c-4.3,1.7-8.4,3.3-13.6,5.4c1.6-4.2,2.6-7.4,4-10.3c5-10,4.8-20,1.1-30.4c-3-8.6-5.4-17.3-8.2-26.5c2.3-0.3,3.9-0.9,5.5-0.8
			c4.8,0.4,6.4-1.6,5.2-6.3c-1.8-6.8-3.4-13.6-5.2-20.9c7.1,1,8.9-4.6,11.2-9.7c3.1-6.9,6.4-13.7,9.7-20.9c2.2,1.7,3.8,3,5.4,4.3
			c11.3,9.3,22.5,18.5,33.8,27.8c3.3,2.7,3.3,2.6,5.7-0.3c-15.2-12.5-30.4-25.1-46.2-38c-5.2,11.2-10.3,21.9-15.9,34
			c-6.7-7.3-12.7-13.8-18.7-20.4c-1,1.1-1.3,1.3-1.5,1.6c-5.5,7.8-13.5,9.8-20.1,5c-6.9-4.9-7.5-13.2-1.6-21.1
			c0.5-0.7,1.3-1.5,1.3-2.3c0.1-10.8,0.1-21.5,0.1-31.9C193.9,420.3,188.7,418.6,183.6,416.9z M283.6,380.5c-0.7,0.3-1.4,0.6-2.1,1
			c0.8,1.7,1.3,3.8,2.6,4.9c8.9,7.4,18,14.6,27,21.8c2.4,1.9,4.8,3.8,7.5,5.9c2.8-5.9,5.2-11.1,7.9-16.8c-8-1.1-5.7,7.6-10.3,9.3
			C305.5,397.9,294.6,389.2,283.6,380.5z M260.5,483.3c11.1,8.8,22.2,17.6,33.4,26.5c0.6-0.4,1.2-0.8,1.7-1.2
			c-0.7-1.6-1-3.6-2.2-4.6c-10.2-8.5-20.6-16.7-30.9-25c-1.2-1-2.6-1.7-4.2-2.7c-2.7,5.7-5.1,10.8-7.9,16.7
			C258.2,493.2,256.7,485.8,260.5,483.3z M215.1,426.9C215.1,426.9,215.1,427,215.1,426.9c3.2,0,6.4,0.2,9.5-0.1
			c0.9-0.1,1.7-1.5,2.5-2.3c-0.8-0.6-1.6-1.8-2.4-1.8c-6.5-0.2-13-0.2-19.6,0c-0.8,0-1.6,1.5-2.4,2.3c0.8,0.6,1.5,1.8,2.3,1.8
			C208.4,427.1,211.8,426.9,215.1,426.9z M362.4,467.4c3,0,6,0.2,8.9-0.1c1.1-0.1,2.1-1.4,3.1-2.2c-1.1-0.7-2.2-2-3.3-2
			c-6-0.2-11.9-0.2-17.9,0c-1.1,0-2.1,1.4-3.1,2.2c1.1,0.7,2.2,1.9,3.4,2C356.4,467.6,359.4,467.4,362.4,467.4z M214.3,431.2
			c-3,0-6-0.2-8.9,0.1c-0.9,0.1-1.8,1.3-2.7,2c0.8,0.8,1.7,2.2,2.5,2.2c5.9,0.2,11.9,0.3,17.8,0c1,0,2-1.6,3.1-2.4
			c-1-0.6-1.9-1.7-2.9-1.8C220.2,431.1,217.2,431.2,214.3,431.2z M362.6,458.7c3.2,0,6.3,0.1,9.4-0.1c0.8-0.1,1.6-1.1,2.4-1.8
			c-0.8-0.8-1.5-2.4-2.3-2.4c-6.1-0.2-12.2-0.2-18.3,0c-0.9,0-1.8,1.4-2.7,2.2c0.9,0.7,1.7,2,2.7,2
			C356.7,458.9,359.6,458.7,362.6,458.7z M363.2,446.1L363.2,446.1c-2.8,0-5.6-0.2-8.3,0.1c-1,0.1-1.9,1.1-2.8,1.8
			c0.8,0.8,1.5,2.4,2.3,2.4c5.9,0.2,11.9,0.2,17.8,0c0.8,0,1.5-1.6,2.3-2.4c-0.8-0.6-1.5-1.7-2.3-1.7
			C369.1,446,366.2,446.1,363.2,446.1z M213.6,439.5c-2.8,0-5.6-0.2-8.3,0.1c-0.9,0.1-1.7,1.4-2.6,2.2c0.9,0.7,1.7,2,2.6,2
			c5.7,0.2,11.5,0.2,17.2,0c0.9,0,1.7-1.3,2.5-2.1c-0.9-0.7-1.7-2-2.6-2.1C219.5,439.3,216.5,439.5,213.6,439.5z M213.2,452.6
			c3,0,6,0.1,8.9-0.1c0.7-0.1,1.9-1.3,1.9-2.1c0-0.7-1.2-2-1.9-2c-5.8-0.2-11.6-0.1-17.3,0c-0.7,0-1.9,1.3-1.9,2s1.2,2,1.9,2.1
			C207.6,452.7,210.4,452.6,213.2,452.6z M364.2,437.4L364.2,437.4c-2.8,0-5.6-0.2-8.4,0.1c-1,0.1-1.9,1.3-2.9,1.9
			c1,0.8,2,2.2,3,2.2c5.2,0.2,10.4,0.2,15.7,0c1,0,1.9-1.2,2.8-1.9c-1-0.8-1.9-2.2-3-2.3C369.1,437.1,366.6,437.4,364.2,437.4z
			 M274.9,427.7c-2.7-1.7-4.4-3.6-5.7-3.3c-1.4,0.2-3.4,2.6-3.3,3.9c0,1.2,2.4,3.3,3.8,3.3C271.1,431.7,272.5,429.6,274.9,427.7z
			 M294.3,444.7c-2.9-1.7-4.5-3.3-6-3.3c-1.3,0.1-3.6,2.5-3.3,3.3c0.4,1.5,2.2,3.6,3.6,3.7C289.9,448.6,291.5,446.7,294.3,444.7z
			 M313.1,461.8c-2.5-1.7-4.1-3.6-5.5-3.4s-3.6,2.4-3.5,3.6c0.1,1.4,2.2,3.6,3.6,3.7C309,465.8,310.6,463.7,313.1,461.8z"/>
		<path class="st4" d="M295.9,293.5c-3,3.8-6,7.5-9.4,11.7c-4.5-2-8.9-4-13.8-6.2c-2.2,4.4-4.4,8.8-6.7,13.4
			c-4.5-0.9-8.9-1.7-13.7-2.6c2.8,8.4,11.6,13.6,10.2,23.9c2.5,0,4.7,0,6.8,0c18.9,0,37.8,0.1,56.7-0.1c4-0.1,5.6,1.3,6.6,4.9
			c2.4,8.4,5,16.7,7.7,25.7c-11,1.9-22.4,0.6-31.2,9c-2.4-1.8-4.8-3.2-6.9-5c-8.7-7.7-9.4-11-4.9-21.6c1.2-2.7,2.2-5.5,2.4-9.5
			c-1.4,1-3.4,1.7-4,3c-2.2,4.5-4.2,9.2-5.8,14c-0.5,1.5-0.3,3.9,0.6,5.1c4.1,5.3,8.6,10.2,12.8,15.3c1.2,1.5,2.1,3.2,3.2,5
			c5.7-5.9,13.7-9.4,23.2-9.7c1.6,7.5,3.2,14.7,4.7,22c-19.4,5.3-35.8-3-49.4-25.9c-2.6,6-4.9,11.6-7.4,17.1
			c-3.5,7.8-10.9,12.3-19.3,11.7c-5.7-0.4-9.8-3.3-11.8-8.8c-1.7-4.7-0.8-9,2.7-12.3c4.2-4,9.2-3.2,14.1-1.2c0.5,0.2,1,0.4,1.5,0.7
			c-2.6-7-11.3-8.6-17.6-3.4c-4.4,3.6-6.3,8.5-5.3,14c0.7,4-0.8,5.7-4.1,7.2c-3,1.4-5.7,3.3-9.3,5.5c0-8.4,0-15.9,0-23.5
			c0-5.2,0-10.5,0-15.7c0-27.3,0-27.3-13.2-51.3c-0.2-0.3-0.6-0.4-0.7-0.5c-2.6,5.4-4.6,11.1-7.9,16c-4.8,7.3-5.8,14.9-5.7,23.4
			c0.4,20.6,0.1,41.1,0.2,61.7c0,2,1.1,3.9,1.7,5.9c0.7-0.2,1.5-0.3,2.2-0.5c0-2.2,0-4.4,0-6.6c0-20.6,0.1-41.1-0.1-61.7
			c-0.1-6.5,0.5-12.5,4.3-18.1c2.2-3.2,3.4-7,5.5-11.6c3,9.5,9.9,16.2,9.6,26.6c-0.6,21.9-0.2,43.8-0.2,65.6c0,2,0,4.1,0,6
			c21,5,21,5,21.2,10.1c-15.1-7.2-31.5-3.2-46.9-6.2c-5.2-1-10-3.6-15-5.5c0-38.8,0-77.6,0-116.7
			C221.1,293.5,258.5,293.5,295.9,293.5z M213.6,411.7c0.4,0.4,0.9,0.8,1.3,1.2c0.7-1.4,2-2.9,2-4.3c0.1-23.5,0.1-47.1,0-70.6
			c0-2.1-1-4.2-1.5-6.2c-0.6,0.1-1.3,0.2-1.9,0.3C213.6,358.5,213.6,385.1,213.6,411.7z M265.6,337.9c-4.2-0.4-10.8,11.8-13.3,24.6
			C256.5,362.3,262,352.2,265.6,337.9z M276.6,337.2c-7.6,5.3-8.2,14.5-12.3,22.1C269.8,359.4,269.8,359.4,276.6,337.2z M289,337.7
			c-4.5-0.1-9.8,9.2-10.6,18C282.6,355.3,283.8,353.2,289,337.7z"/>
		<path class="st4" d="M281.3,596.5c3.2-3.8,5.9-9.6,9.9-10.7c3.6-1,8.7,3.1,13.3,5.1c2.2-4.4,4.4-8.7,6.6-13.3
			c4.4,0.8,8.8,1.6,13.6,2.6c-4.1-7.7-8-15-11.8-22.3c0.5-0.4,0.9-0.8,1.4-1.3c-1.6-0.1-3.2-0.3-4.8-0.3c-19.3,0-38.5-0.2-57.8,0.1
			c-4.4,0.1-6.2-1.4-7.3-5.5c-2.2-8.3-4.9-16.4-7.6-25.2c5.6-0.7,10.8-0.9,15.8-2c4.5-1,8.6-3.3,13-4.7c1.7-0.5,4.6-0.8,5.6,0.2
			c4,3.8,7.8,8,11.1,12.4c0.9,1.2,0.6,3.9,0,5.6c-1.7,5.1-3.9,10-5.9,15c0.4,0.4,0.8,0.8,1.2,1.2c1.3-1,2.9-1.8,3.9-3.1
			c0.9-1.1,1.3-2.7,1.8-4.1c1.5-4.5,5.3-10.1,3.9-13.4c-2.6-6.2-8.3-11.2-12.7-16.7c-1.4-1.8-2.6-3.7-3.9-5.5
			c-5.7,6.2-13.9,9.5-23.2,9.7c-1.7-7.6-3.2-14.8-4.8-22.1c19.5-5.1,35.6,3.1,49.5,25.8c2.6-5.8,4.9-11.5,7.5-17
			c3.8-8.3,12-12.9,20.4-11.4c5.4,0.9,9.1,3.9,10.8,9.3c1.4,4.6,0.4,8.7-3,11.7c-4.9,4.4-10.3,3-15.7,0.5c3,7.1,11.4,8.7,17.7,3.4
			c4.5-3.8,6.3-8.8,5.3-14.6c-0.5-3.1,0.1-4.7,3.1-6.1c3.3-1.5,6.4-3.7,10.3-6c0,7,0,13.3,0,19.6c0,5.4,0,10.8,0,16.3
			c0,28.6,0,28.6,13.6,55c4.4-8.5,8.9-16.9,13.1-25.4c0.8-1.6,0.6-3.6,0.7-5.5c0-23.6,0-47.1-0.1-70.7c0-1.8-1.1-3.6-1.7-5.4
			c-0.7,0.2-1.5,0.3-2.2,0.5c0,2,0,4,0,6c0,20.9-0.2,41.9,0.1,62.8c0.1,6.4-0.7,12.1-4.2,17.5c-2.1,3.2-3.4,7-5.6,11.7
			c-2.9-9.4-9.8-15.9-9.6-26.1c0.5-22.4,0.1-44.9,0.1-67.3c0-1.7,0-3.3,0-4.8c-7.8-2.5-16.6-1-21.6-9.1c15.8,6.2,32.6,2.4,48.6,5.4
			c4.7,0.9,9.1,2.9,13.7,4.3c0,39.2,0,78.4,0,117.8C356.1,596.5,318.7,596.5,281.3,596.5z M361.5,558.3c0.9-0.1,1.8-0.1,2.7-0.2
			c0.2-26.8,0-53.5-1-80.6c-1.7,1.4-2.9,3-3,4.7c-0.1,23.4-0.1,46.7,0,70.1C360.3,554.3,361.1,556.3,361.5,558.3z M311.4,552.4
			c4.4-0.3,10.5-11.8,13.5-24.8C320.7,527.6,315.8,536.4,311.4,552.4z M300.6,552.8c7.9-5,7.8-14.7,12.3-22
			C308,530.4,304.3,536.7,300.6,552.8z M288.3,552.2c4.4,0.4,8.7-6.9,10.6-17.7C294.6,534.5,292.6,537.8,288.3,552.2z"/>
		<path class="st4" d="M183.6,416.9c5.1,1.7,10.2,3.3,16.5,5.4c0,10.4,0,21.1-0.1,31.9c0,0.8-0.8,1.6-1.3,2.3
			c-5.9,7.9-5.3,16.2,1.6,21.1c6.6,4.7,14.6,2.7,20.1-5c0.2-0.3,0.5-0.5,1.5-1.6c6,6.6,12,13.1,18.7,20.4
			c5.7-12.1,10.7-22.8,15.9-34c15.7,12.9,31,25.5,46.2,38c-2.4,2.9-2.5,3-5.7,0.3c-11.3-9.2-22.5-18.5-33.8-27.8
			c-1.6-1.3-3.2-2.5-5.4-4.3c-3.4,7.2-6.6,14-9.7,20.9c-2.3,5.1-4.1,10.7-11.2,9.7c1.8,7.2,3.4,14.1,5.2,20.9
			c1.2,4.7-0.4,6.6-5.2,6.3c-1.6-0.1-3.2,0.4-5.5,0.8c2.8,9.2,5.2,18,8.2,26.5c3.6,10.4,3.9,20.4-1.1,30.4c-1.5,2.9-2.4,6.1-4,10.3
			c5.3-2.1,9.3-3.7,13.6-5.4c3,3.9,6,7.7,9.1,11.8c4.1-3,8-5.9,12.4-9.1c3.6,3.4,7.1,6.6,10.5,9.8c-32.1,0-64.2,0-96.5,0
			C183.6,536.6,183.6,476.8,183.6,416.9z"/>
		<path class="st4" d="M393.5,473.1c-5.1-1.7-10.2-3.3-16.5-5.4c0-10.3,0-21.1,0.1-31.8c0-0.8,0.8-1.6,1.3-2.3
			c5.9-8.1,5.3-16.2-1.5-21.1c-6.9-4.9-15-2.7-21.3,6.3c-6.1-6.5-12.1-13-19-20.3c-5.7,12.2-10.8,22.9-16.1,34.2
			c-15.7-13-31-25.6-46.4-38.2c0.2-0.6,0.4-1.3,0.7-1.9c1.7,0.5,3.7,0.6,5,1.6c11.2,9,22.3,18.2,33.4,27.3c1.9,1.5,3.8,3,6.1,4.7
			c3.4-7.2,6.8-14,9.8-21c2.3-5.3,4.3-10.5,11-9.6c-2.2-8.8-4.2-17.2-6.4-26.2c4.6-0.6,8-1.1,12-1.6c-2.8-9.1-5.1-17.8-8.1-26.1
			c-3.9-10.7-4-21.1,1.2-31.4c1.4-2.7,2.2-5.7,3.8-9.8c-5.3,2.1-9.3,3.7-13.6,5.5c-3-3.9-6-7.7-9.2-11.8c-4.1,3-8,5.9-12.4,9.1
			c-3.6-3.4-7.1-6.6-10.5-9.8c32.2,0,64.3,0,96.5,0C393.5,353.4,393.5,413.2,393.5,473.1z"/>
		<path class="st4" d="M283.6,380.5c10.9,8.7,21.9,17.4,32.8,26.1c4.5-1.7,2.2-10.4,10.3-9.3c-2.7,5.7-5.1,10.9-7.9,16.8
			c-2.7-2.1-5.1-4-7.5-5.9c-9-7.2-18.1-14.4-27-21.8c-1.3-1.1-1.8-3.3-2.6-4.9C282.2,381.2,282.9,380.8,283.6,380.5z"/>
		<path class="st4" d="M260.5,483.3c-3.9,2.5-2.4,10-10.2,9.6c2.8-5.9,5.2-11,7.9-16.7c1.5,1,3,1.7,4.2,2.7
			c10.3,8.3,20.7,16.6,30.9,25c1.2,1,1.5,3.1,2.2,4.6c-0.6,0.4-1.2,0.8-1.7,1.2C282.8,500.9,271.6,492,260.5,483.3z"/>
		<path class="st4" d="M215.1,426.9c-3.4,0-6.7,0.1-10.1-0.1c-0.8-0.1-1.6-1.2-2.3-1.8c0.8-0.8,1.6-2.3,2.4-2.3
			c6.5-0.2,13-0.2,19.6,0c0.8,0,1.6,1.2,2.4,1.8c-0.8,0.8-1.6,2.2-2.5,2.3C221.5,427.1,218.3,427,215.1,426.9
			C215.1,427,215.1,426.9,215.1,426.9z"/>
		<path class="st4" d="M362.4,467.4c-3,0-6,0.2-8.9-0.1c-1.2-0.1-2.2-1.3-3.4-2c1-0.8,2.1-2.1,3.1-2.2c6-0.2,11.9-0.2,17.9,0
			c1.1,0,2.2,1.3,3.3,2c-1,0.8-2,2.1-3.1,2.2C368.4,467.6,365.4,467.4,362.4,467.4z"/>
		<path class="st4" d="M214.3,431.2c3,0,6-0.2,8.9,0.1c1,0.1,2,1.2,2.9,1.8c-1,0.8-2,2.4-3.1,2.4c-5.9,0.2-11.9,0.2-17.8,0
			c-0.9,0-1.7-1.5-2.5-2.2c0.9-0.7,1.7-1.9,2.7-2C208.3,431.1,211.3,431.2,214.3,431.2z"/>
		<path class="st4" d="M362.6,458.7c-3,0-5.9,0.2-8.9-0.1c-0.9-0.1-1.8-1.3-2.7-2c0.9-0.8,1.8-2.1,2.7-2.2c6.1-0.2,12.2-0.2,18.3,0
			c0.8,0,1.6,1.6,2.3,2.4c-0.8,0.6-1.5,1.7-2.4,1.8C368.9,458.9,365.7,458.7,362.6,458.7z"/>
		<path class="st4" d="M363.2,446.1c3,0,5.9-0.1,8.9,0.1c0.8,0.1,1.6,1.1,2.3,1.7c-0.8,0.8-1.5,2.4-2.3,2.4
			c-5.9,0.2-11.9,0.2-17.8,0c-0.8,0-1.5-1.6-2.3-2.4c0.9-0.6,1.8-1.7,2.8-1.8C357.6,445.9,360.4,446.1,363.2,446.1L363.2,446.1z"/>
		<path class="st4" d="M213.6,439.5c3,0,5.9-0.2,8.9,0.1c0.9,0.1,1.7,1.4,2.6,2.1c-0.8,0.7-1.7,2-2.5,2.1c-5.7,0.2-11.5,0.2-17.2,0
			c-0.9,0-1.8-1.3-2.6-2c0.9-0.8,1.6-2.1,2.6-2.2C208,439.3,210.8,439.5,213.6,439.5z"/>
		<path class="st4" d="M213.2,452.6c-2.8,0-5.6,0.1-8.4-0.1c-0.7-0.1-1.9-1.3-1.9-2.1c0-0.7,1.2-2,1.9-2c5.8-0.2,11.6-0.2,17.3,0
			c0.7,0,1.9,1.3,1.9,2s-1.2,2-1.9,2.1C219.1,452.7,216.1,452.6,213.2,452.6z"/>
		<path class="st4" d="M364.2,437.4c2.4,0,4.9-0.2,7.3,0.1c1.1,0.2,2,1.5,3,2.3c-0.9,0.7-1.9,1.8-2.8,1.9c-5.2,0.2-10.4,0.2-15.7,0
			c-1,0-2-1.5-3-2.2c0.9-0.7,1.8-1.8,2.9-1.9C358.6,437.2,361.4,437.4,364.2,437.4L364.2,437.4z"/>
		<path class="st4" d="M274.9,427.7c-2.4,1.9-3.9,4-5.2,3.9c-1.4-0.1-3.8-2.1-3.8-3.3c0-1.4,1.9-3.7,3.3-3.9
			C270.6,424.1,272.3,426,274.9,427.7z"/>
		<path class="st4" d="M294.3,444.7c-2.8,2-4.4,3.9-5.7,3.8c-1.4-0.2-3.2-2.2-3.6-3.7c-0.2-0.8,2.1-3.2,3.3-3.3
			C289.8,441.4,291.4,443,294.3,444.7z"/>
		<path class="st4" d="M313.1,461.8c-2.5,1.9-4,4-5.4,3.9s-3.5-2.3-3.6-3.7c-0.1-1.2,2.1-3.5,3.5-3.6
			C308.9,458.2,310.5,460.1,313.1,461.8z"/>
		<path class="st3" d="M213.6,411.7c0-26.6,0-53.2,0-79.8c0.6-0.1,1.3-0.2,1.9-0.3c0.5,2.1,1.5,4.2,1.5,6.2
			c0.1,23.5,0.1,47.1,0,70.6c0,1.5-1.3,2.9-2,4.3C214.4,412.4,214,412.1,213.6,411.7z"/>
		<path class="st3" d="M265.6,337.9c-3.6,14.3-9.1,24.4-13.3,24.6C254.8,349.7,261.4,337.5,265.6,337.9z"/>
		<path class="st3" d="M276.6,337.2c-6.8,22.2-6.8,22.2-12.3,22.1C268.4,351.7,269,342.5,276.6,337.2z"/>
		<path class="st3" d="M289,337.7c-5.2,15.6-6.4,17.6-10.6,18C279.2,346.8,284.5,337.6,289,337.7z"/>
		<path class="st3" d="M361.5,558.3c-0.4-2-1.2-4-1.2-6c-0.1-23.4-0.1-46.7,0-70.1c0-1.7,1.2-3.4,3-4.7c1.1,27.1,1.3,53.9,1,80.6
			C363.3,558.2,362.4,558.3,361.5,558.3z"/>
		<path class="st3" d="M311.4,552.4c4.4-16,9.2-24.8,13.5-24.8C322,540.6,315.9,552.1,311.4,552.4z"/>
		<path class="st3" d="M300.6,552.8c3.7-16.1,7.4-22.4,12.3-22C308.3,538.1,308.4,547.8,300.6,552.8z"/>
		<path class="st3" d="M288.3,552.2c4.4-14.4,6.3-17.7,10.6-17.7C297,545.3,292.6,552.6,288.3,552.2z"/>
	</g>
</g>
</svg>
